<?xml version="1.0" encoding="UTF-8" standalone="no"?>
<!DOCTYPE svg PUBLIC "-//W3C//DTD SVG 1.1//EN"
 "http://www.w3.org/Graphics/SVG/1.1/DTD/svg11.dtd">
<!-- Generated by graphviz version 12.2.0 (20241103.1931)
 -->
<!-- Title: Tree Pages: 1 -->
<svg width="667pt" height="325pt"
 viewBox="0.00 0.00 666.50 324.50" xmlns="http://www.w3.org/2000/svg" xmlns:xlink="http://www.w3.org/1999/xlink">
<g id="graph0" class="graph" transform="scale(1 1) rotate(0) translate(4 320.5)">
<title>Tree</title>
<polygon fill="white" stroke="none" points="-4,4 -4,-320.5 662.5,-320.5 662.5,4 -4,4"/>
<!-- 0 -->
<g id="node1" class="node">
<title>0</title>
<path fill="#ddeefa" stroke="black" d="M410.5,-316.5C410.5,-316.5 258,-316.5 258,-316.5 252,-316.5 246,-310.5 246,-304.5 246,-304.5 246,-241.75 246,-241.75 246,-235.75 252,-229.75 258,-229.75 258,-229.75 410.5,-229.75 410.5,-229.75 416.5,-229.75 422.5,-235.75 422.5,-241.75 422.5,-241.75 422.5,-304.5 422.5,-304.5 422.5,-310.5 416.5,-316.5 410.5,-316.5"/>
<text text-anchor="start" x="254" y="-299.2" font-family="Helvetica,sans-Serif" font-size="14.00">Inflight entertainment ≤ 3.5</text>
<text text-anchor="start" x="287" y="-283.45" font-family="Helvetica,sans-Serif" font-size="14.00">entropy = 0.994</text>
<text text-anchor="start" x="278.38" y="-267.7" font-family="Helvetica,sans-Serif" font-size="14.00">samples = 103589</text>
<text text-anchor="start" x="254" y="-251.95" font-family="Helvetica,sans-Serif" font-size="14.00">value = [46884.0, 56705.0]</text>
<text text-anchor="start" x="286.25" y="-236.2" font-family="Helvetica,sans-Serif" font-size="14.00">class = satisfied</text>
</g>
<!-- 1 -->
<g id="node2" class="node">
<title>1</title>
<path fill="#eca46f" stroke="black" d="M304.25,-193.75C304.25,-193.75 174.25,-193.75 174.25,-193.75 168.25,-193.75 162.25,-187.75 162.25,-181.75 162.25,-181.75 162.25,-119 162.25,-119 162.25,-113 168.25,-107 174.25,-107 174.25,-107 304.25,-107 304.25,-107 310.25,-107 316.25,-113 316.25,-119 316.25,-119 316.25,-181.75 316.25,-181.75 316.25,-187.75 310.25,-193.75 304.25,-193.75"/>
<text text-anchor="start" x="183.75" y="-176.45" font-family="Helvetica,sans-Serif" font-size="14.00">Seat comfort ≤ 3.5</text>
<text text-anchor="start" x="192" y="-160.7" font-family="Helvetica,sans-Serif" font-size="14.00">entropy = 0.752</text>
<text text-anchor="start" x="187.12" y="-144.95" font-family="Helvetica,sans-Serif" font-size="14.00">samples = 46407</text>
<text text-anchor="start" x="170.25" y="-129.2" font-family="Helvetica,sans-Serif" font-size="14.00">value = [36405, 10002]</text>
<text text-anchor="start" x="182.62" y="-113.45" font-family="Helvetica,sans-Serif" font-size="14.00">class = dissatisfied</text>
</g>
<!-- 0&#45;&gt;1 -->
<g id="edge1" class="edge">
<title>0&#45;&gt;1</title>
<path fill="none" stroke="black" d="M300.76,-229.55C293.95,-220.9 286.71,-211.7 279.69,-202.78"/>
<polygon fill="black" stroke="black" points="282.63,-200.85 273.7,-195.16 277.13,-205.18 282.63,-200.85"/>
<text text-anchor="middle" x="269.8" y="-213.37" font-family="Helvetica,sans-Serif" font-size="14.00">True</text>
</g>
<!-- 4 -->
<g id="node5" class="node">
<title>4</title>
<path fill="#65b3eb" stroke="black" d="M512.25,-193.75C512.25,-193.75 346.25,-193.75 346.25,-193.75 340.25,-193.75 334.25,-187.75 334.25,-181.75 334.25,-181.75 334.25,-119 334.25,-119 334.25,-113 340.25,-107 346.25,-107 346.25,-107 512.25,-107 512.25,-107 518.25,-107 524.25,-113 524.25,-119 524.25,-119 524.25,-181.75 524.25,-181.75 524.25,-187.75 518.25,-193.75 512.25,-193.75"/>
<text text-anchor="start" x="342.25" y="-176.45" font-family="Helvetica,sans-Serif" font-size="14.00">Ease of Online booking ≤ 3.5</text>
<text text-anchor="start" x="382" y="-160.7" font-family="Helvetica,sans-Serif" font-size="14.00">entropy = 0.687</text>
<text text-anchor="start" x="377.12" y="-144.95" font-family="Helvetica,sans-Serif" font-size="14.00">samples = 57182</text>
<text text-anchor="start" x="360.25" y="-129.2" font-family="Helvetica,sans-Serif" font-size="14.00">value = [10479, 46703]</text>
<text text-anchor="start" x="381.25" y="-113.45" font-family="Helvetica,sans-Serif" font-size="14.00">class = satisfied</text>
</g>
<!-- 0&#45;&gt;4 -->
<g id="edge4" class="edge">
<title>0&#45;&gt;4</title>
<path fill="none" stroke="black" d="M367.74,-229.55C374.55,-220.9 381.79,-211.7 388.81,-202.78"/>
<polygon fill="black" stroke="black" points="391.37,-205.18 394.8,-195.16 385.87,-200.85 391.37,-205.18"/>
<text text-anchor="middle" x="398.7" y="-213.37" font-family="Helvetica,sans-Serif" font-size="14.00">False</text>
</g>
<!-- 2 -->
<g id="node3" class="node">
<title>2</title>
<path fill="#e9965b" stroke="black" d="M134.5,-71C134.5,-71 12,-71 12,-71 6,-71 0,-65 0,-59 0,-59 0,-12 0,-12 0,-6 6,0 12,0 12,0 134.5,0 134.5,0 140.5,0 146.5,-6 146.5,-12 146.5,-12 146.5,-59 146.5,-59 146.5,-65 140.5,-71 134.5,-71"/>
<text text-anchor="start" x="26" y="-53.7" font-family="Helvetica,sans-Serif" font-size="14.00">entropy = 0.598</text>
<text text-anchor="start" x="21.12" y="-37.95" font-family="Helvetica,sans-Serif" font-size="14.00">samples = 40637</text>
<text text-anchor="start" x="8" y="-22.2" font-family="Helvetica,sans-Serif" font-size="14.00">value = [34727, 5910]</text>
<text text-anchor="start" x="16.62" y="-6.45" font-family="Helvetica,sans-Serif" font-size="14.00">class = dissatisfied</text>
</g>
<!-- 1&#45;&gt;2 -->
<g id="edge2" class="edge">
<title>1&#45;&gt;2</title>
<path fill="none" stroke="black" d="M176.49,-106.7C162.54,-97.22 147.78,-87.18 133.92,-77.75"/>
<polygon fill="black" stroke="black" points="135.97,-74.92 125.73,-72.19 132.04,-80.7 135.97,-74.92"/>
</g>
<!-- 3 -->
<g id="node4" class="node">
<title>3</title>
<path fill="#8ac5f0" stroke="black" d="M314,-71C314,-71 176.5,-71 176.5,-71 170.5,-71 164.5,-65 164.5,-59 164.5,-59 164.5,-12 164.5,-12 164.5,-6 170.5,0 176.5,0 176.5,0 314,0 314,0 320,0 326,-6 326,-12 326,-12 326,-59 326,-59 326,-65 320,-71 314,-71"/>
<text text-anchor="start" x="201.75" y="-53.7" font-family="Helvetica,sans-Serif" font-size="14.00">entropy = 0.87</text>
<text text-anchor="start" x="196.88" y="-37.95" font-family="Helvetica,sans-Serif" font-size="14.00">samples = 5770</text>
<text text-anchor="start" x="172.5" y="-22.2" font-family="Helvetica,sans-Serif" font-size="14.00">value = [1678.0, 4092.0]</text>
<text text-anchor="start" x="197.25" y="-6.45" font-family="Helvetica,sans-Serif" font-size="14.00">class = satisfied</text>
</g>
<!-- 1&#45;&gt;3 -->
<g id="edge3" class="edge">
<title>1&#45;&gt;3</title>
<path fill="none" stroke="black" d="M241.52,-106.7C241.94,-98.82 242.38,-90.55 242.8,-82.57"/>
<polygon fill="black" stroke="black" points="246.29,-82.84 243.33,-72.67 239.3,-82.47 246.29,-82.84"/>
</g>
<!-- 5 -->
<g id="node6" class="node">
<title>5</title>
<path fill="#c4e2f7" stroke="black" d="M481.75,-71C481.75,-71 366.75,-71 366.75,-71 360.75,-71 354.75,-65 354.75,-59 354.75,-59 354.75,-12 354.75,-12 354.75,-6 360.75,0 366.75,0 366.75,0 481.75,0 481.75,0 487.75,0 493.75,-6 493.75,-12 493.75,-12 493.75,-59 493.75,-59 493.75,-65 487.75,-71 481.75,-71"/>
<text text-anchor="start" x="377" y="-53.7" font-family="Helvetica,sans-Serif" font-size="14.00">entropy = 0.978</text>
<text text-anchor="start" x="372.12" y="-37.95" font-family="Helvetica,sans-Serif" font-size="14.00">samples = 15543</text>
<text text-anchor="start" x="362.75" y="-22.2" font-family="Helvetica,sans-Serif" font-size="14.00">value = [6405, 9138]</text>
<text text-anchor="start" x="376.25" y="-6.45" font-family="Helvetica,sans-Serif" font-size="14.00">class = satisfied</text>
</g>
<!-- 4&#45;&gt;5 -->
<g id="edge5" class="edge">
<title>4&#45;&gt;5</title>
<path fill="none" stroke="black" d="M427.36,-106.7C427.01,-98.82 426.64,-90.55 426.29,-82.57"/>
<polygon fill="black" stroke="black" points="429.79,-82.5 425.85,-72.67 422.8,-82.81 429.79,-82.5"/>
</g>
<!-- 6 -->
<g id="node7" class="node">
<title>6</title>
<path fill="#4ea8e8" stroke="black" d="M646.5,-71C646.5,-71 524,-71 524,-71 518,-71 512,-65 512,-59 512,-59 512,-12 512,-12 512,-6 518,0 524,0 524,0 646.5,0 646.5,0 652.5,0 658.5,-6 658.5,-12 658.5,-12 658.5,-59 658.5,-59 658.5,-65 652.5,-71 646.5,-71"/>
<text text-anchor="start" x="538" y="-53.7" font-family="Helvetica,sans-Serif" font-size="14.00">entropy = 0.462</text>
<text text-anchor="start" x="533.12" y="-37.95" font-family="Helvetica,sans-Serif" font-size="14.00">samples = 41639</text>
<text text-anchor="start" x="520" y="-22.2" font-family="Helvetica,sans-Serif" font-size="14.00">value = [4074, 37565]</text>
<text text-anchor="start" x="537.25" y="-6.45" font-family="Helvetica,sans-Serif" font-size="14.00">class = satisfied</text>
</g>
<!-- 4&#45;&gt;6 -->
<g id="edge6" class="edge">
<title>4&#45;&gt;6</title>
<path fill="none" stroke="black" d="M488.23,-106.7C501.28,-97.26 515.09,-87.27 528.07,-77.87"/>
<polygon fill="black" stroke="black" points="530.08,-80.74 536.13,-72.04 525.97,-75.07 530.08,-80.74"/>
</g>
</g>
</svg>
