<?xml version="1.0" encoding="UTF-8" standalone="no"?>
<!DOCTYPE svg PUBLIC "-//W3C//DTD SVG 1.1//EN"
 "http://www.w3.org/Graphics/SVG/1.1/DTD/svg11.dtd">
<!-- Generated by graphviz version 12.2.0 (20241103.1931)
 -->
<!-- Title: Tree Pages: 1 -->
<svg width="1304pt" height="693pt"
 viewBox="0.00 0.00 1304.38 692.75" xmlns="http://www.w3.org/2000/svg" xmlns:xlink="http://www.w3.org/1999/xlink">
<g id="graph0" class="graph" transform="scale(1 1) rotate(0) translate(4 688.75)">
<title>Tree</title>
<polygon fill="white" stroke="none" points="-4,4 -4,-688.75 1300.38,-688.75 1300.38,4 -4,4"/>
<!-- 0 -->
<g id="node1" class="node">
<title>0</title>
<path fill="#f5ccaf" stroke="black" d="M840.88,-684.75C840.88,-684.75 668.12,-684.75 668.12,-684.75 662.12,-684.75 656.12,-678.75 656.12,-672.75 656.12,-672.75 656.12,-610 656.12,-610 656.12,-604 662.12,-598 668.12,-598 668.12,-598 840.88,-598 840.88,-598 846.88,-598 852.88,-604 852.88,-610 852.88,-610 852.88,-672.75 852.88,-672.75 852.88,-678.75 846.88,-684.75 840.88,-684.75"/>
<text text-anchor="start" x="664.12" y="-667.45" font-family="Helvetica,sans-Serif" font-size="14.00">concave points_mean ≤ 0.049</text>
<text text-anchor="start" x="707.25" y="-651.7" font-family="Helvetica,sans-Serif" font-size="14.00">entropy = 0.953</text>
<text text-anchor="start" x="709.88" y="-635.95" font-family="Helvetica,sans-Serif" font-size="14.00">samples = 455</text>
<text text-anchor="start" x="700.5" y="-620.2" font-family="Helvetica,sans-Serif" font-size="14.00">value = [285, 170]</text>
<text text-anchor="start" x="710.25" y="-604.45" font-family="Helvetica,sans-Serif" font-size="14.00">class = Benign</text>
</g>
<!-- 1 -->
<g id="node2" class="node">
<title>1</title>
<path fill="#e68844" stroke="black" d="M653.12,-562C653.12,-562 535.88,-562 535.88,-562 529.88,-562 523.88,-556 523.88,-550 523.88,-550 523.88,-487.25 523.88,-487.25 523.88,-481.25 529.88,-475.25 535.88,-475.25 535.88,-475.25 653.12,-475.25 653.12,-475.25 659.12,-475.25 665.12,-481.25 665.12,-487.25 665.12,-487.25 665.12,-550 665.12,-550 665.12,-556 659.12,-562 653.12,-562"/>
<text text-anchor="start" x="531.88" y="-544.7" font-family="Helvetica,sans-Serif" font-size="14.00">radius_worst ≤ 16.83</text>
<text text-anchor="start" x="547.25" y="-528.95" font-family="Helvetica,sans-Serif" font-size="14.00">entropy = 0.301</text>
<text text-anchor="start" x="549.88" y="-513.2" font-family="Helvetica,sans-Serif" font-size="14.00">samples = 280</text>
<text text-anchor="start" x="544.25" y="-497.45" font-family="Helvetica,sans-Serif" font-size="14.00">value = [265, 15]</text>
<text text-anchor="start" x="550.25" y="-481.7" font-family="Helvetica,sans-Serif" font-size="14.00">class = Benign</text>
</g>
<!-- 0&#45;&gt;1 -->
<g id="edge1" class="edge">
<title>0&#45;&gt;1</title>
<path fill="none" stroke="black" d="M698.09,-597.8C685.85,-588.57 672.81,-578.73 660.25,-569.25"/>
<polygon fill="black" stroke="black" points="662.51,-566.57 652.42,-563.34 658.29,-572.15 662.51,-566.57"/>
<text text-anchor="middle" x="654.67" y="-581.76" font-family="Helvetica,sans-Serif" font-size="14.00">True</text>
</g>
<!-- 16 -->
<g id="node17" class="node">
<title>16</title>
<path fill="#53aae8" stroke="black" d="M914,-562C914,-562 769,-562 769,-562 763,-562 757,-556 757,-550 757,-550 757,-487.25 757,-487.25 757,-481.25 763,-475.25 769,-475.25 769,-475.25 914,-475.25 914,-475.25 920,-475.25 926,-481.25 926,-487.25 926,-487.25 926,-550 926,-550 926,-556 920,-562 914,-562"/>
<text text-anchor="start" x="765" y="-544.7" font-family="Helvetica,sans-Serif" font-size="14.00">perimeter_worst ≤ 114.65</text>
<text text-anchor="start" x="794.25" y="-528.95" font-family="Helvetica,sans-Serif" font-size="14.00">entropy = 0.513</text>
<text text-anchor="start" x="796.88" y="-513.2" font-family="Helvetica,sans-Serif" font-size="14.00">samples = 175</text>
<text text-anchor="start" x="791.25" y="-497.45" font-family="Helvetica,sans-Serif" font-size="14.00">value = [20, 155]</text>
<text text-anchor="start" x="788.62" y="-481.7" font-family="Helvetica,sans-Serif" font-size="14.00">class = Malignant</text>
</g>
<!-- 0&#45;&gt;16 -->
<g id="edge16" class="edge">
<title>0&#45;&gt;16</title>
<path fill="none" stroke="black" d="M785.17,-597.8C791.35,-589.24 797.9,-580.14 804.26,-571.31"/>
<polygon fill="black" stroke="black" points="806.92,-573.61 809.93,-563.45 801.24,-569.51 806.92,-573.61"/>
<text text-anchor="middle" x="814.82" y="-581.47" font-family="Helvetica,sans-Serif" font-size="14.00">False</text>
</g>
<!-- 2 -->
<g id="node3" class="node">
<title>2</title>
<path fill="#e5833c" stroke="black" d="M410.38,-439.25C410.38,-439.25 324.62,-439.25 324.62,-439.25 318.62,-439.25 312.62,-433.25 312.62,-427.25 312.62,-427.25 312.62,-364.5 312.62,-364.5 312.62,-358.5 318.62,-352.5 324.62,-352.5 324.62,-352.5 410.38,-352.5 410.38,-352.5 416.38,-352.5 422.38,-358.5 422.38,-364.5 422.38,-364.5 422.38,-427.25 422.38,-427.25 422.38,-433.25 416.38,-439.25 410.38,-439.25"/>
<text text-anchor="start" x="322.5" y="-421.95" font-family="Helvetica,sans-Serif" font-size="14.00">area_se ≤ 48.7</text>
<text text-anchor="start" x="320.62" y="-406.2" font-family="Helvetica,sans-Serif" font-size="14.00">entropy = 0.114</text>
<text text-anchor="start" x="322.88" y="-390.45" font-family="Helvetica,sans-Serif" font-size="14.00">samples = 262</text>
<text text-anchor="start" x="321" y="-374.7" font-family="Helvetica,sans-Serif" font-size="14.00">value = [258, 4]</text>
<text text-anchor="start" x="323.25" y="-358.95" font-family="Helvetica,sans-Serif" font-size="14.00">class = Benign</text>
</g>
<!-- 1&#45;&gt;2 -->
<g id="edge2" class="edge">
<title>1&#45;&gt;2</title>
<path fill="none" stroke="black" d="M523.61,-479.92C494.52,-464.44 461.06,-446.64 432.59,-431.5"/>
<polygon fill="black" stroke="black" points="434.56,-428.58 424.09,-426.98 431.27,-434.76 434.56,-428.58"/>
</g>
<!-- 11 -->
<g id="node12" class="node">
<title>11</title>
<path fill="#b7dbf6" stroke="black" d="M656.5,-439.25C656.5,-439.25 532.5,-439.25 532.5,-439.25 526.5,-439.25 520.5,-433.25 520.5,-427.25 520.5,-427.25 520.5,-364.5 520.5,-364.5 520.5,-358.5 526.5,-352.5 532.5,-352.5 532.5,-352.5 656.5,-352.5 656.5,-352.5 662.5,-352.5 668.5,-358.5 668.5,-364.5 668.5,-364.5 668.5,-427.25 668.5,-427.25 668.5,-433.25 662.5,-439.25 656.5,-439.25"/>
<text text-anchor="start" x="528.5" y="-421.95" font-family="Helvetica,sans-Serif" font-size="14.00">texture_mean ≤ 16.19</text>
<text text-anchor="start" x="547.25" y="-406.2" font-family="Helvetica,sans-Serif" font-size="14.00">entropy = 0.964</text>
<text text-anchor="start" x="553.62" y="-390.45" font-family="Helvetica,sans-Serif" font-size="14.00">samples = 18</text>
<text text-anchor="start" x="552.12" y="-374.7" font-family="Helvetica,sans-Serif" font-size="14.00">value = [7, 11]</text>
<text text-anchor="start" x="541.62" y="-358.95" font-family="Helvetica,sans-Serif" font-size="14.00">class = Malignant</text>
</g>
<!-- 1&#45;&gt;11 -->
<g id="edge11" class="edge">
<title>1&#45;&gt;11</title>
<path fill="none" stroke="black" d="M594.5,-475.05C594.5,-467.21 594.5,-458.92 594.5,-450.79"/>
<polygon fill="black" stroke="black" points="598,-450.98 594.5,-440.98 591,-450.98 598,-450.98"/>
</g>
<!-- 3 -->
<g id="node4" class="node">
<title>3</title>
<path fill="#e5823b" stroke="black" d="M254,-316.5C254,-316.5 139,-316.5 139,-316.5 133,-316.5 127,-310.5 127,-304.5 127,-304.5 127,-241.75 127,-241.75 127,-235.75 133,-229.75 139,-229.75 139,-229.75 254,-229.75 254,-229.75 260,-229.75 266,-235.75 266,-241.75 266,-241.75 266,-304.5 266,-304.5 266,-310.5 260,-316.5 254,-316.5"/>
<text text-anchor="start" x="135" y="-299.2" font-family="Helvetica,sans-Serif" font-size="14.00">area_worst ≤ 766.45</text>
<text text-anchor="start" x="149.25" y="-283.45" font-family="Helvetica,sans-Serif" font-size="14.00">entropy = 0.065</text>
<text text-anchor="start" x="151.88" y="-267.7" font-family="Helvetica,sans-Serif" font-size="14.00">samples = 259</text>
<text text-anchor="start" x="150" y="-251.95" font-family="Helvetica,sans-Serif" font-size="14.00">value = [257, 2]</text>
<text text-anchor="start" x="152.25" y="-236.2" font-family="Helvetica,sans-Serif" font-size="14.00">class = Benign</text>
</g>
<!-- 2&#45;&gt;3 -->
<g id="edge3" class="edge">
<title>2&#45;&gt;3</title>
<path fill="none" stroke="black" d="M312.45,-356C297.68,-345.57 281.51,-334.16 266.06,-323.25"/>
<polygon fill="black" stroke="black" points="268.49,-320.68 258.3,-317.77 264.45,-326.4 268.49,-320.68"/>
</g>
<!-- 8 -->
<g id="node9" class="node">
<title>8</title>
<path fill="#9ccef2" stroke="black" d="M438.88,-316.5C438.88,-316.5 296.12,-316.5 296.12,-316.5 290.12,-316.5 284.12,-310.5 284.12,-304.5 284.12,-304.5 284.12,-241.75 284.12,-241.75 284.12,-235.75 290.12,-229.75 296.12,-229.75 296.12,-229.75 438.88,-229.75 438.88,-229.75 444.88,-229.75 450.88,-235.75 450.88,-241.75 450.88,-241.75 450.88,-304.5 450.88,-304.5 450.88,-310.5 444.88,-316.5 438.88,-316.5"/>
<text text-anchor="start" x="292.12" y="-299.2" font-family="Helvetica,sans-Serif" font-size="14.00">compactness_se ≤ 0.014</text>
<text text-anchor="start" x="320.25" y="-283.45" font-family="Helvetica,sans-Serif" font-size="14.00">entropy = 0.918</text>
<text text-anchor="start" x="330.38" y="-267.7" font-family="Helvetica,sans-Serif" font-size="14.00">samples = 3</text>
<text text-anchor="start" x="328.5" y="-251.95" font-family="Helvetica,sans-Serif" font-size="14.00">value = [1, 2]</text>
<text text-anchor="start" x="314.62" y="-236.2" font-family="Helvetica,sans-Serif" font-size="14.00">class = Malignant</text>
</g>
<!-- 2&#45;&gt;8 -->
<g id="edge8" class="edge">
<title>2&#45;&gt;8</title>
<path fill="none" stroke="black" d="M367.5,-352.3C367.5,-344.46 367.5,-336.17 367.5,-328.04"/>
<polygon fill="black" stroke="black" points="371,-328.23 367.5,-318.23 364,-328.23 371,-328.23"/>
</g>
<!-- 4 -->
<g id="node5" class="node">
<title>4</title>
<path fill="#e58139" stroke="black" d="M97,-185.88C97,-185.88 12,-185.88 12,-185.88 6,-185.88 0,-179.88 0,-173.88 0,-173.88 0,-126.88 0,-126.88 0,-120.88 6,-114.88 12,-114.88 12,-114.88 97,-114.88 97,-114.88 103,-114.88 109,-120.88 109,-126.88 109,-126.88 109,-173.88 109,-173.88 109,-179.88 103,-185.88 97,-185.88"/>
<text text-anchor="start" x="14.75" y="-168.57" font-family="Helvetica,sans-Serif" font-size="14.00">entropy = 0.0</text>
<text text-anchor="start" x="9.88" y="-152.82" font-family="Helvetica,sans-Serif" font-size="14.00">samples = 239</text>
<text text-anchor="start" x="8" y="-137.07" font-family="Helvetica,sans-Serif" font-size="14.00">value = [239, 0]</text>
<text text-anchor="start" x="10.25" y="-121.33" font-family="Helvetica,sans-Serif" font-size="14.00">class = Benign</text>
</g>
<!-- 3&#45;&gt;4 -->
<g id="edge4" class="edge">
<title>3&#45;&gt;4</title>
<path fill="none" stroke="black" d="M146.44,-229.55C132.55,-217.74 117.49,-204.94 103.66,-193.18"/>
<polygon fill="black" stroke="black" points="106.26,-190.8 96.38,-186.98 101.73,-196.13 106.26,-190.8"/>
</g>
<!-- 5 -->
<g id="node6" class="node">
<title>5</title>
<path fill="#e88f4f" stroke="black" d="M263.88,-193.75C263.88,-193.75 139.12,-193.75 139.12,-193.75 133.12,-193.75 127.12,-187.75 127.12,-181.75 127.12,-181.75 127.12,-119 127.12,-119 127.12,-113 133.12,-107 139.12,-107 139.12,-107 263.88,-107 263.88,-107 269.88,-107 275.88,-113 275.88,-119 275.88,-119 275.88,-181.75 275.88,-181.75 275.88,-187.75 269.88,-193.75 263.88,-193.75"/>
<text text-anchor="start" x="135.12" y="-176.45" font-family="Helvetica,sans-Serif" font-size="14.00">radius_worst ≤ 15.955</text>
<text text-anchor="start" x="154.25" y="-160.7" font-family="Helvetica,sans-Serif" font-size="14.00">entropy = 0.469</text>
<text text-anchor="start" x="160.62" y="-144.95" font-family="Helvetica,sans-Serif" font-size="14.00">samples = 20</text>
<text text-anchor="start" x="158.75" y="-129.2" font-family="Helvetica,sans-Serif" font-size="14.00">value = [18, 2]</text>
<text text-anchor="start" x="157.25" y="-113.45" font-family="Helvetica,sans-Serif" font-size="14.00">class = Benign</text>
</g>
<!-- 3&#45;&gt;5 -->
<g id="edge5" class="edge">
<title>3&#45;&gt;5</title>
<path fill="none" stroke="black" d="M198.26,-229.55C198.59,-221.71 198.93,-213.42 199.27,-205.29"/>
<polygon fill="black" stroke="black" points="202.76,-205.62 199.67,-195.48 195.76,-205.33 202.76,-205.62"/>
</g>
<!-- 6 -->
<g id="node7" class="node">
<title>6</title>
<path fill="#399de5" stroke="black" d="M184.38,-71C184.38,-71 86.62,-71 86.62,-71 80.62,-71 74.62,-65 74.62,-59 74.62,-59 74.62,-12 74.62,-12 74.62,-6 80.62,0 86.62,0 86.62,0 184.38,0 184.38,0 190.38,0 196.38,-6 196.38,-12 196.38,-12 196.38,-59 196.38,-59 196.38,-65 190.38,-71 184.38,-71"/>
<text text-anchor="start" x="95.75" y="-53.7" font-family="Helvetica,sans-Serif" font-size="14.00">entropy = 0.0</text>
<text text-anchor="start" x="98.38" y="-37.95" font-family="Helvetica,sans-Serif" font-size="14.00">samples = 2</text>
<text text-anchor="start" x="96.5" y="-22.2" font-family="Helvetica,sans-Serif" font-size="14.00">value = [0, 2]</text>
<text text-anchor="start" x="82.62" y="-6.45" font-family="Helvetica,sans-Serif" font-size="14.00">class = Malignant</text>
</g>
<!-- 5&#45;&gt;6 -->
<g id="edge6" class="edge">
<title>5&#45;&gt;6</title>
<path fill="none" stroke="black" d="M176.55,-106.7C171.62,-98.27 166.43,-89.39 161.46,-80.9"/>
<polygon fill="black" stroke="black" points="164.6,-79.33 156.53,-72.46 158.56,-82.86 164.6,-79.33"/>
</g>
<!-- 7 -->
<g id="node8" class="node">
<title>7</title>
<path fill="#e58139" stroke="black" d="M306.75,-71C306.75,-71 226.25,-71 226.25,-71 220.25,-71 214.25,-65 214.25,-59 214.25,-59 214.25,-12 214.25,-12 214.25,-6 220.25,0 226.25,0 226.25,0 306.75,0 306.75,0 312.75,0 318.75,-6 318.75,-12 318.75,-12 318.75,-59 318.75,-59 318.75,-65 312.75,-71 306.75,-71"/>
<text text-anchor="start" x="226.75" y="-53.7" font-family="Helvetica,sans-Serif" font-size="14.00">entropy = 0.0</text>
<text text-anchor="start" x="225.62" y="-37.95" font-family="Helvetica,sans-Serif" font-size="14.00">samples = 18</text>
<text text-anchor="start" x="223.75" y="-22.2" font-family="Helvetica,sans-Serif" font-size="14.00">value = [18, 0]</text>
<text text-anchor="start" x="222.25" y="-6.45" font-family="Helvetica,sans-Serif" font-size="14.00">class = Benign</text>
</g>
<!-- 5&#45;&gt;7 -->
<g id="edge7" class="edge">
<title>5&#45;&gt;7</title>
<path fill="none" stroke="black" d="M226.07,-106.7C230.93,-98.27 236.04,-89.39 240.93,-80.9"/>
<polygon fill="black" stroke="black" points="243.83,-82.88 245.79,-72.47 237.76,-79.39 243.83,-82.88"/>
</g>
<!-- 9 -->
<g id="node10" class="node">
<title>9</title>
<path fill="#399de5" stroke="black" d="M412.38,-185.88C412.38,-185.88 314.62,-185.88 314.62,-185.88 308.62,-185.88 302.62,-179.88 302.62,-173.88 302.62,-173.88 302.62,-126.88 302.62,-126.88 302.62,-120.88 308.62,-114.88 314.62,-114.88 314.62,-114.88 412.38,-114.88 412.38,-114.88 418.38,-114.88 424.38,-120.88 424.38,-126.88 424.38,-126.88 424.38,-173.88 424.38,-173.88 424.38,-179.88 418.38,-185.88 412.38,-185.88"/>
<text text-anchor="start" x="323.75" y="-168.57" font-family="Helvetica,sans-Serif" font-size="14.00">entropy = 0.0</text>
<text text-anchor="start" x="326.38" y="-152.82" font-family="Helvetica,sans-Serif" font-size="14.00">samples = 2</text>
<text text-anchor="start" x="324.5" y="-137.07" font-family="Helvetica,sans-Serif" font-size="14.00">value = [0, 2]</text>
<text text-anchor="start" x="310.62" y="-121.33" font-family="Helvetica,sans-Serif" font-size="14.00">class = Malignant</text>
</g>
<!-- 8&#45;&gt;9 -->
<g id="edge9" class="edge">
<title>8&#45;&gt;9</title>
<path fill="none" stroke="black" d="M366.09,-229.55C365.74,-219.08 365.37,-207.83 365.02,-197.21"/>
<polygon fill="black" stroke="black" points="368.53,-197.39 364.7,-187.52 361.53,-197.63 368.53,-197.39"/>
</g>
<!-- 10 -->
<g id="node11" class="node">
<title>10</title>
<path fill="#e58139" stroke="black" d="M534.75,-185.88C534.75,-185.88 454.25,-185.88 454.25,-185.88 448.25,-185.88 442.25,-179.88 442.25,-173.88 442.25,-173.88 442.25,-126.88 442.25,-126.88 442.25,-120.88 448.25,-114.88 454.25,-114.88 454.25,-114.88 534.75,-114.88 534.75,-114.88 540.75,-114.88 546.75,-120.88 546.75,-126.88 546.75,-126.88 546.75,-173.88 546.75,-173.88 546.75,-179.88 540.75,-185.88 534.75,-185.88"/>
<text text-anchor="start" x="454.75" y="-168.57" font-family="Helvetica,sans-Serif" font-size="14.00">entropy = 0.0</text>
<text text-anchor="start" x="457.38" y="-152.82" font-family="Helvetica,sans-Serif" font-size="14.00">samples = 1</text>
<text text-anchor="start" x="455.5" y="-137.07" font-family="Helvetica,sans-Serif" font-size="14.00">value = [1, 0]</text>
<text text-anchor="start" x="450.25" y="-121.33" font-family="Helvetica,sans-Serif" font-size="14.00">class = Benign</text>
</g>
<!-- 8&#45;&gt;10 -->
<g id="edge10" class="edge">
<title>8&#45;&gt;10</title>
<path fill="none" stroke="black" d="M412.28,-229.55C424.46,-217.97 437.66,-205.42 449.83,-193.84"/>
<polygon fill="black" stroke="black" points="452.15,-196.47 456.98,-187.05 447.32,-191.4 452.15,-196.47"/>
</g>
<!-- 12 -->
<g id="node13" class="node">
<title>12</title>
<path fill="#e58139" stroke="black" d="M561.75,-308.62C561.75,-308.62 481.25,-308.62 481.25,-308.62 475.25,-308.62 469.25,-302.62 469.25,-296.62 469.25,-296.62 469.25,-249.62 469.25,-249.62 469.25,-243.62 475.25,-237.62 481.25,-237.62 481.25,-237.62 561.75,-237.62 561.75,-237.62 567.75,-237.62 573.75,-243.62 573.75,-249.62 573.75,-249.62 573.75,-296.62 573.75,-296.62 573.75,-302.62 567.75,-308.62 561.75,-308.62"/>
<text text-anchor="start" x="481.75" y="-291.32" font-family="Helvetica,sans-Serif" font-size="14.00">entropy = 0.0</text>
<text text-anchor="start" x="484.38" y="-275.57" font-family="Helvetica,sans-Serif" font-size="14.00">samples = 6</text>
<text text-anchor="start" x="482.5" y="-259.82" font-family="Helvetica,sans-Serif" font-size="14.00">value = [6, 0]</text>
<text text-anchor="start" x="477.25" y="-244.07" font-family="Helvetica,sans-Serif" font-size="14.00">class = Benign</text>
</g>
<!-- 11&#45;&gt;12 -->
<g id="edge12" class="edge">
<title>11&#45;&gt;12</title>
<path fill="none" stroke="black" d="M568.76,-352.3C562.16,-341.39 555.05,-329.62 548.39,-318.61"/>
<polygon fill="black" stroke="black" points="551.39,-316.8 543.22,-310.05 545.4,-320.42 551.39,-316.8"/>
</g>
<!-- 13 -->
<g id="node14" class="node">
<title>13</title>
<path fill="#4ba6e7" stroke="black" d="M759.62,-316.5C759.62,-316.5 603.38,-316.5 603.38,-316.5 597.38,-316.5 591.38,-310.5 591.38,-304.5 591.38,-304.5 591.38,-241.75 591.38,-241.75 591.38,-235.75 597.38,-229.75 603.38,-229.75 603.38,-229.75 759.62,-229.75 759.62,-229.75 765.62,-229.75 771.62,-235.75 771.62,-241.75 771.62,-241.75 771.62,-304.5 771.62,-304.5 771.62,-310.5 765.62,-316.5 759.62,-316.5"/>
<text text-anchor="start" x="599.38" y="-299.2" font-family="Helvetica,sans-Serif" font-size="14.00">smoothness_mean ≤ 0.075</text>
<text text-anchor="start" x="634.25" y="-283.45" font-family="Helvetica,sans-Serif" font-size="14.00">entropy = 0.414</text>
<text text-anchor="start" x="640.62" y="-267.7" font-family="Helvetica,sans-Serif" font-size="14.00">samples = 12</text>
<text text-anchor="start" x="639.12" y="-251.95" font-family="Helvetica,sans-Serif" font-size="14.00">value = [1, 11]</text>
<text text-anchor="start" x="628.62" y="-236.2" font-family="Helvetica,sans-Serif" font-size="14.00">class = Malignant</text>
</g>
<!-- 11&#45;&gt;13 -->
<g id="edge13" class="edge">
<title>11&#45;&gt;13</title>
<path fill="none" stroke="black" d="M625.17,-352.3C631.35,-343.74 637.9,-334.64 644.26,-325.81"/>
<polygon fill="black" stroke="black" points="646.92,-328.11 649.93,-317.95 641.24,-324.01 646.92,-328.11"/>
</g>
<!-- 14 -->
<g id="node15" class="node">
<title>14</title>
<path fill="#e58139" stroke="black" d="M689.75,-185.88C689.75,-185.88 609.25,-185.88 609.25,-185.88 603.25,-185.88 597.25,-179.88 597.25,-173.88 597.25,-173.88 597.25,-126.88 597.25,-126.88 597.25,-120.88 603.25,-114.88 609.25,-114.88 609.25,-114.88 689.75,-114.88 689.75,-114.88 695.75,-114.88 701.75,-120.88 701.75,-126.88 701.75,-126.88 701.75,-173.88 701.75,-173.88 701.75,-179.88 695.75,-185.88 689.75,-185.88"/>
<text text-anchor="start" x="609.75" y="-168.57" font-family="Helvetica,sans-Serif" font-size="14.00">entropy = 0.0</text>
<text text-anchor="start" x="612.38" y="-152.82" font-family="Helvetica,sans-Serif" font-size="14.00">samples = 1</text>
<text text-anchor="start" x="610.5" y="-137.07" font-family="Helvetica,sans-Serif" font-size="14.00">value = [1, 0]</text>
<text text-anchor="start" x="605.25" y="-121.33" font-family="Helvetica,sans-Serif" font-size="14.00">class = Benign</text>
</g>
<!-- 13&#45;&gt;14 -->
<g id="edge14" class="edge">
<title>13&#45;&gt;14</title>
<path fill="none" stroke="black" d="M670.22,-229.55C667.41,-218.97 664.4,-207.59 661.56,-196.87"/>
<polygon fill="black" stroke="black" points="665.01,-196.24 659.06,-187.47 658.24,-198.03 665.01,-196.24"/>
</g>
<!-- 15 -->
<g id="node16" class="node">
<title>15</title>
<path fill="#399de5" stroke="black" d="M829.38,-185.88C829.38,-185.88 731.62,-185.88 731.62,-185.88 725.62,-185.88 719.62,-179.88 719.62,-173.88 719.62,-173.88 719.62,-126.88 719.62,-126.88 719.62,-120.88 725.62,-114.88 731.62,-114.88 731.62,-114.88 829.38,-114.88 829.38,-114.88 835.38,-114.88 841.38,-120.88 841.38,-126.88 841.38,-126.88 841.38,-173.88 841.38,-173.88 841.38,-179.88 835.38,-185.88 829.38,-185.88"/>
<text text-anchor="start" x="740.75" y="-168.57" font-family="Helvetica,sans-Serif" font-size="14.00">entropy = 0.0</text>
<text text-anchor="start" x="740" y="-152.82" font-family="Helvetica,sans-Serif" font-size="14.00">samples = 11</text>
<text text-anchor="start" x="738.12" y="-137.07" font-family="Helvetica,sans-Serif" font-size="14.00">value = [0, 11]</text>
<text text-anchor="start" x="727.62" y="-121.33" font-family="Helvetica,sans-Serif" font-size="14.00">class = Malignant</text>
</g>
<!-- 13&#45;&gt;15 -->
<g id="edge15" class="edge">
<title>13&#45;&gt;15</title>
<path fill="none" stroke="black" d="M716.4,-229.55C725.63,-218.3 735.6,-206.14 744.86,-194.85"/>
<polygon fill="black" stroke="black" points="747.52,-197.13 751.15,-187.17 742.1,-192.69 747.52,-197.13"/>
</g>
<!-- 17 -->
<g id="node18" class="node">
<title>17</title>
<path fill="#cce6f8" stroke="black" d="M909.88,-439.25C909.88,-439.25 773.12,-439.25 773.12,-439.25 767.12,-439.25 761.12,-433.25 761.12,-427.25 761.12,-427.25 761.12,-364.5 761.12,-364.5 761.12,-358.5 767.12,-352.5 773.12,-352.5 773.12,-352.5 909.88,-352.5 909.88,-352.5 915.88,-352.5 921.88,-358.5 921.88,-364.5 921.88,-364.5 921.88,-427.25 921.88,-427.25 921.88,-433.25 915.88,-439.25 909.88,-439.25"/>
<text text-anchor="start" x="769.12" y="-421.95" font-family="Helvetica,sans-Serif" font-size="14.00">concavity_worst ≤ 0.262</text>
<text text-anchor="start" x="794.25" y="-406.2" font-family="Helvetica,sans-Serif" font-size="14.00">entropy = 0.984</text>
<text text-anchor="start" x="800.62" y="-390.45" font-family="Helvetica,sans-Serif" font-size="14.00">samples = 47</text>
<text text-anchor="start" x="783.75" y="-374.7" font-family="Helvetica,sans-Serif" font-size="14.00">value = [20.0, 27.0]</text>
<text text-anchor="start" x="788.62" y="-358.95" font-family="Helvetica,sans-Serif" font-size="14.00">class = Malignant</text>
</g>
<!-- 16&#45;&gt;17 -->
<g id="edge17" class="edge">
<title>16&#45;&gt;17</title>
<path fill="none" stroke="black" d="M841.5,-475.05C841.5,-467.21 841.5,-458.92 841.5,-450.79"/>
<polygon fill="black" stroke="black" points="845,-450.98 841.5,-440.98 838,-450.98 845,-450.98"/>
</g>
<!-- 26 -->
<g id="node27" class="node">
<title>26</title>
<path fill="#399de5" stroke="black" d="M1049.38,-431.38C1049.38,-431.38 951.62,-431.38 951.62,-431.38 945.62,-431.38 939.62,-425.38 939.62,-419.38 939.62,-419.38 939.62,-372.38 939.62,-372.38 939.62,-366.38 945.62,-360.38 951.62,-360.38 951.62,-360.38 1049.38,-360.38 1049.38,-360.38 1055.38,-360.38 1061.38,-366.38 1061.38,-372.38 1061.38,-372.38 1061.38,-419.38 1061.38,-419.38 1061.38,-425.38 1055.38,-431.38 1049.38,-431.38"/>
<text text-anchor="start" x="960.75" y="-414.07" font-family="Helvetica,sans-Serif" font-size="14.00">entropy = 0.0</text>
<text text-anchor="start" x="955.88" y="-398.32" font-family="Helvetica,sans-Serif" font-size="14.00">samples = 128</text>
<text text-anchor="start" x="954" y="-382.57" font-family="Helvetica,sans-Serif" font-size="14.00">value = [0, 128]</text>
<text text-anchor="start" x="947.62" y="-366.82" font-family="Helvetica,sans-Serif" font-size="14.00">class = Malignant</text>
</g>
<!-- 16&#45;&gt;26 -->
<g id="edge26" class="edge">
<title>16&#45;&gt;26</title>
<path fill="none" stroke="black" d="M897.56,-475.05C913.18,-463.19 930.12,-450.32 945.67,-438.51"/>
<polygon fill="black" stroke="black" points="947.59,-441.45 953.44,-432.61 943.36,-435.87 947.59,-441.45"/>
</g>
<!-- 18 -->
<g id="node19" class="node">
<title>18</title>
<path fill="#e58139" stroke="black" d="M881.75,-308.62C881.75,-308.62 801.25,-308.62 801.25,-308.62 795.25,-308.62 789.25,-302.62 789.25,-296.62 789.25,-296.62 789.25,-249.62 789.25,-249.62 789.25,-243.62 795.25,-237.62 801.25,-237.62 801.25,-237.62 881.75,-237.62 881.75,-237.62 887.75,-237.62 893.75,-243.62 893.75,-249.62 893.75,-249.62 893.75,-296.62 893.75,-296.62 893.75,-302.62 887.75,-308.62 881.75,-308.62"/>
<text text-anchor="start" x="801.75" y="-291.32" font-family="Helvetica,sans-Serif" font-size="14.00">entropy = 0.0</text>
<text text-anchor="start" x="800.62" y="-275.57" font-family="Helvetica,sans-Serif" font-size="14.00">samples = 12</text>
<text text-anchor="start" x="798.75" y="-259.82" font-family="Helvetica,sans-Serif" font-size="14.00">value = [12, 0]</text>
<text text-anchor="start" x="797.25" y="-244.07" font-family="Helvetica,sans-Serif" font-size="14.00">class = Benign</text>
</g>
<!-- 17&#45;&gt;18 -->
<g id="edge18" class="edge">
<title>17&#45;&gt;18</title>
<path fill="none" stroke="black" d="M841.5,-352.3C841.5,-341.83 841.5,-330.58 841.5,-319.96"/>
<polygon fill="black" stroke="black" points="845,-320.27 841.5,-310.27 838,-320.27 845,-320.27"/>
</g>
<!-- 19 -->
<g id="node20" class="node">
<title>19</title>
<path fill="#74baed" stroke="black" d="M1045.38,-316.5C1045.38,-316.5 923.62,-316.5 923.62,-316.5 917.62,-316.5 911.62,-310.5 911.62,-304.5 911.62,-304.5 911.62,-241.75 911.62,-241.75 911.62,-235.75 917.62,-229.75 923.62,-229.75 923.62,-229.75 1045.38,-229.75 1045.38,-229.75 1051.38,-229.75 1057.38,-235.75 1057.38,-241.75 1057.38,-241.75 1057.38,-304.5 1057.38,-304.5 1057.38,-310.5 1051.38,-316.5 1045.38,-316.5"/>
<text text-anchor="start" x="919.62" y="-299.2" font-family="Helvetica,sans-Serif" font-size="14.00">texture_worst ≤ 25.62</text>
<text text-anchor="start" x="937.25" y="-283.45" font-family="Helvetica,sans-Serif" font-size="14.00">entropy = 0.776</text>
<text text-anchor="start" x="943.62" y="-267.7" font-family="Helvetica,sans-Serif" font-size="14.00">samples = 35</text>
<text text-anchor="start" x="941.75" y="-251.95" font-family="Helvetica,sans-Serif" font-size="14.00">value = [8, 27]</text>
<text text-anchor="start" x="931.62" y="-236.2" font-family="Helvetica,sans-Serif" font-size="14.00">class = Malignant</text>
</g>
<!-- 17&#45;&gt;19 -->
<g id="edge19" class="edge">
<title>17&#45;&gt;19</title>
<path fill="none" stroke="black" d="M891.92,-352.3C902.7,-343.19 914.19,-333.49 925.28,-324.13"/>
<polygon fill="black" stroke="black" points="927.52,-326.82 932.9,-317.7 923,-321.47 927.52,-326.82"/>
</g>
<!-- 20 -->
<g id="node21" class="node">
<title>20</title>
<path fill="#f8dbc6" stroke="black" d="M1009.25,-193.75C1009.25,-193.75 901.75,-193.75 901.75,-193.75 895.75,-193.75 889.75,-187.75 889.75,-181.75 889.75,-181.75 889.75,-119 889.75,-119 889.75,-113 895.75,-107 901.75,-107 901.75,-107 1009.25,-107 1009.25,-107 1015.25,-107 1021.25,-113 1021.25,-119 1021.25,-119 1021.25,-181.75 1021.25,-181.75 1021.25,-187.75 1015.25,-193.75 1009.25,-193.75"/>
<text text-anchor="start" x="897.75" y="-176.45" font-family="Helvetica,sans-Serif" font-size="14.00">area_worst ≤ 725.3</text>
<text text-anchor="start" x="912" y="-160.7" font-family="Helvetica,sans-Serif" font-size="14.00">entropy = 0.98</text>
<text text-anchor="start" x="914.62" y="-144.95" font-family="Helvetica,sans-Serif" font-size="14.00">samples = 12</text>
<text text-anchor="start" x="916.5" y="-129.2" font-family="Helvetica,sans-Serif" font-size="14.00">value = [7, 5]</text>
<text text-anchor="start" x="911.25" y="-113.45" font-family="Helvetica,sans-Serif" font-size="14.00">class = Benign</text>
</g>
<!-- 19&#45;&gt;20 -->
<g id="edge20" class="edge">
<title>19&#45;&gt;20</title>
<path fill="none" stroke="black" d="M974.28,-229.55C972.37,-221.62 970.36,-213.23 968.38,-205.01"/>
<polygon fill="black" stroke="black" points="971.82,-204.35 966.08,-195.44 965.02,-205.98 971.82,-204.35"/>
</g>
<!-- 23 -->
<g id="node24" class="node">
<title>23</title>
<path fill="#42a1e6" stroke="black" d="M1171.62,-193.75C1171.62,-193.75 1051.38,-193.75 1051.38,-193.75 1045.38,-193.75 1039.38,-187.75 1039.38,-181.75 1039.38,-181.75 1039.38,-119 1039.38,-119 1039.38,-113 1045.38,-107 1051.38,-107 1051.38,-107 1171.62,-107 1171.62,-107 1177.62,-107 1183.62,-113 1183.62,-119 1183.62,-119 1183.62,-181.75 1183.62,-181.75 1183.62,-187.75 1177.62,-193.75 1171.62,-193.75"/>
<text text-anchor="start" x="1047.38" y="-176.45" font-family="Helvetica,sans-Serif" font-size="14.00">perimeter_se ≤ 1.529</text>
<text text-anchor="start" x="1064.25" y="-160.7" font-family="Helvetica,sans-Serif" font-size="14.00">entropy = 0.258</text>
<text text-anchor="start" x="1070.62" y="-144.95" font-family="Helvetica,sans-Serif" font-size="14.00">samples = 23</text>
<text text-anchor="start" x="1068.75" y="-129.2" font-family="Helvetica,sans-Serif" font-size="14.00">value = [1, 22]</text>
<text text-anchor="start" x="1058.62" y="-113.45" font-family="Helvetica,sans-Serif" font-size="14.00">class = Malignant</text>
</g>
<!-- 19&#45;&gt;23 -->
<g id="edge23" class="edge">
<title>19&#45;&gt;23</title>
<path fill="none" stroke="black" d="M1029.28,-229.55C1038.76,-220.54 1048.86,-210.94 1058.61,-201.66"/>
<polygon fill="black" stroke="black" points="1060.77,-204.44 1065.6,-195.01 1055.95,-199.37 1060.77,-204.44"/>
</g>
<!-- 21 -->
<g id="node22" class="node">
<title>21</title>
<path fill="#e58139" stroke="black" d="M870.75,-71C870.75,-71 790.25,-71 790.25,-71 784.25,-71 778.25,-65 778.25,-59 778.25,-59 778.25,-12 778.25,-12 778.25,-6 784.25,0 790.25,0 790.25,0 870.75,0 870.75,0 876.75,0 882.75,-6 882.75,-12 882.75,-12 882.75,-59 882.75,-59 882.75,-65 876.75,-71 870.75,-71"/>
<text text-anchor="start" x="790.75" y="-53.7" font-family="Helvetica,sans-Serif" font-size="14.00">entropy = 0.0</text>
<text text-anchor="start" x="793.38" y="-37.95" font-family="Helvetica,sans-Serif" font-size="14.00">samples = 5</text>
<text text-anchor="start" x="791.5" y="-22.2" font-family="Helvetica,sans-Serif" font-size="14.00">value = [5, 0]</text>
<text text-anchor="start" x="786.25" y="-6.45" font-family="Helvetica,sans-Serif" font-size="14.00">class = Benign</text>
</g>
<!-- 20&#45;&gt;21 -->
<g id="edge21" class="edge">
<title>20&#45;&gt;21</title>
<path fill="none" stroke="black" d="M908.24,-106.7C898.09,-97.53 887.36,-87.85 877.23,-78.7"/>
<polygon fill="black" stroke="black" points="879.77,-76.28 870,-72.17 875.08,-81.47 879.77,-76.28"/>
</g>
<!-- 22 -->
<g id="node23" class="node">
<title>22</title>
<path fill="#88c4ef" stroke="black" d="M1010.38,-71C1010.38,-71 912.62,-71 912.62,-71 906.62,-71 900.62,-65 900.62,-59 900.62,-59 900.62,-12 900.62,-12 900.62,-6 906.62,0 912.62,0 912.62,0 1010.38,0 1010.38,0 1016.38,0 1022.38,-6 1022.38,-12 1022.38,-12 1022.38,-59 1022.38,-59 1022.38,-65 1016.38,-71 1010.38,-71"/>
<text text-anchor="start" x="914.25" y="-53.7" font-family="Helvetica,sans-Serif" font-size="14.00">entropy = 0.863</text>
<text text-anchor="start" x="924.38" y="-37.95" font-family="Helvetica,sans-Serif" font-size="14.00">samples = 7</text>
<text text-anchor="start" x="922.5" y="-22.2" font-family="Helvetica,sans-Serif" font-size="14.00">value = [2, 5]</text>
<text text-anchor="start" x="908.62" y="-6.45" font-family="Helvetica,sans-Serif" font-size="14.00">class = Malignant</text>
</g>
<!-- 20&#45;&gt;22 -->
<g id="edge22" class="edge">
<title>20&#45;&gt;22</title>
<path fill="none" stroke="black" d="M957.77,-106.7C958.19,-98.82 958.63,-90.55 959.05,-82.57"/>
<polygon fill="black" stroke="black" points="962.54,-82.84 959.58,-72.67 955.55,-82.47 962.54,-82.84"/>
</g>
<!-- 24 -->
<g id="node25" class="node">
<title>24</title>
<path fill="#ffffff" stroke="black" d="M1144.75,-71C1144.75,-71 1064.25,-71 1064.25,-71 1058.25,-71 1052.25,-65 1052.25,-59 1052.25,-59 1052.25,-12 1052.25,-12 1052.25,-6 1058.25,0 1064.25,0 1064.25,0 1144.75,0 1144.75,0 1150.75,0 1156.75,-6 1156.75,-12 1156.75,-12 1156.75,-59 1156.75,-59 1156.75,-65 1150.75,-71 1144.75,-71"/>
<text text-anchor="start" x="1064.75" y="-53.7" font-family="Helvetica,sans-Serif" font-size="14.00">entropy = 1.0</text>
<text text-anchor="start" x="1067.38" y="-37.95" font-family="Helvetica,sans-Serif" font-size="14.00">samples = 2</text>
<text text-anchor="start" x="1065.5" y="-22.2" font-family="Helvetica,sans-Serif" font-size="14.00">value = [1, 1]</text>
<text text-anchor="start" x="1060.25" y="-6.45" font-family="Helvetica,sans-Serif" font-size="14.00">class = Benign</text>
</g>
<!-- 23&#45;&gt;24 -->
<g id="edge24" class="edge">
<title>23&#45;&gt;24</title>
<path fill="none" stroke="black" d="M1108.85,-106.7C1108.36,-98.82 1107.85,-90.55 1107.36,-82.57"/>
<polygon fill="black" stroke="black" points="1110.86,-82.43 1106.74,-72.67 1103.87,-82.87 1110.86,-82.43"/>
</g>
<!-- 25 -->
<g id="node26" class="node">
<title>25</title>
<path fill="#399de5" stroke="black" d="M1284.38,-71C1284.38,-71 1186.62,-71 1186.62,-71 1180.62,-71 1174.62,-65 1174.62,-59 1174.62,-59 1174.62,-12 1174.62,-12 1174.62,-6 1180.62,0 1186.62,0 1186.62,0 1284.38,0 1284.38,0 1290.38,0 1296.38,-6 1296.38,-12 1296.38,-12 1296.38,-59 1296.38,-59 1296.38,-65 1290.38,-71 1284.38,-71"/>
<text text-anchor="start" x="1195.75" y="-53.7" font-family="Helvetica,sans-Serif" font-size="14.00">entropy = 0.0</text>
<text text-anchor="start" x="1194.62" y="-37.95" font-family="Helvetica,sans-Serif" font-size="14.00">samples = 21</text>
<text text-anchor="start" x="1192.75" y="-22.2" font-family="Helvetica,sans-Serif" font-size="14.00">value = [0, 21]</text>
<text text-anchor="start" x="1182.62" y="-6.45" font-family="Helvetica,sans-Serif" font-size="14.00">class = Malignant</text>
</g>
<!-- 23&#45;&gt;25 -->
<g id="edge25" class="edge">
<title>23&#45;&gt;25</title>
<path fill="none" stroke="black" d="M1158.38,-106.7C1168.45,-97.53 1179.09,-87.85 1189.15,-78.7"/>
<polygon fill="black" stroke="black" points="1191.27,-81.5 1196.31,-72.18 1186.56,-76.32 1191.27,-81.5"/>
</g>
</g>
</svg>
