<?xml version="1.0" encoding="UTF-8" standalone="no"?>
<!DOCTYPE svg PUBLIC "-//W3C//DTD SVG 1.1//EN"
 "http://www.w3.org/Graphics/SVG/1.1/DTD/svg11.dtd">
<!-- Generated by graphviz version 12.2.0 (20241103.1931)
 -->
<!-- Title: Tree Pages: 1 -->
<svg width="810pt" height="447pt"
 viewBox="0.00 0.00 810.12 447.25" xmlns="http://www.w3.org/2000/svg" xmlns:xlink="http://www.w3.org/1999/xlink">
<g id="graph0" class="graph" transform="scale(1 1) rotate(0) translate(4 443.25)">
<title>Tree</title>
<polygon fill="white" stroke="none" points="-4,4 -4,-443.25 806.12,-443.25 806.12,4 -4,4"/>
<!-- 0 -->
<g id="node1" class="node">
<title>0</title>
<path fill="#f5ccaf" stroke="black" d="M581.62,-439.25C581.62,-439.25 408.88,-439.25 408.88,-439.25 402.88,-439.25 396.88,-433.25 396.88,-427.25 396.88,-427.25 396.88,-364.5 396.88,-364.5 396.88,-358.5 402.88,-352.5 408.88,-352.5 408.88,-352.5 581.62,-352.5 581.62,-352.5 587.62,-352.5 593.62,-358.5 593.62,-364.5 593.62,-364.5 593.62,-427.25 593.62,-427.25 593.62,-433.25 587.62,-439.25 581.62,-439.25"/>
<text text-anchor="start" x="404.88" y="-421.95" font-family="Helvetica,sans-Serif" font-size="14.00">concave points_mean ≤ 0.049</text>
<text text-anchor="start" x="448" y="-406.2" font-family="Helvetica,sans-Serif" font-size="14.00">entropy = 0.953</text>
<text text-anchor="start" x="450.62" y="-390.45" font-family="Helvetica,sans-Serif" font-size="14.00">samples = 455</text>
<text text-anchor="start" x="441.25" y="-374.7" font-family="Helvetica,sans-Serif" font-size="14.00">value = [285, 170]</text>
<text text-anchor="start" x="451" y="-358.95" font-family="Helvetica,sans-Serif" font-size="14.00">class = Benign</text>
</g>
<!-- 1 -->
<g id="node2" class="node">
<title>1</title>
<path fill="#e68844" stroke="black" d="M430.88,-316.5C430.88,-316.5 313.62,-316.5 313.62,-316.5 307.62,-316.5 301.62,-310.5 301.62,-304.5 301.62,-304.5 301.62,-241.75 301.62,-241.75 301.62,-235.75 307.62,-229.75 313.62,-229.75 313.62,-229.75 430.88,-229.75 430.88,-229.75 436.88,-229.75 442.88,-235.75 442.88,-241.75 442.88,-241.75 442.88,-304.5 442.88,-304.5 442.88,-310.5 436.88,-316.5 430.88,-316.5"/>
<text text-anchor="start" x="309.62" y="-299.2" font-family="Helvetica,sans-Serif" font-size="14.00">radius_worst ≤ 16.83</text>
<text text-anchor="start" x="325" y="-283.45" font-family="Helvetica,sans-Serif" font-size="14.00">entropy = 0.301</text>
<text text-anchor="start" x="327.62" y="-267.7" font-family="Helvetica,sans-Serif" font-size="14.00">samples = 280</text>
<text text-anchor="start" x="322" y="-251.95" font-family="Helvetica,sans-Serif" font-size="14.00">value = [265, 15]</text>
<text text-anchor="start" x="328" y="-236.2" font-family="Helvetica,sans-Serif" font-size="14.00">class = Benign</text>
</g>
<!-- 0&#45;&gt;1 -->
<g id="edge1" class="edge">
<title>0&#45;&gt;1</title>
<path fill="none" stroke="black" d="M451.88,-352.3C442.79,-343.38 433.12,-333.88 423.76,-324.69"/>
<polygon fill="black" stroke="black" points="426.31,-322.29 416.72,-317.78 421.4,-327.28 426.31,-322.29"/>
<text text-anchor="middle" x="415.87" y="-336.29" font-family="Helvetica,sans-Serif" font-size="14.00">True</text>
</g>
<!-- 8 -->
<g id="node9" class="node">
<title>8</title>
<path fill="#53aae8" stroke="black" d="M654.75,-316.5C654.75,-316.5 509.75,-316.5 509.75,-316.5 503.75,-316.5 497.75,-310.5 497.75,-304.5 497.75,-304.5 497.75,-241.75 497.75,-241.75 497.75,-235.75 503.75,-229.75 509.75,-229.75 509.75,-229.75 654.75,-229.75 654.75,-229.75 660.75,-229.75 666.75,-235.75 666.75,-241.75 666.75,-241.75 666.75,-304.5 666.75,-304.5 666.75,-310.5 660.75,-316.5 654.75,-316.5"/>
<text text-anchor="start" x="505.75" y="-299.2" font-family="Helvetica,sans-Serif" font-size="14.00">perimeter_worst ≤ 114.65</text>
<text text-anchor="start" x="535" y="-283.45" font-family="Helvetica,sans-Serif" font-size="14.00">entropy = 0.513</text>
<text text-anchor="start" x="537.62" y="-267.7" font-family="Helvetica,sans-Serif" font-size="14.00">samples = 175</text>
<text text-anchor="start" x="532" y="-251.95" font-family="Helvetica,sans-Serif" font-size="14.00">value = [20, 155]</text>
<text text-anchor="start" x="529.38" y="-236.2" font-family="Helvetica,sans-Serif" font-size="14.00">class = Malignant</text>
</g>
<!-- 0&#45;&gt;8 -->
<g id="edge8" class="edge">
<title>0&#45;&gt;8</title>
<path fill="none" stroke="black" d="M525.92,-352.3C532.1,-343.74 538.65,-334.64 545.01,-325.81"/>
<polygon fill="black" stroke="black" points="547.67,-328.11 550.68,-317.95 541.99,-324.01 547.67,-328.11"/>
<text text-anchor="middle" x="555.57" y="-335.97" font-family="Helvetica,sans-Serif" font-size="14.00">False</text>
</g>
<!-- 2 -->
<g id="node3" class="node">
<title>2</title>
<path fill="#e5833c" stroke="black" d="M232.12,-193.75C232.12,-193.75 146.38,-193.75 146.38,-193.75 140.38,-193.75 134.38,-187.75 134.38,-181.75 134.38,-181.75 134.38,-119 134.38,-119 134.38,-113 140.38,-107 146.38,-107 146.38,-107 232.12,-107 232.12,-107 238.12,-107 244.12,-113 244.12,-119 244.12,-119 244.12,-181.75 244.12,-181.75 244.12,-187.75 238.12,-193.75 232.12,-193.75"/>
<text text-anchor="start" x="144.25" y="-176.45" font-family="Helvetica,sans-Serif" font-size="14.00">area_se ≤ 48.7</text>
<text text-anchor="start" x="142.38" y="-160.7" font-family="Helvetica,sans-Serif" font-size="14.00">entropy = 0.114</text>
<text text-anchor="start" x="144.62" y="-144.95" font-family="Helvetica,sans-Serif" font-size="14.00">samples = 262</text>
<text text-anchor="start" x="142.75" y="-129.2" font-family="Helvetica,sans-Serif" font-size="14.00">value = [258, 4]</text>
<text text-anchor="start" x="145" y="-113.45" font-family="Helvetica,sans-Serif" font-size="14.00">class = Benign</text>
</g>
<!-- 1&#45;&gt;2 -->
<g id="edge2" class="edge">
<title>1&#45;&gt;2</title>
<path fill="none" stroke="black" d="M307.47,-229.38C290.12,-217.93 271.37,-205.56 254.02,-194.11"/>
<polygon fill="black" stroke="black" points="256.08,-191.28 245.8,-188.69 252.22,-197.12 256.08,-191.28"/>
</g>
<!-- 5 -->
<g id="node6" class="node">
<title>5</title>
<path fill="#b7dbf6" stroke="black" d="M434.25,-193.75C434.25,-193.75 310.25,-193.75 310.25,-193.75 304.25,-193.75 298.25,-187.75 298.25,-181.75 298.25,-181.75 298.25,-119 298.25,-119 298.25,-113 304.25,-107 310.25,-107 310.25,-107 434.25,-107 434.25,-107 440.25,-107 446.25,-113 446.25,-119 446.25,-119 446.25,-181.75 446.25,-181.75 446.25,-187.75 440.25,-193.75 434.25,-193.75"/>
<text text-anchor="start" x="306.25" y="-176.45" font-family="Helvetica,sans-Serif" font-size="14.00">texture_mean ≤ 16.19</text>
<text text-anchor="start" x="325" y="-160.7" font-family="Helvetica,sans-Serif" font-size="14.00">entropy = 0.964</text>
<text text-anchor="start" x="331.38" y="-144.95" font-family="Helvetica,sans-Serif" font-size="14.00">samples = 18</text>
<text text-anchor="start" x="329.88" y="-129.2" font-family="Helvetica,sans-Serif" font-size="14.00">value = [7, 11]</text>
<text text-anchor="start" x="319.38" y="-113.45" font-family="Helvetica,sans-Serif" font-size="14.00">class = Malignant</text>
</g>
<!-- 1&#45;&gt;5 -->
<g id="edge5" class="edge">
<title>1&#45;&gt;5</title>
<path fill="none" stroke="black" d="M372.25,-229.55C372.25,-221.71 372.25,-213.42 372.25,-205.29"/>
<polygon fill="black" stroke="black" points="375.75,-205.48 372.25,-195.48 368.75,-205.48 375.75,-205.48"/>
</g>
<!-- 3 -->
<g id="node4" class="node">
<title>3</title>
<path fill="#e5823b" stroke="black" d="M98.5,-71C98.5,-71 12,-71 12,-71 6,-71 0,-65 0,-59 0,-59 0,-12 0,-12 0,-6 6,0 12,0 12,0 98.5,0 98.5,0 104.5,0 110.5,-6 110.5,-12 110.5,-12 110.5,-59 110.5,-59 110.5,-65 104.5,-71 98.5,-71"/>
<text text-anchor="start" x="8" y="-53.7" font-family="Helvetica,sans-Serif" font-size="14.00">entropy = 0.065</text>
<text text-anchor="start" x="10.62" y="-37.95" font-family="Helvetica,sans-Serif" font-size="14.00">samples = 259</text>
<text text-anchor="start" x="8.75" y="-22.2" font-family="Helvetica,sans-Serif" font-size="14.00">value = [257, 2]</text>
<text text-anchor="start" x="11" y="-6.45" font-family="Helvetica,sans-Serif" font-size="14.00">class = Benign</text>
</g>
<!-- 2&#45;&gt;3 -->
<g id="edge3" class="edge">
<title>2&#45;&gt;3</title>
<path fill="none" stroke="black" d="M138.59,-106.7C127.6,-97.44 115.98,-87.65 105.02,-78.42"/>
<polygon fill="black" stroke="black" points="107.45,-75.9 97.55,-72.13 102.94,-81.25 107.45,-75.9"/>
</g>
<!-- 4 -->
<g id="node5" class="node">
<title>4</title>
<path fill="#9ccef2" stroke="black" d="M238.12,-71C238.12,-71 140.38,-71 140.38,-71 134.38,-71 128.38,-65 128.38,-59 128.38,-59 128.38,-12 128.38,-12 128.38,-6 134.38,0 140.38,0 140.38,0 238.12,0 238.12,0 244.12,0 250.12,-6 250.12,-12 250.12,-12 250.12,-59 250.12,-59 250.12,-65 244.12,-71 238.12,-71"/>
<text text-anchor="start" x="142" y="-53.7" font-family="Helvetica,sans-Serif" font-size="14.00">entropy = 0.918</text>
<text text-anchor="start" x="152.12" y="-37.95" font-family="Helvetica,sans-Serif" font-size="14.00">samples = 3</text>
<text text-anchor="start" x="150.25" y="-22.2" font-family="Helvetica,sans-Serif" font-size="14.00">value = [1, 2]</text>
<text text-anchor="start" x="136.38" y="-6.45" font-family="Helvetica,sans-Serif" font-size="14.00">class = Malignant</text>
</g>
<!-- 2&#45;&gt;4 -->
<g id="edge4" class="edge">
<title>2&#45;&gt;4</title>
<path fill="none" stroke="black" d="M189.25,-106.7C189.25,-98.82 189.25,-90.55 189.25,-82.57"/>
<polygon fill="black" stroke="black" points="192.75,-82.67 189.25,-72.67 185.75,-82.67 192.75,-82.67"/>
</g>
<!-- 6 -->
<g id="node7" class="node">
<title>6</title>
<path fill="#e58139" stroke="black" d="M360.5,-71C360.5,-71 280,-71 280,-71 274,-71 268,-65 268,-59 268,-59 268,-12 268,-12 268,-6 274,0 280,0 280,0 360.5,0 360.5,0 366.5,0 372.5,-6 372.5,-12 372.5,-12 372.5,-59 372.5,-59 372.5,-65 366.5,-71 360.5,-71"/>
<text text-anchor="start" x="280.5" y="-53.7" font-family="Helvetica,sans-Serif" font-size="14.00">entropy = 0.0</text>
<text text-anchor="start" x="283.12" y="-37.95" font-family="Helvetica,sans-Serif" font-size="14.00">samples = 6</text>
<text text-anchor="start" x="281.25" y="-22.2" font-family="Helvetica,sans-Serif" font-size="14.00">value = [6, 0]</text>
<text text-anchor="start" x="276" y="-6.45" font-family="Helvetica,sans-Serif" font-size="14.00">class = Benign</text>
</g>
<!-- 5&#45;&gt;6 -->
<g id="edge6" class="edge">
<title>5&#45;&gt;6</title>
<path fill="none" stroke="black" d="M352.59,-106.7C348.79,-98.45 344.79,-89.78 340.96,-81.46"/>
<polygon fill="black" stroke="black" points="344.21,-80.15 336.85,-72.53 337.85,-83.08 344.21,-80.15"/>
</g>
<!-- 7 -->
<g id="node8" class="node">
<title>7</title>
<path fill="#4ba6e7" stroke="black" d="M500.12,-71C500.12,-71 402.38,-71 402.38,-71 396.38,-71 390.38,-65 390.38,-59 390.38,-59 390.38,-12 390.38,-12 390.38,-6 396.38,0 402.38,0 402.38,0 500.12,0 500.12,0 506.12,0 512.12,-6 512.12,-12 512.12,-12 512.12,-59 512.12,-59 512.12,-65 506.12,-71 500.12,-71"/>
<text text-anchor="start" x="404" y="-53.7" font-family="Helvetica,sans-Serif" font-size="14.00">entropy = 0.414</text>
<text text-anchor="start" x="410.38" y="-37.95" font-family="Helvetica,sans-Serif" font-size="14.00">samples = 12</text>
<text text-anchor="start" x="408.88" y="-22.2" font-family="Helvetica,sans-Serif" font-size="14.00">value = [1, 11]</text>
<text text-anchor="start" x="398.38" y="-6.45" font-family="Helvetica,sans-Serif" font-size="14.00">class = Malignant</text>
</g>
<!-- 5&#45;&gt;7 -->
<g id="edge7" class="edge">
<title>5&#45;&gt;7</title>
<path fill="none" stroke="black" d="M402.12,-106.7C408.15,-98.08 414.5,-89.01 420.56,-80.35"/>
<polygon fill="black" stroke="black" points="423.26,-82.6 426.13,-72.4 417.52,-78.58 423.26,-82.6"/>
</g>
<!-- 9 -->
<g id="node10" class="node">
<title>9</title>
<path fill="#cce6f8" stroke="black" d="M650.62,-193.75C650.62,-193.75 513.88,-193.75 513.88,-193.75 507.88,-193.75 501.88,-187.75 501.88,-181.75 501.88,-181.75 501.88,-119 501.88,-119 501.88,-113 507.88,-107 513.88,-107 513.88,-107 650.62,-107 650.62,-107 656.62,-107 662.62,-113 662.62,-119 662.62,-119 662.62,-181.75 662.62,-181.75 662.62,-187.75 656.62,-193.75 650.62,-193.75"/>
<text text-anchor="start" x="509.88" y="-176.45" font-family="Helvetica,sans-Serif" font-size="14.00">concavity_worst ≤ 0.262</text>
<text text-anchor="start" x="535" y="-160.7" font-family="Helvetica,sans-Serif" font-size="14.00">entropy = 0.984</text>
<text text-anchor="start" x="541.38" y="-144.95" font-family="Helvetica,sans-Serif" font-size="14.00">samples = 47</text>
<text text-anchor="start" x="524.5" y="-129.2" font-family="Helvetica,sans-Serif" font-size="14.00">value = [20.0, 27.0]</text>
<text text-anchor="start" x="529.38" y="-113.45" font-family="Helvetica,sans-Serif" font-size="14.00">class = Malignant</text>
</g>
<!-- 8&#45;&gt;9 -->
<g id="edge9" class="edge">
<title>8&#45;&gt;9</title>
<path fill="none" stroke="black" d="M582.25,-229.55C582.25,-221.71 582.25,-213.42 582.25,-205.29"/>
<polygon fill="black" stroke="black" points="585.75,-205.48 582.25,-195.48 578.75,-205.48 585.75,-205.48"/>
</g>
<!-- 12 -->
<g id="node13" class="node">
<title>12</title>
<path fill="#399de5" stroke="black" d="M790.12,-185.88C790.12,-185.88 692.38,-185.88 692.38,-185.88 686.38,-185.88 680.38,-179.88 680.38,-173.88 680.38,-173.88 680.38,-126.88 680.38,-126.88 680.38,-120.88 686.38,-114.88 692.38,-114.88 692.38,-114.88 790.12,-114.88 790.12,-114.88 796.12,-114.88 802.12,-120.88 802.12,-126.88 802.12,-126.88 802.12,-173.88 802.12,-173.88 802.12,-179.88 796.12,-185.88 790.12,-185.88"/>
<text text-anchor="start" x="701.5" y="-168.57" font-family="Helvetica,sans-Serif" font-size="14.00">entropy = 0.0</text>
<text text-anchor="start" x="696.62" y="-152.82" font-family="Helvetica,sans-Serif" font-size="14.00">samples = 128</text>
<text text-anchor="start" x="694.75" y="-137.07" font-family="Helvetica,sans-Serif" font-size="14.00">value = [0, 128]</text>
<text text-anchor="start" x="688.38" y="-121.33" font-family="Helvetica,sans-Serif" font-size="14.00">class = Malignant</text>
</g>
<!-- 8&#45;&gt;12 -->
<g id="edge12" class="edge">
<title>8&#45;&gt;12</title>
<path fill="none" stroke="black" d="M638.31,-229.55C653.93,-217.69 670.87,-204.82 686.42,-193.01"/>
<polygon fill="black" stroke="black" points="688.34,-195.95 694.19,-187.11 684.11,-190.37 688.34,-195.95"/>
</g>
<!-- 10 -->
<g id="node11" class="node">
<title>10</title>
<path fill="#e58139" stroke="black" d="M622.5,-71C622.5,-71 542,-71 542,-71 536,-71 530,-65 530,-59 530,-59 530,-12 530,-12 530,-6 536,0 542,0 542,0 622.5,0 622.5,0 628.5,0 634.5,-6 634.5,-12 634.5,-12 634.5,-59 634.5,-59 634.5,-65 628.5,-71 622.5,-71"/>
<text text-anchor="start" x="542.5" y="-53.7" font-family="Helvetica,sans-Serif" font-size="14.00">entropy = 0.0</text>
<text text-anchor="start" x="541.38" y="-37.95" font-family="Helvetica,sans-Serif" font-size="14.00">samples = 12</text>
<text text-anchor="start" x="539.5" y="-22.2" font-family="Helvetica,sans-Serif" font-size="14.00">value = [12, 0]</text>
<text text-anchor="start" x="538" y="-6.45" font-family="Helvetica,sans-Serif" font-size="14.00">class = Benign</text>
</g>
<!-- 9&#45;&gt;10 -->
<g id="edge10" class="edge">
<title>9&#45;&gt;10</title>
<path fill="none" stroke="black" d="M582.25,-106.7C582.25,-98.82 582.25,-90.55 582.25,-82.57"/>
<polygon fill="black" stroke="black" points="585.75,-82.67 582.25,-72.67 578.75,-82.67 585.75,-82.67"/>
</g>
<!-- 11 -->
<g id="node12" class="node">
<title>11</title>
<path fill="#74baed" stroke="black" d="M762.12,-71C762.12,-71 664.38,-71 664.38,-71 658.38,-71 652.38,-65 652.38,-59 652.38,-59 652.38,-12 652.38,-12 652.38,-6 658.38,0 664.38,0 664.38,0 762.12,0 762.12,0 768.12,0 774.12,-6 774.12,-12 774.12,-12 774.12,-59 774.12,-59 774.12,-65 768.12,-71 762.12,-71"/>
<text text-anchor="start" x="666" y="-53.7" font-family="Helvetica,sans-Serif" font-size="14.00">entropy = 0.776</text>
<text text-anchor="start" x="672.38" y="-37.95" font-family="Helvetica,sans-Serif" font-size="14.00">samples = 35</text>
<text text-anchor="start" x="670.5" y="-22.2" font-family="Helvetica,sans-Serif" font-size="14.00">value = [8, 27]</text>
<text text-anchor="start" x="660.38" y="-6.45" font-family="Helvetica,sans-Serif" font-size="14.00">class = Malignant</text>
</g>
<!-- 9&#45;&gt;11 -->
<g id="edge11" class="edge">
<title>9&#45;&gt;11</title>
<path fill="none" stroke="black" d="M631.78,-106.7C642.52,-97.44 653.88,-87.65 664.6,-78.42"/>
<polygon fill="black" stroke="black" points="666.59,-81.32 671.88,-72.15 662.02,-76.02 666.59,-81.32"/>
</g>
</g>
</svg>
