<?xml version="1.0" encoding="UTF-8" standalone="no"?>
<!DOCTYPE svg PUBLIC "-//W3C//DTD SVG 1.1//EN"
 "http://www.w3.org/Graphics/SVG/1.1/DTD/svg11.dtd">
<!-- Generated by graphviz version 12.2.0 (20241103.1931)
 -->
<!-- Title: Tree Pages: 1 -->
<svg width="562pt" height="325pt"
 viewBox="0.00 0.00 561.75 324.50" xmlns="http://www.w3.org/2000/svg" xmlns:xlink="http://www.w3.org/1999/xlink">
<g id="graph0" class="graph" transform="scale(1 1) rotate(0) translate(4 320.5)">
<title>Tree</title>
<polygon fill="white" stroke="none" points="-4,4 -4,-320.5 557.75,-320.5 557.75,4 -4,4"/>
<!-- 0 -->
<g id="node1" class="node">
<title>0</title>
<path fill="#f5ccaf" stroke="black" d="M354.25,-316.5C354.25,-316.5 181.5,-316.5 181.5,-316.5 175.5,-316.5 169.5,-310.5 169.5,-304.5 169.5,-304.5 169.5,-241.75 169.5,-241.75 169.5,-235.75 175.5,-229.75 181.5,-229.75 181.5,-229.75 354.25,-229.75 354.25,-229.75 360.25,-229.75 366.25,-235.75 366.25,-241.75 366.25,-241.75 366.25,-304.5 366.25,-304.5 366.25,-310.5 360.25,-316.5 354.25,-316.5"/>
<text text-anchor="start" x="177.5" y="-299.2" font-family="Helvetica,sans-Serif" font-size="14.00">concave points_mean ≤ 0.049</text>
<text text-anchor="start" x="220.62" y="-283.45" font-family="Helvetica,sans-Serif" font-size="14.00">entropy = 0.953</text>
<text text-anchor="start" x="223.25" y="-267.7" font-family="Helvetica,sans-Serif" font-size="14.00">samples = 455</text>
<text text-anchor="start" x="213.88" y="-251.95" font-family="Helvetica,sans-Serif" font-size="14.00">value = [285, 170]</text>
<text text-anchor="start" x="223.62" y="-236.2" font-family="Helvetica,sans-Serif" font-size="14.00">class = Benign</text>
</g>
<!-- 1 -->
<g id="node2" class="node">
<title>1</title>
<path fill="#e68844" stroke="black" d="M240.5,-193.75C240.5,-193.75 123.25,-193.75 123.25,-193.75 117.25,-193.75 111.25,-187.75 111.25,-181.75 111.25,-181.75 111.25,-119 111.25,-119 111.25,-113 117.25,-107 123.25,-107 123.25,-107 240.5,-107 240.5,-107 246.5,-107 252.5,-113 252.5,-119 252.5,-119 252.5,-181.75 252.5,-181.75 252.5,-187.75 246.5,-193.75 240.5,-193.75"/>
<text text-anchor="start" x="119.25" y="-176.45" font-family="Helvetica,sans-Serif" font-size="14.00">radius_worst ≤ 16.83</text>
<text text-anchor="start" x="134.62" y="-160.7" font-family="Helvetica,sans-Serif" font-size="14.00">entropy = 0.301</text>
<text text-anchor="start" x="137.25" y="-144.95" font-family="Helvetica,sans-Serif" font-size="14.00">samples = 280</text>
<text text-anchor="start" x="131.62" y="-129.2" font-family="Helvetica,sans-Serif" font-size="14.00">value = [265, 15]</text>
<text text-anchor="start" x="137.62" y="-113.45" font-family="Helvetica,sans-Serif" font-size="14.00">class = Benign</text>
</g>
<!-- 0&#45;&gt;1 -->
<g id="edge1" class="edge">
<title>0&#45;&gt;1</title>
<path fill="none" stroke="black" d="M237.55,-229.55C231.52,-221.08 225.11,-212.09 218.88,-203.33"/>
<polygon fill="black" stroke="black" points="221.74,-201.32 213.09,-195.2 216.04,-205.38 221.74,-201.32"/>
<text text-anchor="middle" x="208.07" y="-213.2" font-family="Helvetica,sans-Serif" font-size="14.00">True</text>
</g>
<!-- 4 -->
<g id="node5" class="node">
<title>4</title>
<path fill="#53aae8" stroke="black" d="M427.38,-193.75C427.38,-193.75 282.38,-193.75 282.38,-193.75 276.38,-193.75 270.38,-187.75 270.38,-181.75 270.38,-181.75 270.38,-119 270.38,-119 270.38,-113 276.38,-107 282.38,-107 282.38,-107 427.38,-107 427.38,-107 433.38,-107 439.38,-113 439.38,-119 439.38,-119 439.38,-181.75 439.38,-181.75 439.38,-187.75 433.38,-193.75 427.38,-193.75"/>
<text text-anchor="start" x="278.38" y="-176.45" font-family="Helvetica,sans-Serif" font-size="14.00">perimeter_worst ≤ 114.65</text>
<text text-anchor="start" x="307.62" y="-160.7" font-family="Helvetica,sans-Serif" font-size="14.00">entropy = 0.513</text>
<text text-anchor="start" x="310.25" y="-144.95" font-family="Helvetica,sans-Serif" font-size="14.00">samples = 175</text>
<text text-anchor="start" x="304.62" y="-129.2" font-family="Helvetica,sans-Serif" font-size="14.00">value = [20, 155]</text>
<text text-anchor="start" x="302" y="-113.45" font-family="Helvetica,sans-Serif" font-size="14.00">class = Malignant</text>
</g>
<!-- 0&#45;&gt;4 -->
<g id="edge4" class="edge">
<title>0&#45;&gt;4</title>
<path fill="none" stroke="black" d="M298.55,-229.55C304.72,-220.99 311.27,-211.89 317.64,-203.06"/>
<polygon fill="black" stroke="black" points="320.29,-205.36 323.3,-195.2 314.62,-201.26 320.29,-205.36"/>
<text text-anchor="middle" x="328.19" y="-213.22" font-family="Helvetica,sans-Serif" font-size="14.00">False</text>
</g>
<!-- 2 -->
<g id="node3" class="node">
<title>2</title>
<path fill="#e5833c" stroke="black" d="M97.75,-71C97.75,-71 12,-71 12,-71 6,-71 0,-65 0,-59 0,-59 0,-12 0,-12 0,-6 6,0 12,0 12,0 97.75,0 97.75,0 103.75,0 109.75,-6 109.75,-12 109.75,-12 109.75,-59 109.75,-59 109.75,-65 103.75,-71 97.75,-71"/>
<text text-anchor="start" x="8" y="-53.7" font-family="Helvetica,sans-Serif" font-size="14.00">entropy = 0.114</text>
<text text-anchor="start" x="10.25" y="-37.95" font-family="Helvetica,sans-Serif" font-size="14.00">samples = 262</text>
<text text-anchor="start" x="8.38" y="-22.2" font-family="Helvetica,sans-Serif" font-size="14.00">value = [258, 4]</text>
<text text-anchor="start" x="10.62" y="-6.45" font-family="Helvetica,sans-Serif" font-size="14.00">class = Benign</text>
</g>
<!-- 1&#45;&gt;2 -->
<g id="edge2" class="edge">
<title>1&#45;&gt;2</title>
<path fill="none" stroke="black" d="M133.86,-106.7C123.54,-97.53 112.65,-87.85 102.35,-78.7"/>
<polygon fill="black" stroke="black" points="104.8,-76.19 95,-72.16 100.15,-81.42 104.8,-76.19"/>
</g>
<!-- 3 -->
<g id="node4" class="node">
<title>3</title>
<path fill="#b7dbf6" stroke="black" d="M237.75,-71C237.75,-71 140,-71 140,-71 134,-71 128,-65 128,-59 128,-59 128,-12 128,-12 128,-6 134,0 140,0 140,0 237.75,0 237.75,0 243.75,0 249.75,-6 249.75,-12 249.75,-12 249.75,-59 249.75,-59 249.75,-65 243.75,-71 237.75,-71"/>
<text text-anchor="start" x="141.62" y="-53.7" font-family="Helvetica,sans-Serif" font-size="14.00">entropy = 0.964</text>
<text text-anchor="start" x="148" y="-37.95" font-family="Helvetica,sans-Serif" font-size="14.00">samples = 18</text>
<text text-anchor="start" x="146.5" y="-22.2" font-family="Helvetica,sans-Serif" font-size="14.00">value = [7, 11]</text>
<text text-anchor="start" x="136" y="-6.45" font-family="Helvetica,sans-Serif" font-size="14.00">class = Malignant</text>
</g>
<!-- 1&#45;&gt;3 -->
<g id="edge3" class="edge">
<title>1&#45;&gt;3</title>
<path fill="none" stroke="black" d="M184.52,-106.7C185.01,-98.82 185.52,-90.55 186.02,-82.57"/>
<polygon fill="black" stroke="black" points="189.51,-82.87 186.63,-72.67 182.52,-82.43 189.51,-82.87"/>
</g>
<!-- 5 -->
<g id="node6" class="node">
<title>5</title>
<path fill="#cce6f8" stroke="black" d="M401.62,-71C401.62,-71 294.12,-71 294.12,-71 288.12,-71 282.12,-65 282.12,-59 282.12,-59 282.12,-12 282.12,-12 282.12,-6 288.12,0 294.12,0 294.12,0 401.62,0 401.62,0 407.62,0 413.62,-6 413.62,-12 413.62,-12 413.62,-59 413.62,-59 413.62,-65 407.62,-71 401.62,-71"/>
<text text-anchor="start" x="300.62" y="-53.7" font-family="Helvetica,sans-Serif" font-size="14.00">entropy = 0.984</text>
<text text-anchor="start" x="307" y="-37.95" font-family="Helvetica,sans-Serif" font-size="14.00">samples = 47</text>
<text text-anchor="start" x="290.12" y="-22.2" font-family="Helvetica,sans-Serif" font-size="14.00">value = [20.0, 27.0]</text>
<text text-anchor="start" x="295" y="-6.45" font-family="Helvetica,sans-Serif" font-size="14.00">class = Malignant</text>
</g>
<!-- 4&#45;&gt;5 -->
<g id="edge5" class="edge">
<title>4&#45;&gt;5</title>
<path fill="none" stroke="black" d="M352.23,-106.7C351.74,-98.82 351.23,-90.55 350.73,-82.57"/>
<polygon fill="black" stroke="black" points="354.23,-82.43 350.12,-72.67 347.24,-82.87 354.23,-82.43"/>
</g>
<!-- 6 -->
<g id="node7" class="node">
<title>6</title>
<path fill="#399de5" stroke="black" d="M541.75,-71C541.75,-71 444,-71 444,-71 438,-71 432,-65 432,-59 432,-59 432,-12 432,-12 432,-6 438,0 444,0 444,0 541.75,0 541.75,0 547.75,0 553.75,-6 553.75,-12 553.75,-12 553.75,-59 553.75,-59 553.75,-65 547.75,-71 541.75,-71"/>
<text text-anchor="start" x="453.12" y="-53.7" font-family="Helvetica,sans-Serif" font-size="14.00">entropy = 0.0</text>
<text text-anchor="start" x="448.25" y="-37.95" font-family="Helvetica,sans-Serif" font-size="14.00">samples = 128</text>
<text text-anchor="start" x="446.38" y="-22.2" font-family="Helvetica,sans-Serif" font-size="14.00">value = [0, 128]</text>
<text text-anchor="start" x="440" y="-6.45" font-family="Helvetica,sans-Serif" font-size="14.00">class = Malignant</text>
</g>
<!-- 4&#45;&gt;6 -->
<g id="edge6" class="edge">
<title>4&#45;&gt;6</title>
<path fill="none" stroke="black" d="M407.05,-106.7C418.37,-97.44 430.34,-87.65 441.62,-78.42"/>
<polygon fill="black" stroke="black" points="443.81,-81.16 449.33,-72.12 439.38,-75.74 443.81,-81.16"/>
</g>
</g>
</svg>
