<?xml version="1.0" encoding="UTF-8" standalone="no"?>
<!DOCTYPE svg PUBLIC "-//W3C//DTD SVG 1.1//EN"
 "http://www.w3.org/Graphics/SVG/1.1/DTD/svg11.dtd">
<!-- Generated by graphviz version 12.2.0 (20241103.1931)
 -->
<!-- Title: Tree Pages: 1 -->
<svg width="1379pt" height="816pt"
 viewBox="0.00 0.00 1379.38 815.50" xmlns="http://www.w3.org/2000/svg" xmlns:xlink="http://www.w3.org/1999/xlink">
<g id="graph0" class="graph" transform="scale(1 1) rotate(0) translate(4 811.5)">
<title>Tree</title>
<polygon fill="white" stroke="none" points="-4,4 -4,-811.5 1375.38,-811.5 1375.38,4 -4,4"/>
<!-- 0 -->
<g id="node1" class="node">
<title>0</title>
<path fill="#f5ccaf" stroke="black" d="M840.88,-807.5C840.88,-807.5 668.12,-807.5 668.12,-807.5 662.12,-807.5 656.12,-801.5 656.12,-795.5 656.12,-795.5 656.12,-732.75 656.12,-732.75 656.12,-726.75 662.12,-720.75 668.12,-720.75 668.12,-720.75 840.88,-720.75 840.88,-720.75 846.88,-720.75 852.88,-726.75 852.88,-732.75 852.88,-732.75 852.88,-795.5 852.88,-795.5 852.88,-801.5 846.88,-807.5 840.88,-807.5"/>
<text text-anchor="start" x="664.12" y="-790.2" font-family="Helvetica,sans-Serif" font-size="14.00">concave points_mean ≤ 0.049</text>
<text text-anchor="start" x="707.25" y="-774.45" font-family="Helvetica,sans-Serif" font-size="14.00">entropy = 0.953</text>
<text text-anchor="start" x="709.88" y="-758.7" font-family="Helvetica,sans-Serif" font-size="14.00">samples = 455</text>
<text text-anchor="start" x="700.5" y="-742.95" font-family="Helvetica,sans-Serif" font-size="14.00">value = [285, 170]</text>
<text text-anchor="start" x="710.25" y="-727.2" font-family="Helvetica,sans-Serif" font-size="14.00">class = Benign</text>
</g>
<!-- 1 -->
<g id="node2" class="node">
<title>1</title>
<path fill="#e68844" stroke="black" d="M653.12,-684.75C653.12,-684.75 535.88,-684.75 535.88,-684.75 529.88,-684.75 523.88,-678.75 523.88,-672.75 523.88,-672.75 523.88,-610 523.88,-610 523.88,-604 529.88,-598 535.88,-598 535.88,-598 653.12,-598 653.12,-598 659.12,-598 665.12,-604 665.12,-610 665.12,-610 665.12,-672.75 665.12,-672.75 665.12,-678.75 659.12,-684.75 653.12,-684.75"/>
<text text-anchor="start" x="531.88" y="-667.45" font-family="Helvetica,sans-Serif" font-size="14.00">radius_worst ≤ 16.83</text>
<text text-anchor="start" x="547.25" y="-651.7" font-family="Helvetica,sans-Serif" font-size="14.00">entropy = 0.301</text>
<text text-anchor="start" x="549.88" y="-635.95" font-family="Helvetica,sans-Serif" font-size="14.00">samples = 280</text>
<text text-anchor="start" x="544.25" y="-620.2" font-family="Helvetica,sans-Serif" font-size="14.00">value = [265, 15]</text>
<text text-anchor="start" x="550.25" y="-604.45" font-family="Helvetica,sans-Serif" font-size="14.00">class = Benign</text>
</g>
<!-- 0&#45;&gt;1 -->
<g id="edge1" class="edge">
<title>0&#45;&gt;1</title>
<path fill="none" stroke="black" d="M698.09,-720.55C685.85,-711.32 672.81,-701.48 660.25,-692"/>
<polygon fill="black" stroke="black" points="662.51,-689.32 652.42,-686.09 658.29,-694.9 662.51,-689.32"/>
<text text-anchor="middle" x="654.67" y="-704.51" font-family="Helvetica,sans-Serif" font-size="14.00">True</text>
</g>
<!-- 16 -->
<g id="node17" class="node">
<title>16</title>
<path fill="#53aae8" stroke="black" d="M914,-684.75C914,-684.75 769,-684.75 769,-684.75 763,-684.75 757,-678.75 757,-672.75 757,-672.75 757,-610 757,-610 757,-604 763,-598 769,-598 769,-598 914,-598 914,-598 920,-598 926,-604 926,-610 926,-610 926,-672.75 926,-672.75 926,-678.75 920,-684.75 914,-684.75"/>
<text text-anchor="start" x="765" y="-667.45" font-family="Helvetica,sans-Serif" font-size="14.00">perimeter_worst ≤ 114.65</text>
<text text-anchor="start" x="794.25" y="-651.7" font-family="Helvetica,sans-Serif" font-size="14.00">entropy = 0.513</text>
<text text-anchor="start" x="796.88" y="-635.95" font-family="Helvetica,sans-Serif" font-size="14.00">samples = 175</text>
<text text-anchor="start" x="791.25" y="-620.2" font-family="Helvetica,sans-Serif" font-size="14.00">value = [20, 155]</text>
<text text-anchor="start" x="788.62" y="-604.45" font-family="Helvetica,sans-Serif" font-size="14.00">class = Malignant</text>
</g>
<!-- 0&#45;&gt;16 -->
<g id="edge16" class="edge">
<title>0&#45;&gt;16</title>
<path fill="none" stroke="black" d="M785.17,-720.55C791.35,-711.99 797.9,-702.89 804.26,-694.06"/>
<polygon fill="black" stroke="black" points="806.92,-696.36 809.93,-686.2 801.24,-692.26 806.92,-696.36"/>
<text text-anchor="middle" x="814.82" y="-704.22" font-family="Helvetica,sans-Serif" font-size="14.00">False</text>
</g>
<!-- 2 -->
<g id="node3" class="node">
<title>2</title>
<path fill="#e5833c" stroke="black" d="M410.38,-562C410.38,-562 324.62,-562 324.62,-562 318.62,-562 312.62,-556 312.62,-550 312.62,-550 312.62,-487.25 312.62,-487.25 312.62,-481.25 318.62,-475.25 324.62,-475.25 324.62,-475.25 410.38,-475.25 410.38,-475.25 416.38,-475.25 422.38,-481.25 422.38,-487.25 422.38,-487.25 422.38,-550 422.38,-550 422.38,-556 416.38,-562 410.38,-562"/>
<text text-anchor="start" x="322.5" y="-544.7" font-family="Helvetica,sans-Serif" font-size="14.00">area_se ≤ 48.7</text>
<text text-anchor="start" x="320.62" y="-528.95" font-family="Helvetica,sans-Serif" font-size="14.00">entropy = 0.114</text>
<text text-anchor="start" x="322.88" y="-513.2" font-family="Helvetica,sans-Serif" font-size="14.00">samples = 262</text>
<text text-anchor="start" x="321" y="-497.45" font-family="Helvetica,sans-Serif" font-size="14.00">value = [258, 4]</text>
<text text-anchor="start" x="323.25" y="-481.7" font-family="Helvetica,sans-Serif" font-size="14.00">class = Benign</text>
</g>
<!-- 1&#45;&gt;2 -->
<g id="edge2" class="edge">
<title>1&#45;&gt;2</title>
<path fill="none" stroke="black" d="M523.61,-602.67C494.52,-587.19 461.06,-569.39 432.59,-554.25"/>
<polygon fill="black" stroke="black" points="434.56,-551.33 424.09,-549.73 431.27,-557.51 434.56,-551.33"/>
</g>
<!-- 11 -->
<g id="node12" class="node">
<title>11</title>
<path fill="#b7dbf6" stroke="black" d="M656.5,-562C656.5,-562 532.5,-562 532.5,-562 526.5,-562 520.5,-556 520.5,-550 520.5,-550 520.5,-487.25 520.5,-487.25 520.5,-481.25 526.5,-475.25 532.5,-475.25 532.5,-475.25 656.5,-475.25 656.5,-475.25 662.5,-475.25 668.5,-481.25 668.5,-487.25 668.5,-487.25 668.5,-550 668.5,-550 668.5,-556 662.5,-562 656.5,-562"/>
<text text-anchor="start" x="528.5" y="-544.7" font-family="Helvetica,sans-Serif" font-size="14.00">texture_mean ≤ 16.19</text>
<text text-anchor="start" x="547.25" y="-528.95" font-family="Helvetica,sans-Serif" font-size="14.00">entropy = 0.964</text>
<text text-anchor="start" x="553.62" y="-513.2" font-family="Helvetica,sans-Serif" font-size="14.00">samples = 18</text>
<text text-anchor="start" x="552.12" y="-497.45" font-family="Helvetica,sans-Serif" font-size="14.00">value = [7, 11]</text>
<text text-anchor="start" x="541.62" y="-481.7" font-family="Helvetica,sans-Serif" font-size="14.00">class = Malignant</text>
</g>
<!-- 1&#45;&gt;11 -->
<g id="edge11" class="edge">
<title>1&#45;&gt;11</title>
<path fill="none" stroke="black" d="M594.5,-597.8C594.5,-589.96 594.5,-581.67 594.5,-573.54"/>
<polygon fill="black" stroke="black" points="598,-573.73 594.5,-563.73 591,-573.73 598,-573.73"/>
</g>
<!-- 3 -->
<g id="node4" class="node">
<title>3</title>
<path fill="#e5823b" stroke="black" d="M254,-439.25C254,-439.25 139,-439.25 139,-439.25 133,-439.25 127,-433.25 127,-427.25 127,-427.25 127,-364.5 127,-364.5 127,-358.5 133,-352.5 139,-352.5 139,-352.5 254,-352.5 254,-352.5 260,-352.5 266,-358.5 266,-364.5 266,-364.5 266,-427.25 266,-427.25 266,-433.25 260,-439.25 254,-439.25"/>
<text text-anchor="start" x="135" y="-421.95" font-family="Helvetica,sans-Serif" font-size="14.00">area_worst ≤ 766.45</text>
<text text-anchor="start" x="149.25" y="-406.2" font-family="Helvetica,sans-Serif" font-size="14.00">entropy = 0.065</text>
<text text-anchor="start" x="151.88" y="-390.45" font-family="Helvetica,sans-Serif" font-size="14.00">samples = 259</text>
<text text-anchor="start" x="150" y="-374.7" font-family="Helvetica,sans-Serif" font-size="14.00">value = [257, 2]</text>
<text text-anchor="start" x="152.25" y="-358.95" font-family="Helvetica,sans-Serif" font-size="14.00">class = Benign</text>
</g>
<!-- 2&#45;&gt;3 -->
<g id="edge3" class="edge">
<title>2&#45;&gt;3</title>
<path fill="none" stroke="black" d="M312.45,-478.75C297.68,-468.32 281.51,-456.91 266.06,-446"/>
<polygon fill="black" stroke="black" points="268.49,-443.43 258.3,-440.52 264.45,-449.15 268.49,-443.43"/>
</g>
<!-- 8 -->
<g id="node9" class="node">
<title>8</title>
<path fill="#9ccef2" stroke="black" d="M438.88,-439.25C438.88,-439.25 296.12,-439.25 296.12,-439.25 290.12,-439.25 284.12,-433.25 284.12,-427.25 284.12,-427.25 284.12,-364.5 284.12,-364.5 284.12,-358.5 290.12,-352.5 296.12,-352.5 296.12,-352.5 438.88,-352.5 438.88,-352.5 444.88,-352.5 450.88,-358.5 450.88,-364.5 450.88,-364.5 450.88,-427.25 450.88,-427.25 450.88,-433.25 444.88,-439.25 438.88,-439.25"/>
<text text-anchor="start" x="292.12" y="-421.95" font-family="Helvetica,sans-Serif" font-size="14.00">compactness_se ≤ 0.014</text>
<text text-anchor="start" x="320.25" y="-406.2" font-family="Helvetica,sans-Serif" font-size="14.00">entropy = 0.918</text>
<text text-anchor="start" x="330.38" y="-390.45" font-family="Helvetica,sans-Serif" font-size="14.00">samples = 3</text>
<text text-anchor="start" x="328.5" y="-374.7" font-family="Helvetica,sans-Serif" font-size="14.00">value = [1, 2]</text>
<text text-anchor="start" x="314.62" y="-358.95" font-family="Helvetica,sans-Serif" font-size="14.00">class = Malignant</text>
</g>
<!-- 2&#45;&gt;8 -->
<g id="edge8" class="edge">
<title>2&#45;&gt;8</title>
<path fill="none" stroke="black" d="M367.5,-475.05C367.5,-467.21 367.5,-458.92 367.5,-450.79"/>
<polygon fill="black" stroke="black" points="371,-450.98 367.5,-440.98 364,-450.98 371,-450.98"/>
</g>
<!-- 4 -->
<g id="node5" class="node">
<title>4</title>
<path fill="#e58139" stroke="black" d="M97,-308.62C97,-308.62 12,-308.62 12,-308.62 6,-308.62 0,-302.62 0,-296.62 0,-296.62 0,-249.62 0,-249.62 0,-243.62 6,-237.62 12,-237.62 12,-237.62 97,-237.62 97,-237.62 103,-237.62 109,-243.62 109,-249.62 109,-249.62 109,-296.62 109,-296.62 109,-302.62 103,-308.62 97,-308.62"/>
<text text-anchor="start" x="14.75" y="-291.32" font-family="Helvetica,sans-Serif" font-size="14.00">entropy = 0.0</text>
<text text-anchor="start" x="9.88" y="-275.57" font-family="Helvetica,sans-Serif" font-size="14.00">samples = 239</text>
<text text-anchor="start" x="8" y="-259.82" font-family="Helvetica,sans-Serif" font-size="14.00">value = [239, 0]</text>
<text text-anchor="start" x="10.25" y="-244.07" font-family="Helvetica,sans-Serif" font-size="14.00">class = Benign</text>
</g>
<!-- 3&#45;&gt;4 -->
<g id="edge4" class="edge">
<title>3&#45;&gt;4</title>
<path fill="none" stroke="black" d="M146.44,-352.3C132.55,-340.49 117.49,-327.69 103.66,-315.93"/>
<polygon fill="black" stroke="black" points="106.26,-313.55 96.38,-309.73 101.73,-318.88 106.26,-313.55"/>
</g>
<!-- 5 -->
<g id="node6" class="node">
<title>5</title>
<path fill="#e88f4f" stroke="black" d="M263.88,-316.5C263.88,-316.5 139.12,-316.5 139.12,-316.5 133.12,-316.5 127.12,-310.5 127.12,-304.5 127.12,-304.5 127.12,-241.75 127.12,-241.75 127.12,-235.75 133.12,-229.75 139.12,-229.75 139.12,-229.75 263.88,-229.75 263.88,-229.75 269.88,-229.75 275.88,-235.75 275.88,-241.75 275.88,-241.75 275.88,-304.5 275.88,-304.5 275.88,-310.5 269.88,-316.5 263.88,-316.5"/>
<text text-anchor="start" x="135.12" y="-299.2" font-family="Helvetica,sans-Serif" font-size="14.00">radius_worst ≤ 15.955</text>
<text text-anchor="start" x="154.25" y="-283.45" font-family="Helvetica,sans-Serif" font-size="14.00">entropy = 0.469</text>
<text text-anchor="start" x="160.62" y="-267.7" font-family="Helvetica,sans-Serif" font-size="14.00">samples = 20</text>
<text text-anchor="start" x="158.75" y="-251.95" font-family="Helvetica,sans-Serif" font-size="14.00">value = [18, 2]</text>
<text text-anchor="start" x="157.25" y="-236.2" font-family="Helvetica,sans-Serif" font-size="14.00">class = Benign</text>
</g>
<!-- 3&#45;&gt;5 -->
<g id="edge5" class="edge">
<title>3&#45;&gt;5</title>
<path fill="none" stroke="black" d="M198.26,-352.3C198.59,-344.46 198.93,-336.17 199.27,-328.04"/>
<polygon fill="black" stroke="black" points="202.76,-328.37 199.67,-318.23 195.76,-328.08 202.76,-328.37"/>
</g>
<!-- 6 -->
<g id="node7" class="node">
<title>6</title>
<path fill="#399de5" stroke="black" d="M184.38,-185.88C184.38,-185.88 86.62,-185.88 86.62,-185.88 80.62,-185.88 74.62,-179.88 74.62,-173.88 74.62,-173.88 74.62,-126.88 74.62,-126.88 74.62,-120.88 80.62,-114.88 86.62,-114.88 86.62,-114.88 184.38,-114.88 184.38,-114.88 190.38,-114.88 196.38,-120.88 196.38,-126.88 196.38,-126.88 196.38,-173.88 196.38,-173.88 196.38,-179.88 190.38,-185.88 184.38,-185.88"/>
<text text-anchor="start" x="95.75" y="-168.57" font-family="Helvetica,sans-Serif" font-size="14.00">entropy = 0.0</text>
<text text-anchor="start" x="98.38" y="-152.82" font-family="Helvetica,sans-Serif" font-size="14.00">samples = 2</text>
<text text-anchor="start" x="96.5" y="-137.07" font-family="Helvetica,sans-Serif" font-size="14.00">value = [0, 2]</text>
<text text-anchor="start" x="82.62" y="-121.33" font-family="Helvetica,sans-Serif" font-size="14.00">class = Malignant</text>
</g>
<!-- 5&#45;&gt;6 -->
<g id="edge6" class="edge">
<title>5&#45;&gt;6</title>
<path fill="none" stroke="black" d="M178.23,-229.55C172.26,-218.64 165.83,-206.87 159.81,-195.86"/>
<polygon fill="black" stroke="black" points="163.02,-194.43 155.15,-187.33 156.88,-197.79 163.02,-194.43"/>
</g>
<!-- 7 -->
<g id="node8" class="node">
<title>7</title>
<path fill="#e58139" stroke="black" d="M306.75,-185.88C306.75,-185.88 226.25,-185.88 226.25,-185.88 220.25,-185.88 214.25,-179.88 214.25,-173.88 214.25,-173.88 214.25,-126.88 214.25,-126.88 214.25,-120.88 220.25,-114.88 226.25,-114.88 226.25,-114.88 306.75,-114.88 306.75,-114.88 312.75,-114.88 318.75,-120.88 318.75,-126.88 318.75,-126.88 318.75,-173.88 318.75,-173.88 318.75,-179.88 312.75,-185.88 306.75,-185.88"/>
<text text-anchor="start" x="226.75" y="-168.57" font-family="Helvetica,sans-Serif" font-size="14.00">entropy = 0.0</text>
<text text-anchor="start" x="225.62" y="-152.82" font-family="Helvetica,sans-Serif" font-size="14.00">samples = 18</text>
<text text-anchor="start" x="223.75" y="-137.07" font-family="Helvetica,sans-Serif" font-size="14.00">value = [18, 0]</text>
<text text-anchor="start" x="222.25" y="-121.33" font-family="Helvetica,sans-Serif" font-size="14.00">class = Benign</text>
</g>
<!-- 5&#45;&gt;7 -->
<g id="edge7" class="edge">
<title>5&#45;&gt;7</title>
<path fill="none" stroke="black" d="M224.42,-229.55C230.29,-218.64 236.63,-206.87 242.56,-195.86"/>
<polygon fill="black" stroke="black" points="245.48,-197.8 247.14,-187.34 239.32,-194.48 245.48,-197.8"/>
</g>
<!-- 9 -->
<g id="node10" class="node">
<title>9</title>
<path fill="#399de5" stroke="black" d="M412.38,-308.62C412.38,-308.62 314.62,-308.62 314.62,-308.62 308.62,-308.62 302.62,-302.62 302.62,-296.62 302.62,-296.62 302.62,-249.62 302.62,-249.62 302.62,-243.62 308.62,-237.62 314.62,-237.62 314.62,-237.62 412.38,-237.62 412.38,-237.62 418.38,-237.62 424.38,-243.62 424.38,-249.62 424.38,-249.62 424.38,-296.62 424.38,-296.62 424.38,-302.62 418.38,-308.62 412.38,-308.62"/>
<text text-anchor="start" x="323.75" y="-291.32" font-family="Helvetica,sans-Serif" font-size="14.00">entropy = 0.0</text>
<text text-anchor="start" x="326.38" y="-275.57" font-family="Helvetica,sans-Serif" font-size="14.00">samples = 2</text>
<text text-anchor="start" x="324.5" y="-259.82" font-family="Helvetica,sans-Serif" font-size="14.00">value = [0, 2]</text>
<text text-anchor="start" x="310.62" y="-244.07" font-family="Helvetica,sans-Serif" font-size="14.00">class = Malignant</text>
</g>
<!-- 8&#45;&gt;9 -->
<g id="edge9" class="edge">
<title>8&#45;&gt;9</title>
<path fill="none" stroke="black" d="M366.09,-352.3C365.74,-341.83 365.37,-330.58 365.02,-319.96"/>
<polygon fill="black" stroke="black" points="368.53,-320.14 364.7,-310.27 361.53,-320.38 368.53,-320.14"/>
</g>
<!-- 10 -->
<g id="node11" class="node">
<title>10</title>
<path fill="#e58139" stroke="black" d="M534.75,-308.62C534.75,-308.62 454.25,-308.62 454.25,-308.62 448.25,-308.62 442.25,-302.62 442.25,-296.62 442.25,-296.62 442.25,-249.62 442.25,-249.62 442.25,-243.62 448.25,-237.62 454.25,-237.62 454.25,-237.62 534.75,-237.62 534.75,-237.62 540.75,-237.62 546.75,-243.62 546.75,-249.62 546.75,-249.62 546.75,-296.62 546.75,-296.62 546.75,-302.62 540.75,-308.62 534.75,-308.62"/>
<text text-anchor="start" x="454.75" y="-291.32" font-family="Helvetica,sans-Serif" font-size="14.00">entropy = 0.0</text>
<text text-anchor="start" x="457.38" y="-275.57" font-family="Helvetica,sans-Serif" font-size="14.00">samples = 1</text>
<text text-anchor="start" x="455.5" y="-259.82" font-family="Helvetica,sans-Serif" font-size="14.00">value = [1, 0]</text>
<text text-anchor="start" x="450.25" y="-244.07" font-family="Helvetica,sans-Serif" font-size="14.00">class = Benign</text>
</g>
<!-- 8&#45;&gt;10 -->
<g id="edge10" class="edge">
<title>8&#45;&gt;10</title>
<path fill="none" stroke="black" d="M412.28,-352.3C424.46,-340.72 437.66,-328.17 449.83,-316.59"/>
<polygon fill="black" stroke="black" points="452.15,-319.22 456.98,-309.8 447.32,-314.15 452.15,-319.22"/>
</g>
<!-- 12 -->
<g id="node13" class="node">
<title>12</title>
<path fill="#e58139" stroke="black" d="M561.75,-431.38C561.75,-431.38 481.25,-431.38 481.25,-431.38 475.25,-431.38 469.25,-425.38 469.25,-419.38 469.25,-419.38 469.25,-372.38 469.25,-372.38 469.25,-366.38 475.25,-360.38 481.25,-360.38 481.25,-360.38 561.75,-360.38 561.75,-360.38 567.75,-360.38 573.75,-366.38 573.75,-372.38 573.75,-372.38 573.75,-419.38 573.75,-419.38 573.75,-425.38 567.75,-431.38 561.75,-431.38"/>
<text text-anchor="start" x="481.75" y="-414.07" font-family="Helvetica,sans-Serif" font-size="14.00">entropy = 0.0</text>
<text text-anchor="start" x="484.38" y="-398.32" font-family="Helvetica,sans-Serif" font-size="14.00">samples = 6</text>
<text text-anchor="start" x="482.5" y="-382.57" font-family="Helvetica,sans-Serif" font-size="14.00">value = [6, 0]</text>
<text text-anchor="start" x="477.25" y="-366.82" font-family="Helvetica,sans-Serif" font-size="14.00">class = Benign</text>
</g>
<!-- 11&#45;&gt;12 -->
<g id="edge12" class="edge">
<title>11&#45;&gt;12</title>
<path fill="none" stroke="black" d="M568.76,-475.05C562.16,-464.14 555.05,-452.37 548.39,-441.36"/>
<polygon fill="black" stroke="black" points="551.39,-439.55 543.22,-432.8 545.4,-443.17 551.39,-439.55"/>
</g>
<!-- 13 -->
<g id="node14" class="node">
<title>13</title>
<path fill="#4ba6e7" stroke="black" d="M759.62,-439.25C759.62,-439.25 603.38,-439.25 603.38,-439.25 597.38,-439.25 591.38,-433.25 591.38,-427.25 591.38,-427.25 591.38,-364.5 591.38,-364.5 591.38,-358.5 597.38,-352.5 603.38,-352.5 603.38,-352.5 759.62,-352.5 759.62,-352.5 765.62,-352.5 771.62,-358.5 771.62,-364.5 771.62,-364.5 771.62,-427.25 771.62,-427.25 771.62,-433.25 765.62,-439.25 759.62,-439.25"/>
<text text-anchor="start" x="599.38" y="-421.95" font-family="Helvetica,sans-Serif" font-size="14.00">smoothness_mean ≤ 0.075</text>
<text text-anchor="start" x="634.25" y="-406.2" font-family="Helvetica,sans-Serif" font-size="14.00">entropy = 0.414</text>
<text text-anchor="start" x="640.62" y="-390.45" font-family="Helvetica,sans-Serif" font-size="14.00">samples = 12</text>
<text text-anchor="start" x="639.12" y="-374.7" font-family="Helvetica,sans-Serif" font-size="14.00">value = [1, 11]</text>
<text text-anchor="start" x="628.62" y="-358.95" font-family="Helvetica,sans-Serif" font-size="14.00">class = Malignant</text>
</g>
<!-- 11&#45;&gt;13 -->
<g id="edge13" class="edge">
<title>11&#45;&gt;13</title>
<path fill="none" stroke="black" d="M625.17,-475.05C631.35,-466.49 637.9,-457.39 644.26,-448.56"/>
<polygon fill="black" stroke="black" points="646.92,-450.86 649.93,-440.7 641.24,-446.76 646.92,-450.86"/>
</g>
<!-- 14 -->
<g id="node15" class="node">
<title>14</title>
<path fill="#e58139" stroke="black" d="M689.75,-308.62C689.75,-308.62 609.25,-308.62 609.25,-308.62 603.25,-308.62 597.25,-302.62 597.25,-296.62 597.25,-296.62 597.25,-249.62 597.25,-249.62 597.25,-243.62 603.25,-237.62 609.25,-237.62 609.25,-237.62 689.75,-237.62 689.75,-237.62 695.75,-237.62 701.75,-243.62 701.75,-249.62 701.75,-249.62 701.75,-296.62 701.75,-296.62 701.75,-302.62 695.75,-308.62 689.75,-308.62"/>
<text text-anchor="start" x="609.75" y="-291.32" font-family="Helvetica,sans-Serif" font-size="14.00">entropy = 0.0</text>
<text text-anchor="start" x="612.38" y="-275.57" font-family="Helvetica,sans-Serif" font-size="14.00">samples = 1</text>
<text text-anchor="start" x="610.5" y="-259.82" font-family="Helvetica,sans-Serif" font-size="14.00">value = [1, 0]</text>
<text text-anchor="start" x="605.25" y="-244.07" font-family="Helvetica,sans-Serif" font-size="14.00">class = Benign</text>
</g>
<!-- 13&#45;&gt;14 -->
<g id="edge14" class="edge">
<title>13&#45;&gt;14</title>
<path fill="none" stroke="black" d="M670.22,-352.3C667.41,-341.72 664.4,-330.34 661.56,-319.62"/>
<polygon fill="black" stroke="black" points="665.01,-318.99 659.06,-310.22 658.24,-320.78 665.01,-318.99"/>
</g>
<!-- 15 -->
<g id="node16" class="node">
<title>15</title>
<path fill="#399de5" stroke="black" d="M829.38,-308.62C829.38,-308.62 731.62,-308.62 731.62,-308.62 725.62,-308.62 719.62,-302.62 719.62,-296.62 719.62,-296.62 719.62,-249.62 719.62,-249.62 719.62,-243.62 725.62,-237.62 731.62,-237.62 731.62,-237.62 829.38,-237.62 829.38,-237.62 835.38,-237.62 841.38,-243.62 841.38,-249.62 841.38,-249.62 841.38,-296.62 841.38,-296.62 841.38,-302.62 835.38,-308.62 829.38,-308.62"/>
<text text-anchor="start" x="740.75" y="-291.32" font-family="Helvetica,sans-Serif" font-size="14.00">entropy = 0.0</text>
<text text-anchor="start" x="740" y="-275.57" font-family="Helvetica,sans-Serif" font-size="14.00">samples = 11</text>
<text text-anchor="start" x="738.12" y="-259.82" font-family="Helvetica,sans-Serif" font-size="14.00">value = [0, 11]</text>
<text text-anchor="start" x="727.62" y="-244.07" font-family="Helvetica,sans-Serif" font-size="14.00">class = Malignant</text>
</g>
<!-- 13&#45;&gt;15 -->
<g id="edge15" class="edge">
<title>13&#45;&gt;15</title>
<path fill="none" stroke="black" d="M716.4,-352.3C725.63,-341.05 735.6,-328.89 744.86,-317.6"/>
<polygon fill="black" stroke="black" points="747.52,-319.88 751.15,-309.92 742.1,-315.44 747.52,-319.88"/>
</g>
<!-- 17 -->
<g id="node18" class="node">
<title>17</title>
<path fill="#cce6f8" stroke="black" d="M909.88,-562C909.88,-562 773.12,-562 773.12,-562 767.12,-562 761.12,-556 761.12,-550 761.12,-550 761.12,-487.25 761.12,-487.25 761.12,-481.25 767.12,-475.25 773.12,-475.25 773.12,-475.25 909.88,-475.25 909.88,-475.25 915.88,-475.25 921.88,-481.25 921.88,-487.25 921.88,-487.25 921.88,-550 921.88,-550 921.88,-556 915.88,-562 909.88,-562"/>
<text text-anchor="start" x="769.12" y="-544.7" font-family="Helvetica,sans-Serif" font-size="14.00">concavity_worst ≤ 0.262</text>
<text text-anchor="start" x="794.25" y="-528.95" font-family="Helvetica,sans-Serif" font-size="14.00">entropy = 0.984</text>
<text text-anchor="start" x="800.62" y="-513.2" font-family="Helvetica,sans-Serif" font-size="14.00">samples = 47</text>
<text text-anchor="start" x="783.75" y="-497.45" font-family="Helvetica,sans-Serif" font-size="14.00">value = [20.0, 27.0]</text>
<text text-anchor="start" x="788.62" y="-481.7" font-family="Helvetica,sans-Serif" font-size="14.00">class = Malignant</text>
</g>
<!-- 16&#45;&gt;17 -->
<g id="edge17" class="edge">
<title>16&#45;&gt;17</title>
<path fill="none" stroke="black" d="M841.5,-597.8C841.5,-589.96 841.5,-581.67 841.5,-573.54"/>
<polygon fill="black" stroke="black" points="845,-573.73 841.5,-563.73 838,-573.73 845,-573.73"/>
</g>
<!-- 30 -->
<g id="node31" class="node">
<title>30</title>
<path fill="#399de5" stroke="black" d="M1049.38,-554.12C1049.38,-554.12 951.62,-554.12 951.62,-554.12 945.62,-554.12 939.62,-548.12 939.62,-542.12 939.62,-542.12 939.62,-495.12 939.62,-495.12 939.62,-489.12 945.62,-483.12 951.62,-483.12 951.62,-483.12 1049.38,-483.12 1049.38,-483.12 1055.38,-483.12 1061.38,-489.12 1061.38,-495.12 1061.38,-495.12 1061.38,-542.12 1061.38,-542.12 1061.38,-548.12 1055.38,-554.12 1049.38,-554.12"/>
<text text-anchor="start" x="960.75" y="-536.83" font-family="Helvetica,sans-Serif" font-size="14.00">entropy = 0.0</text>
<text text-anchor="start" x="955.88" y="-521.08" font-family="Helvetica,sans-Serif" font-size="14.00">samples = 128</text>
<text text-anchor="start" x="954" y="-505.32" font-family="Helvetica,sans-Serif" font-size="14.00">value = [0, 128]</text>
<text text-anchor="start" x="947.62" y="-489.57" font-family="Helvetica,sans-Serif" font-size="14.00">class = Malignant</text>
</g>
<!-- 16&#45;&gt;30 -->
<g id="edge30" class="edge">
<title>16&#45;&gt;30</title>
<path fill="none" stroke="black" d="M897.56,-597.8C913.18,-585.94 930.12,-573.07 945.67,-561.26"/>
<polygon fill="black" stroke="black" points="947.59,-564.2 953.44,-555.36 943.36,-558.62 947.59,-564.2"/>
</g>
<!-- 18 -->
<g id="node19" class="node">
<title>18</title>
<path fill="#e58139" stroke="black" d="M881.75,-431.38C881.75,-431.38 801.25,-431.38 801.25,-431.38 795.25,-431.38 789.25,-425.38 789.25,-419.38 789.25,-419.38 789.25,-372.38 789.25,-372.38 789.25,-366.38 795.25,-360.38 801.25,-360.38 801.25,-360.38 881.75,-360.38 881.75,-360.38 887.75,-360.38 893.75,-366.38 893.75,-372.38 893.75,-372.38 893.75,-419.38 893.75,-419.38 893.75,-425.38 887.75,-431.38 881.75,-431.38"/>
<text text-anchor="start" x="801.75" y="-414.07" font-family="Helvetica,sans-Serif" font-size="14.00">entropy = 0.0</text>
<text text-anchor="start" x="800.62" y="-398.32" font-family="Helvetica,sans-Serif" font-size="14.00">samples = 12</text>
<text text-anchor="start" x="798.75" y="-382.57" font-family="Helvetica,sans-Serif" font-size="14.00">value = [12, 0]</text>
<text text-anchor="start" x="797.25" y="-366.82" font-family="Helvetica,sans-Serif" font-size="14.00">class = Benign</text>
</g>
<!-- 17&#45;&gt;18 -->
<g id="edge18" class="edge">
<title>17&#45;&gt;18</title>
<path fill="none" stroke="black" d="M841.5,-475.05C841.5,-464.58 841.5,-453.33 841.5,-442.71"/>
<polygon fill="black" stroke="black" points="845,-443.02 841.5,-433.02 838,-443.02 845,-443.02"/>
</g>
<!-- 19 -->
<g id="node20" class="node">
<title>19</title>
<path fill="#74baed" stroke="black" d="M1045.38,-439.25C1045.38,-439.25 923.62,-439.25 923.62,-439.25 917.62,-439.25 911.62,-433.25 911.62,-427.25 911.62,-427.25 911.62,-364.5 911.62,-364.5 911.62,-358.5 917.62,-352.5 923.62,-352.5 923.62,-352.5 1045.38,-352.5 1045.38,-352.5 1051.38,-352.5 1057.38,-358.5 1057.38,-364.5 1057.38,-364.5 1057.38,-427.25 1057.38,-427.25 1057.38,-433.25 1051.38,-439.25 1045.38,-439.25"/>
<text text-anchor="start" x="919.62" y="-421.95" font-family="Helvetica,sans-Serif" font-size="14.00">texture_worst ≤ 25.62</text>
<text text-anchor="start" x="937.25" y="-406.2" font-family="Helvetica,sans-Serif" font-size="14.00">entropy = 0.776</text>
<text text-anchor="start" x="943.62" y="-390.45" font-family="Helvetica,sans-Serif" font-size="14.00">samples = 35</text>
<text text-anchor="start" x="941.75" y="-374.7" font-family="Helvetica,sans-Serif" font-size="14.00">value = [8, 27]</text>
<text text-anchor="start" x="931.62" y="-358.95" font-family="Helvetica,sans-Serif" font-size="14.00">class = Malignant</text>
</g>
<!-- 17&#45;&gt;19 -->
<g id="edge19" class="edge">
<title>17&#45;&gt;19</title>
<path fill="none" stroke="black" d="M891.92,-475.05C902.7,-465.94 914.19,-456.24 925.28,-446.88"/>
<polygon fill="black" stroke="black" points="927.52,-449.57 932.9,-440.45 923,-444.22 927.52,-449.57"/>
</g>
<!-- 20 -->
<g id="node21" class="node">
<title>20</title>
<path fill="#f8dbc6" stroke="black" d="M1009.25,-316.5C1009.25,-316.5 901.75,-316.5 901.75,-316.5 895.75,-316.5 889.75,-310.5 889.75,-304.5 889.75,-304.5 889.75,-241.75 889.75,-241.75 889.75,-235.75 895.75,-229.75 901.75,-229.75 901.75,-229.75 1009.25,-229.75 1009.25,-229.75 1015.25,-229.75 1021.25,-235.75 1021.25,-241.75 1021.25,-241.75 1021.25,-304.5 1021.25,-304.5 1021.25,-310.5 1015.25,-316.5 1009.25,-316.5"/>
<text text-anchor="start" x="897.75" y="-299.2" font-family="Helvetica,sans-Serif" font-size="14.00">area_worst ≤ 725.3</text>
<text text-anchor="start" x="912" y="-283.45" font-family="Helvetica,sans-Serif" font-size="14.00">entropy = 0.98</text>
<text text-anchor="start" x="914.62" y="-267.7" font-family="Helvetica,sans-Serif" font-size="14.00">samples = 12</text>
<text text-anchor="start" x="916.5" y="-251.95" font-family="Helvetica,sans-Serif" font-size="14.00">value = [7, 5]</text>
<text text-anchor="start" x="911.25" y="-236.2" font-family="Helvetica,sans-Serif" font-size="14.00">class = Benign</text>
</g>
<!-- 19&#45;&gt;20 -->
<g id="edge20" class="edge">
<title>19&#45;&gt;20</title>
<path fill="none" stroke="black" d="M974.28,-352.3C972.37,-344.37 970.36,-335.98 968.38,-327.76"/>
<polygon fill="black" stroke="black" points="971.82,-327.1 966.08,-318.19 965.02,-328.73 971.82,-327.1"/>
</g>
<!-- 25 -->
<g id="node26" class="node">
<title>25</title>
<path fill="#42a1e6" stroke="black" d="M1199.62,-316.5C1199.62,-316.5 1079.38,-316.5 1079.38,-316.5 1073.38,-316.5 1067.38,-310.5 1067.38,-304.5 1067.38,-304.5 1067.38,-241.75 1067.38,-241.75 1067.38,-235.75 1073.38,-229.75 1079.38,-229.75 1079.38,-229.75 1199.62,-229.75 1199.62,-229.75 1205.62,-229.75 1211.62,-235.75 1211.62,-241.75 1211.62,-241.75 1211.62,-304.5 1211.62,-304.5 1211.62,-310.5 1205.62,-316.5 1199.62,-316.5"/>
<text text-anchor="start" x="1075.38" y="-299.2" font-family="Helvetica,sans-Serif" font-size="14.00">perimeter_se ≤ 1.529</text>
<text text-anchor="start" x="1092.25" y="-283.45" font-family="Helvetica,sans-Serif" font-size="14.00">entropy = 0.258</text>
<text text-anchor="start" x="1098.62" y="-267.7" font-family="Helvetica,sans-Serif" font-size="14.00">samples = 23</text>
<text text-anchor="start" x="1096.75" y="-251.95" font-family="Helvetica,sans-Serif" font-size="14.00">value = [1, 22]</text>
<text text-anchor="start" x="1086.62" y="-236.2" font-family="Helvetica,sans-Serif" font-size="14.00">class = Malignant</text>
</g>
<!-- 19&#45;&gt;25 -->
<g id="edge25" class="edge">
<title>19&#45;&gt;25</title>
<path fill="none" stroke="black" d="M1039.15,-352.3C1051,-343.07 1063.64,-333.23 1075.8,-323.75"/>
<polygon fill="black" stroke="black" points="1077.63,-326.76 1083.37,-317.85 1073.33,-321.24 1077.63,-326.76"/>
</g>
<!-- 21 -->
<g id="node22" class="node">
<title>21</title>
<path fill="#e58139" stroke="black" d="M851.75,-185.88C851.75,-185.88 771.25,-185.88 771.25,-185.88 765.25,-185.88 759.25,-179.88 759.25,-173.88 759.25,-173.88 759.25,-126.88 759.25,-126.88 759.25,-120.88 765.25,-114.88 771.25,-114.88 771.25,-114.88 851.75,-114.88 851.75,-114.88 857.75,-114.88 863.75,-120.88 863.75,-126.88 863.75,-126.88 863.75,-173.88 863.75,-173.88 863.75,-179.88 857.75,-185.88 851.75,-185.88"/>
<text text-anchor="start" x="771.75" y="-168.57" font-family="Helvetica,sans-Serif" font-size="14.00">entropy = 0.0</text>
<text text-anchor="start" x="774.38" y="-152.82" font-family="Helvetica,sans-Serif" font-size="14.00">samples = 5</text>
<text text-anchor="start" x="772.5" y="-137.07" font-family="Helvetica,sans-Serif" font-size="14.00">value = [5, 0]</text>
<text text-anchor="start" x="767.25" y="-121.33" font-family="Helvetica,sans-Serif" font-size="14.00">class = Benign</text>
</g>
<!-- 20&#45;&gt;21 -->
<g id="edge21" class="edge">
<title>20&#45;&gt;21</title>
<path fill="none" stroke="black" d="M904.73,-229.55C890.65,-217.74 875.38,-204.94 861.35,-193.18"/>
<polygon fill="black" stroke="black" points="863.87,-190.72 853.96,-186.98 859.37,-196.08 863.87,-190.72"/>
</g>
<!-- 22 -->
<g id="node23" class="node">
<title>22</title>
<path fill="#88c4ef" stroke="black" d="M1017.5,-193.75C1017.5,-193.75 893.5,-193.75 893.5,-193.75 887.5,-193.75 881.5,-187.75 881.5,-181.75 881.5,-181.75 881.5,-119 881.5,-119 881.5,-113 887.5,-107 893.5,-107 893.5,-107 1017.5,-107 1017.5,-107 1023.5,-107 1029.5,-113 1029.5,-119 1029.5,-119 1029.5,-181.75 1029.5,-181.75 1029.5,-187.75 1023.5,-193.75 1017.5,-193.75"/>
<text text-anchor="start" x="889.5" y="-176.45" font-family="Helvetica,sans-Serif" font-size="14.00">texture_mean ≤ 15.37</text>
<text text-anchor="start" x="908.25" y="-160.7" font-family="Helvetica,sans-Serif" font-size="14.00">entropy = 0.863</text>
<text text-anchor="start" x="918.38" y="-144.95" font-family="Helvetica,sans-Serif" font-size="14.00">samples = 7</text>
<text text-anchor="start" x="916.5" y="-129.2" font-family="Helvetica,sans-Serif" font-size="14.00">value = [2, 5]</text>
<text text-anchor="start" x="902.62" y="-113.45" font-family="Helvetica,sans-Serif" font-size="14.00">class = Malignant</text>
</g>
<!-- 20&#45;&gt;22 -->
<g id="edge22" class="edge">
<title>20&#45;&gt;22</title>
<path fill="none" stroke="black" d="M955.5,-229.55C955.5,-221.71 955.5,-213.42 955.5,-205.29"/>
<polygon fill="black" stroke="black" points="959,-205.48 955.5,-195.48 952,-205.48 959,-205.48"/>
</g>
<!-- 23 -->
<g id="node24" class="node">
<title>23</title>
<path fill="#e58139" stroke="black" d="M877.75,-71C877.75,-71 797.25,-71 797.25,-71 791.25,-71 785.25,-65 785.25,-59 785.25,-59 785.25,-12 785.25,-12 785.25,-6 791.25,0 797.25,0 797.25,0 877.75,0 877.75,0 883.75,0 889.75,-6 889.75,-12 889.75,-12 889.75,-59 889.75,-59 889.75,-65 883.75,-71 877.75,-71"/>
<text text-anchor="start" x="797.75" y="-53.7" font-family="Helvetica,sans-Serif" font-size="14.00">entropy = 0.0</text>
<text text-anchor="start" x="800.38" y="-37.95" font-family="Helvetica,sans-Serif" font-size="14.00">samples = 2</text>
<text text-anchor="start" x="798.5" y="-22.2" font-family="Helvetica,sans-Serif" font-size="14.00">value = [2, 0]</text>
<text text-anchor="start" x="793.25" y="-6.45" font-family="Helvetica,sans-Serif" font-size="14.00">class = Benign</text>
</g>
<!-- 22&#45;&gt;23 -->
<g id="edge23" class="edge">
<title>22&#45;&gt;23</title>
<path fill="none" stroke="black" d="M910.89,-106.7C901.4,-97.62 891.38,-88.04 881.9,-78.97"/>
<polygon fill="black" stroke="black" points="884.47,-76.59 874.82,-72.2 879.63,-81.65 884.47,-76.59"/>
</g>
<!-- 24 -->
<g id="node25" class="node">
<title>24</title>
<path fill="#399de5" stroke="black" d="M1017.38,-71C1017.38,-71 919.62,-71 919.62,-71 913.62,-71 907.62,-65 907.62,-59 907.62,-59 907.62,-12 907.62,-12 907.62,-6 913.62,0 919.62,0 919.62,0 1017.38,0 1017.38,0 1023.38,0 1029.38,-6 1029.38,-12 1029.38,-12 1029.38,-59 1029.38,-59 1029.38,-65 1023.38,-71 1017.38,-71"/>
<text text-anchor="start" x="928.75" y="-53.7" font-family="Helvetica,sans-Serif" font-size="14.00">entropy = 0.0</text>
<text text-anchor="start" x="931.38" y="-37.95" font-family="Helvetica,sans-Serif" font-size="14.00">samples = 5</text>
<text text-anchor="start" x="929.5" y="-22.2" font-family="Helvetica,sans-Serif" font-size="14.00">value = [0, 5]</text>
<text text-anchor="start" x="915.62" y="-6.45" font-family="Helvetica,sans-Serif" font-size="14.00">class = Malignant</text>
</g>
<!-- 22&#45;&gt;24 -->
<g id="edge24" class="edge">
<title>22&#45;&gt;24</title>
<path fill="none" stroke="black" d="M960.41,-106.7C961.32,-98.82 962.28,-90.55 963.19,-82.57"/>
<polygon fill="black" stroke="black" points="966.67,-83 964.34,-72.66 959.71,-82.19 966.67,-83"/>
</g>
<!-- 26 -->
<g id="node27" class="node">
<title>26</title>
<path fill="#ffffff" stroke="black" d="M1219.88,-193.75C1219.88,-193.75 1059.12,-193.75 1059.12,-193.75 1053.12,-193.75 1047.12,-187.75 1047.12,-181.75 1047.12,-181.75 1047.12,-119 1047.12,-119 1047.12,-113 1053.12,-107 1059.12,-107 1059.12,-107 1219.88,-107 1219.88,-107 1225.88,-107 1231.88,-113 1231.88,-119 1231.88,-119 1231.88,-181.75 1231.88,-181.75 1231.88,-187.75 1225.88,-193.75 1219.88,-193.75"/>
<text text-anchor="start" x="1055.12" y="-176.45" font-family="Helvetica,sans-Serif" font-size="14.00">compactness_worst ≤ 0.324</text>
<text text-anchor="start" x="1099.75" y="-160.7" font-family="Helvetica,sans-Serif" font-size="14.00">entropy = 1.0</text>
<text text-anchor="start" x="1102.38" y="-144.95" font-family="Helvetica,sans-Serif" font-size="14.00">samples = 2</text>
<text text-anchor="start" x="1100.5" y="-129.2" font-family="Helvetica,sans-Serif" font-size="14.00">value = [1, 1]</text>
<text text-anchor="start" x="1095.25" y="-113.45" font-family="Helvetica,sans-Serif" font-size="14.00">class = Benign</text>
</g>
<!-- 25&#45;&gt;26 -->
<g id="edge26" class="edge">
<title>25&#45;&gt;26</title>
<path fill="none" stroke="black" d="M1139.5,-229.55C1139.5,-221.71 1139.5,-213.42 1139.5,-205.29"/>
<polygon fill="black" stroke="black" points="1143,-205.48 1139.5,-195.48 1136,-205.48 1143,-205.48"/>
</g>
<!-- 29 -->
<g id="node30" class="node">
<title>29</title>
<path fill="#399de5" stroke="black" d="M1359.38,-185.88C1359.38,-185.88 1261.62,-185.88 1261.62,-185.88 1255.62,-185.88 1249.62,-179.88 1249.62,-173.88 1249.62,-173.88 1249.62,-126.88 1249.62,-126.88 1249.62,-120.88 1255.62,-114.88 1261.62,-114.88 1261.62,-114.88 1359.38,-114.88 1359.38,-114.88 1365.38,-114.88 1371.38,-120.88 1371.38,-126.88 1371.38,-126.88 1371.38,-173.88 1371.38,-173.88 1371.38,-179.88 1365.38,-185.88 1359.38,-185.88"/>
<text text-anchor="start" x="1270.75" y="-168.57" font-family="Helvetica,sans-Serif" font-size="14.00">entropy = 0.0</text>
<text text-anchor="start" x="1269.62" y="-152.82" font-family="Helvetica,sans-Serif" font-size="14.00">samples = 21</text>
<text text-anchor="start" x="1267.75" y="-137.07" font-family="Helvetica,sans-Serif" font-size="14.00">value = [0, 21]</text>
<text text-anchor="start" x="1257.62" y="-121.33" font-family="Helvetica,sans-Serif" font-size="14.00">class = Malignant</text>
</g>
<!-- 25&#45;&gt;29 -->
<g id="edge29" class="edge">
<title>25&#45;&gt;29</title>
<path fill="none" stroke="black" d="M1199.79,-229.55C1216.74,-217.58 1235.15,-204.58 1252,-192.68"/>
<polygon fill="black" stroke="black" points="1253.8,-195.7 1259.95,-187.07 1249.76,-189.98 1253.8,-195.7"/>
</g>
<!-- 27 -->
<g id="node28" class="node">
<title>27</title>
<path fill="#e58139" stroke="black" d="M1165.75,-71C1165.75,-71 1085.25,-71 1085.25,-71 1079.25,-71 1073.25,-65 1073.25,-59 1073.25,-59 1073.25,-12 1073.25,-12 1073.25,-6 1079.25,0 1085.25,0 1085.25,0 1165.75,0 1165.75,0 1171.75,0 1177.75,-6 1177.75,-12 1177.75,-12 1177.75,-59 1177.75,-59 1177.75,-65 1171.75,-71 1165.75,-71"/>
<text text-anchor="start" x="1085.75" y="-53.7" font-family="Helvetica,sans-Serif" font-size="14.00">entropy = 0.0</text>
<text text-anchor="start" x="1088.38" y="-37.95" font-family="Helvetica,sans-Serif" font-size="14.00">samples = 1</text>
<text text-anchor="start" x="1086.5" y="-22.2" font-family="Helvetica,sans-Serif" font-size="14.00">value = [1, 0]</text>
<text text-anchor="start" x="1081.25" y="-6.45" font-family="Helvetica,sans-Serif" font-size="14.00">class = Benign</text>
</g>
<!-- 26&#45;&gt;27 -->
<g id="edge27" class="edge">
<title>26&#45;&gt;27</title>
<path fill="none" stroke="black" d="M1134.21,-106.7C1133.23,-98.82 1132.2,-90.55 1131.21,-82.57"/>
<polygon fill="black" stroke="black" points="1134.69,-82.15 1129.98,-72.66 1127.74,-83.01 1134.69,-82.15"/>
</g>
<!-- 28 -->
<g id="node29" class="node">
<title>28</title>
<path fill="#399de5" stroke="black" d="M1305.38,-71C1305.38,-71 1207.62,-71 1207.62,-71 1201.62,-71 1195.62,-65 1195.62,-59 1195.62,-59 1195.62,-12 1195.62,-12 1195.62,-6 1201.62,0 1207.62,0 1207.62,0 1305.38,0 1305.38,0 1311.38,0 1317.38,-6 1317.38,-12 1317.38,-12 1317.38,-59 1317.38,-59 1317.38,-65 1311.38,-71 1305.38,-71"/>
<text text-anchor="start" x="1216.75" y="-53.7" font-family="Helvetica,sans-Serif" font-size="14.00">entropy = 0.0</text>
<text text-anchor="start" x="1219.38" y="-37.95" font-family="Helvetica,sans-Serif" font-size="14.00">samples = 1</text>
<text text-anchor="start" x="1217.5" y="-22.2" font-family="Helvetica,sans-Serif" font-size="14.00">value = [0, 1]</text>
<text text-anchor="start" x="1203.62" y="-6.45" font-family="Helvetica,sans-Serif" font-size="14.00">class = Malignant</text>
</g>
<!-- 26&#45;&gt;28 -->
<g id="edge28" class="edge">
<title>26&#45;&gt;28</title>
<path fill="none" stroke="black" d="M1183.73,-106.7C1193.14,-97.62 1203.08,-88.04 1212.48,-78.97"/>
<polygon fill="black" stroke="black" points="1214.72,-81.67 1219.49,-72.21 1209.86,-76.63 1214.72,-81.67"/>
</g>
</g>
</svg>
