<?xml version="1.0" encoding="UTF-8" standalone="no"?>
<!DOCTYPE svg PUBLIC "-//W3C//DTD SVG 1.1//EN"
 "http://www.w3.org/Graphics/SVG/1.1/DTD/svg11.dtd">
<!-- Generated by graphviz version 12.2.0 (20241103.1931)
 -->
<!-- Title: Tree Pages: 1 -->
<svg width="885pt" height="570pt"
 viewBox="0.00 0.00 885.38 570.00" xmlns="http://www.w3.org/2000/svg" xmlns:xlink="http://www.w3.org/1999/xlink">
<g id="graph0" class="graph" transform="scale(1 1) rotate(0) translate(4 566)">
<title>Tree</title>
<polygon fill="white" stroke="none" points="-4,4 -4,-566 881.38,-566 881.38,4 -4,4"/>
<!-- 0 -->
<g id="node1" class="node">
<title>0</title>
<path fill="#f5ccb0" stroke="black" d="M511.88,-562C511.88,-562 339.12,-562 339.12,-562 333.12,-562 327.12,-556 327.12,-550 327.12,-550 327.12,-487.25 327.12,-487.25 327.12,-481.25 333.12,-475.25 339.12,-475.25 339.12,-475.25 511.88,-475.25 511.88,-475.25 517.88,-475.25 523.88,-481.25 523.88,-487.25 523.88,-487.25 523.88,-550 523.88,-550 523.88,-556 517.88,-562 511.88,-562"/>
<text text-anchor="start" x="335.12" y="-544.7" font-family="Helvetica,sans-Serif" font-size="14.00">concave points_mean ≤ 0.049</text>
<text text-anchor="start" x="378.25" y="-528.95" font-family="Helvetica,sans-Serif" font-size="14.00">entropy = 0.954</text>
<text text-anchor="start" x="380.88" y="-513.2" font-family="Helvetica,sans-Serif" font-size="14.00">samples = 227</text>
<text text-anchor="start" x="375.25" y="-497.45" font-family="Helvetica,sans-Serif" font-size="14.00">value = [142, 85]</text>
<text text-anchor="start" x="381.25" y="-481.7" font-family="Helvetica,sans-Serif" font-size="14.00">class = Benign</text>
</g>
<!-- 1 -->
<g id="node2" class="node">
<title>1</title>
<path fill="#e68743" stroke="black" d="M395,-439.25C395,-439.25 298,-439.25 298,-439.25 292,-439.25 286,-433.25 286,-427.25 286,-427.25 286,-364.5 286,-364.5 286,-358.5 292,-352.5 298,-352.5 298,-352.5 395,-352.5 395,-352.5 401,-352.5 407,-358.5 407,-364.5 407,-364.5 407,-427.25 407,-427.25 407,-433.25 401,-439.25 395,-439.25"/>
<text text-anchor="start" x="294" y="-421.95" font-family="Helvetica,sans-Serif" font-size="14.00">area_se ≤ 34.405</text>
<text text-anchor="start" x="299.25" y="-406.2" font-family="Helvetica,sans-Serif" font-size="14.00">entropy = 0.282</text>
<text text-anchor="start" x="301.88" y="-390.45" font-family="Helvetica,sans-Serif" font-size="14.00">samples = 143</text>
<text text-anchor="start" x="300" y="-374.7" font-family="Helvetica,sans-Serif" font-size="14.00">value = [136, 7]</text>
<text text-anchor="start" x="302.25" y="-358.95" font-family="Helvetica,sans-Serif" font-size="14.00">class = Benign</text>
</g>
<!-- 0&#45;&gt;1 -->
<g id="edge1" class="edge">
<title>0&#45;&gt;1</title>
<path fill="none" stroke="black" d="M397.65,-475.05C392.1,-466.58 386.22,-457.59 380.49,-448.83"/>
<polygon fill="black" stroke="black" points="383.6,-447.19 375.2,-440.74 377.74,-451.02 383.6,-447.19"/>
<text text-anchor="middle" x="369.25" y="-458.52" font-family="Helvetica,sans-Serif" font-size="14.00">True</text>
</g>
<!-- 10 -->
<g id="node11" class="node">
<title>10</title>
<path fill="#48a5e7" stroke="black" d="M573.88,-439.25C573.88,-439.25 437.12,-439.25 437.12,-439.25 431.12,-439.25 425.12,-433.25 425.12,-427.25 425.12,-427.25 425.12,-364.5 425.12,-364.5 425.12,-358.5 431.12,-352.5 437.12,-352.5 437.12,-352.5 573.88,-352.5 573.88,-352.5 579.88,-352.5 585.88,-358.5 585.88,-364.5 585.88,-364.5 585.88,-427.25 585.88,-427.25 585.88,-433.25 579.88,-439.25 573.88,-439.25"/>
<text text-anchor="start" x="433.12" y="-421.95" font-family="Helvetica,sans-Serif" font-size="14.00">concavity_worst ≤ 0.232</text>
<text text-anchor="start" x="458.25" y="-406.2" font-family="Helvetica,sans-Serif" font-size="14.00">entropy = 0.371</text>
<text text-anchor="start" x="464.62" y="-390.45" font-family="Helvetica,sans-Serif" font-size="14.00">samples = 84</text>
<text text-anchor="start" x="462.75" y="-374.7" font-family="Helvetica,sans-Serif" font-size="14.00">value = [6, 78]</text>
<text text-anchor="start" x="452.62" y="-358.95" font-family="Helvetica,sans-Serif" font-size="14.00">class = Malignant</text>
</g>
<!-- 0&#45;&gt;10 -->
<g id="edge10" class="edge">
<title>0&#45;&gt;10</title>
<path fill="none" stroke="black" d="M453.71,-475.05C459.32,-466.58 465.28,-457.59 471.08,-448.83"/>
<polygon fill="black" stroke="black" points="473.84,-451 476.44,-440.73 468,-447.13 473.84,-451"/>
<text text-anchor="middle" x="482.25" y="-458.54" font-family="Helvetica,sans-Serif" font-size="14.00">False</text>
</g>
<!-- 2 -->
<g id="node3" class="node">
<title>2</title>
<path fill="#e5823b" stroke="black" d="M247.88,-316.5C247.88,-316.5 123.12,-316.5 123.12,-316.5 117.12,-316.5 111.12,-310.5 111.12,-304.5 111.12,-304.5 111.12,-241.75 111.12,-241.75 111.12,-235.75 117.12,-229.75 123.12,-229.75 123.12,-229.75 247.88,-229.75 247.88,-229.75 253.88,-229.75 259.88,-235.75 259.88,-241.75 259.88,-241.75 259.88,-304.5 259.88,-304.5 259.88,-310.5 253.88,-316.5 247.88,-316.5"/>
<text text-anchor="start" x="119.12" y="-299.2" font-family="Helvetica,sans-Serif" font-size="14.00">radius_worst ≤ 17.575</text>
<text text-anchor="start" x="138.25" y="-283.45" font-family="Helvetica,sans-Serif" font-size="14.00">entropy = 0.066</text>
<text text-anchor="start" x="140.88" y="-267.7" font-family="Helvetica,sans-Serif" font-size="14.00">samples = 128</text>
<text text-anchor="start" x="139" y="-251.95" font-family="Helvetica,sans-Serif" font-size="14.00">value = [127, 1]</text>
<text text-anchor="start" x="141.25" y="-236.2" font-family="Helvetica,sans-Serif" font-size="14.00">class = Benign</text>
</g>
<!-- 1&#45;&gt;2 -->
<g id="edge2" class="edge">
<title>1&#45;&gt;2</title>
<path fill="none" stroke="black" d="M289.74,-352.3C277.43,-343.07 264.3,-333.23 251.66,-323.75"/>
<polygon fill="black" stroke="black" points="253.88,-321.03 243.78,-317.83 249.68,-326.63 253.88,-321.03"/>
</g>
<!-- 5 -->
<g id="node6" class="node">
<title>5</title>
<path fill="#f6d5bd" stroke="black" d="M405,-316.5C405,-316.5 290,-316.5 290,-316.5 284,-316.5 278,-310.5 278,-304.5 278,-304.5 278,-241.75 278,-241.75 278,-235.75 284,-229.75 290,-229.75 290,-229.75 405,-229.75 405,-229.75 411,-229.75 417,-235.75 417,-241.75 417,-241.75 417,-304.5 417,-304.5 417,-310.5 411,-316.5 405,-316.5"/>
<text text-anchor="start" x="286" y="-299.2" font-family="Helvetica,sans-Serif" font-size="14.00">symmetry_se ≤ 0.02</text>
<text text-anchor="start" x="300.25" y="-283.45" font-family="Helvetica,sans-Serif" font-size="14.00">entropy = 0.971</text>
<text text-anchor="start" x="306.62" y="-267.7" font-family="Helvetica,sans-Serif" font-size="14.00">samples = 15</text>
<text text-anchor="start" x="308.5" y="-251.95" font-family="Helvetica,sans-Serif" font-size="14.00">value = [9, 6]</text>
<text text-anchor="start" x="303.25" y="-236.2" font-family="Helvetica,sans-Serif" font-size="14.00">class = Benign</text>
</g>
<!-- 1&#45;&gt;5 -->
<g id="edge5" class="edge">
<title>1&#45;&gt;5</title>
<path fill="none" stroke="black" d="M346.85,-352.3C346.92,-344.46 346.99,-336.17 347.05,-328.04"/>
<polygon fill="black" stroke="black" points="350.55,-328.26 347.13,-318.23 343.55,-328.2 350.55,-328.26"/>
</g>
<!-- 3 -->
<g id="node4" class="node">
<title>3</title>
<path fill="#e58139" stroke="black" d="M97,-185.88C97,-185.88 12,-185.88 12,-185.88 6,-185.88 0,-179.88 0,-173.88 0,-173.88 0,-126.88 0,-126.88 0,-120.88 6,-114.88 12,-114.88 12,-114.88 97,-114.88 97,-114.88 103,-114.88 109,-120.88 109,-126.88 109,-126.88 109,-173.88 109,-173.88 109,-179.88 103,-185.88 97,-185.88"/>
<text text-anchor="start" x="14.75" y="-168.57" font-family="Helvetica,sans-Serif" font-size="14.00">entropy = 0.0</text>
<text text-anchor="start" x="9.88" y="-152.82" font-family="Helvetica,sans-Serif" font-size="14.00">samples = 127</text>
<text text-anchor="start" x="8" y="-137.07" font-family="Helvetica,sans-Serif" font-size="14.00">value = [127, 0]</text>
<text text-anchor="start" x="10.25" y="-121.33" font-family="Helvetica,sans-Serif" font-size="14.00">class = Benign</text>
</g>
<!-- 2&#45;&gt;3 -->
<g id="edge3" class="edge">
<title>2&#45;&gt;3</title>
<path fill="none" stroke="black" d="M139.31,-229.55C126.62,-217.86 112.87,-205.18 100.21,-193.51"/>
<polygon fill="black" stroke="black" points="102.91,-191.23 93.18,-187.03 98.16,-196.38 102.91,-191.23"/>
</g>
<!-- 4 -->
<g id="node5" class="node">
<title>4</title>
<path fill="#399de5" stroke="black" d="M236.38,-185.88C236.38,-185.88 138.62,-185.88 138.62,-185.88 132.62,-185.88 126.62,-179.88 126.62,-173.88 126.62,-173.88 126.62,-126.88 126.62,-126.88 126.62,-120.88 132.62,-114.88 138.62,-114.88 138.62,-114.88 236.38,-114.88 236.38,-114.88 242.38,-114.88 248.38,-120.88 248.38,-126.88 248.38,-126.88 248.38,-173.88 248.38,-173.88 248.38,-179.88 242.38,-185.88 236.38,-185.88"/>
<text text-anchor="start" x="147.75" y="-168.57" font-family="Helvetica,sans-Serif" font-size="14.00">entropy = 0.0</text>
<text text-anchor="start" x="150.38" y="-152.82" font-family="Helvetica,sans-Serif" font-size="14.00">samples = 1</text>
<text text-anchor="start" x="148.5" y="-137.07" font-family="Helvetica,sans-Serif" font-size="14.00">value = [0, 1]</text>
<text text-anchor="start" x="134.62" y="-121.33" font-family="Helvetica,sans-Serif" font-size="14.00">class = Malignant</text>
</g>
<!-- 2&#45;&gt;4 -->
<g id="edge4" class="edge">
<title>2&#45;&gt;4</title>
<path fill="none" stroke="black" d="M186.21,-229.55C186.38,-219.08 186.57,-207.83 186.74,-197.21"/>
<polygon fill="black" stroke="black" points="190.24,-197.57 186.9,-187.52 183.24,-197.46 190.24,-197.57"/>
</g>
<!-- 6 -->
<g id="node7" class="node">
<title>6</title>
<path fill="#5aade9" stroke="black" d="M412.25,-193.75C412.25,-193.75 280.75,-193.75 280.75,-193.75 274.75,-193.75 268.75,-187.75 268.75,-181.75 268.75,-181.75 268.75,-119 268.75,-119 268.75,-113 274.75,-107 280.75,-107 280.75,-107 412.25,-107 412.25,-107 418.25,-107 424.25,-113 424.25,-119 424.25,-119 424.25,-181.75 424.25,-181.75 424.25,-187.75 418.25,-193.75 412.25,-193.75"/>
<text text-anchor="start" x="276.75" y="-176.45" font-family="Helvetica,sans-Serif" font-size="14.00">texture_mean ≤ 15.685</text>
<text text-anchor="start" x="299.25" y="-160.7" font-family="Helvetica,sans-Serif" font-size="14.00">entropy = 0.592</text>
<text text-anchor="start" x="309.38" y="-144.95" font-family="Helvetica,sans-Serif" font-size="14.00">samples = 7</text>
<text text-anchor="start" x="307.5" y="-129.2" font-family="Helvetica,sans-Serif" font-size="14.00">value = [1, 6]</text>
<text text-anchor="start" x="293.62" y="-113.45" font-family="Helvetica,sans-Serif" font-size="14.00">class = Malignant</text>
</g>
<!-- 5&#45;&gt;6 -->
<g id="edge6" class="edge">
<title>5&#45;&gt;6</title>
<path fill="none" stroke="black" d="M347.15,-229.55C347.08,-221.71 347.01,-213.42 346.95,-205.29"/>
<polygon fill="black" stroke="black" points="350.45,-205.45 346.87,-195.48 343.45,-205.51 350.45,-205.45"/>
</g>
<!-- 9 -->
<g id="node10" class="node">
<title>9</title>
<path fill="#e58139" stroke="black" d="M534.75,-185.88C534.75,-185.88 454.25,-185.88 454.25,-185.88 448.25,-185.88 442.25,-179.88 442.25,-173.88 442.25,-173.88 442.25,-126.88 442.25,-126.88 442.25,-120.88 448.25,-114.88 454.25,-114.88 454.25,-114.88 534.75,-114.88 534.75,-114.88 540.75,-114.88 546.75,-120.88 546.75,-126.88 546.75,-126.88 546.75,-173.88 546.75,-173.88 546.75,-179.88 540.75,-185.88 534.75,-185.88"/>
<text text-anchor="start" x="454.75" y="-168.57" font-family="Helvetica,sans-Serif" font-size="14.00">entropy = 0.0</text>
<text text-anchor="start" x="457.38" y="-152.82" font-family="Helvetica,sans-Serif" font-size="14.00">samples = 8</text>
<text text-anchor="start" x="455.5" y="-137.07" font-family="Helvetica,sans-Serif" font-size="14.00">value = [8, 0]</text>
<text text-anchor="start" x="450.25" y="-121.33" font-family="Helvetica,sans-Serif" font-size="14.00">class = Benign</text>
</g>
<!-- 5&#45;&gt;9 -->
<g id="edge9" class="edge">
<title>5&#45;&gt;9</title>
<path fill="none" stroke="black" d="M399.33,-229.55C413.7,-217.74 429.29,-204.94 443.61,-193.18"/>
<polygon fill="black" stroke="black" points="445.67,-196.02 451.17,-186.96 441.22,-190.61 445.67,-196.02"/>
</g>
<!-- 7 -->
<g id="node8" class="node">
<title>7</title>
<path fill="#e58139" stroke="black" d="M309.75,-71C309.75,-71 229.25,-71 229.25,-71 223.25,-71 217.25,-65 217.25,-59 217.25,-59 217.25,-12 217.25,-12 217.25,-6 223.25,0 229.25,0 229.25,0 309.75,0 309.75,0 315.75,0 321.75,-6 321.75,-12 321.75,-12 321.75,-59 321.75,-59 321.75,-65 315.75,-71 309.75,-71"/>
<text text-anchor="start" x="229.75" y="-53.7" font-family="Helvetica,sans-Serif" font-size="14.00">entropy = 0.0</text>
<text text-anchor="start" x="232.38" y="-37.95" font-family="Helvetica,sans-Serif" font-size="14.00">samples = 1</text>
<text text-anchor="start" x="230.5" y="-22.2" font-family="Helvetica,sans-Serif" font-size="14.00">value = [1, 0]</text>
<text text-anchor="start" x="225.25" y="-6.45" font-family="Helvetica,sans-Serif" font-size="14.00">class = Benign</text>
</g>
<!-- 6&#45;&gt;7 -->
<g id="edge7" class="edge">
<title>6&#45;&gt;7</title>
<path fill="none" stroke="black" d="M317.39,-106.7C311.57,-98.17 305.45,-89.2 299.6,-80.62"/>
<polygon fill="black" stroke="black" points="302.52,-78.7 294,-72.41 296.74,-82.64 302.52,-78.7"/>
</g>
<!-- 8 -->
<g id="node9" class="node">
<title>8</title>
<path fill="#399de5" stroke="black" d="M449.38,-71C449.38,-71 351.62,-71 351.62,-71 345.62,-71 339.62,-65 339.62,-59 339.62,-59 339.62,-12 339.62,-12 339.62,-6 345.62,0 351.62,0 351.62,0 449.38,0 449.38,0 455.38,0 461.38,-6 461.38,-12 461.38,-12 461.38,-59 461.38,-59 461.38,-65 455.38,-71 449.38,-71"/>
<text text-anchor="start" x="360.75" y="-53.7" font-family="Helvetica,sans-Serif" font-size="14.00">entropy = 0.0</text>
<text text-anchor="start" x="363.38" y="-37.95" font-family="Helvetica,sans-Serif" font-size="14.00">samples = 6</text>
<text text-anchor="start" x="361.5" y="-22.2" font-family="Helvetica,sans-Serif" font-size="14.00">value = [0, 6]</text>
<text text-anchor="start" x="347.62" y="-6.45" font-family="Helvetica,sans-Serif" font-size="14.00">class = Malignant</text>
</g>
<!-- 6&#45;&gt;8 -->
<g id="edge8" class="edge">
<title>6&#45;&gt;8</title>
<path fill="none" stroke="black" d="M366.92,-106.7C370.86,-98.45 375.01,-89.78 378.99,-81.46"/>
<polygon fill="black" stroke="black" points="382.11,-83.05 383.27,-72.52 375.79,-80.03 382.11,-83.05"/>
</g>
<!-- 11 -->
<g id="node12" class="node">
<title>11</title>
<path fill="#e58139" stroke="black" d="M545.75,-308.62C545.75,-308.62 465.25,-308.62 465.25,-308.62 459.25,-308.62 453.25,-302.62 453.25,-296.62 453.25,-296.62 453.25,-249.62 453.25,-249.62 453.25,-243.62 459.25,-237.62 465.25,-237.62 465.25,-237.62 545.75,-237.62 545.75,-237.62 551.75,-237.62 557.75,-243.62 557.75,-249.62 557.75,-249.62 557.75,-296.62 557.75,-296.62 557.75,-302.62 551.75,-308.62 545.75,-308.62"/>
<text text-anchor="start" x="465.75" y="-291.32" font-family="Helvetica,sans-Serif" font-size="14.00">entropy = 0.0</text>
<text text-anchor="start" x="468.38" y="-275.57" font-family="Helvetica,sans-Serif" font-size="14.00">samples = 5</text>
<text text-anchor="start" x="466.5" y="-259.82" font-family="Helvetica,sans-Serif" font-size="14.00">value = [5, 0]</text>
<text text-anchor="start" x="461.25" y="-244.07" font-family="Helvetica,sans-Serif" font-size="14.00">class = Benign</text>
</g>
<!-- 10&#45;&gt;11 -->
<g id="edge11" class="edge">
<title>10&#45;&gt;11</title>
<path fill="none" stroke="black" d="M505.5,-352.3C505.5,-341.83 505.5,-330.58 505.5,-319.96"/>
<polygon fill="black" stroke="black" points="509,-320.27 505.5,-310.27 502,-320.27 509,-320.27"/>
</g>
<!-- 12 -->
<g id="node13" class="node">
<title>12</title>
<path fill="#3c9ee5" stroke="black" d="M717.12,-316.5C717.12,-316.5 587.88,-316.5 587.88,-316.5 581.88,-316.5 575.88,-310.5 575.88,-304.5 575.88,-304.5 575.88,-241.75 575.88,-241.75 575.88,-235.75 581.88,-229.75 587.88,-229.75 587.88,-229.75 717.12,-229.75 717.12,-229.75 723.12,-229.75 729.12,-235.75 729.12,-241.75 729.12,-241.75 729.12,-304.5 729.12,-304.5 729.12,-310.5 723.12,-316.5 717.12,-316.5"/>
<text text-anchor="start" x="583.88" y="-299.2" font-family="Helvetica,sans-Serif" font-size="14.00">texture_worst ≤ 20.355</text>
<text text-anchor="start" x="605.25" y="-283.45" font-family="Helvetica,sans-Serif" font-size="14.00">entropy = 0.098</text>
<text text-anchor="start" x="611.62" y="-267.7" font-family="Helvetica,sans-Serif" font-size="14.00">samples = 79</text>
<text text-anchor="start" x="609.75" y="-251.95" font-family="Helvetica,sans-Serif" font-size="14.00">value = [1, 78]</text>
<text text-anchor="start" x="599.62" y="-236.2" font-family="Helvetica,sans-Serif" font-size="14.00">class = Malignant</text>
</g>
<!-- 10&#45;&gt;12 -->
<g id="edge12" class="edge">
<title>10&#45;&gt;12</title>
<path fill="none" stroke="black" d="M557.33,-352.3C568.52,-343.1 580.46,-333.3 591.96,-323.86"/>
<polygon fill="black" stroke="black" points="593.97,-326.73 599.48,-317.68 589.53,-321.32 593.97,-326.73"/>
</g>
<!-- 13 -->
<g id="node14" class="node">
<title>13</title>
<path fill="#9ccef2" stroke="black" d="M725.5,-193.75C725.5,-193.75 577.5,-193.75 577.5,-193.75 571.5,-193.75 565.5,-187.75 565.5,-181.75 565.5,-181.75 565.5,-119 565.5,-119 565.5,-113 571.5,-107 577.5,-107 577.5,-107 725.5,-107 725.5,-107 731.5,-107 737.5,-113 737.5,-119 737.5,-119 737.5,-181.75 737.5,-181.75 737.5,-187.75 731.5,-193.75 725.5,-193.75"/>
<text text-anchor="start" x="573.5" y="-176.45" font-family="Helvetica,sans-Serif" font-size="14.00">perimeter_mean ≤ 98.235</text>
<text text-anchor="start" x="604.25" y="-160.7" font-family="Helvetica,sans-Serif" font-size="14.00">entropy = 0.918</text>
<text text-anchor="start" x="614.38" y="-144.95" font-family="Helvetica,sans-Serif" font-size="14.00">samples = 3</text>
<text text-anchor="start" x="612.5" y="-129.2" font-family="Helvetica,sans-Serif" font-size="14.00">value = [1, 2]</text>
<text text-anchor="start" x="598.62" y="-113.45" font-family="Helvetica,sans-Serif" font-size="14.00">class = Malignant</text>
</g>
<!-- 12&#45;&gt;13 -->
<g id="edge13" class="edge">
<title>12&#45;&gt;13</title>
<path fill="none" stroke="black" d="M652.15,-229.55C652.08,-221.71 652.01,-213.42 651.95,-205.29"/>
<polygon fill="black" stroke="black" points="655.45,-205.45 651.87,-195.48 648.45,-205.51 655.45,-205.45"/>
</g>
<!-- 16 -->
<g id="node17" class="node">
<title>16</title>
<path fill="#399de5" stroke="black" d="M865.38,-185.88C865.38,-185.88 767.62,-185.88 767.62,-185.88 761.62,-185.88 755.62,-179.88 755.62,-173.88 755.62,-173.88 755.62,-126.88 755.62,-126.88 755.62,-120.88 761.62,-114.88 767.62,-114.88 767.62,-114.88 865.38,-114.88 865.38,-114.88 871.38,-114.88 877.38,-120.88 877.38,-126.88 877.38,-126.88 877.38,-173.88 877.38,-173.88 877.38,-179.88 871.38,-185.88 865.38,-185.88"/>
<text text-anchor="start" x="776.75" y="-168.57" font-family="Helvetica,sans-Serif" font-size="14.00">entropy = 0.0</text>
<text text-anchor="start" x="775.62" y="-152.82" font-family="Helvetica,sans-Serif" font-size="14.00">samples = 76</text>
<text text-anchor="start" x="773.75" y="-137.07" font-family="Helvetica,sans-Serif" font-size="14.00">value = [0, 76]</text>
<text text-anchor="start" x="763.62" y="-121.33" font-family="Helvetica,sans-Serif" font-size="14.00">class = Malignant</text>
</g>
<!-- 12&#45;&gt;16 -->
<g id="edge16" class="edge">
<title>12&#45;&gt;16</title>
<path fill="none" stroke="black" d="M710.32,-229.55C726.43,-217.69 743.91,-204.82 759.95,-193.01"/>
<polygon fill="black" stroke="black" points="762.01,-195.84 767.99,-187.1 757.86,-190.21 762.01,-195.84"/>
</g>
<!-- 14 -->
<g id="node15" class="node">
<title>14</title>
<path fill="#e58139" stroke="black" d="M625.75,-71C625.75,-71 545.25,-71 545.25,-71 539.25,-71 533.25,-65 533.25,-59 533.25,-59 533.25,-12 533.25,-12 533.25,-6 539.25,0 545.25,0 545.25,0 625.75,0 625.75,0 631.75,0 637.75,-6 637.75,-12 637.75,-12 637.75,-59 637.75,-59 637.75,-65 631.75,-71 625.75,-71"/>
<text text-anchor="start" x="545.75" y="-53.7" font-family="Helvetica,sans-Serif" font-size="14.00">entropy = 0.0</text>
<text text-anchor="start" x="548.38" y="-37.95" font-family="Helvetica,sans-Serif" font-size="14.00">samples = 1</text>
<text text-anchor="start" x="546.5" y="-22.2" font-family="Helvetica,sans-Serif" font-size="14.00">value = [1, 0]</text>
<text text-anchor="start" x="541.25" y="-6.45" font-family="Helvetica,sans-Serif" font-size="14.00">class = Benign</text>
</g>
<!-- 13&#45;&gt;14 -->
<g id="edge14" class="edge">
<title>13&#45;&gt;14</title>
<path fill="none" stroke="black" d="M626.55,-106.7C621.62,-98.27 616.43,-89.39 611.46,-80.9"/>
<polygon fill="black" stroke="black" points="614.6,-79.33 606.53,-72.46 608.56,-82.86 614.6,-79.33"/>
</g>
<!-- 15 -->
<g id="node16" class="node">
<title>15</title>
<path fill="#399de5" stroke="black" d="M765.38,-71C765.38,-71 667.62,-71 667.62,-71 661.62,-71 655.62,-65 655.62,-59 655.62,-59 655.62,-12 655.62,-12 655.62,-6 661.62,0 667.62,0 667.62,0 765.38,0 765.38,0 771.38,0 777.38,-6 777.38,-12 777.38,-12 777.38,-59 777.38,-59 777.38,-65 771.38,-71 765.38,-71"/>
<text text-anchor="start" x="676.75" y="-53.7" font-family="Helvetica,sans-Serif" font-size="14.00">entropy = 0.0</text>
<text text-anchor="start" x="679.38" y="-37.95" font-family="Helvetica,sans-Serif" font-size="14.00">samples = 2</text>
<text text-anchor="start" x="677.5" y="-22.2" font-family="Helvetica,sans-Serif" font-size="14.00">value = [0, 2]</text>
<text text-anchor="start" x="663.62" y="-6.45" font-family="Helvetica,sans-Serif" font-size="14.00">class = Malignant</text>
</g>
<!-- 13&#45;&gt;15 -->
<g id="edge15" class="edge">
<title>13&#45;&gt;15</title>
<path fill="none" stroke="black" d="M676.07,-106.7C680.93,-98.27 686.04,-89.39 690.93,-80.9"/>
<polygon fill="black" stroke="black" points="693.83,-82.88 695.79,-72.47 687.76,-79.39 693.83,-82.88"/>
</g>
</g>
</svg>
