<?xml version="1.0" encoding="UTF-8" standalone="no"?>
<!DOCTYPE svg PUBLIC "-//W3C//DTD SVG 1.1//EN"
 "http://www.w3.org/Graphics/SVG/1.1/DTD/svg11.dtd">
<!-- Generated by graphviz version 12.2.0 (20241103.1931)
 -->
<!-- Title: Tree Pages: 1 -->
<svg width="1121pt" height="570pt"
 viewBox="0.00 0.00 1121.38 570.00" xmlns="http://www.w3.org/2000/svg" xmlns:xlink="http://www.w3.org/1999/xlink">
<g id="graph0" class="graph" transform="scale(1 1) rotate(0) translate(4 566)">
<title>Tree</title>
<polygon fill="white" stroke="none" points="-4,4 -4,-566 1117.38,-566 1117.38,4 -4,4"/>
<!-- 0 -->
<g id="node1" class="node">
<title>0</title>
<path fill="#f5ccaf" stroke="black" d="M797.88,-562C797.88,-562 625.12,-562 625.12,-562 619.12,-562 613.12,-556 613.12,-550 613.12,-550 613.12,-487.25 613.12,-487.25 613.12,-481.25 619.12,-475.25 625.12,-475.25 625.12,-475.25 797.88,-475.25 797.88,-475.25 803.88,-475.25 809.88,-481.25 809.88,-487.25 809.88,-487.25 809.88,-550 809.88,-550 809.88,-556 803.88,-562 797.88,-562"/>
<text text-anchor="start" x="621.12" y="-544.7" font-family="Helvetica,sans-Serif" font-size="14.00">concave points_mean ≤ 0.049</text>
<text text-anchor="start" x="664.25" y="-528.95" font-family="Helvetica,sans-Serif" font-size="14.00">entropy = 0.953</text>
<text text-anchor="start" x="666.88" y="-513.2" font-family="Helvetica,sans-Serif" font-size="14.00">samples = 455</text>
<text text-anchor="start" x="657.5" y="-497.45" font-family="Helvetica,sans-Serif" font-size="14.00">value = [285, 170]</text>
<text text-anchor="start" x="667.25" y="-481.7" font-family="Helvetica,sans-Serif" font-size="14.00">class = Benign</text>
</g>
<!-- 1 -->
<g id="node2" class="node">
<title>1</title>
<path fill="#e68844" stroke="black" d="M612.12,-439.25C612.12,-439.25 494.88,-439.25 494.88,-439.25 488.88,-439.25 482.88,-433.25 482.88,-427.25 482.88,-427.25 482.88,-364.5 482.88,-364.5 482.88,-358.5 488.88,-352.5 494.88,-352.5 494.88,-352.5 612.12,-352.5 612.12,-352.5 618.12,-352.5 624.12,-358.5 624.12,-364.5 624.12,-364.5 624.12,-427.25 624.12,-427.25 624.12,-433.25 618.12,-439.25 612.12,-439.25"/>
<text text-anchor="start" x="490.88" y="-421.95" font-family="Helvetica,sans-Serif" font-size="14.00">radius_worst ≤ 16.83</text>
<text text-anchor="start" x="506.25" y="-406.2" font-family="Helvetica,sans-Serif" font-size="14.00">entropy = 0.301</text>
<text text-anchor="start" x="508.88" y="-390.45" font-family="Helvetica,sans-Serif" font-size="14.00">samples = 280</text>
<text text-anchor="start" x="503.25" y="-374.7" font-family="Helvetica,sans-Serif" font-size="14.00">value = [265, 15]</text>
<text text-anchor="start" x="509.25" y="-358.95" font-family="Helvetica,sans-Serif" font-size="14.00">class = Benign</text>
</g>
<!-- 0&#45;&gt;1 -->
<g id="edge1" class="edge">
<title>0&#45;&gt;1</title>
<path fill="none" stroke="black" d="M655.8,-475.05C643.71,-465.82 630.83,-455.98 618.43,-446.5"/>
<polygon fill="black" stroke="black" points="620.77,-443.88 610.7,-440.59 616.52,-449.45 620.77,-443.88"/>
<text text-anchor="middle" x="612.81" y="-459.03" font-family="Helvetica,sans-Serif" font-size="14.00">True</text>
</g>
<!-- 14 -->
<g id="node15" class="node">
<title>14</title>
<path fill="#53aae8" stroke="black" d="M871,-439.25C871,-439.25 726,-439.25 726,-439.25 720,-439.25 714,-433.25 714,-427.25 714,-427.25 714,-364.5 714,-364.5 714,-358.5 720,-352.5 726,-352.5 726,-352.5 871,-352.5 871,-352.5 877,-352.5 883,-358.5 883,-364.5 883,-364.5 883,-427.25 883,-427.25 883,-433.25 877,-439.25 871,-439.25"/>
<text text-anchor="start" x="722" y="-421.95" font-family="Helvetica,sans-Serif" font-size="14.00">perimeter_worst ≤ 114.65</text>
<text text-anchor="start" x="751.25" y="-406.2" font-family="Helvetica,sans-Serif" font-size="14.00">entropy = 0.513</text>
<text text-anchor="start" x="753.88" y="-390.45" font-family="Helvetica,sans-Serif" font-size="14.00">samples = 175</text>
<text text-anchor="start" x="748.25" y="-374.7" font-family="Helvetica,sans-Serif" font-size="14.00">value = [20, 155]</text>
<text text-anchor="start" x="745.62" y="-358.95" font-family="Helvetica,sans-Serif" font-size="14.00">class = Malignant</text>
</g>
<!-- 0&#45;&gt;14 -->
<g id="edge14" class="edge">
<title>0&#45;&gt;14</title>
<path fill="none" stroke="black" d="M742.17,-475.05C748.35,-466.49 754.9,-457.39 761.26,-448.56"/>
<polygon fill="black" stroke="black" points="763.92,-450.86 766.93,-440.7 758.24,-446.76 763.92,-450.86"/>
<text text-anchor="middle" x="771.82" y="-458.72" font-family="Helvetica,sans-Serif" font-size="14.00">False</text>
</g>
<!-- 2 -->
<g id="node3" class="node">
<title>2</title>
<path fill="#e5833c" stroke="black" d="M379.38,-316.5C379.38,-316.5 293.62,-316.5 293.62,-316.5 287.62,-316.5 281.62,-310.5 281.62,-304.5 281.62,-304.5 281.62,-241.75 281.62,-241.75 281.62,-235.75 287.62,-229.75 293.62,-229.75 293.62,-229.75 379.38,-229.75 379.38,-229.75 385.38,-229.75 391.38,-235.75 391.38,-241.75 391.38,-241.75 391.38,-304.5 391.38,-304.5 391.38,-310.5 385.38,-316.5 379.38,-316.5"/>
<text text-anchor="start" x="291.5" y="-299.2" font-family="Helvetica,sans-Serif" font-size="14.00">area_se ≤ 48.7</text>
<text text-anchor="start" x="289.62" y="-283.45" font-family="Helvetica,sans-Serif" font-size="14.00">entropy = 0.114</text>
<text text-anchor="start" x="291.88" y="-267.7" font-family="Helvetica,sans-Serif" font-size="14.00">samples = 262</text>
<text text-anchor="start" x="290" y="-251.95" font-family="Helvetica,sans-Serif" font-size="14.00">value = [258, 4]</text>
<text text-anchor="start" x="292.25" y="-236.2" font-family="Helvetica,sans-Serif" font-size="14.00">class = Benign</text>
</g>
<!-- 1&#45;&gt;2 -->
<g id="edge2" class="edge">
<title>1&#45;&gt;2</title>
<path fill="none" stroke="black" d="M482.45,-355.34C456.37,-340.82 427,-324.48 401.48,-310.28"/>
<polygon fill="black" stroke="black" points="403.3,-307.29 392.86,-305.48 399.89,-313.41 403.3,-307.29"/>
</g>
<!-- 9 -->
<g id="node10" class="node">
<title>9</title>
<path fill="#b7dbf6" stroke="black" d="M614.38,-316.5C614.38,-316.5 492.62,-316.5 492.62,-316.5 486.62,-316.5 480.62,-310.5 480.62,-304.5 480.62,-304.5 480.62,-241.75 480.62,-241.75 480.62,-235.75 486.62,-229.75 492.62,-229.75 492.62,-229.75 614.38,-229.75 614.38,-229.75 620.38,-229.75 626.38,-235.75 626.38,-241.75 626.38,-241.75 626.38,-304.5 626.38,-304.5 626.38,-310.5 620.38,-316.5 614.38,-316.5"/>
<text text-anchor="start" x="488.62" y="-299.2" font-family="Helvetica,sans-Serif" font-size="14.00">texture_worst ≤ 19.91</text>
<text text-anchor="start" x="506.25" y="-283.45" font-family="Helvetica,sans-Serif" font-size="14.00">entropy = 0.964</text>
<text text-anchor="start" x="512.62" y="-267.7" font-family="Helvetica,sans-Serif" font-size="14.00">samples = 18</text>
<text text-anchor="start" x="511.12" y="-251.95" font-family="Helvetica,sans-Serif" font-size="14.00">value = [7, 11]</text>
<text text-anchor="start" x="500.62" y="-236.2" font-family="Helvetica,sans-Serif" font-size="14.00">class = Malignant</text>
</g>
<!-- 1&#45;&gt;9 -->
<g id="edge9" class="edge">
<title>1&#45;&gt;9</title>
<path fill="none" stroke="black" d="M553.5,-352.3C553.5,-344.46 553.5,-336.17 553.5,-328.04"/>
<polygon fill="black" stroke="black" points="557,-328.23 553.5,-318.23 550,-328.23 557,-328.23"/>
</g>
<!-- 3 -->
<g id="node4" class="node">
<title>3</title>
<path fill="#e5823b" stroke="black" d="M233,-193.75C233,-193.75 118,-193.75 118,-193.75 112,-193.75 106,-187.75 106,-181.75 106,-181.75 106,-119 106,-119 106,-113 112,-107 118,-107 118,-107 233,-107 233,-107 239,-107 245,-113 245,-119 245,-119 245,-181.75 245,-181.75 245,-187.75 239,-193.75 233,-193.75"/>
<text text-anchor="start" x="114" y="-176.45" font-family="Helvetica,sans-Serif" font-size="14.00">area_worst ≤ 766.45</text>
<text text-anchor="start" x="128.25" y="-160.7" font-family="Helvetica,sans-Serif" font-size="14.00">entropy = 0.065</text>
<text text-anchor="start" x="130.88" y="-144.95" font-family="Helvetica,sans-Serif" font-size="14.00">samples = 259</text>
<text text-anchor="start" x="129" y="-129.2" font-family="Helvetica,sans-Serif" font-size="14.00">value = [257, 2]</text>
<text text-anchor="start" x="131.25" y="-113.45" font-family="Helvetica,sans-Serif" font-size="14.00">class = Benign</text>
</g>
<!-- 2&#45;&gt;3 -->
<g id="edge3" class="edge">
<title>2&#45;&gt;3</title>
<path fill="none" stroke="black" d="M281.54,-230.91C268.66,-221.25 254.81,-210.86 241.51,-200.88"/>
<polygon fill="black" stroke="black" points="243.71,-198.16 233.61,-194.96 239.51,-203.76 243.71,-198.16"/>
</g>
<!-- 6 -->
<g id="node7" class="node">
<title>6</title>
<path fill="#9ccef2" stroke="black" d="M397.75,-193.75C397.75,-193.75 275.25,-193.75 275.25,-193.75 269.25,-193.75 263.25,-187.75 263.25,-181.75 263.25,-181.75 263.25,-119 263.25,-119 263.25,-113 269.25,-107 275.25,-107 275.25,-107 397.75,-107 397.75,-107 403.75,-107 409.75,-113 409.75,-119 409.75,-119 409.75,-181.75 409.75,-181.75 409.75,-187.75 403.75,-193.75 397.75,-193.75"/>
<text text-anchor="start" x="271.25" y="-176.45" font-family="Helvetica,sans-Serif" font-size="14.00">symmetry_se ≤ 0.025</text>
<text text-anchor="start" x="289.25" y="-160.7" font-family="Helvetica,sans-Serif" font-size="14.00">entropy = 0.918</text>
<text text-anchor="start" x="299.38" y="-144.95" font-family="Helvetica,sans-Serif" font-size="14.00">samples = 3</text>
<text text-anchor="start" x="297.5" y="-129.2" font-family="Helvetica,sans-Serif" font-size="14.00">value = [1, 2]</text>
<text text-anchor="start" x="283.62" y="-113.45" font-family="Helvetica,sans-Serif" font-size="14.00">class = Malignant</text>
</g>
<!-- 2&#45;&gt;6 -->
<g id="edge6" class="edge">
<title>2&#45;&gt;6</title>
<path fill="none" stroke="black" d="M336.5,-229.55C336.5,-221.71 336.5,-213.42 336.5,-205.29"/>
<polygon fill="black" stroke="black" points="340,-205.48 336.5,-195.48 333,-205.48 340,-205.48"/>
</g>
<!-- 4 -->
<g id="node5" class="node">
<title>4</title>
<path fill="#e58139" stroke="black" d="M97,-71C97,-71 12,-71 12,-71 6,-71 0,-65 0,-59 0,-59 0,-12 0,-12 0,-6 6,0 12,0 12,0 97,0 97,0 103,0 109,-6 109,-12 109,-12 109,-59 109,-59 109,-65 103,-71 97,-71"/>
<text text-anchor="start" x="14.75" y="-53.7" font-family="Helvetica,sans-Serif" font-size="14.00">entropy = 0.0</text>
<text text-anchor="start" x="9.88" y="-37.95" font-family="Helvetica,sans-Serif" font-size="14.00">samples = 239</text>
<text text-anchor="start" x="8" y="-22.2" font-family="Helvetica,sans-Serif" font-size="14.00">value = [239, 0]</text>
<text text-anchor="start" x="10.25" y="-6.45" font-family="Helvetica,sans-Serif" font-size="14.00">class = Benign</text>
</g>
<!-- 3&#45;&gt;4 -->
<g id="edge4" class="edge">
<title>3&#45;&gt;4</title>
<path fill="none" stroke="black" d="M129.76,-106.7C120.02,-97.62 109.75,-88.04 100.03,-78.97"/>
<polygon fill="black" stroke="black" points="102.46,-76.45 92.76,-72.19 97.68,-81.57 102.46,-76.45"/>
</g>
<!-- 5 -->
<g id="node6" class="node">
<title>5</title>
<path fill="#e88f4f" stroke="black" d="M225.75,-71C225.75,-71 139.25,-71 139.25,-71 133.25,-71 127.25,-65 127.25,-59 127.25,-59 127.25,-12 127.25,-12 127.25,-6 133.25,0 139.25,0 139.25,0 225.75,0 225.75,0 231.75,0 237.75,-6 237.75,-12 237.75,-12 237.75,-59 237.75,-59 237.75,-65 231.75,-71 225.75,-71"/>
<text text-anchor="start" x="135.25" y="-53.7" font-family="Helvetica,sans-Serif" font-size="14.00">entropy = 0.469</text>
<text text-anchor="start" x="141.62" y="-37.95" font-family="Helvetica,sans-Serif" font-size="14.00">samples = 20</text>
<text text-anchor="start" x="139.75" y="-22.2" font-family="Helvetica,sans-Serif" font-size="14.00">value = [18, 2]</text>
<text text-anchor="start" x="138.25" y="-6.45" font-family="Helvetica,sans-Serif" font-size="14.00">class = Benign</text>
</g>
<!-- 3&#45;&gt;5 -->
<g id="edge5" class="edge">
<title>3&#45;&gt;5</title>
<path fill="none" stroke="black" d="M178.15,-106.7C178.64,-98.82 179.15,-90.55 179.64,-82.57"/>
<polygon fill="black" stroke="black" points="183.13,-82.87 180.26,-72.67 176.14,-82.43 183.13,-82.87"/>
</g>
<!-- 7 -->
<g id="node8" class="node">
<title>7</title>
<path fill="#399de5" stroke="black" d="M378.38,-71C378.38,-71 280.62,-71 280.62,-71 274.62,-71 268.62,-65 268.62,-59 268.62,-59 268.62,-12 268.62,-12 268.62,-6 274.62,0 280.62,0 280.62,0 378.38,0 378.38,0 384.38,0 390.38,-6 390.38,-12 390.38,-12 390.38,-59 390.38,-59 390.38,-65 384.38,-71 378.38,-71"/>
<text text-anchor="start" x="289.75" y="-53.7" font-family="Helvetica,sans-Serif" font-size="14.00">entropy = 0.0</text>
<text text-anchor="start" x="292.38" y="-37.95" font-family="Helvetica,sans-Serif" font-size="14.00">samples = 2</text>
<text text-anchor="start" x="290.5" y="-22.2" font-family="Helvetica,sans-Serif" font-size="14.00">value = [0, 2]</text>
<text text-anchor="start" x="276.62" y="-6.45" font-family="Helvetica,sans-Serif" font-size="14.00">class = Malignant</text>
</g>
<!-- 6&#45;&gt;7 -->
<g id="edge7" class="edge">
<title>6&#45;&gt;7</title>
<path fill="none" stroke="black" d="M333.85,-106.7C333.36,-98.82 332.85,-90.55 332.36,-82.57"/>
<polygon fill="black" stroke="black" points="335.86,-82.43 331.74,-72.67 328.87,-82.87 335.86,-82.43"/>
</g>
<!-- 8 -->
<g id="node9" class="node">
<title>8</title>
<path fill="#e58139" stroke="black" d="M500.75,-71C500.75,-71 420.25,-71 420.25,-71 414.25,-71 408.25,-65 408.25,-59 408.25,-59 408.25,-12 408.25,-12 408.25,-6 414.25,0 420.25,0 420.25,0 500.75,0 500.75,0 506.75,0 512.75,-6 512.75,-12 512.75,-12 512.75,-59 512.75,-59 512.75,-65 506.75,-71 500.75,-71"/>
<text text-anchor="start" x="420.75" y="-53.7" font-family="Helvetica,sans-Serif" font-size="14.00">entropy = 0.0</text>
<text text-anchor="start" x="423.38" y="-37.95" font-family="Helvetica,sans-Serif" font-size="14.00">samples = 1</text>
<text text-anchor="start" x="421.5" y="-22.2" font-family="Helvetica,sans-Serif" font-size="14.00">value = [1, 0]</text>
<text text-anchor="start" x="416.25" y="-6.45" font-family="Helvetica,sans-Serif" font-size="14.00">class = Benign</text>
</g>
<!-- 6&#45;&gt;8 -->
<g id="edge8" class="edge">
<title>6&#45;&gt;8</title>
<path fill="none" stroke="black" d="M383.38,-106.7C393.45,-97.53 404.09,-87.85 414.15,-78.7"/>
<polygon fill="black" stroke="black" points="416.27,-81.5 421.31,-72.18 411.56,-76.32 416.27,-81.5"/>
</g>
<!-- 10 -->
<g id="node11" class="node">
<title>10</title>
<path fill="#e58139" stroke="black" d="M520.75,-185.88C520.75,-185.88 440.25,-185.88 440.25,-185.88 434.25,-185.88 428.25,-179.88 428.25,-173.88 428.25,-173.88 428.25,-126.88 428.25,-126.88 428.25,-120.88 434.25,-114.88 440.25,-114.88 440.25,-114.88 520.75,-114.88 520.75,-114.88 526.75,-114.88 532.75,-120.88 532.75,-126.88 532.75,-126.88 532.75,-173.88 532.75,-173.88 532.75,-179.88 526.75,-185.88 520.75,-185.88"/>
<text text-anchor="start" x="440.75" y="-168.57" font-family="Helvetica,sans-Serif" font-size="14.00">entropy = 0.0</text>
<text text-anchor="start" x="443.38" y="-152.82" font-family="Helvetica,sans-Serif" font-size="14.00">samples = 6</text>
<text text-anchor="start" x="441.5" y="-137.07" font-family="Helvetica,sans-Serif" font-size="14.00">value = [6, 0]</text>
<text text-anchor="start" x="436.25" y="-121.33" font-family="Helvetica,sans-Serif" font-size="14.00">class = Benign</text>
</g>
<!-- 9&#45;&gt;10 -->
<g id="edge10" class="edge">
<title>9&#45;&gt;10</title>
<path fill="none" stroke="black" d="M527.76,-229.55C521.16,-218.64 514.05,-206.87 507.39,-195.86"/>
<polygon fill="black" stroke="black" points="510.39,-194.05 502.22,-187.3 504.4,-197.67 510.39,-194.05"/>
</g>
<!-- 11 -->
<g id="node12" class="node">
<title>11</title>
<path fill="#4ba6e7" stroke="black" d="M716.5,-193.75C716.5,-193.75 562.5,-193.75 562.5,-193.75 556.5,-193.75 550.5,-187.75 550.5,-181.75 550.5,-181.75 550.5,-119 550.5,-119 550.5,-113 556.5,-107 562.5,-107 562.5,-107 716.5,-107 716.5,-107 722.5,-107 728.5,-113 728.5,-119 728.5,-119 728.5,-181.75 728.5,-181.75 728.5,-187.75 722.5,-193.75 716.5,-193.75"/>
<text text-anchor="start" x="558.5" y="-176.45" font-family="Helvetica,sans-Serif" font-size="14.00">smoothness_worst ≤ 0.094</text>
<text text-anchor="start" x="592.25" y="-160.7" font-family="Helvetica,sans-Serif" font-size="14.00">entropy = 0.414</text>
<text text-anchor="start" x="598.62" y="-144.95" font-family="Helvetica,sans-Serif" font-size="14.00">samples = 12</text>
<text text-anchor="start" x="597.12" y="-129.2" font-family="Helvetica,sans-Serif" font-size="14.00">value = [1, 11]</text>
<text text-anchor="start" x="586.62" y="-113.45" font-family="Helvetica,sans-Serif" font-size="14.00">class = Malignant</text>
</g>
<!-- 9&#45;&gt;11 -->
<g id="edge11" class="edge">
<title>9&#45;&gt;11</title>
<path fill="none" stroke="black" d="M583.82,-229.55C589.86,-221.08 596.26,-212.09 602.49,-203.33"/>
<polygon fill="black" stroke="black" points="605.34,-205.38 608.29,-195.2 599.63,-201.32 605.34,-205.38"/>
</g>
<!-- 12 -->
<g id="node13" class="node">
<title>12</title>
<path fill="#e58139" stroke="black" d="M651.75,-71C651.75,-71 571.25,-71 571.25,-71 565.25,-71 559.25,-65 559.25,-59 559.25,-59 559.25,-12 559.25,-12 559.25,-6 565.25,0 571.25,0 571.25,0 651.75,0 651.75,0 657.75,0 663.75,-6 663.75,-12 663.75,-12 663.75,-59 663.75,-59 663.75,-65 657.75,-71 651.75,-71"/>
<text text-anchor="start" x="571.75" y="-53.7" font-family="Helvetica,sans-Serif" font-size="14.00">entropy = 0.0</text>
<text text-anchor="start" x="574.38" y="-37.95" font-family="Helvetica,sans-Serif" font-size="14.00">samples = 1</text>
<text text-anchor="start" x="572.5" y="-22.2" font-family="Helvetica,sans-Serif" font-size="14.00">value = [1, 0]</text>
<text text-anchor="start" x="567.25" y="-6.45" font-family="Helvetica,sans-Serif" font-size="14.00">class = Benign</text>
</g>
<!-- 11&#45;&gt;12 -->
<g id="edge12" class="edge">
<title>11&#45;&gt;12</title>
<path fill="none" stroke="black" d="M628.91,-106.7C626.94,-98.72 624.86,-90.36 622.86,-82.29"/>
<polygon fill="black" stroke="black" points="626.27,-81.49 620.46,-72.63 619.47,-83.17 626.27,-81.49"/>
</g>
<!-- 13 -->
<g id="node14" class="node">
<title>13</title>
<path fill="#399de5" stroke="black" d="M791.38,-71C791.38,-71 693.62,-71 693.62,-71 687.62,-71 681.62,-65 681.62,-59 681.62,-59 681.62,-12 681.62,-12 681.62,-6 687.62,0 693.62,0 693.62,0 791.38,0 791.38,0 797.38,0 803.38,-6 803.38,-12 803.38,-12 803.38,-59 803.38,-59 803.38,-65 797.38,-71 791.38,-71"/>
<text text-anchor="start" x="702.75" y="-53.7" font-family="Helvetica,sans-Serif" font-size="14.00">entropy = 0.0</text>
<text text-anchor="start" x="702" y="-37.95" font-family="Helvetica,sans-Serif" font-size="14.00">samples = 11</text>
<text text-anchor="start" x="700.12" y="-22.2" font-family="Helvetica,sans-Serif" font-size="14.00">value = [0, 11]</text>
<text text-anchor="start" x="689.62" y="-6.45" font-family="Helvetica,sans-Serif" font-size="14.00">class = Malignant</text>
</g>
<!-- 11&#45;&gt;13 -->
<g id="edge13" class="edge">
<title>11&#45;&gt;13</title>
<path fill="none" stroke="black" d="M678.44,-106.7C686.56,-97.81 695.12,-88.43 703.24,-79.52"/>
<polygon fill="black" stroke="black" points="705.7,-82.02 709.85,-72.28 700.53,-77.3 705.7,-82.02"/>
</g>
<!-- 15 -->
<g id="node16" class="node">
<title>15</title>
<path fill="#cce6f8" stroke="black" d="M866.88,-316.5C866.88,-316.5 730.12,-316.5 730.12,-316.5 724.12,-316.5 718.12,-310.5 718.12,-304.5 718.12,-304.5 718.12,-241.75 718.12,-241.75 718.12,-235.75 724.12,-229.75 730.12,-229.75 730.12,-229.75 866.88,-229.75 866.88,-229.75 872.88,-229.75 878.88,-235.75 878.88,-241.75 878.88,-241.75 878.88,-304.5 878.88,-304.5 878.88,-310.5 872.88,-316.5 866.88,-316.5"/>
<text text-anchor="start" x="726.12" y="-299.2" font-family="Helvetica,sans-Serif" font-size="14.00">concavity_worst ≤ 0.262</text>
<text text-anchor="start" x="751.25" y="-283.45" font-family="Helvetica,sans-Serif" font-size="14.00">entropy = 0.984</text>
<text text-anchor="start" x="757.62" y="-267.7" font-family="Helvetica,sans-Serif" font-size="14.00">samples = 47</text>
<text text-anchor="start" x="740.75" y="-251.95" font-family="Helvetica,sans-Serif" font-size="14.00">value = [20.0, 27.0]</text>
<text text-anchor="start" x="745.62" y="-236.2" font-family="Helvetica,sans-Serif" font-size="14.00">class = Malignant</text>
</g>
<!-- 14&#45;&gt;15 -->
<g id="edge15" class="edge">
<title>14&#45;&gt;15</title>
<path fill="none" stroke="black" d="M798.5,-352.3C798.5,-344.46 798.5,-336.17 798.5,-328.04"/>
<polygon fill="black" stroke="black" points="802,-328.23 798.5,-318.23 795,-328.23 802,-328.23"/>
</g>
<!-- 20 -->
<g id="node21" class="node">
<title>20</title>
<path fill="#399de5" stroke="black" d="M1006.38,-308.62C1006.38,-308.62 908.62,-308.62 908.62,-308.62 902.62,-308.62 896.62,-302.62 896.62,-296.62 896.62,-296.62 896.62,-249.62 896.62,-249.62 896.62,-243.62 902.62,-237.62 908.62,-237.62 908.62,-237.62 1006.38,-237.62 1006.38,-237.62 1012.38,-237.62 1018.38,-243.62 1018.38,-249.62 1018.38,-249.62 1018.38,-296.62 1018.38,-296.62 1018.38,-302.62 1012.38,-308.62 1006.38,-308.62"/>
<text text-anchor="start" x="917.75" y="-291.32" font-family="Helvetica,sans-Serif" font-size="14.00">entropy = 0.0</text>
<text text-anchor="start" x="912.88" y="-275.57" font-family="Helvetica,sans-Serif" font-size="14.00">samples = 128</text>
<text text-anchor="start" x="911" y="-259.82" font-family="Helvetica,sans-Serif" font-size="14.00">value = [0, 128]</text>
<text text-anchor="start" x="904.62" y="-244.07" font-family="Helvetica,sans-Serif" font-size="14.00">class = Malignant</text>
</g>
<!-- 14&#45;&gt;20 -->
<g id="edge20" class="edge">
<title>14&#45;&gt;20</title>
<path fill="none" stroke="black" d="M854.56,-352.3C870.18,-340.44 887.12,-327.57 902.67,-315.76"/>
<polygon fill="black" stroke="black" points="904.59,-318.7 910.44,-309.86 900.36,-313.12 904.59,-318.7"/>
</g>
<!-- 16 -->
<g id="node17" class="node">
<title>16</title>
<path fill="#e58139" stroke="black" d="M838.75,-185.88C838.75,-185.88 758.25,-185.88 758.25,-185.88 752.25,-185.88 746.25,-179.88 746.25,-173.88 746.25,-173.88 746.25,-126.88 746.25,-126.88 746.25,-120.88 752.25,-114.88 758.25,-114.88 758.25,-114.88 838.75,-114.88 838.75,-114.88 844.75,-114.88 850.75,-120.88 850.75,-126.88 850.75,-126.88 850.75,-173.88 850.75,-173.88 850.75,-179.88 844.75,-185.88 838.75,-185.88"/>
<text text-anchor="start" x="758.75" y="-168.57" font-family="Helvetica,sans-Serif" font-size="14.00">entropy = 0.0</text>
<text text-anchor="start" x="757.62" y="-152.82" font-family="Helvetica,sans-Serif" font-size="14.00">samples = 12</text>
<text text-anchor="start" x="755.75" y="-137.07" font-family="Helvetica,sans-Serif" font-size="14.00">value = [12, 0]</text>
<text text-anchor="start" x="754.25" y="-121.33" font-family="Helvetica,sans-Serif" font-size="14.00">class = Benign</text>
</g>
<!-- 15&#45;&gt;16 -->
<g id="edge16" class="edge">
<title>15&#45;&gt;16</title>
<path fill="none" stroke="black" d="M798.5,-229.55C798.5,-219.08 798.5,-207.83 798.5,-197.21"/>
<polygon fill="black" stroke="black" points="802,-197.52 798.5,-187.52 795,-197.52 802,-197.52"/>
</g>
<!-- 17 -->
<g id="node18" class="node">
<title>17</title>
<path fill="#74baed" stroke="black" d="M1002.38,-193.75C1002.38,-193.75 880.62,-193.75 880.62,-193.75 874.62,-193.75 868.62,-187.75 868.62,-181.75 868.62,-181.75 868.62,-119 868.62,-119 868.62,-113 874.62,-107 880.62,-107 880.62,-107 1002.38,-107 1002.38,-107 1008.38,-107 1014.38,-113 1014.38,-119 1014.38,-119 1014.38,-181.75 1014.38,-181.75 1014.38,-187.75 1008.38,-193.75 1002.38,-193.75"/>
<text text-anchor="start" x="876.62" y="-176.45" font-family="Helvetica,sans-Serif" font-size="14.00">texture_worst ≤ 25.62</text>
<text text-anchor="start" x="894.25" y="-160.7" font-family="Helvetica,sans-Serif" font-size="14.00">entropy = 0.776</text>
<text text-anchor="start" x="900.62" y="-144.95" font-family="Helvetica,sans-Serif" font-size="14.00">samples = 35</text>
<text text-anchor="start" x="898.75" y="-129.2" font-family="Helvetica,sans-Serif" font-size="14.00">value = [8, 27]</text>
<text text-anchor="start" x="888.62" y="-113.45" font-family="Helvetica,sans-Serif" font-size="14.00">class = Malignant</text>
</g>
<!-- 15&#45;&gt;17 -->
<g id="edge17" class="edge">
<title>15&#45;&gt;17</title>
<path fill="none" stroke="black" d="M848.92,-229.55C859.7,-220.44 871.19,-210.74 882.28,-201.38"/>
<polygon fill="black" stroke="black" points="884.52,-204.07 889.9,-194.95 880,-198.72 884.52,-204.07"/>
</g>
<!-- 18 -->
<g id="node19" class="node">
<title>18</title>
<path fill="#f8dbc6" stroke="black" d="M961.75,-71C961.75,-71 881.25,-71 881.25,-71 875.25,-71 869.25,-65 869.25,-59 869.25,-59 869.25,-12 869.25,-12 869.25,-6 875.25,0 881.25,0 881.25,0 961.75,0 961.75,0 967.75,0 973.75,-6 973.75,-12 973.75,-12 973.75,-59 973.75,-59 973.75,-65 967.75,-71 961.75,-71"/>
<text text-anchor="start" x="878" y="-53.7" font-family="Helvetica,sans-Serif" font-size="14.00">entropy = 0.98</text>
<text text-anchor="start" x="880.62" y="-37.95" font-family="Helvetica,sans-Serif" font-size="14.00">samples = 12</text>
<text text-anchor="start" x="882.5" y="-22.2" font-family="Helvetica,sans-Serif" font-size="14.00">value = [7, 5]</text>
<text text-anchor="start" x="877.25" y="-6.45" font-family="Helvetica,sans-Serif" font-size="14.00">class = Benign</text>
</g>
<!-- 17&#45;&gt;18 -->
<g id="edge18" class="edge">
<title>17&#45;&gt;18</title>
<path fill="none" stroke="black" d="M933.94,-106.7C932.53,-98.72 931.04,-90.36 929.61,-82.29"/>
<polygon fill="black" stroke="black" points="933.1,-81.88 927.9,-72.65 926.2,-83.1 933.1,-81.88"/>
</g>
<!-- 19 -->
<g id="node20" class="node">
<title>19</title>
<path fill="#42a1e6" stroke="black" d="M1101.38,-71C1101.38,-71 1003.62,-71 1003.62,-71 997.62,-71 991.62,-65 991.62,-59 991.62,-59 991.62,-12 991.62,-12 991.62,-6 997.62,0 1003.62,0 1003.62,0 1101.38,0 1101.38,0 1107.38,0 1113.38,-6 1113.38,-12 1113.38,-12 1113.38,-59 1113.38,-59 1113.38,-65 1107.38,-71 1101.38,-71"/>
<text text-anchor="start" x="1005.25" y="-53.7" font-family="Helvetica,sans-Serif" font-size="14.00">entropy = 0.258</text>
<text text-anchor="start" x="1011.62" y="-37.95" font-family="Helvetica,sans-Serif" font-size="14.00">samples = 23</text>
<text text-anchor="start" x="1009.75" y="-22.2" font-family="Helvetica,sans-Serif" font-size="14.00">value = [1, 22]</text>
<text text-anchor="start" x="999.62" y="-6.45" font-family="Helvetica,sans-Serif" font-size="14.00">class = Malignant</text>
</g>
<!-- 17&#45;&gt;19 -->
<g id="edge19" class="edge">
<title>17&#45;&gt;19</title>
<path fill="none" stroke="black" d="M983.46,-106.7C992.3,-97.72 1001.63,-88.23 1010.46,-79.25"/>
<polygon fill="black" stroke="black" points="1012.84,-81.82 1017.36,-72.24 1007.85,-76.91 1012.84,-81.82"/>
</g>
</g>
</svg>
