<?xml version="1.0" encoding="UTF-8" standalone="no"?>
<!DOCTYPE svg PUBLIC "-//W3C//DTD SVG 1.1//EN"
 "http://www.w3.org/Graphics/SVG/1.1/DTD/svg11.dtd">
<!-- Generated by graphviz version 12.2.0 (20241103.1931)
 -->
<!-- Title: Tree Pages: 1 -->
<svg width="2314pt" height="570pt"
 viewBox="0.00 0.00 2313.62 570.00" xmlns="http://www.w3.org/2000/svg" xmlns:xlink="http://www.w3.org/1999/xlink">
<g id="graph0" class="graph" transform="scale(1 1) rotate(0) translate(4 566)">
<title>Tree</title>
<polygon fill="white" stroke="none" points="-4,4 -4,-566 2309.62,-566 2309.62,4 -4,4"/>
<!-- 0 -->
<g id="node1" class="node">
<title>0</title>
<path fill="#79edaa" stroke="black" d="M1265.25,-562C1265.25,-562 1127.75,-562 1127.75,-562 1121.75,-562 1115.75,-556 1115.75,-550 1115.75,-550 1115.75,-487.25 1115.75,-487.25 1115.75,-481.25 1121.75,-475.25 1127.75,-475.25 1127.75,-475.25 1265.25,-475.25 1265.25,-475.25 1271.25,-475.25 1277.25,-481.25 1277.25,-487.25 1277.25,-487.25 1277.25,-550 1277.25,-550 1277.25,-556 1271.25,-562 1265.25,-562"/>
<text text-anchor="start" x="1150.75" y="-544.7" font-family="Helvetica,sans-Serif" font-size="14.00">alcohol ≤ 10.85</text>
<text text-anchor="start" x="1153" y="-528.95" font-family="Helvetica,sans-Serif" font-size="14.00">entropy = 0.97</text>
<text text-anchor="start" x="1148.12" y="-513.2" font-family="Helvetica,sans-Serif" font-size="14.00">samples = 3918</text>
<text text-anchor="start" x="1123.75" y="-497.45" font-family="Helvetica,sans-Serif" font-size="14.00">value = [146, 2924, 848]</text>
<text text-anchor="start" x="1145.88" y="-481.7" font-family="Helvetica,sans-Serif" font-size="14.00">class = Standard</text>
</g>
<!-- 1 -->
<g id="node2" class="node">
<title>1</title>
<path fill="#59e995" stroke="black" d="M991.5,-439.25C991.5,-439.25 855.5,-439.25 855.5,-439.25 849.5,-439.25 843.5,-433.25 843.5,-427.25 843.5,-427.25 843.5,-364.5 843.5,-364.5 843.5,-358.5 849.5,-352.5 855.5,-352.5 855.5,-352.5 991.5,-352.5 991.5,-352.5 997.5,-352.5 1003.5,-358.5 1003.5,-364.5 1003.5,-364.5 1003.5,-427.25 1003.5,-427.25 1003.5,-433.25 997.5,-439.25 991.5,-439.25"/>
<text text-anchor="start" x="857.12" y="-421.95" font-family="Helvetica,sans-Serif" font-size="14.00">volatile acidity ≤ 0.267</text>
<text text-anchor="start" x="876.25" y="-406.2" font-family="Helvetica,sans-Serif" font-size="14.00">entropy = 0.727</text>
<text text-anchor="start" x="875.12" y="-390.45" font-family="Helvetica,sans-Serif" font-size="14.00">samples = 2470</text>
<text text-anchor="start" x="851.5" y="-374.7" font-family="Helvetica,sans-Serif" font-size="14.00">value = [109, 2111, 250]</text>
<text text-anchor="start" x="872.88" y="-358.95" font-family="Helvetica,sans-Serif" font-size="14.00">class = Standard</text>
</g>
<!-- 0&#45;&gt;1 -->
<g id="edge1" class="edge">
<title>0&#45;&gt;1</title>
<path fill="none" stroke="black" d="M1115.33,-481.72C1083.56,-467.67 1046.98,-451.49 1014.34,-437.05"/>
<polygon fill="black" stroke="black" points="1015.83,-433.89 1005.27,-433.04 1013,-440.29 1015.83,-433.89"/>
<text text-anchor="middle" x="1012.9" y="-450.32" font-family="Helvetica,sans-Serif" font-size="14.00">True</text>
</g>
<!-- 16 -->
<g id="node17" class="node">
<title>16</title>
<path fill="#cdf8df" stroke="black" d="M1534,-439.25C1534,-439.25 1395,-439.25 1395,-439.25 1389,-439.25 1383,-433.25 1383,-427.25 1383,-427.25 1383,-364.5 1383,-364.5 1383,-358.5 1389,-352.5 1395,-352.5 1395,-352.5 1534,-352.5 1534,-352.5 1540,-352.5 1546,-358.5 1546,-364.5 1546,-364.5 1546,-427.25 1546,-427.25 1546,-433.25 1540,-439.25 1534,-439.25"/>
<text text-anchor="start" x="1391" y="-421.95" font-family="Helvetica,sans-Serif" font-size="14.00">free sulfur dioxide ≤ 11.5</text>
<text text-anchor="start" x="1421" y="-406.2" font-family="Helvetica,sans-Serif" font-size="14.00">entropy = 1.13</text>
<text text-anchor="start" x="1416.12" y="-390.45" font-family="Helvetica,sans-Serif" font-size="14.00">samples = 1448</text>
<text text-anchor="start" x="1399.25" y="-374.7" font-family="Helvetica,sans-Serif" font-size="14.00">value = [37, 813, 598]</text>
<text text-anchor="start" x="1413.88" y="-358.95" font-family="Helvetica,sans-Serif" font-size="14.00">class = Standard</text>
</g>
<!-- 0&#45;&gt;16 -->
<g id="edge16" class="edge">
<title>0&#45;&gt;16</title>
<path fill="none" stroke="black" d="M1277.64,-481.07C1307.53,-467.6 1341.61,-452.24 1372.41,-438.37"/>
<polygon fill="black" stroke="black" points="1373.66,-441.64 1381.33,-434.35 1370.78,-435.26 1373.66,-441.64"/>
<text text-anchor="middle" x="1373.86" y="-451.68" font-family="Helvetica,sans-Serif" font-size="14.00">False</text>
</g>
<!-- 2 -->
<g id="node3" class="node">
<title>2</title>
<path fill="#65eb9d" stroke="black" d="M533.5,-316.5C533.5,-316.5 403.5,-316.5 403.5,-316.5 397.5,-316.5 391.5,-310.5 391.5,-304.5 391.5,-304.5 391.5,-241.75 391.5,-241.75 391.5,-235.75 397.5,-229.75 403.5,-229.75 403.5,-229.75 533.5,-229.75 533.5,-229.75 539.5,-229.75 545.5,-235.75 545.5,-241.75 545.5,-241.75 545.5,-304.5 545.5,-304.5 545.5,-310.5 539.5,-316.5 533.5,-316.5"/>
<text text-anchor="start" x="402.12" y="-299.2" font-family="Helvetica,sans-Serif" font-size="14.00">volatile acidity ≤ 0.203</text>
<text text-anchor="start" x="421.25" y="-283.45" font-family="Helvetica,sans-Serif" font-size="14.00">entropy = 0.789</text>
<text text-anchor="start" x="420.12" y="-267.7" font-family="Helvetica,sans-Serif" font-size="14.00">samples = 1304</text>
<text text-anchor="start" x="399.5" y="-251.95" font-family="Helvetica,sans-Serif" font-size="14.00">value = [29, 1063, 212]</text>
<text text-anchor="start" x="417.88" y="-236.2" font-family="Helvetica,sans-Serif" font-size="14.00">class = Standard</text>
</g>
<!-- 1&#45;&gt;2 -->
<g id="edge2" class="edge">
<title>1&#45;&gt;2</title>
<path fill="none" stroke="black" d="M843.2,-373.57C762.87,-352.25 639.64,-319.54 556.65,-297.52"/>
<polygon fill="black" stroke="black" points="557.74,-294.19 547.18,-295.01 555.95,-300.95 557.74,-294.19"/>
</g>
<!-- 9 -->
<g id="node10" class="node">
<title>9</title>
<path fill="#4fe88f" stroke="black" d="M985.88,-316.5C985.88,-316.5 861.12,-316.5 861.12,-316.5 855.12,-316.5 849.12,-310.5 849.12,-304.5 849.12,-304.5 849.12,-241.75 849.12,-241.75 849.12,-235.75 855.12,-229.75 861.12,-229.75 861.12,-229.75 985.88,-229.75 985.88,-229.75 991.88,-229.75 997.88,-235.75 997.88,-241.75 997.88,-241.75 997.88,-304.5 997.88,-304.5 997.88,-310.5 991.88,-316.5 985.88,-316.5"/>
<text text-anchor="start" x="857.12" y="-299.2" font-family="Helvetica,sans-Serif" font-size="14.00">volatile acidity ≤ 0.515</text>
<text text-anchor="start" x="876.25" y="-283.45" font-family="Helvetica,sans-Serif" font-size="14.00">entropy = 0.565</text>
<text text-anchor="start" x="875.5" y="-267.7" font-family="Helvetica,sans-Serif" font-size="14.00">samples = 1166</text>
<text text-anchor="start" x="858.25" y="-251.95" font-family="Helvetica,sans-Serif" font-size="14.00">value = [80, 1048, 38]</text>
<text text-anchor="start" x="872.88" y="-236.2" font-family="Helvetica,sans-Serif" font-size="14.00">class = Standard</text>
</g>
<!-- 1&#45;&gt;9 -->
<g id="edge9" class="edge">
<title>1&#45;&gt;9</title>
<path fill="none" stroke="black" d="M923.5,-352.3C923.5,-344.46 923.5,-336.17 923.5,-328.04"/>
<polygon fill="black" stroke="black" points="927,-328.23 923.5,-318.23 920,-328.23 927,-328.23"/>
</g>
<!-- 3 -->
<g id="node4" class="node">
<title>3</title>
<path fill="#7ceeab" stroke="black" d="M280.75,-193.75C280.75,-193.75 158.25,-193.75 158.25,-193.75 152.25,-193.75 146.25,-187.75 146.25,-181.75 146.25,-181.75 146.25,-119 146.25,-119 146.25,-113 152.25,-107 158.25,-107 158.25,-107 280.75,-107 280.75,-107 286.75,-107 292.75,-113 292.75,-119 292.75,-119 292.75,-181.75 292.75,-181.75 292.75,-187.75 286.75,-193.75 280.75,-193.75"/>
<text text-anchor="start" x="173.75" y="-176.45" font-family="Helvetica,sans-Serif" font-size="14.00">density ≤ 0.998</text>
<text text-anchor="start" x="172.25" y="-160.7" font-family="Helvetica,sans-Serif" font-size="14.00">entropy = 0.915</text>
<text text-anchor="start" x="174.88" y="-144.95" font-family="Helvetica,sans-Serif" font-size="14.00">samples = 565</text>
<text text-anchor="start" x="154.25" y="-129.2" font-family="Helvetica,sans-Serif" font-size="14.00">value = [10, 420, 135]</text>
<text text-anchor="start" x="168.88" y="-113.45" font-family="Helvetica,sans-Serif" font-size="14.00">class = Standard</text>
</g>
<!-- 2&#45;&gt;3 -->
<g id="edge3" class="edge">
<title>2&#45;&gt;3</title>
<path fill="none" stroke="black" d="M391.08,-234.58C363.23,-221.08 331.7,-205.79 303.34,-192.03"/>
<polygon fill="black" stroke="black" points="304.93,-188.91 294.4,-187.7 301.88,-195.21 304.93,-188.91"/>
</g>
<!-- 6 -->
<g id="node7" class="node">
<title>6</title>
<path fill="#56e993" stroke="black" d="M526,-193.75C526,-193.75 411,-193.75 411,-193.75 405,-193.75 399,-187.75 399,-181.75 399,-181.75 399,-119 399,-119 399,-113 405,-107 411,-107 411,-107 526,-107 526,-107 532,-107 538,-113 538,-119 538,-119 538,-181.75 538,-181.75 538,-187.75 532,-193.75 526,-193.75"/>
<text text-anchor="start" x="435.5" y="-176.45" font-family="Helvetica,sans-Serif" font-size="14.00">pH ≤ 3.315</text>
<text text-anchor="start" x="425" y="-160.7" font-family="Helvetica,sans-Serif" font-size="14.00">entropy = 0.65</text>
<text text-anchor="start" x="423.88" y="-144.95" font-family="Helvetica,sans-Serif" font-size="14.00">samples = 739</text>
<text text-anchor="start" x="407" y="-129.2" font-family="Helvetica,sans-Serif" font-size="14.00">value = [19, 643, 77]</text>
<text text-anchor="start" x="417.88" y="-113.45" font-family="Helvetica,sans-Serif" font-size="14.00">class = Standard</text>
</g>
<!-- 2&#45;&gt;6 -->
<g id="edge6" class="edge">
<title>2&#45;&gt;6</title>
<path fill="none" stroke="black" d="M468.5,-229.55C468.5,-221.71 468.5,-213.42 468.5,-205.29"/>
<polygon fill="black" stroke="black" points="472,-205.48 468.5,-195.48 465,-205.48 472,-205.48"/>
</g>
<!-- 4 -->
<g id="node5" class="node">
<title>4</title>
<path fill="#6aeba0" stroke="black" d="M127,-71C127,-71 12,-71 12,-71 6,-71 0,-65 0,-59 0,-59 0,-12 0,-12 0,-6 6,0 12,0 12,0 127,0 127,0 133,0 139,-6 139,-12 139,-12 139,-59 139,-59 139,-65 133,-71 127,-71"/>
<text text-anchor="start" x="22.25" y="-53.7" font-family="Helvetica,sans-Serif" font-size="14.00">entropy = 0.829</text>
<text text-anchor="start" x="24.88" y="-37.95" font-family="Helvetica,sans-Serif" font-size="14.00">samples = 466</text>
<text text-anchor="start" x="8" y="-22.2" font-family="Helvetica,sans-Serif" font-size="14.00">value = [10, 371, 85]</text>
<text text-anchor="start" x="18.88" y="-6.45" font-family="Helvetica,sans-Serif" font-size="14.00">class = Standard</text>
</g>
<!-- 3&#45;&gt;4 -->
<g id="edge4" class="edge">
<title>3&#45;&gt;4</title>
<path fill="none" stroke="black" d="M162.79,-106.7C150.24,-97.26 136.96,-87.27 124.48,-77.87"/>
<polygon fill="black" stroke="black" points="126.86,-75.28 116.77,-72.07 122.65,-80.88 126.86,-75.28"/>
</g>
<!-- 5 -->
<g id="node6" class="node">
<title>5</title>
<path fill="#fcfbfe" stroke="black" d="M269.5,-71C269.5,-71 169.5,-71 169.5,-71 163.5,-71 157.5,-65 157.5,-59 157.5,-59 157.5,-12 157.5,-12 157.5,-6 163.5,0 169.5,0 169.5,0 269.5,0 269.5,0 275.5,0 281.5,-6 281.5,-12 281.5,-12 281.5,-59 281.5,-59 281.5,-65 275.5,-71 269.5,-71"/>
<text text-anchor="start" x="179.75" y="-53.7" font-family="Helvetica,sans-Serif" font-size="14.00">entropy = 1.0</text>
<text text-anchor="start" x="178.62" y="-37.95" font-family="Helvetica,sans-Serif" font-size="14.00">samples = 99</text>
<text text-anchor="start" x="165.5" y="-22.2" font-family="Helvetica,sans-Serif" font-size="14.00">value = [0, 49, 50]</text>
<text text-anchor="start" x="182.38" y="-6.45" font-family="Helvetica,sans-Serif" font-size="14.00">class = High</text>
</g>
<!-- 3&#45;&gt;5 -->
<g id="edge5" class="edge">
<title>3&#45;&gt;5</title>
<path fill="none" stroke="black" d="M219.5,-106.7C219.5,-98.82 219.5,-90.55 219.5,-82.57"/>
<polygon fill="black" stroke="black" points="223,-82.67 219.5,-72.67 216,-82.67 223,-82.67"/>
</g>
<!-- 7 -->
<g id="node8" class="node">
<title>7</title>
<path fill="#4fe88f" stroke="black" d="M459.5,-71C459.5,-71 311.5,-71 311.5,-71 305.5,-71 299.5,-65 299.5,-59 299.5,-59 299.5,-12 299.5,-12 299.5,-6 305.5,0 311.5,0 311.5,0 459.5,0 459.5,0 465.5,0 471.5,-6 471.5,-12 471.5,-12 471.5,-59 471.5,-59 471.5,-65 465.5,-71 459.5,-71"/>
<text text-anchor="start" x="338.25" y="-53.7" font-family="Helvetica,sans-Serif" font-size="14.00">entropy = 0.536</text>
<text text-anchor="start" x="341.25" y="-37.95" font-family="Helvetica,sans-Serif" font-size="14.00">samples = 611</text>
<text text-anchor="start" x="307.5" y="-22.2" font-family="Helvetica,sans-Serif" font-size="14.00">value = [11.0, 550.0, 50.0]</text>
<text text-anchor="start" x="334.88" y="-6.45" font-family="Helvetica,sans-Serif" font-size="14.00">class = Standard</text>
</g>
<!-- 6&#45;&gt;7 -->
<g id="edge7" class="edge">
<title>6&#45;&gt;7</title>
<path fill="none" stroke="black" d="M437.12,-106.7C430.78,-98.08 424.11,-89.01 417.74,-80.35"/>
<polygon fill="black" stroke="black" points="420.62,-78.36 411.88,-72.38 414.99,-82.51 420.62,-78.36"/>
</g>
<!-- 8 -->
<g id="node9" class="node">
<title>8</title>
<path fill="#7eeead" stroke="black" d="M601.5,-71C601.5,-71 501.5,-71 501.5,-71 495.5,-71 489.5,-65 489.5,-59 489.5,-59 489.5,-12 489.5,-12 489.5,-6 495.5,0 501.5,0 501.5,0 601.5,0 601.5,0 607.5,0 613.5,-6 613.5,-12 613.5,-12 613.5,-59 613.5,-59 613.5,-65 607.5,-71 601.5,-71"/>
<text text-anchor="start" x="504.25" y="-53.7" font-family="Helvetica,sans-Serif" font-size="14.00">entropy = 1.058</text>
<text text-anchor="start" x="506.88" y="-37.95" font-family="Helvetica,sans-Serif" font-size="14.00">samples = 128</text>
<text text-anchor="start" x="497.5" y="-22.2" font-family="Helvetica,sans-Serif" font-size="14.00">value = [8, 93, 27]</text>
<text text-anchor="start" x="500.88" y="-6.45" font-family="Helvetica,sans-Serif" font-size="14.00">class = Standard</text>
</g>
<!-- 6&#45;&gt;8 -->
<g id="edge8" class="edge">
<title>6&#45;&gt;8</title>
<path fill="none" stroke="black" d="M499.88,-106.7C506.22,-98.08 512.89,-89.01 519.26,-80.35"/>
<polygon fill="black" stroke="black" points="522.01,-82.51 525.12,-72.38 516.38,-78.36 522.01,-82.51"/>
</g>
<!-- 10 -->
<g id="node11" class="node">
<title>10</title>
<path fill="#4ae78c" stroke="black" d="M910.38,-193.75C910.38,-193.75 770.62,-193.75 770.62,-193.75 764.62,-193.75 758.62,-187.75 758.62,-181.75 758.62,-181.75 758.62,-119 758.62,-119 758.62,-113 764.62,-107 770.62,-107 770.62,-107 910.38,-107 910.38,-107 916.38,-107 922.38,-113 922.38,-119 922.38,-119 922.38,-181.75 922.38,-181.75 922.38,-187.75 916.38,-193.75 910.38,-193.75"/>
<text text-anchor="start" x="766.62" y="-176.45" font-family="Helvetica,sans-Serif" font-size="14.00">free sulfur dioxide ≤ 15.5</text>
<text text-anchor="start" x="793.25" y="-160.7" font-family="Helvetica,sans-Serif" font-size="14.00">entropy = 0.496</text>
<text text-anchor="start" x="792.12" y="-144.95" font-family="Helvetica,sans-Serif" font-size="14.00">samples = 1091</text>
<text text-anchor="start" x="775.25" y="-129.2" font-family="Helvetica,sans-Serif" font-size="14.00">value = [53, 1000, 38]</text>
<text text-anchor="start" x="789.88" y="-113.45" font-family="Helvetica,sans-Serif" font-size="14.00">class = Standard</text>
</g>
<!-- 9&#45;&gt;10 -->
<g id="edge10" class="edge">
<title>9&#45;&gt;10</title>
<path fill="none" stroke="black" d="M894.24,-229.55C888.41,-221.08 882.23,-212.09 876.22,-203.33"/>
<polygon fill="black" stroke="black" points="879.18,-201.48 870.64,-195.22 873.42,-205.44 879.18,-201.48"/>
</g>
<!-- 13 -->
<g id="node14" class="node">
<title>13</title>
<path fill="#a8f4c8" stroke="black" d="M1062.75,-193.75C1062.75,-193.75 952.25,-193.75 952.25,-193.75 946.25,-193.75 940.25,-187.75 940.25,-181.75 940.25,-181.75 940.25,-119 940.25,-119 940.25,-113 946.25,-107 952.25,-107 952.25,-107 1062.75,-107 1062.75,-107 1068.75,-107 1074.75,-113 1074.75,-119 1074.75,-119 1074.75,-181.75 1074.75,-181.75 1074.75,-187.75 1068.75,-193.75 1062.75,-193.75"/>
<text text-anchor="start" x="948.25" y="-176.45" font-family="Helvetica,sans-Serif" font-size="14.00">residual sugar ≤ 2.4</text>
<text text-anchor="start" x="960.25" y="-160.7" font-family="Helvetica,sans-Serif" font-size="14.00">entropy = 0.943</text>
<text text-anchor="start" x="966.62" y="-144.95" font-family="Helvetica,sans-Serif" font-size="14.00">samples = 75</text>
<text text-anchor="start" x="953.5" y="-129.2" font-family="Helvetica,sans-Serif" font-size="14.00">value = [27, 48, 0]</text>
<text text-anchor="start" x="956.88" y="-113.45" font-family="Helvetica,sans-Serif" font-size="14.00">class = Standard</text>
</g>
<!-- 9&#45;&gt;13 -->
<g id="edge13" class="edge">
<title>9&#45;&gt;13</title>
<path fill="none" stroke="black" d="M953.12,-229.55C959.01,-221.08 965.27,-212.09 971.35,-203.33"/>
<polygon fill="black" stroke="black" points="974.17,-205.42 977,-195.21 968.42,-201.42 974.17,-205.42"/>
</g>
<!-- 11 -->
<g id="node12" class="node">
<title>11</title>
<path fill="#69eba0" stroke="black" d="M751.25,-71C751.25,-71 643.75,-71 643.75,-71 637.75,-71 631.75,-65 631.75,-59 631.75,-59 631.75,-12 631.75,-12 631.75,-6 637.75,0 643.75,0 643.75,0 751.25,0 751.25,0 757.25,0 763.25,-6 763.25,-12 763.25,-12 763.25,-59 763.25,-59 763.25,-65 757.25,-71 751.25,-71"/>
<text text-anchor="start" x="650.25" y="-53.7" font-family="Helvetica,sans-Serif" font-size="14.00">entropy = 0.823</text>
<text text-anchor="start" x="652.88" y="-37.95" font-family="Helvetica,sans-Serif" font-size="14.00">samples = 135</text>
<text text-anchor="start" x="639.75" y="-22.2" font-family="Helvetica,sans-Serif" font-size="14.00">value = [24, 108, 3]</text>
<text text-anchor="start" x="646.88" y="-6.45" font-family="Helvetica,sans-Serif" font-size="14.00">class = Standard</text>
</g>
<!-- 10&#45;&gt;11 -->
<g id="edge11" class="edge">
<title>10&#45;&gt;11</title>
<path fill="none" stroke="black" d="M786.44,-106.7C774.59,-97.35 762.06,-87.46 750.26,-78.15"/>
<polygon fill="black" stroke="black" points="752.61,-75.54 742.6,-72.1 748.28,-81.04 752.61,-75.54"/>
</g>
<!-- 12 -->
<g id="node13" class="node">
<title>12</title>
<path fill="#47e78a" stroke="black" d="M908,-71C908,-71 793,-71 793,-71 787,-71 781,-65 781,-59 781,-59 781,-12 781,-12 781,-6 787,0 793,0 793,0 908,0 908,0 914,0 920,-6 920,-12 920,-12 920,-59 920,-59 920,-65 914,-71 908,-71"/>
<text text-anchor="start" x="803.25" y="-53.7" font-family="Helvetica,sans-Serif" font-size="14.00">entropy = 0.421</text>
<text text-anchor="start" x="805.88" y="-37.95" font-family="Helvetica,sans-Serif" font-size="14.00">samples = 956</text>
<text text-anchor="start" x="789" y="-22.2" font-family="Helvetica,sans-Serif" font-size="14.00">value = [29, 892, 35]</text>
<text text-anchor="start" x="799.88" y="-6.45" font-family="Helvetica,sans-Serif" font-size="14.00">class = Standard</text>
</g>
<!-- 10&#45;&gt;12 -->
<g id="edge12" class="edge">
<title>10&#45;&gt;12</title>
<path fill="none" stroke="black" d="M844.28,-106.7C844.98,-98.82 845.71,-90.55 846.42,-82.57"/>
<polygon fill="black" stroke="black" points="849.9,-82.93 847.3,-72.66 842.93,-82.32 849.9,-82.93"/>
</g>
<!-- 14 -->
<g id="node15" class="node">
<title>14</title>
<path fill="#f4c9aa" stroke="black" d="M1042.75,-71C1042.75,-71 950.25,-71 950.25,-71 944.25,-71 938.25,-65 938.25,-59 938.25,-59 938.25,-12 938.25,-12 938.25,-6 944.25,0 950.25,0 950.25,0 1042.75,0 1042.75,0 1048.75,0 1054.75,-6 1054.75,-12 1054.75,-12 1054.75,-59 1054.75,-59 1054.75,-65 1048.75,-71 1042.75,-71"/>
<text text-anchor="start" x="949.25" y="-53.7" font-family="Helvetica,sans-Serif" font-size="14.00">entropy = 0.946</text>
<text text-anchor="start" x="955.62" y="-37.95" font-family="Helvetica,sans-Serif" font-size="14.00">samples = 22</text>
<text text-anchor="start" x="946.25" y="-22.2" font-family="Helvetica,sans-Serif" font-size="14.00">value = [14, 8, 0]</text>
<text text-anchor="start" x="960.88" y="-6.45" font-family="Helvetica,sans-Serif" font-size="14.00">class = Low</text>
</g>
<!-- 13&#45;&gt;14 -->
<g id="edge14" class="edge">
<title>13&#45;&gt;14</title>
<path fill="none" stroke="black" d="M1003.34,-106.7C1002.57,-98.82 1001.77,-90.55 1000.99,-82.57"/>
<polygon fill="black" stroke="black" points="1004.48,-82.28 1000.02,-72.66 997.51,-82.96 1004.48,-82.28"/>
</g>
<!-- 15 -->
<g id="node16" class="node">
<title>15</title>
<path fill="#79edaa" stroke="black" d="M1184.5,-71C1184.5,-71 1084.5,-71 1084.5,-71 1078.5,-71 1072.5,-65 1072.5,-59 1072.5,-59 1072.5,-12 1072.5,-12 1072.5,-6 1078.5,0 1084.5,0 1084.5,0 1184.5,0 1184.5,0 1190.5,0 1196.5,-6 1196.5,-12 1196.5,-12 1196.5,-59 1196.5,-59 1196.5,-65 1190.5,-71 1184.5,-71"/>
<text text-anchor="start" x="1087.25" y="-53.7" font-family="Helvetica,sans-Serif" font-size="14.00">entropy = 0.804</text>
<text text-anchor="start" x="1093.62" y="-37.95" font-family="Helvetica,sans-Serif" font-size="14.00">samples = 53</text>
<text text-anchor="start" x="1080.5" y="-22.2" font-family="Helvetica,sans-Serif" font-size="14.00">value = [13, 40, 0]</text>
<text text-anchor="start" x="1083.88" y="-6.45" font-family="Helvetica,sans-Serif" font-size="14.00">class = Standard</text>
</g>
<!-- 13&#45;&gt;15 -->
<g id="edge15" class="edge">
<title>13&#45;&gt;15</title>
<path fill="none" stroke="black" d="M1055.51,-106.7C1065.83,-97.53 1076.73,-87.85 1087.02,-78.7"/>
<polygon fill="black" stroke="black" points="1089.22,-81.42 1094.37,-72.16 1084.57,-76.19 1089.22,-81.42"/>
</g>
<!-- 17 -->
<g id="node18" class="node">
<title>17</title>
<path fill="#91f1b9" stroke="black" d="M1518.25,-316.5C1518.25,-316.5 1410.75,-316.5 1410.75,-316.5 1404.75,-316.5 1398.75,-310.5 1398.75,-304.5 1398.75,-304.5 1398.75,-241.75 1398.75,-241.75 1398.75,-235.75 1404.75,-229.75 1410.75,-229.75 1410.75,-229.75 1518.25,-229.75 1518.25,-229.75 1524.25,-229.75 1530.25,-235.75 1530.25,-241.75 1530.25,-241.75 1530.25,-304.5 1530.25,-304.5 1530.25,-310.5 1524.25,-316.5 1518.25,-316.5"/>
<text text-anchor="start" x="1415.75" y="-299.2" font-family="Helvetica,sans-Serif" font-size="14.00">citric acid ≤ 0.25</text>
<text text-anchor="start" x="1417.25" y="-283.45" font-family="Helvetica,sans-Serif" font-size="14.00">entropy = 1.234</text>
<text text-anchor="start" x="1423.62" y="-267.7" font-family="Helvetica,sans-Serif" font-size="14.00">samples = 91</text>
<text text-anchor="start" x="1406.75" y="-251.95" font-family="Helvetica,sans-Serif" font-size="14.00">value = [21, 60, 10]</text>
<text text-anchor="start" x="1413.88" y="-236.2" font-family="Helvetica,sans-Serif" font-size="14.00">class = Standard</text>
</g>
<!-- 16&#45;&gt;17 -->
<g id="edge17" class="edge">
<title>16&#45;&gt;17</title>
<path fill="none" stroke="black" d="M1464.5,-352.3C1464.5,-344.46 1464.5,-336.17 1464.5,-328.04"/>
<polygon fill="black" stroke="black" points="1468,-328.23 1464.5,-318.23 1461,-328.23 1468,-328.23"/>
</g>
<!-- 24 -->
<g id="node25" class="node">
<title>24</title>
<path fill="#d5f9e4" stroke="black" d="M1931.62,-316.5C1931.62,-316.5 1775.38,-316.5 1775.38,-316.5 1769.38,-316.5 1763.38,-310.5 1763.38,-304.5 1763.38,-304.5 1763.38,-241.75 1763.38,-241.75 1763.38,-235.75 1769.38,-229.75 1775.38,-229.75 1775.38,-229.75 1931.62,-229.75 1931.62,-229.75 1937.62,-229.75 1943.62,-235.75 1943.62,-241.75 1943.62,-241.75 1943.62,-304.5 1943.62,-304.5 1943.62,-310.5 1937.62,-316.5 1931.62,-316.5"/>
<text text-anchor="start" x="1804.38" y="-299.2" font-family="Helvetica,sans-Serif" font-size="14.00">alcohol ≤ 11.742</text>
<text text-anchor="start" x="1810" y="-283.45" font-family="Helvetica,sans-Serif" font-size="14.00">entropy = 1.07</text>
<text text-anchor="start" x="1805.12" y="-267.7" font-family="Helvetica,sans-Serif" font-size="14.00">samples = 1357</text>
<text text-anchor="start" x="1771.38" y="-251.95" font-family="Helvetica,sans-Serif" font-size="14.00">value = [16.0, 753.0, 588.0]</text>
<text text-anchor="start" x="1802.88" y="-236.2" font-family="Helvetica,sans-Serif" font-size="14.00">class = Standard</text>
</g>
<!-- 16&#45;&gt;24 -->
<g id="edge24" class="edge">
<title>16&#45;&gt;24</title>
<path fill="none" stroke="black" d="M1546.05,-369.56C1605.96,-350.96 1687.77,-325.57 1751.93,-305.65"/>
<polygon fill="black" stroke="black" points="1752.92,-309.01 1761.44,-302.7 1750.85,-302.32 1752.92,-309.01"/>
</g>
<!-- 18 -->
<g id="node19" class="node">
<title>18</title>
<path fill="#eeaf81" stroke="black" d="M1440.75,-193.75C1440.75,-193.75 1354.25,-193.75 1354.25,-193.75 1348.25,-193.75 1342.25,-187.75 1342.25,-181.75 1342.25,-181.75 1342.25,-119 1342.25,-119 1342.25,-113 1348.25,-107 1354.25,-107 1354.25,-107 1440.75,-107 1440.75,-107 1446.75,-107 1452.75,-113 1452.75,-119 1452.75,-119 1452.75,-181.75 1452.75,-181.75 1452.75,-187.75 1446.75,-193.75 1440.75,-193.75"/>
<text text-anchor="start" x="1355.5" y="-176.45" font-family="Helvetica,sans-Serif" font-size="14.00">alcohol ≤ 12.0</text>
<text text-anchor="start" x="1350.25" y="-160.7" font-family="Helvetica,sans-Serif" font-size="14.00">entropy = 1.198</text>
<text text-anchor="start" x="1356.62" y="-144.95" font-family="Helvetica,sans-Serif" font-size="14.00">samples = 13</text>
<text text-anchor="start" x="1351" y="-129.2" font-family="Helvetica,sans-Serif" font-size="14.00">value = [9, 2, 2]</text>
<text text-anchor="start" x="1361.88" y="-113.45" font-family="Helvetica,sans-Serif" font-size="14.00">class = Low</text>
</g>
<!-- 17&#45;&gt;18 -->
<g id="edge18" class="edge">
<title>17&#45;&gt;18</title>
<path fill="none" stroke="black" d="M1440.88,-229.55C1436.27,-221.26 1431.4,-212.47 1426.64,-203.89"/>
<polygon fill="black" stroke="black" points="1429.78,-202.34 1421.87,-195.29 1423.66,-205.74 1429.78,-202.34"/>
</g>
<!-- 21 -->
<g id="node22" class="node">
<title>21</title>
<path fill="#75eda7" stroke="black" d="M1582.5,-193.75C1582.5,-193.75 1482.5,-193.75 1482.5,-193.75 1476.5,-193.75 1470.5,-187.75 1470.5,-181.75 1470.5,-181.75 1470.5,-119 1470.5,-119 1470.5,-113 1476.5,-107 1482.5,-107 1482.5,-107 1582.5,-107 1582.5,-107 1588.5,-107 1594.5,-113 1594.5,-119 1594.5,-119 1594.5,-181.75 1594.5,-181.75 1594.5,-187.75 1588.5,-193.75 1582.5,-193.75"/>
<text text-anchor="start" x="1499.5" y="-176.45" font-family="Helvetica,sans-Serif" font-size="14.00">pH ≤ 3.425</text>
<text text-anchor="start" x="1489" y="-160.7" font-family="Helvetica,sans-Serif" font-size="14.00">entropy = 1.07</text>
<text text-anchor="start" x="1491.62" y="-144.95" font-family="Helvetica,sans-Serif" font-size="14.00">samples = 78</text>
<text text-anchor="start" x="1478.5" y="-129.2" font-family="Helvetica,sans-Serif" font-size="14.00">value = [12, 58, 8]</text>
<text text-anchor="start" x="1481.88" y="-113.45" font-family="Helvetica,sans-Serif" font-size="14.00">class = Standard</text>
</g>
<!-- 17&#45;&gt;21 -->
<g id="edge21" class="edge">
<title>17&#45;&gt;21</title>
<path fill="none" stroke="black" d="M1488.47,-229.55C1493.15,-221.26 1498.1,-212.47 1502.92,-203.89"/>
<polygon fill="black" stroke="black" points="1505.91,-205.72 1507.77,-195.29 1499.81,-202.28 1505.91,-205.72"/>
</g>
<!-- 19 -->
<g id="node20" class="node">
<title>19</title>
<path fill="#e58139" stroke="black" d="M1312,-71C1312,-71 1227,-71 1227,-71 1221,-71 1215,-65 1215,-59 1215,-59 1215,-12 1215,-12 1215,-6 1221,0 1227,0 1227,0 1312,0 1312,0 1318,0 1324,-6 1324,-12 1324,-12 1324,-59 1324,-59 1324,-65 1318,-71 1312,-71"/>
<text text-anchor="start" x="1229.75" y="-53.7" font-family="Helvetica,sans-Serif" font-size="14.00">entropy = 0.0</text>
<text text-anchor="start" x="1232.38" y="-37.95" font-family="Helvetica,sans-Serif" font-size="14.00">samples = 7</text>
<text text-anchor="start" x="1223" y="-22.2" font-family="Helvetica,sans-Serif" font-size="14.00">value = [7, 0, 0]</text>
<text text-anchor="start" x="1233.88" y="-6.45" font-family="Helvetica,sans-Serif" font-size="14.00">class = Low</text>
</g>
<!-- 18&#45;&gt;19 -->
<g id="edge19" class="edge">
<title>18&#45;&gt;19</title>
<path fill="none" stroke="black" d="M1349.11,-106.7C1338.71,-97.53 1327.73,-87.85 1317.35,-78.7"/>
<polygon fill="black" stroke="black" points="1319.75,-76.15 1309.94,-72.16 1315.12,-81.4 1319.75,-76.15"/>
</g>
<!-- 20 -->
<g id="node21" class="node">
<title>20</title>
<path fill="#ffffff" stroke="black" d="M1440.75,-71C1440.75,-71 1354.25,-71 1354.25,-71 1348.25,-71 1342.25,-65 1342.25,-59 1342.25,-59 1342.25,-12 1342.25,-12 1342.25,-6 1348.25,0 1354.25,0 1354.25,0 1440.75,0 1440.75,0 1446.75,0 1452.75,-6 1452.75,-12 1452.75,-12 1452.75,-59 1452.75,-59 1452.75,-65 1446.75,-71 1440.75,-71"/>
<text text-anchor="start" x="1350.25" y="-53.7" font-family="Helvetica,sans-Serif" font-size="14.00">entropy = 1.585</text>
<text text-anchor="start" x="1360.38" y="-37.95" font-family="Helvetica,sans-Serif" font-size="14.00">samples = 6</text>
<text text-anchor="start" x="1351" y="-22.2" font-family="Helvetica,sans-Serif" font-size="14.00">value = [2, 2, 2]</text>
<text text-anchor="start" x="1361.88" y="-6.45" font-family="Helvetica,sans-Serif" font-size="14.00">class = Low</text>
</g>
<!-- 18&#45;&gt;20 -->
<g id="edge20" class="edge">
<title>18&#45;&gt;20</title>
<path fill="none" stroke="black" d="M1397.5,-106.7C1397.5,-98.82 1397.5,-90.55 1397.5,-82.57"/>
<polygon fill="black" stroke="black" points="1401,-82.67 1397.5,-72.67 1394,-82.67 1401,-82.67"/>
</g>
<!-- 22 -->
<g id="node23" class="node">
<title>22</title>
<path fill="#6aeca0" stroke="black" d="M1582.5,-71C1582.5,-71 1482.5,-71 1482.5,-71 1476.5,-71 1470.5,-65 1470.5,-59 1470.5,-59 1470.5,-12 1470.5,-12 1470.5,-6 1476.5,0 1482.5,0 1482.5,0 1582.5,0 1582.5,0 1588.5,0 1594.5,-6 1594.5,-12 1594.5,-12 1594.5,-59 1594.5,-59 1594.5,-65 1588.5,-71 1582.5,-71"/>
<text text-anchor="start" x="1489" y="-53.7" font-family="Helvetica,sans-Serif" font-size="14.00">entropy = 0.96</text>
<text text-anchor="start" x="1491.62" y="-37.95" font-family="Helvetica,sans-Serif" font-size="14.00">samples = 74</text>
<text text-anchor="start" x="1478.5" y="-22.2" font-family="Helvetica,sans-Serif" font-size="14.00">value = [10, 58, 6]</text>
<text text-anchor="start" x="1481.88" y="-6.45" font-family="Helvetica,sans-Serif" font-size="14.00">class = Standard</text>
</g>
<!-- 21&#45;&gt;22 -->
<g id="edge22" class="edge">
<title>21&#45;&gt;22</title>
<path fill="none" stroke="black" d="M1532.5,-106.7C1532.5,-98.82 1532.5,-90.55 1532.5,-82.57"/>
<polygon fill="black" stroke="black" points="1536,-82.67 1532.5,-72.67 1529,-82.67 1536,-82.67"/>
</g>
<!-- 23 -->
<g id="node24" class="node">
<title>23</title>
<path fill="#ffffff" stroke="black" d="M1710,-71C1710,-71 1625,-71 1625,-71 1619,-71 1613,-65 1613,-59 1613,-59 1613,-12 1613,-12 1613,-6 1619,0 1625,0 1625,0 1710,0 1710,0 1716,0 1722,-6 1722,-12 1722,-12 1722,-59 1722,-59 1722,-65 1716,-71 1710,-71"/>
<text text-anchor="start" x="1627.75" y="-53.7" font-family="Helvetica,sans-Serif" font-size="14.00">entropy = 1.0</text>
<text text-anchor="start" x="1630.38" y="-37.95" font-family="Helvetica,sans-Serif" font-size="14.00">samples = 4</text>
<text text-anchor="start" x="1621" y="-22.2" font-family="Helvetica,sans-Serif" font-size="14.00">value = [2, 0, 2]</text>
<text text-anchor="start" x="1631.88" y="-6.45" font-family="Helvetica,sans-Serif" font-size="14.00">class = Low</text>
</g>
<!-- 21&#45;&gt;23 -->
<g id="edge23" class="edge">
<title>21&#45;&gt;23</title>
<path fill="none" stroke="black" d="M1583.54,-106.7C1594.61,-97.44 1606.32,-87.65 1617.36,-78.42"/>
<polygon fill="black" stroke="black" points="1619.46,-81.23 1624.89,-72.13 1614.97,-75.86 1619.46,-81.23"/>
</g>
<!-- 25 -->
<g id="node26" class="node">
<title>25</title>
<path fill="#a2f3c4" stroke="black" d="M1931.62,-193.75C1931.62,-193.75 1775.38,-193.75 1775.38,-193.75 1769.38,-193.75 1763.38,-187.75 1763.38,-181.75 1763.38,-181.75 1763.38,-119 1763.38,-119 1763.38,-113 1769.38,-107 1775.38,-107 1775.38,-107 1931.62,-107 1931.62,-107 1937.62,-107 1943.62,-113 1943.62,-119 1943.62,-119 1943.62,-181.75 1943.62,-181.75 1943.62,-187.75 1937.62,-193.75 1931.62,-193.75"/>
<text text-anchor="start" x="1790.88" y="-176.45" font-family="Helvetica,sans-Serif" font-size="14.00">volatile acidity ≤ 0.51</text>
<text text-anchor="start" x="1806.25" y="-160.7" font-family="Helvetica,sans-Serif" font-size="14.00">entropy = 1.039</text>
<text text-anchor="start" x="1808.88" y="-144.95" font-family="Helvetica,sans-Serif" font-size="14.00">samples = 674</text>
<text text-anchor="start" x="1771.38" y="-129.2" font-family="Helvetica,sans-Serif" font-size="14.00">value = [12.0, 436.0, 226.0]</text>
<text text-anchor="start" x="1802.88" y="-113.45" font-family="Helvetica,sans-Serif" font-size="14.00">class = Standard</text>
</g>
<!-- 24&#45;&gt;25 -->
<g id="edge25" class="edge">
<title>24&#45;&gt;25</title>
<path fill="none" stroke="black" d="M1853.5,-229.55C1853.5,-221.71 1853.5,-213.42 1853.5,-205.29"/>
<polygon fill="black" stroke="black" points="1857,-205.48 1853.5,-195.48 1850,-205.48 1857,-205.48"/>
</g>
<!-- 28 -->
<g id="node29" class="node">
<title>28</title>
<path fill="#f0e7fc" stroke="black" d="M2157.38,-193.75C2157.38,-193.75 2017.62,-193.75 2017.62,-193.75 2011.62,-193.75 2005.62,-187.75 2005.62,-181.75 2005.62,-181.75 2005.62,-119 2005.62,-119 2005.62,-113 2011.62,-107 2017.62,-107 2017.62,-107 2157.38,-107 2157.38,-107 2163.38,-107 2169.38,-113 2169.38,-119 2169.38,-119 2169.38,-181.75 2169.38,-181.75 2169.38,-187.75 2163.38,-193.75 2157.38,-193.75"/>
<text text-anchor="start" x="2013.62" y="-176.45" font-family="Helvetica,sans-Serif" font-size="14.00">free sulfur dioxide ≤ 21.5</text>
<text text-anchor="start" x="2040.25" y="-160.7" font-family="Helvetica,sans-Serif" font-size="14.00">entropy = 1.043</text>
<text text-anchor="start" x="2042.88" y="-144.95" font-family="Helvetica,sans-Serif" font-size="14.00">samples = 683</text>
<text text-anchor="start" x="2026" y="-129.2" font-family="Helvetica,sans-Serif" font-size="14.00">value = [4, 317, 362]</text>
<text text-anchor="start" x="2050.38" y="-113.45" font-family="Helvetica,sans-Serif" font-size="14.00">class = High</text>
</g>
<!-- 24&#45;&gt;28 -->
<g id="edge28" class="edge">
<title>24&#45;&gt;28</title>
<path fill="none" stroke="black" d="M1936.33,-229.38C1955.36,-219.56 1975.72,-209.06 1995.13,-199.04"/>
<polygon fill="black" stroke="black" points="1996.55,-202.25 2003.83,-194.55 1993.34,-196.03 1996.55,-202.25"/>
</g>
<!-- 26 -->
<g id="node27" class="node">
<title>26</title>
<path fill="#a2f3c4" stroke="black" d="M1867,-71C1867,-71 1752,-71 1752,-71 1746,-71 1740,-65 1740,-59 1740,-59 1740,-12 1740,-12 1740,-6 1746,0 1752,0 1752,0 1867,0 1867,0 1873,0 1879,-6 1879,-12 1879,-12 1879,-59 1879,-59 1879,-65 1873,-71 1867,-71"/>
<text text-anchor="start" x="1766" y="-53.7" font-family="Helvetica,sans-Serif" font-size="14.00">entropy = 1.01</text>
<text text-anchor="start" x="1764.88" y="-37.95" font-family="Helvetica,sans-Serif" font-size="14.00">samples = 668</text>
<text text-anchor="start" x="1748" y="-22.2" font-family="Helvetica,sans-Serif" font-size="14.00">value = [8, 434, 226]</text>
<text text-anchor="start" x="1758.88" y="-6.45" font-family="Helvetica,sans-Serif" font-size="14.00">class = Standard</text>
</g>
<!-- 25&#45;&gt;26 -->
<g id="edge26" class="edge">
<title>25&#45;&gt;26</title>
<path fill="none" stroke="black" d="M1836.87,-106.7C1833.68,-98.54 1830.34,-89.97 1827.13,-81.73"/>
<polygon fill="black" stroke="black" points="1830.45,-80.61 1823.56,-72.57 1823.93,-83.16 1830.45,-80.61"/>
</g>
<!-- 27 -->
<g id="node28" class="node">
<title>27</title>
<path fill="#f2c09c" stroke="black" d="M1995.75,-71C1995.75,-71 1909.25,-71 1909.25,-71 1903.25,-71 1897.25,-65 1897.25,-59 1897.25,-59 1897.25,-12 1897.25,-12 1897.25,-6 1903.25,0 1909.25,0 1909.25,0 1995.75,0 1995.75,0 2001.75,0 2007.75,-6 2007.75,-12 2007.75,-12 2007.75,-59 2007.75,-59 2007.75,-65 2001.75,-71 1995.75,-71"/>
<text text-anchor="start" x="1905.25" y="-53.7" font-family="Helvetica,sans-Serif" font-size="14.00">entropy = 0.918</text>
<text text-anchor="start" x="1915.38" y="-37.95" font-family="Helvetica,sans-Serif" font-size="14.00">samples = 6</text>
<text text-anchor="start" x="1906" y="-22.2" font-family="Helvetica,sans-Serif" font-size="14.00">value = [4, 2, 0]</text>
<text text-anchor="start" x="1916.88" y="-6.45" font-family="Helvetica,sans-Serif" font-size="14.00">class = Low</text>
</g>
<!-- 25&#45;&gt;27 -->
<g id="edge27" class="edge">
<title>25&#45;&gt;27</title>
<path fill="none" stroke="black" d="M1890.93,-106.7C1898.65,-97.9 1906.79,-88.62 1914.53,-79.8"/>
<polygon fill="black" stroke="black" points="1917.14,-82.12 1921.1,-72.3 1911.88,-77.51 1917.14,-82.12"/>
</g>
<!-- 29 -->
<g id="node30" class="node">
<title>29</title>
<path fill="#b2f5ce" stroke="black" d="M2137.5,-71C2137.5,-71 2037.5,-71 2037.5,-71 2031.5,-71 2025.5,-65 2025.5,-59 2025.5,-59 2025.5,-12 2025.5,-12 2025.5,-6 2031.5,0 2037.5,0 2037.5,0 2137.5,0 2137.5,0 2143.5,0 2149.5,-6 2149.5,-12 2149.5,-12 2149.5,-59 2149.5,-59 2149.5,-65 2143.5,-71 2137.5,-71"/>
<text text-anchor="start" x="2040.62" y="-53.7" font-family="Helvetica,sans-Serif" font-size="14.00">entropy = 1.112</text>
<text text-anchor="start" x="2042.88" y="-37.95" font-family="Helvetica,sans-Serif" font-size="14.00">samples = 141</text>
<text text-anchor="start" x="2033.5" y="-22.2" font-family="Helvetica,sans-Serif" font-size="14.00">value = [4, 86, 51]</text>
<text text-anchor="start" x="2036.88" y="-6.45" font-family="Helvetica,sans-Serif" font-size="14.00">class = Standard</text>
</g>
<!-- 28&#45;&gt;29 -->
<g id="edge29" class="edge">
<title>28&#45;&gt;29</title>
<path fill="none" stroke="black" d="M2087.5,-106.7C2087.5,-98.82 2087.5,-90.55 2087.5,-82.57"/>
<polygon fill="black" stroke="black" points="2091,-82.67 2087.5,-72.67 2084,-82.67 2091,-82.67"/>
</g>
<!-- 30 -->
<g id="node31" class="node">
<title>30</title>
<path fill="#dfccf8" stroke="black" d="M2293.62,-71C2293.62,-71 2179.38,-71 2179.38,-71 2173.38,-71 2167.38,-65 2167.38,-59 2167.38,-59 2167.38,-12 2167.38,-12 2167.38,-6 2173.38,0 2179.38,0 2179.38,0 2293.62,0 2293.62,0 2299.62,0 2305.62,-6 2305.62,-12 2305.62,-12 2305.62,-59 2305.62,-59 2305.62,-65 2299.62,-71 2293.62,-71"/>
<text text-anchor="start" x="2189.25" y="-53.7" font-family="Helvetica,sans-Serif" font-size="14.00">entropy = 0.984</text>
<text text-anchor="start" x="2191.88" y="-37.95" font-family="Helvetica,sans-Serif" font-size="14.00">samples = 542</text>
<text text-anchor="start" x="2175.38" y="-22.2" font-family="Helvetica,sans-Serif" font-size="14.00">value = [0, 231, 311]</text>
<text text-anchor="start" x="2199.38" y="-6.45" font-family="Helvetica,sans-Serif" font-size="14.00">class = High</text>
</g>
<!-- 28&#45;&gt;30 -->
<g id="edge30" class="edge">
<title>28&#45;&gt;30</title>
<path fill="none" stroke="black" d="M2143.83,-106.7C2156.3,-97.26 2169.49,-87.27 2181.89,-77.87"/>
<polygon fill="black" stroke="black" points="2183.69,-80.9 2189.54,-72.07 2179.46,-75.32 2183.69,-80.9"/>
</g>
</g>
</svg>
