<?xml version="1.0" encoding="UTF-8" standalone="no"?>
<!DOCTYPE svg PUBLIC "-//W3C//DTD SVG 1.1//EN"
 "http://www.w3.org/Graphics/SVG/1.1/DTD/svg11.dtd">
<!-- Generated by graphviz version 12.2.0 (20241103.1931)
 -->
<!-- Title: Tree Pages: 1 -->
<svg width="1244pt" height="447pt"
 viewBox="0.00 0.00 1243.75 447.25" xmlns="http://www.w3.org/2000/svg" xmlns:xlink="http://www.w3.org/1999/xlink">
<g id="graph0" class="graph" transform="scale(1 1) rotate(0) translate(4 443.25)">
<title>Tree</title>
<polygon fill="white" stroke="none" points="-4,4 -4,-443.25 1239.75,-443.25 1239.75,4 -4,4"/>
<!-- 0 -->
<g id="node1" class="node">
<title>0</title>
<path fill="#79edaa" stroke="black" d="M662,-439.25C662,-439.25 524.5,-439.25 524.5,-439.25 518.5,-439.25 512.5,-433.25 512.5,-427.25 512.5,-427.25 512.5,-364.5 512.5,-364.5 512.5,-358.5 518.5,-352.5 524.5,-352.5 524.5,-352.5 662,-352.5 662,-352.5 668,-352.5 674,-358.5 674,-364.5 674,-364.5 674,-427.25 674,-427.25 674,-433.25 668,-439.25 662,-439.25"/>
<text text-anchor="start" x="547.5" y="-421.95" font-family="Helvetica,sans-Serif" font-size="14.00">alcohol ≤ 10.85</text>
<text text-anchor="start" x="549.75" y="-406.2" font-family="Helvetica,sans-Serif" font-size="14.00">entropy = 0.97</text>
<text text-anchor="start" x="544.88" y="-390.45" font-family="Helvetica,sans-Serif" font-size="14.00">samples = 3918</text>
<text text-anchor="start" x="520.5" y="-374.7" font-family="Helvetica,sans-Serif" font-size="14.00">value = [146, 2924, 848]</text>
<text text-anchor="start" x="542.62" y="-358.95" font-family="Helvetica,sans-Serif" font-size="14.00">class = Standard</text>
</g>
<!-- 1 -->
<g id="node2" class="node">
<title>1</title>
<path fill="#59e995" stroke="black" d="M521.25,-316.5C521.25,-316.5 385.25,-316.5 385.25,-316.5 379.25,-316.5 373.25,-310.5 373.25,-304.5 373.25,-304.5 373.25,-241.75 373.25,-241.75 373.25,-235.75 379.25,-229.75 385.25,-229.75 385.25,-229.75 521.25,-229.75 521.25,-229.75 527.25,-229.75 533.25,-235.75 533.25,-241.75 533.25,-241.75 533.25,-304.5 533.25,-304.5 533.25,-310.5 527.25,-316.5 521.25,-316.5"/>
<text text-anchor="start" x="386.88" y="-299.2" font-family="Helvetica,sans-Serif" font-size="14.00">volatile acidity ≤ 0.267</text>
<text text-anchor="start" x="406" y="-283.45" font-family="Helvetica,sans-Serif" font-size="14.00">entropy = 0.727</text>
<text text-anchor="start" x="404.88" y="-267.7" font-family="Helvetica,sans-Serif" font-size="14.00">samples = 2470</text>
<text text-anchor="start" x="381.25" y="-251.95" font-family="Helvetica,sans-Serif" font-size="14.00">value = [109, 2111, 250]</text>
<text text-anchor="start" x="402.62" y="-236.2" font-family="Helvetica,sans-Serif" font-size="14.00">class = Standard</text>
</g>
<!-- 0&#45;&gt;1 -->
<g id="edge1" class="edge">
<title>0&#45;&gt;1</title>
<path fill="none" stroke="black" d="M543.89,-352.3C533.33,-343.19 522.08,-333.49 511.23,-324.13"/>
<polygon fill="black" stroke="black" points="513.64,-321.59 503.78,-317.71 509.07,-326.89 513.64,-321.59"/>
<text text-anchor="middle" x="504.48" y="-336.23" font-family="Helvetica,sans-Serif" font-size="14.00">True</text>
</g>
<!-- 8 -->
<g id="node9" class="node">
<title>8</title>
<path fill="#cdf8df" stroke="black" d="M817.75,-316.5C817.75,-316.5 678.75,-316.5 678.75,-316.5 672.75,-316.5 666.75,-310.5 666.75,-304.5 666.75,-304.5 666.75,-241.75 666.75,-241.75 666.75,-235.75 672.75,-229.75 678.75,-229.75 678.75,-229.75 817.75,-229.75 817.75,-229.75 823.75,-229.75 829.75,-235.75 829.75,-241.75 829.75,-241.75 829.75,-304.5 829.75,-304.5 829.75,-310.5 823.75,-316.5 817.75,-316.5"/>
<text text-anchor="start" x="674.75" y="-299.2" font-family="Helvetica,sans-Serif" font-size="14.00">free sulfur dioxide ≤ 11.5</text>
<text text-anchor="start" x="704.75" y="-283.45" font-family="Helvetica,sans-Serif" font-size="14.00">entropy = 1.13</text>
<text text-anchor="start" x="699.88" y="-267.7" font-family="Helvetica,sans-Serif" font-size="14.00">samples = 1448</text>
<text text-anchor="start" x="683" y="-251.95" font-family="Helvetica,sans-Serif" font-size="14.00">value = [37, 813, 598]</text>
<text text-anchor="start" x="697.62" y="-236.2" font-family="Helvetica,sans-Serif" font-size="14.00">class = Standard</text>
</g>
<!-- 0&#45;&gt;8 -->
<g id="edge8" class="edge">
<title>0&#45;&gt;8</title>
<path fill="none" stroke="black" d="M647.9,-352.3C659.75,-343.07 672.39,-333.23 684.55,-323.75"/>
<polygon fill="black" stroke="black" points="686.38,-326.76 692.12,-317.85 682.08,-321.24 686.38,-326.76"/>
<text text-anchor="middle" x="690.23" y="-336.31" font-family="Helvetica,sans-Serif" font-size="14.00">False</text>
</g>
<!-- 2 -->
<g id="node3" class="node">
<title>2</title>
<path fill="#65eb9d" stroke="black" d="M299.25,-193.75C299.25,-193.75 169.25,-193.75 169.25,-193.75 163.25,-193.75 157.25,-187.75 157.25,-181.75 157.25,-181.75 157.25,-119 157.25,-119 157.25,-113 163.25,-107 169.25,-107 169.25,-107 299.25,-107 299.25,-107 305.25,-107 311.25,-113 311.25,-119 311.25,-119 311.25,-181.75 311.25,-181.75 311.25,-187.75 305.25,-193.75 299.25,-193.75"/>
<text text-anchor="start" x="167.88" y="-176.45" font-family="Helvetica,sans-Serif" font-size="14.00">volatile acidity ≤ 0.203</text>
<text text-anchor="start" x="187" y="-160.7" font-family="Helvetica,sans-Serif" font-size="14.00">entropy = 0.789</text>
<text text-anchor="start" x="185.88" y="-144.95" font-family="Helvetica,sans-Serif" font-size="14.00">samples = 1304</text>
<text text-anchor="start" x="165.25" y="-129.2" font-family="Helvetica,sans-Serif" font-size="14.00">value = [29, 1063, 212]</text>
<text text-anchor="start" x="183.62" y="-113.45" font-family="Helvetica,sans-Serif" font-size="14.00">class = Standard</text>
</g>
<!-- 1&#45;&gt;2 -->
<g id="edge2" class="edge">
<title>1&#45;&gt;2</title>
<path fill="none" stroke="black" d="M375.73,-229.38C358.19,-219.71 339.44,-209.37 321.52,-199.49"/>
<polygon fill="black" stroke="black" points="323.44,-196.55 312.99,-194.79 320.06,-202.68 323.44,-196.55"/>
</g>
<!-- 5 -->
<g id="node6" class="node">
<title>5</title>
<path fill="#4fe88f" stroke="black" d="M515.62,-193.75C515.62,-193.75 390.88,-193.75 390.88,-193.75 384.88,-193.75 378.88,-187.75 378.88,-181.75 378.88,-181.75 378.88,-119 378.88,-119 378.88,-113 384.88,-107 390.88,-107 390.88,-107 515.62,-107 515.62,-107 521.62,-107 527.62,-113 527.62,-119 527.62,-119 527.62,-181.75 527.62,-181.75 527.62,-187.75 521.62,-193.75 515.62,-193.75"/>
<text text-anchor="start" x="386.88" y="-176.45" font-family="Helvetica,sans-Serif" font-size="14.00">volatile acidity ≤ 0.515</text>
<text text-anchor="start" x="406" y="-160.7" font-family="Helvetica,sans-Serif" font-size="14.00">entropy = 0.565</text>
<text text-anchor="start" x="405.25" y="-144.95" font-family="Helvetica,sans-Serif" font-size="14.00">samples = 1166</text>
<text text-anchor="start" x="388" y="-129.2" font-family="Helvetica,sans-Serif" font-size="14.00">value = [80, 1048, 38]</text>
<text text-anchor="start" x="402.62" y="-113.45" font-family="Helvetica,sans-Serif" font-size="14.00">class = Standard</text>
</g>
<!-- 1&#45;&gt;5 -->
<g id="edge5" class="edge">
<title>1&#45;&gt;5</title>
<path fill="none" stroke="black" d="M453.25,-229.55C453.25,-221.71 453.25,-213.42 453.25,-205.29"/>
<polygon fill="black" stroke="black" points="456.75,-205.48 453.25,-195.48 449.75,-205.48 456.75,-205.48"/>
</g>
<!-- 3 -->
<g id="node4" class="node">
<title>3</title>
<path fill="#7ceeab" stroke="black" d="M134.5,-71C134.5,-71 12,-71 12,-71 6,-71 0,-65 0,-59 0,-59 0,-12 0,-12 0,-6 6,0 12,0 12,0 134.5,0 134.5,0 140.5,0 146.5,-6 146.5,-12 146.5,-12 146.5,-59 146.5,-59 146.5,-65 140.5,-71 134.5,-71"/>
<text text-anchor="start" x="26" y="-53.7" font-family="Helvetica,sans-Serif" font-size="14.00">entropy = 0.915</text>
<text text-anchor="start" x="28.62" y="-37.95" font-family="Helvetica,sans-Serif" font-size="14.00">samples = 565</text>
<text text-anchor="start" x="8" y="-22.2" font-family="Helvetica,sans-Serif" font-size="14.00">value = [10, 420, 135]</text>
<text text-anchor="start" x="22.62" y="-6.45" font-family="Helvetica,sans-Serif" font-size="14.00">class = Standard</text>
</g>
<!-- 2&#45;&gt;3 -->
<g id="edge3" class="edge">
<title>2&#45;&gt;3</title>
<path fill="none" stroke="black" d="M173.38,-106.7C159.85,-97.22 145.54,-87.18 132.09,-77.75"/>
<polygon fill="black" stroke="black" points="134.38,-75.08 124.18,-72.21 130.36,-80.81 134.38,-75.08"/>
</g>
<!-- 4 -->
<g id="node5" class="node">
<title>4</title>
<path fill="#56e993" stroke="black" d="M291.75,-71C291.75,-71 176.75,-71 176.75,-71 170.75,-71 164.75,-65 164.75,-59 164.75,-59 164.75,-12 164.75,-12 164.75,-6 170.75,0 176.75,0 176.75,0 291.75,0 291.75,0 297.75,0 303.75,-6 303.75,-12 303.75,-12 303.75,-59 303.75,-59 303.75,-65 297.75,-71 291.75,-71"/>
<text text-anchor="start" x="190.75" y="-53.7" font-family="Helvetica,sans-Serif" font-size="14.00">entropy = 0.65</text>
<text text-anchor="start" x="189.62" y="-37.95" font-family="Helvetica,sans-Serif" font-size="14.00">samples = 739</text>
<text text-anchor="start" x="172.75" y="-22.2" font-family="Helvetica,sans-Serif" font-size="14.00">value = [19, 643, 77]</text>
<text text-anchor="start" x="183.62" y="-6.45" font-family="Helvetica,sans-Serif" font-size="14.00">class = Standard</text>
</g>
<!-- 2&#45;&gt;4 -->
<g id="edge4" class="edge">
<title>2&#45;&gt;4</title>
<path fill="none" stroke="black" d="M234.25,-106.7C234.25,-98.82 234.25,-90.55 234.25,-82.57"/>
<polygon fill="black" stroke="black" points="237.75,-82.67 234.25,-72.67 230.75,-82.67 237.75,-82.67"/>
</g>
<!-- 6 -->
<g id="node7" class="node">
<title>6</title>
<path fill="#4ae78c" stroke="black" d="M456.5,-71C456.5,-71 334,-71 334,-71 328,-71 322,-65 322,-59 322,-59 322,-12 322,-12 322,-6 328,0 334,0 334,0 456.5,0 456.5,0 462.5,0 468.5,-6 468.5,-12 468.5,-12 468.5,-59 468.5,-59 468.5,-65 462.5,-71 456.5,-71"/>
<text text-anchor="start" x="348" y="-53.7" font-family="Helvetica,sans-Serif" font-size="14.00">entropy = 0.496</text>
<text text-anchor="start" x="346.88" y="-37.95" font-family="Helvetica,sans-Serif" font-size="14.00">samples = 1091</text>
<text text-anchor="start" x="330" y="-22.2" font-family="Helvetica,sans-Serif" font-size="14.00">value = [53, 1000, 38]</text>
<text text-anchor="start" x="344.62" y="-6.45" font-family="Helvetica,sans-Serif" font-size="14.00">class = Standard</text>
</g>
<!-- 5&#45;&gt;6 -->
<g id="edge6" class="edge">
<title>5&#45;&gt;6</title>
<path fill="none" stroke="black" d="M431.32,-106.7C427.04,-98.36 422.53,-89.59 418.21,-81.18"/>
<polygon fill="black" stroke="black" points="421.43,-79.8 413.75,-72.5 415.21,-83 421.43,-79.8"/>
</g>
<!-- 7 -->
<g id="node8" class="node">
<title>7</title>
<path fill="#a8f4c8" stroke="black" d="M598.25,-71C598.25,-71 498.25,-71 498.25,-71 492.25,-71 486.25,-65 486.25,-59 486.25,-59 486.25,-12 486.25,-12 486.25,-6 492.25,0 498.25,0 498.25,0 598.25,0 598.25,0 604.25,0 610.25,-6 610.25,-12 610.25,-12 610.25,-59 610.25,-59 610.25,-65 604.25,-71 598.25,-71"/>
<text text-anchor="start" x="501" y="-53.7" font-family="Helvetica,sans-Serif" font-size="14.00">entropy = 0.943</text>
<text text-anchor="start" x="507.38" y="-37.95" font-family="Helvetica,sans-Serif" font-size="14.00">samples = 75</text>
<text text-anchor="start" x="494.25" y="-22.2" font-family="Helvetica,sans-Serif" font-size="14.00">value = [27, 48, 0]</text>
<text text-anchor="start" x="497.62" y="-6.45" font-family="Helvetica,sans-Serif" font-size="14.00">class = Standard</text>
</g>
<!-- 5&#45;&gt;7 -->
<g id="edge7" class="edge">
<title>5&#45;&gt;7</title>
<path fill="none" stroke="black" d="M489.17,-106.7C496.57,-97.9 504.38,-88.62 511.81,-79.8"/>
<polygon fill="black" stroke="black" points="514.34,-82.22 518.11,-72.32 508.99,-77.71 514.34,-82.22"/>
</g>
<!-- 9 -->
<g id="node10" class="node">
<title>9</title>
<path fill="#91f1b9" stroke="black" d="M802,-193.75C802,-193.75 694.5,-193.75 694.5,-193.75 688.5,-193.75 682.5,-187.75 682.5,-181.75 682.5,-181.75 682.5,-119 682.5,-119 682.5,-113 688.5,-107 694.5,-107 694.5,-107 802,-107 802,-107 808,-107 814,-113 814,-119 814,-119 814,-181.75 814,-181.75 814,-187.75 808,-193.75 802,-193.75"/>
<text text-anchor="start" x="699.5" y="-176.45" font-family="Helvetica,sans-Serif" font-size="14.00">citric acid ≤ 0.25</text>
<text text-anchor="start" x="701" y="-160.7" font-family="Helvetica,sans-Serif" font-size="14.00">entropy = 1.234</text>
<text text-anchor="start" x="707.38" y="-144.95" font-family="Helvetica,sans-Serif" font-size="14.00">samples = 91</text>
<text text-anchor="start" x="690.5" y="-129.2" font-family="Helvetica,sans-Serif" font-size="14.00">value = [21, 60, 10]</text>
<text text-anchor="start" x="697.62" y="-113.45" font-family="Helvetica,sans-Serif" font-size="14.00">class = Standard</text>
</g>
<!-- 8&#45;&gt;9 -->
<g id="edge9" class="edge">
<title>8&#45;&gt;9</title>
<path fill="none" stroke="black" d="M748.25,-229.55C748.25,-221.71 748.25,-213.42 748.25,-205.29"/>
<polygon fill="black" stroke="black" points="751.75,-205.48 748.25,-195.48 744.75,-205.48 751.75,-205.48"/>
</g>
<!-- 12 -->
<g id="node13" class="node">
<title>12</title>
<path fill="#d5f9e4" stroke="black" d="M1066.38,-193.75C1066.38,-193.75 910.12,-193.75 910.12,-193.75 904.12,-193.75 898.12,-187.75 898.12,-181.75 898.12,-181.75 898.12,-119 898.12,-119 898.12,-113 904.12,-107 910.12,-107 910.12,-107 1066.38,-107 1066.38,-107 1072.38,-107 1078.38,-113 1078.38,-119 1078.38,-119 1078.38,-181.75 1078.38,-181.75 1078.38,-187.75 1072.38,-193.75 1066.38,-193.75"/>
<text text-anchor="start" x="939.12" y="-176.45" font-family="Helvetica,sans-Serif" font-size="14.00">alcohol ≤ 11.742</text>
<text text-anchor="start" x="944.75" y="-160.7" font-family="Helvetica,sans-Serif" font-size="14.00">entropy = 1.07</text>
<text text-anchor="start" x="939.88" y="-144.95" font-family="Helvetica,sans-Serif" font-size="14.00">samples = 1357</text>
<text text-anchor="start" x="906.12" y="-129.2" font-family="Helvetica,sans-Serif" font-size="14.00">value = [16.0, 753.0, 588.0]</text>
<text text-anchor="start" x="937.62" y="-113.45" font-family="Helvetica,sans-Serif" font-size="14.00">class = Standard</text>
</g>
<!-- 8&#45;&gt;12 -->
<g id="edge12" class="edge">
<title>8&#45;&gt;12</title>
<path fill="none" stroke="black" d="M830.17,-230.91C850.48,-220.69 872.41,-209.66 893.28,-199.16"/>
<polygon fill="black" stroke="black" points="894.71,-202.35 902.07,-194.73 891.57,-196.1 894.71,-202.35"/>
</g>
<!-- 10 -->
<g id="node11" class="node">
<title>10</title>
<path fill="#eeaf81" stroke="black" d="M726.5,-71C726.5,-71 640,-71 640,-71 634,-71 628,-65 628,-59 628,-59 628,-12 628,-12 628,-6 634,0 640,0 640,0 726.5,0 726.5,0 732.5,0 738.5,-6 738.5,-12 738.5,-12 738.5,-59 738.5,-59 738.5,-65 732.5,-71 726.5,-71"/>
<text text-anchor="start" x="636" y="-53.7" font-family="Helvetica,sans-Serif" font-size="14.00">entropy = 1.198</text>
<text text-anchor="start" x="642.38" y="-37.95" font-family="Helvetica,sans-Serif" font-size="14.00">samples = 13</text>
<text text-anchor="start" x="636.75" y="-22.2" font-family="Helvetica,sans-Serif" font-size="14.00">value = [9, 2, 2]</text>
<text text-anchor="start" x="647.62" y="-6.45" font-family="Helvetica,sans-Serif" font-size="14.00">class = Low</text>
</g>
<!-- 9&#45;&gt;10 -->
<g id="edge10" class="edge">
<title>9&#45;&gt;10</title>
<path fill="none" stroke="black" d="M723.68,-106.7C718.82,-98.27 713.71,-89.39 708.82,-80.9"/>
<polygon fill="black" stroke="black" points="711.99,-79.39 703.96,-72.47 705.92,-82.88 711.99,-79.39"/>
</g>
<!-- 11 -->
<g id="node12" class="node">
<title>11</title>
<path fill="#75eda7" stroke="black" d="M868.25,-71C868.25,-71 768.25,-71 768.25,-71 762.25,-71 756.25,-65 756.25,-59 756.25,-59 756.25,-12 756.25,-12 756.25,-6 762.25,0 768.25,0 768.25,0 868.25,0 868.25,0 874.25,0 880.25,-6 880.25,-12 880.25,-12 880.25,-59 880.25,-59 880.25,-65 874.25,-71 868.25,-71"/>
<text text-anchor="start" x="774.75" y="-53.7" font-family="Helvetica,sans-Serif" font-size="14.00">entropy = 1.07</text>
<text text-anchor="start" x="777.38" y="-37.95" font-family="Helvetica,sans-Serif" font-size="14.00">samples = 78</text>
<text text-anchor="start" x="764.25" y="-22.2" font-family="Helvetica,sans-Serif" font-size="14.00">value = [12, 58, 8]</text>
<text text-anchor="start" x="767.62" y="-6.45" font-family="Helvetica,sans-Serif" font-size="14.00">class = Standard</text>
</g>
<!-- 9&#45;&gt;11 -->
<g id="edge11" class="edge">
<title>9&#45;&gt;11</title>
<path fill="none" stroke="black" d="M774.71,-106.7C779.95,-98.27 785.45,-89.39 790.71,-80.9"/>
<polygon fill="black" stroke="black" points="793.66,-82.79 795.96,-72.44 787.71,-79.1 793.66,-82.79"/>
</g>
<!-- 13 -->
<g id="node14" class="node">
<title>13</title>
<path fill="#a2f3c4" stroke="black" d="M1066.38,-71C1066.38,-71 910.12,-71 910.12,-71 904.12,-71 898.12,-65 898.12,-59 898.12,-59 898.12,-12 898.12,-12 898.12,-6 904.12,0 910.12,0 910.12,0 1066.38,0 1066.38,0 1072.38,0 1078.38,-6 1078.38,-12 1078.38,-12 1078.38,-59 1078.38,-59 1078.38,-65 1072.38,-71 1066.38,-71"/>
<text text-anchor="start" x="941" y="-53.7" font-family="Helvetica,sans-Serif" font-size="14.00">entropy = 1.039</text>
<text text-anchor="start" x="943.62" y="-37.95" font-family="Helvetica,sans-Serif" font-size="14.00">samples = 674</text>
<text text-anchor="start" x="906.12" y="-22.2" font-family="Helvetica,sans-Serif" font-size="14.00">value = [12.0, 436.0, 226.0]</text>
<text text-anchor="start" x="937.62" y="-6.45" font-family="Helvetica,sans-Serif" font-size="14.00">class = Standard</text>
</g>
<!-- 12&#45;&gt;13 -->
<g id="edge13" class="edge">
<title>12&#45;&gt;13</title>
<path fill="none" stroke="black" d="M988.25,-106.7C988.25,-98.82 988.25,-90.55 988.25,-82.57"/>
<polygon fill="black" stroke="black" points="991.75,-82.67 988.25,-72.67 984.75,-82.67 991.75,-82.67"/>
</g>
<!-- 14 -->
<g id="node15" class="node">
<title>14</title>
<path fill="#f0e7fc" stroke="black" d="M1223.75,-71C1223.75,-71 1108.75,-71 1108.75,-71 1102.75,-71 1096.75,-65 1096.75,-59 1096.75,-59 1096.75,-12 1096.75,-12 1096.75,-6 1102.75,0 1108.75,0 1108.75,0 1223.75,0 1223.75,0 1229.75,0 1235.75,-6 1235.75,-12 1235.75,-12 1235.75,-59 1235.75,-59 1235.75,-65 1229.75,-71 1223.75,-71"/>
<text text-anchor="start" x="1119" y="-53.7" font-family="Helvetica,sans-Serif" font-size="14.00">entropy = 1.043</text>
<text text-anchor="start" x="1121.62" y="-37.95" font-family="Helvetica,sans-Serif" font-size="14.00">samples = 683</text>
<text text-anchor="start" x="1104.75" y="-22.2" font-family="Helvetica,sans-Serif" font-size="14.00">value = [4, 317, 362]</text>
<text text-anchor="start" x="1129.12" y="-6.45" font-family="Helvetica,sans-Serif" font-size="14.00">class = High</text>
</g>
<!-- 12&#45;&gt;14 -->
<g id="edge14" class="edge">
<title>12&#45;&gt;14</title>
<path fill="none" stroke="black" d="M1055.8,-106.54C1070.8,-97.03 1086.68,-86.96 1101.56,-77.52"/>
<polygon fill="black" stroke="black" points="1103.34,-80.54 1109.91,-72.23 1099.59,-74.63 1103.34,-80.54"/>
</g>
</g>
</svg>
