<?xml version="1.0" encoding="UTF-8" standalone="no"?>
<!DOCTYPE svg PUBLIC "-//W3C//DTD SVG 1.1//EN"
 "http://www.w3.org/Graphics/SVG/1.1/DTD/svg11.dtd">
<!-- Generated by graphviz version 12.2.0 (20241103.1931)
 -->
<!-- Title: Tree Pages: 1 -->
<svg width="1224pt" height="447pt"
 viewBox="0.00 0.00 1224.00 447.25" xmlns="http://www.w3.org/2000/svg" xmlns:xlink="http://www.w3.org/1999/xlink">
<g id="graph0" class="graph" transform="scale(1 1) rotate(0) translate(4 443.25)">
<title>Tree</title>
<polygon fill="white" stroke="none" points="-4,4 -4,-443.25 1220,-443.25 1220,4 -4,4"/>
<!-- 0 -->
<g id="node1" class="node">
<title>0</title>
<path fill="#ddeefa" stroke="black" d="M648.12,-439.25C648.12,-439.25 495.62,-439.25 495.62,-439.25 489.62,-439.25 483.62,-433.25 483.62,-427.25 483.62,-427.25 483.62,-364.5 483.62,-364.5 483.62,-358.5 489.62,-352.5 495.62,-352.5 495.62,-352.5 648.12,-352.5 648.12,-352.5 654.12,-352.5 660.12,-358.5 660.12,-364.5 660.12,-364.5 660.12,-427.25 660.12,-427.25 660.12,-433.25 654.12,-439.25 648.12,-439.25"/>
<text text-anchor="start" x="491.62" y="-421.95" font-family="Helvetica,sans-Serif" font-size="14.00">Inflight entertainment ≤ 3.5</text>
<text text-anchor="start" x="524.62" y="-406.2" font-family="Helvetica,sans-Serif" font-size="14.00">entropy = 0.994</text>
<text text-anchor="start" x="516" y="-390.45" font-family="Helvetica,sans-Serif" font-size="14.00">samples = 103589</text>
<text text-anchor="start" x="491.62" y="-374.7" font-family="Helvetica,sans-Serif" font-size="14.00">value = [46884.0, 56705.0]</text>
<text text-anchor="start" x="523.88" y="-358.95" font-family="Helvetica,sans-Serif" font-size="14.00">class = satisfied</text>
</g>
<!-- 1 -->
<g id="node2" class="node">
<title>1</title>
<path fill="#eca46f" stroke="black" d="M492.88,-316.5C492.88,-316.5 362.88,-316.5 362.88,-316.5 356.88,-316.5 350.88,-310.5 350.88,-304.5 350.88,-304.5 350.88,-241.75 350.88,-241.75 350.88,-235.75 356.88,-229.75 362.88,-229.75 362.88,-229.75 492.88,-229.75 492.88,-229.75 498.88,-229.75 504.88,-235.75 504.88,-241.75 504.88,-241.75 504.88,-304.5 504.88,-304.5 504.88,-310.5 498.88,-316.5 492.88,-316.5"/>
<text text-anchor="start" x="372.38" y="-299.2" font-family="Helvetica,sans-Serif" font-size="14.00">Seat comfort ≤ 3.5</text>
<text text-anchor="start" x="380.62" y="-283.45" font-family="Helvetica,sans-Serif" font-size="14.00">entropy = 0.752</text>
<text text-anchor="start" x="375.75" y="-267.7" font-family="Helvetica,sans-Serif" font-size="14.00">samples = 46407</text>
<text text-anchor="start" x="358.88" y="-251.95" font-family="Helvetica,sans-Serif" font-size="14.00">value = [36405, 10002]</text>
<text text-anchor="start" x="371.25" y="-236.2" font-family="Helvetica,sans-Serif" font-size="14.00">class = dissatisfied</text>
</g>
<!-- 0&#45;&gt;1 -->
<g id="edge1" class="edge">
<title>0&#45;&gt;1</title>
<path fill="none" stroke="black" d="M521.11,-352.3C510.14,-343.1 498.45,-333.3 487.18,-323.86"/>
<polygon fill="black" stroke="black" points="489.74,-321.44 479.83,-317.69 485.24,-326.8 489.74,-321.44"/>
<text text-anchor="middle" x="480.86" y="-336.2" font-family="Helvetica,sans-Serif" font-size="14.00">True</text>
</g>
<!-- 8 -->
<g id="node9" class="node">
<title>8</title>
<path fill="#65b3eb" stroke="black" d="M815.88,-316.5C815.88,-316.5 649.88,-316.5 649.88,-316.5 643.88,-316.5 637.88,-310.5 637.88,-304.5 637.88,-304.5 637.88,-241.75 637.88,-241.75 637.88,-235.75 643.88,-229.75 649.88,-229.75 649.88,-229.75 815.88,-229.75 815.88,-229.75 821.88,-229.75 827.88,-235.75 827.88,-241.75 827.88,-241.75 827.88,-304.5 827.88,-304.5 827.88,-310.5 821.88,-316.5 815.88,-316.5"/>
<text text-anchor="start" x="645.88" y="-299.2" font-family="Helvetica,sans-Serif" font-size="14.00">Ease of Online booking ≤ 3.5</text>
<text text-anchor="start" x="685.62" y="-283.45" font-family="Helvetica,sans-Serif" font-size="14.00">entropy = 0.687</text>
<text text-anchor="start" x="680.75" y="-267.7" font-family="Helvetica,sans-Serif" font-size="14.00">samples = 57182</text>
<text text-anchor="start" x="663.88" y="-251.95" font-family="Helvetica,sans-Serif" font-size="14.00">value = [10479, 46703]</text>
<text text-anchor="start" x="684.88" y="-236.2" font-family="Helvetica,sans-Serif" font-size="14.00">class = satisfied</text>
</g>
<!-- 0&#45;&gt;8 -->
<g id="edge8" class="edge">
<title>0&#45;&gt;8</title>
<path fill="none" stroke="black" d="M628.64,-352.3C640.95,-343.07 654.07,-333.23 666.71,-323.75"/>
<polygon fill="black" stroke="black" points="668.7,-326.63 674.6,-317.83 664.5,-321.03 668.7,-326.63"/>
<text text-anchor="middle" x="672.28" y="-336.25" font-family="Helvetica,sans-Serif" font-size="14.00">False</text>
</g>
<!-- 2 -->
<g id="node3" class="node">
<title>2</title>
<path fill="#e9965b" stroke="black" d="M268.12,-193.75C268.12,-193.75 145.62,-193.75 145.62,-193.75 139.62,-193.75 133.62,-187.75 133.62,-181.75 133.62,-181.75 133.62,-119 133.62,-119 133.62,-113 139.62,-107 145.62,-107 145.62,-107 268.12,-107 268.12,-107 274.12,-107 280.12,-113 280.12,-119 280.12,-119 280.12,-181.75 280.12,-181.75 280.12,-187.75 274.12,-193.75 268.12,-193.75"/>
<text text-anchor="start" x="151.38" y="-176.45" font-family="Helvetica,sans-Serif" font-size="14.00">Seat comfort ≤ 0.5</text>
<text text-anchor="start" x="159.62" y="-160.7" font-family="Helvetica,sans-Serif" font-size="14.00">entropy = 0.598</text>
<text text-anchor="start" x="154.75" y="-144.95" font-family="Helvetica,sans-Serif" font-size="14.00">samples = 40637</text>
<text text-anchor="start" x="141.62" y="-129.2" font-family="Helvetica,sans-Serif" font-size="14.00">value = [34727, 5910]</text>
<text text-anchor="start" x="150.25" y="-113.45" font-family="Helvetica,sans-Serif" font-size="14.00">class = dissatisfied</text>
</g>
<!-- 1&#45;&gt;2 -->
<g id="edge2" class="edge">
<title>1&#45;&gt;2</title>
<path fill="none" stroke="black" d="M350.58,-229.89C331.09,-219.25 310.09,-207.77 290.32,-196.97"/>
<polygon fill="black" stroke="black" points="292.19,-194 281.74,-192.28 288.84,-200.15 292.19,-194"/>
</g>
<!-- 5 -->
<g id="node6" class="node">
<title>5</title>
<path fill="#8ac5f0" stroke="black" d="M496.62,-193.75C496.62,-193.75 359.12,-193.75 359.12,-193.75 353.12,-193.75 347.12,-187.75 347.12,-181.75 347.12,-181.75 347.12,-119 347.12,-119 347.12,-113 353.12,-107 359.12,-107 359.12,-107 496.62,-107 496.62,-107 502.62,-107 508.62,-113 508.62,-119 508.62,-119 508.62,-181.75 508.62,-181.75 508.62,-187.75 502.62,-193.75 496.62,-193.75"/>
<text text-anchor="start" x="372.38" y="-176.45" font-family="Helvetica,sans-Serif" font-size="14.00">Seat comfort ≤ 4.5</text>
<text text-anchor="start" x="384.38" y="-160.7" font-family="Helvetica,sans-Serif" font-size="14.00">entropy = 0.87</text>
<text text-anchor="start" x="379.5" y="-144.95" font-family="Helvetica,sans-Serif" font-size="14.00">samples = 5770</text>
<text text-anchor="start" x="355.12" y="-129.2" font-family="Helvetica,sans-Serif" font-size="14.00">value = [1678.0, 4092.0]</text>
<text text-anchor="start" x="379.88" y="-113.45" font-family="Helvetica,sans-Serif" font-size="14.00">class = satisfied</text>
</g>
<!-- 1&#45;&gt;5 -->
<g id="edge5" class="edge">
<title>1&#45;&gt;5</title>
<path fill="none" stroke="black" d="M427.88,-229.55C427.88,-221.71 427.88,-213.42 427.88,-205.29"/>
<polygon fill="black" stroke="black" points="431.38,-205.48 427.88,-195.48 424.38,-205.48 431.38,-205.48"/>
</g>
<!-- 3 -->
<g id="node4" class="node">
<title>3</title>
<path fill="#3a9de5" stroke="black" d="M103.75,-71C103.75,-71 12,-71 12,-71 6,-71 0,-65 0,-59 0,-59 0,-12 0,-12 0,-6 6,0 12,0 12,0 103.75,0 103.75,0 109.75,0 115.75,-6 115.75,-12 115.75,-12 115.75,-59 115.75,-59 115.75,-65 109.75,-71 103.75,-71"/>
<text text-anchor="start" x="10.62" y="-53.7" font-family="Helvetica,sans-Serif" font-size="14.00">entropy = 0.028</text>
<text text-anchor="start" x="9.88" y="-37.95" font-family="Helvetica,sans-Serif" font-size="14.00">samples = 2119</text>
<text text-anchor="start" x="8" y="-22.2" font-family="Helvetica,sans-Serif" font-size="14.00">value = [6, 2113]</text>
<text text-anchor="start" x="9.88" y="-6.45" font-family="Helvetica,sans-Serif" font-size="14.00">class = satisfied</text>
</g>
<!-- 2&#45;&gt;3 -->
<g id="edge3" class="edge">
<title>2&#45;&gt;3</title>
<path fill="none" stroke="black" d="M150.54,-106.7C138.08,-97.26 124.89,-87.27 112.49,-77.87"/>
<polygon fill="black" stroke="black" points="114.92,-75.32 104.83,-72.07 110.69,-80.9 114.92,-75.32"/>
</g>
<!-- 4 -->
<g id="node5" class="node">
<title>4</title>
<path fill="#e88f4f" stroke="black" d="M268.12,-71C268.12,-71 145.62,-71 145.62,-71 139.62,-71 133.62,-65 133.62,-59 133.62,-59 133.62,-12 133.62,-12 133.62,-6 139.62,0 145.62,0 145.62,0 268.12,0 268.12,0 274.12,0 280.12,-6 280.12,-12 280.12,-12 280.12,-59 280.12,-59 280.12,-65 274.12,-71 268.12,-71"/>
<text text-anchor="start" x="159.62" y="-53.7" font-family="Helvetica,sans-Serif" font-size="14.00">entropy = 0.464</text>
<text text-anchor="start" x="154.75" y="-37.95" font-family="Helvetica,sans-Serif" font-size="14.00">samples = 38518</text>
<text text-anchor="start" x="141.62" y="-22.2" font-family="Helvetica,sans-Serif" font-size="14.00">value = [34721, 3797]</text>
<text text-anchor="start" x="150.25" y="-6.45" font-family="Helvetica,sans-Serif" font-size="14.00">class = dissatisfied</text>
</g>
<!-- 2&#45;&gt;4 -->
<g id="edge4" class="edge">
<title>2&#45;&gt;4</title>
<path fill="none" stroke="black" d="M206.88,-106.7C206.88,-98.82 206.88,-90.55 206.88,-82.57"/>
<polygon fill="black" stroke="black" points="210.38,-82.67 206.88,-72.67 203.38,-82.67 210.38,-82.67"/>
</g>
<!-- 6 -->
<g id="node7" class="node">
<title>6</title>
<path fill="#d1e8f9" stroke="black" d="M425.38,-71C425.38,-71 310.38,-71 310.38,-71 304.38,-71 298.38,-65 298.38,-59 298.38,-59 298.38,-12 298.38,-12 298.38,-6 304.38,0 310.38,0 310.38,0 425.38,0 425.38,0 431.38,0 437.38,-6 437.38,-12 437.38,-12 437.38,-59 437.38,-59 437.38,-65 431.38,-71 425.38,-71"/>
<text text-anchor="start" x="320.62" y="-53.7" font-family="Helvetica,sans-Serif" font-size="14.00">entropy = 0.987</text>
<text text-anchor="start" x="319.5" y="-37.95" font-family="Helvetica,sans-Serif" font-size="14.00">samples = 3794</text>
<text text-anchor="start" x="306.38" y="-22.2" font-family="Helvetica,sans-Serif" font-size="14.00">value = [1646, 2148]</text>
<text text-anchor="start" x="319.88" y="-6.45" font-family="Helvetica,sans-Serif" font-size="14.00">class = satisfied</text>
</g>
<!-- 5&#45;&gt;6 -->
<g id="edge6" class="edge">
<title>5&#45;&gt;6</title>
<path fill="none" stroke="black" d="M405.19,-106.7C400.76,-98.36 396.09,-89.59 391.62,-81.18"/>
<polygon fill="black" stroke="black" points="394.79,-79.68 387.01,-72.49 388.61,-82.97 394.79,-79.68"/>
</g>
<!-- 7 -->
<g id="node8" class="node">
<title>7</title>
<path fill="#3c9fe5" stroke="black" d="M567.88,-71C567.88,-71 467.88,-71 467.88,-71 461.88,-71 455.88,-65 455.88,-59 455.88,-59 455.88,-12 455.88,-12 455.88,-6 461.88,0 467.88,0 467.88,0 567.88,0 567.88,0 573.88,0 579.88,-6 579.88,-12 579.88,-12 579.88,-59 579.88,-59 579.88,-65 573.88,-71 567.88,-71"/>
<text text-anchor="start" x="474.38" y="-53.7" font-family="Helvetica,sans-Serif" font-size="14.00">entropy = 0.12</text>
<text text-anchor="start" x="469.5" y="-37.95" font-family="Helvetica,sans-Serif" font-size="14.00">samples = 1976</text>
<text text-anchor="start" x="463.88" y="-22.2" font-family="Helvetica,sans-Serif" font-size="14.00">value = [32, 1944]</text>
<text text-anchor="start" x="469.88" y="-6.45" font-family="Helvetica,sans-Serif" font-size="14.00">class = satisfied</text>
</g>
<!-- 5&#45;&gt;7 -->
<g id="edge7" class="edge">
<title>5&#45;&gt;7</title>
<path fill="none" stroke="black" d="M461.9,-106.7C468.85,-97.99 476.16,-88.81 483.13,-80.07"/>
<polygon fill="black" stroke="black" points="485.8,-82.34 489.3,-72.34 480.33,-77.98 485.8,-82.34"/>
</g>
<!-- 9 -->
<g id="node10" class="node">
<title>9</title>
<path fill="#c4e2f7" stroke="black" d="M790.38,-193.75C790.38,-193.75 675.38,-193.75 675.38,-193.75 669.38,-193.75 663.38,-187.75 663.38,-181.75 663.38,-181.75 663.38,-119 663.38,-119 663.38,-113 669.38,-107 675.38,-107 675.38,-107 790.38,-107 790.38,-107 796.38,-107 802.38,-113 802.38,-119 802.38,-119 802.38,-181.75 802.38,-181.75 802.38,-187.75 796.38,-193.75 790.38,-193.75"/>
<text text-anchor="start" x="677.38" y="-176.45" font-family="Helvetica,sans-Serif" font-size="14.00">Seat comfort ≤ 4.5</text>
<text text-anchor="start" x="685.62" y="-160.7" font-family="Helvetica,sans-Serif" font-size="14.00">entropy = 0.978</text>
<text text-anchor="start" x="680.75" y="-144.95" font-family="Helvetica,sans-Serif" font-size="14.00">samples = 15543</text>
<text text-anchor="start" x="671.38" y="-129.2" font-family="Helvetica,sans-Serif" font-size="14.00">value = [6405, 9138]</text>
<text text-anchor="start" x="684.88" y="-113.45" font-family="Helvetica,sans-Serif" font-size="14.00">class = satisfied</text>
</g>
<!-- 8&#45;&gt;9 -->
<g id="edge9" class="edge">
<title>8&#45;&gt;9</title>
<path fill="none" stroke="black" d="M732.88,-229.55C732.88,-221.71 732.88,-213.42 732.88,-205.29"/>
<polygon fill="black" stroke="black" points="736.38,-205.48 732.88,-195.48 729.38,-205.48 736.38,-205.48"/>
</g>
<!-- 12 -->
<g id="node13" class="node">
<title>12</title>
<path fill="#4ea8e8" stroke="black" d="M1051.12,-193.75C1051.12,-193.75 898.62,-193.75 898.62,-193.75 892.62,-193.75 886.62,-187.75 886.62,-181.75 886.62,-181.75 886.62,-119 886.62,-119 886.62,-113 892.62,-107 898.62,-107 898.62,-107 1051.12,-107 1051.12,-107 1057.12,-107 1063.12,-113 1063.12,-119 1063.12,-119 1063.12,-181.75 1063.12,-181.75 1063.12,-187.75 1057.12,-193.75 1051.12,-193.75"/>
<text text-anchor="start" x="894.62" y="-176.45" font-family="Helvetica,sans-Serif" font-size="14.00">Inflight entertainment ≤ 4.5</text>
<text text-anchor="start" x="927.62" y="-160.7" font-family="Helvetica,sans-Serif" font-size="14.00">entropy = 0.462</text>
<text text-anchor="start" x="922.75" y="-144.95" font-family="Helvetica,sans-Serif" font-size="14.00">samples = 41639</text>
<text text-anchor="start" x="909.62" y="-129.2" font-family="Helvetica,sans-Serif" font-size="14.00">value = [4074, 37565]</text>
<text text-anchor="start" x="926.88" y="-113.45" font-family="Helvetica,sans-Serif" font-size="14.00">class = satisfied</text>
</g>
<!-- 8&#45;&gt;12 -->
<g id="edge12" class="edge">
<title>8&#45;&gt;12</title>
<path fill="none" stroke="black" d="M818.54,-229.38C838.19,-219.57 859.21,-209.09 879.26,-199.08"/>
<polygon fill="black" stroke="black" points="880.59,-202.33 887.98,-194.74 877.46,-196.07 880.59,-202.33"/>
</g>
<!-- 10 -->
<g id="node11" class="node">
<title>10</title>
<path fill="#fdfeff" stroke="black" d="M725.38,-71C725.38,-71 610.38,-71 610.38,-71 604.38,-71 598.38,-65 598.38,-59 598.38,-59 598.38,-12 598.38,-12 598.38,-6 604.38,0 610.38,0 610.38,0 725.38,0 725.38,0 731.38,0 737.38,-6 737.38,-12 737.38,-12 737.38,-59 737.38,-59 737.38,-65 731.38,-71 725.38,-71"/>
<text text-anchor="start" x="628.12" y="-53.7" font-family="Helvetica,sans-Serif" font-size="14.00">entropy = 1.0</text>
<text text-anchor="start" x="615.75" y="-37.95" font-family="Helvetica,sans-Serif" font-size="14.00">samples = 12866</text>
<text text-anchor="start" x="606.38" y="-22.2" font-family="Helvetica,sans-Serif" font-size="14.00">value = [6404, 6462]</text>
<text text-anchor="start" x="619.88" y="-6.45" font-family="Helvetica,sans-Serif" font-size="14.00">class = satisfied</text>
</g>
<!-- 9&#45;&gt;10 -->
<g id="edge10" class="edge">
<title>9&#45;&gt;10</title>
<path fill="none" stroke="black" d="M708.3,-106.7C703.44,-98.27 698.33,-89.39 693.44,-80.9"/>
<polygon fill="black" stroke="black" points="696.61,-79.39 688.59,-72.47 690.55,-82.88 696.61,-79.39"/>
</g>
<!-- 11 -->
<g id="node12" class="node">
<title>11</title>
<path fill="#399de5" stroke="black" d="M860.12,-71C860.12,-71 767.62,-71 767.62,-71 761.62,-71 755.62,-65 755.62,-59 755.62,-59 755.62,-12 755.62,-12 755.62,-6 761.62,0 767.62,0 767.62,0 860.12,0 860.12,0 866.12,0 872.12,-6 872.12,-12 872.12,-12 872.12,-59 872.12,-59 872.12,-65 866.12,-71 860.12,-71"/>
<text text-anchor="start" x="766.62" y="-53.7" font-family="Helvetica,sans-Serif" font-size="14.00">entropy = 0.005</text>
<text text-anchor="start" x="765.5" y="-37.95" font-family="Helvetica,sans-Serif" font-size="14.00">samples = 2677</text>
<text text-anchor="start" x="763.62" y="-22.2" font-family="Helvetica,sans-Serif" font-size="14.00">value = [1, 2676]</text>
<text text-anchor="start" x="765.88" y="-6.45" font-family="Helvetica,sans-Serif" font-size="14.00">class = satisfied</text>
</g>
<!-- 9&#45;&gt;11 -->
<g id="edge11" class="edge">
<title>9&#45;&gt;11</title>
<path fill="none" stroke="black" d="M763.5,-106.7C769.68,-98.08 776.2,-89.01 782.41,-80.35"/>
<polygon fill="black" stroke="black" points="785.14,-82.55 788.12,-72.39 779.45,-78.47 785.14,-82.55"/>
</g>
<!-- 13 -->
<g id="node14" class="node">
<title>13</title>
<path fill="#5eafea" stroke="black" d="M1047.38,-71C1047.38,-71 902.38,-71 902.38,-71 896.38,-71 890.38,-65 890.38,-59 890.38,-59 890.38,-12 890.38,-12 890.38,-6 896.38,0 902.38,0 902.38,0 1047.38,0 1047.38,0 1053.38,0 1059.38,-6 1059.38,-12 1059.38,-12 1059.38,-59 1059.38,-59 1059.38,-65 1053.38,-71 1047.38,-71"/>
<text text-anchor="start" x="927.62" y="-53.7" font-family="Helvetica,sans-Serif" font-size="14.00">entropy = 0.629</text>
<text text-anchor="start" x="922.75" y="-37.95" font-family="Helvetica,sans-Serif" font-size="14.00">samples = 22859</text>
<text text-anchor="start" x="898.38" y="-22.2" font-family="Helvetica,sans-Serif" font-size="14.00">value = [3605.0, 19254.0]</text>
<text text-anchor="start" x="926.88" y="-6.45" font-family="Helvetica,sans-Serif" font-size="14.00">class = satisfied</text>
</g>
<!-- 12&#45;&gt;13 -->
<g id="edge13" class="edge">
<title>12&#45;&gt;13</title>
<path fill="none" stroke="black" d="M974.88,-106.7C974.88,-98.82 974.88,-90.55 974.88,-82.57"/>
<polygon fill="black" stroke="black" points="978.38,-82.67 974.88,-72.67 971.38,-82.67 978.38,-82.67"/>
</g>
<!-- 14 -->
<g id="node15" class="node">
<title>14</title>
<path fill="#3ea0e6" stroke="black" d="M1204,-71C1204,-71 1089.75,-71 1089.75,-71 1083.75,-71 1077.75,-65 1077.75,-59 1077.75,-59 1077.75,-12 1077.75,-12 1077.75,-6 1083.75,0 1089.75,0 1089.75,0 1204,0 1204,0 1210,0 1216,-6 1216,-12 1216,-12 1216,-59 1216,-59 1216,-65 1210,-71 1204,-71"/>
<text text-anchor="start" x="1099.62" y="-53.7" font-family="Helvetica,sans-Serif" font-size="14.00">entropy = 0.169</text>
<text text-anchor="start" x="1094.75" y="-37.95" font-family="Helvetica,sans-Serif" font-size="14.00">samples = 18780</text>
<text text-anchor="start" x="1085.75" y="-22.2" font-family="Helvetica,sans-Serif" font-size="14.00">value = [469, 18311]</text>
<text text-anchor="start" x="1098.88" y="-6.45" font-family="Helvetica,sans-Serif" font-size="14.00">class = satisfied</text>
</g>
<!-- 12&#45;&gt;14 -->
<g id="edge14" class="edge">
<title>12&#45;&gt;14</title>
<path fill="none" stroke="black" d="M1039.9,-106.7C1054.49,-97.13 1069.94,-86.99 1084.43,-77.48"/>
<polygon fill="black" stroke="black" points="1086.09,-80.58 1092.53,-72.17 1082.24,-74.73 1086.09,-80.58"/>
</g>
</g>
</svg>
