<?xml version="1.0" encoding="UTF-8" standalone="no"?>
<!DOCTYPE svg PUBLIC "-//W3C//DTD SVG 1.1//EN"
 "http://www.w3.org/Graphics/SVG/1.1/DTD/svg11.dtd">
<!-- Generated by graphviz version 12.2.0 (20241103.1931)
 -->
<!-- Title: Tree Pages: 1 -->
<svg width="1328pt" height="693pt"
 viewBox="0.00 0.00 1328.38 692.75" xmlns="http://www.w3.org/2000/svg" xmlns:xlink="http://www.w3.org/1999/xlink">
<g id="graph0" class="graph" transform="scale(1 1) rotate(0) translate(4 688.75)">
<title>Tree</title>
<polygon fill="white" stroke="none" points="-4,4 -4,-688.75 1324.38,-688.75 1324.38,4 -4,4"/>
<!-- 0 -->
<g id="node1" class="node">
<title>0</title>
<path fill="#f4ccaf" stroke="black" d="M792.88,-684.75C792.88,-684.75 620.12,-684.75 620.12,-684.75 614.12,-684.75 608.12,-678.75 608.12,-672.75 608.12,-672.75 608.12,-610 608.12,-610 608.12,-604 614.12,-598 620.12,-598 620.12,-598 792.88,-598 792.88,-598 798.88,-598 804.88,-604 804.88,-610 804.88,-610 804.88,-672.75 804.88,-672.75 804.88,-678.75 798.88,-684.75 792.88,-684.75"/>
<text text-anchor="start" x="616.12" y="-667.45" font-family="Helvetica,sans-Serif" font-size="14.00">concave points_mean ≤ 0.049</text>
<text text-anchor="start" x="659.25" y="-651.7" font-family="Helvetica,sans-Serif" font-size="14.00">entropy = 0.953</text>
<text text-anchor="start" x="661.88" y="-635.95" font-family="Helvetica,sans-Serif" font-size="14.00">samples = 341</text>
<text text-anchor="start" x="652.5" y="-620.2" font-family="Helvetica,sans-Serif" font-size="14.00">value = [214, 127]</text>
<text text-anchor="start" x="662.25" y="-604.45" font-family="Helvetica,sans-Serif" font-size="14.00">class = Benign</text>
</g>
<!-- 1 -->
<g id="node2" class="node">
<title>1</title>
<path fill="#e78845" stroke="black" d="M678,-562C678,-562 563,-562 563,-562 557,-562 551,-556 551,-550 551,-550 551,-487.25 551,-487.25 551,-481.25 557,-475.25 563,-475.25 563,-475.25 678,-475.25 678,-475.25 684,-475.25 690,-481.25 690,-487.25 690,-487.25 690,-550 690,-550 690,-556 684,-562 678,-562"/>
<text text-anchor="start" x="559" y="-544.7" font-family="Helvetica,sans-Serif" font-size="14.00">area_worst ≤ 949.85</text>
<text text-anchor="start" x="573.62" y="-528.95" font-family="Helvetica,sans-Serif" font-size="14.00">entropy = 0.311</text>
<text text-anchor="start" x="575.88" y="-513.2" font-family="Helvetica,sans-Serif" font-size="14.00">samples = 215</text>
<text text-anchor="start" x="570.25" y="-497.45" font-family="Helvetica,sans-Serif" font-size="14.00">value = [203, 12]</text>
<text text-anchor="start" x="576.25" y="-481.7" font-family="Helvetica,sans-Serif" font-size="14.00">class = Benign</text>
</g>
<!-- 0&#45;&gt;1 -->
<g id="edge1" class="edge">
<title>0&#45;&gt;1</title>
<path fill="none" stroke="black" d="M676.18,-597.8C670.14,-589.33 663.74,-580.34 657.51,-571.58"/>
<polygon fill="black" stroke="black" points="660.37,-569.57 651.71,-563.45 654.66,-573.63 660.37,-569.57"/>
<text text-anchor="middle" x="646.69" y="-581.45" font-family="Helvetica,sans-Serif" font-size="14.00">True</text>
</g>
<!-- 14 -->
<g id="node15" class="node">
<title>14</title>
<path fill="#4ca6e7" stroke="black" d="M890.25,-562C890.25,-562 782.75,-562 782.75,-562 776.75,-562 770.75,-556 770.75,-550 770.75,-550 770.75,-487.25 770.75,-487.25 770.75,-481.25 776.75,-475.25 782.75,-475.25 782.75,-475.25 890.25,-475.25 890.25,-475.25 896.25,-475.25 902.25,-481.25 902.25,-487.25 902.25,-487.25 902.25,-550 902.25,-550 902.25,-556 896.25,-562 890.25,-562"/>
<text text-anchor="start" x="778.75" y="-544.7" font-family="Helvetica,sans-Serif" font-size="14.00">area_worst ≤ 785.8</text>
<text text-anchor="start" x="789.25" y="-528.95" font-family="Helvetica,sans-Serif" font-size="14.00">entropy = 0.427</text>
<text text-anchor="start" x="791.88" y="-513.2" font-family="Helvetica,sans-Serif" font-size="14.00">samples = 126</text>
<text text-anchor="start" x="787" y="-497.45" font-family="Helvetica,sans-Serif" font-size="14.00">value = [11, 115]</text>
<text text-anchor="start" x="783.62" y="-481.7" font-family="Helvetica,sans-Serif" font-size="14.00">class = Malignant</text>
</g>
<!-- 0&#45;&gt;14 -->
<g id="edge14" class="edge">
<title>0&#45;&gt;14</title>
<path fill="none" stroke="black" d="M752.33,-597.8C762.04,-588.79 772.38,-579.19 782.36,-569.91"/>
<polygon fill="black" stroke="black" points="784.59,-572.62 789.53,-563.25 779.82,-567.49 784.59,-572.62"/>
<text text-anchor="middle" x="789.72" y="-581.78" font-family="Helvetica,sans-Serif" font-size="14.00">False</text>
</g>
<!-- 2 -->
<g id="node3" class="node">
<title>2</title>
<path fill="#e6843d" stroke="black" d="M421.75,-439.25C421.75,-439.25 335.25,-439.25 335.25,-439.25 329.25,-439.25 323.25,-433.25 323.25,-427.25 323.25,-427.25 323.25,-364.5 323.25,-364.5 323.25,-358.5 329.25,-352.5 335.25,-352.5 335.25,-352.5 421.75,-352.5 421.75,-352.5 427.75,-352.5 433.75,-358.5 433.75,-364.5 433.75,-364.5 433.75,-427.25 433.75,-427.25 433.75,-433.25 427.75,-439.25 421.75,-439.25"/>
<text text-anchor="start" x="333.5" y="-421.95" font-family="Helvetica,sans-Serif" font-size="14.00">area_se ≤ 48.7</text>
<text text-anchor="start" x="331.25" y="-406.2" font-family="Helvetica,sans-Serif" font-size="14.00">entropy = 0.139</text>
<text text-anchor="start" x="333.88" y="-390.45" font-family="Helvetica,sans-Serif" font-size="14.00">samples = 205</text>
<text text-anchor="start" x="332" y="-374.7" font-family="Helvetica,sans-Serif" font-size="14.00">value = [201, 4]</text>
<text text-anchor="start" x="334.25" y="-358.95" font-family="Helvetica,sans-Serif" font-size="14.00">class = Benign</text>
</g>
<!-- 1&#45;&gt;2 -->
<g id="edge2" class="edge">
<title>1&#45;&gt;2</title>
<path fill="none" stroke="black" d="M550.5,-482.7C516.98,-465.97 477.06,-446.05 444.12,-429.62"/>
<polygon fill="black" stroke="black" points="446.01,-426.65 435.5,-425.31 442.88,-432.91 446.01,-426.65"/>
</g>
<!-- 11 -->
<g id="node12" class="node">
<title>11</title>
<path fill="#6ab6ec" stroke="black" d="M690,-439.25C690,-439.25 551,-439.25 551,-439.25 545,-439.25 539,-433.25 539,-427.25 539,-427.25 539,-364.5 539,-364.5 539,-358.5 545,-352.5 551,-352.5 551,-352.5 690,-352.5 690,-352.5 696,-352.5 702,-358.5 702,-364.5 702,-364.5 702,-427.25 702,-427.25 702,-433.25 696,-439.25 690,-439.25"/>
<text text-anchor="start" x="547" y="-421.95" font-family="Helvetica,sans-Serif" font-size="14.00">smoothness_worst ≤ 0.1</text>
<text text-anchor="start" x="573.25" y="-406.2" font-family="Helvetica,sans-Serif" font-size="14.00">entropy = 0.722</text>
<text text-anchor="start" x="579.62" y="-390.45" font-family="Helvetica,sans-Serif" font-size="14.00">samples = 10</text>
<text text-anchor="start" x="581.5" y="-374.7" font-family="Helvetica,sans-Serif" font-size="14.00">value = [2, 8]</text>
<text text-anchor="start" x="567.62" y="-358.95" font-family="Helvetica,sans-Serif" font-size="14.00">class = Malignant</text>
</g>
<!-- 1&#45;&gt;11 -->
<g id="edge11" class="edge">
<title>1&#45;&gt;11</title>
<path fill="none" stroke="black" d="M620.5,-475.05C620.5,-467.21 620.5,-458.92 620.5,-450.79"/>
<polygon fill="black" stroke="black" points="624,-450.98 620.5,-440.98 617,-450.98 624,-450.98"/>
</g>
<!-- 3 -->
<g id="node4" class="node">
<title>3</title>
<path fill="#e5823b" stroke="black" d="M264.88,-316.5C264.88,-316.5 128.12,-316.5 128.12,-316.5 122.12,-316.5 116.12,-310.5 116.12,-304.5 116.12,-304.5 116.12,-241.75 116.12,-241.75 116.12,-235.75 122.12,-229.75 128.12,-229.75 128.12,-229.75 264.88,-229.75 264.88,-229.75 270.88,-229.75 276.88,-235.75 276.88,-241.75 276.88,-241.75 276.88,-304.5 276.88,-304.5 276.88,-310.5 270.88,-316.5 264.88,-316.5"/>
<text text-anchor="start" x="124.12" y="-299.2" font-family="Helvetica,sans-Serif" font-size="14.00">concavity_worst ≤ 0.373</text>
<text text-anchor="start" x="153" y="-283.45" font-family="Helvetica,sans-Serif" font-size="14.00">entropy = 0.08</text>
<text text-anchor="start" x="151.88" y="-267.7" font-family="Helvetica,sans-Serif" font-size="14.00">samples = 202</text>
<text text-anchor="start" x="150" y="-251.95" font-family="Helvetica,sans-Serif" font-size="14.00">value = [200, 2]</text>
<text text-anchor="start" x="152.25" y="-236.2" font-family="Helvetica,sans-Serif" font-size="14.00">class = Benign</text>
</g>
<!-- 2&#45;&gt;3 -->
<g id="edge3" class="edge">
<title>2&#45;&gt;3</title>
<path fill="none" stroke="black" d="M322.91,-357.99C306.26,-346.95 287.74,-334.66 270.12,-322.97"/>
<polygon fill="black" stroke="black" points="272.54,-320.37 262.27,-317.76 268.67,-326.2 272.54,-320.37"/>
</g>
<!-- 8 -->
<g id="node9" class="node">
<title>8</title>
<path fill="#9ccef2" stroke="black" d="M449.88,-316.5C449.88,-316.5 307.12,-316.5 307.12,-316.5 301.12,-316.5 295.12,-310.5 295.12,-304.5 295.12,-304.5 295.12,-241.75 295.12,-241.75 295.12,-235.75 301.12,-229.75 307.12,-229.75 307.12,-229.75 449.88,-229.75 449.88,-229.75 455.88,-229.75 461.88,-235.75 461.88,-241.75 461.88,-241.75 461.88,-304.5 461.88,-304.5 461.88,-310.5 455.88,-316.5 449.88,-316.5"/>
<text text-anchor="start" x="303.12" y="-299.2" font-family="Helvetica,sans-Serif" font-size="14.00">compactness_se ≤ 0.014</text>
<text text-anchor="start" x="331.25" y="-283.45" font-family="Helvetica,sans-Serif" font-size="14.00">entropy = 0.918</text>
<text text-anchor="start" x="341.38" y="-267.7" font-family="Helvetica,sans-Serif" font-size="14.00">samples = 3</text>
<text text-anchor="start" x="339.5" y="-251.95" font-family="Helvetica,sans-Serif" font-size="14.00">value = [1, 2]</text>
<text text-anchor="start" x="325.62" y="-236.2" font-family="Helvetica,sans-Serif" font-size="14.00">class = Malignant</text>
</g>
<!-- 2&#45;&gt;8 -->
<g id="edge8" class="edge">
<title>2&#45;&gt;8</title>
<path fill="none" stroke="black" d="M378.5,-352.3C378.5,-344.46 378.5,-336.17 378.5,-328.04"/>
<polygon fill="black" stroke="black" points="382,-328.23 378.5,-318.23 375,-328.23 382,-328.23"/>
</g>
<!-- 4 -->
<g id="node5" class="node">
<title>4</title>
<path fill="#e58139" stroke="black" d="M97,-185.88C97,-185.88 12,-185.88 12,-185.88 6,-185.88 0,-179.88 0,-173.88 0,-173.88 0,-126.88 0,-126.88 0,-120.88 6,-114.88 12,-114.88 12,-114.88 97,-114.88 97,-114.88 103,-114.88 109,-120.88 109,-126.88 109,-126.88 109,-173.88 109,-173.88 109,-179.88 103,-185.88 97,-185.88"/>
<text text-anchor="start" x="14.75" y="-168.57" font-family="Helvetica,sans-Serif" font-size="14.00">entropy = 0.0</text>
<text text-anchor="start" x="9.88" y="-152.82" font-family="Helvetica,sans-Serif" font-size="14.00">samples = 194</text>
<text text-anchor="start" x="8" y="-137.07" font-family="Helvetica,sans-Serif" font-size="14.00">value = [194, 0]</text>
<text text-anchor="start" x="10.25" y="-121.33" font-family="Helvetica,sans-Serif" font-size="14.00">class = Benign</text>
</g>
<!-- 3&#45;&gt;4 -->
<g id="edge4" class="edge">
<title>3&#45;&gt;4</title>
<path fill="none" stroke="black" d="M146.44,-229.55C132.55,-217.74 117.49,-204.94 103.66,-193.18"/>
<polygon fill="black" stroke="black" points="106.26,-190.8 96.38,-186.98 101.73,-196.13 106.26,-190.8"/>
</g>
<!-- 5 -->
<g id="node6" class="node">
<title>5</title>
<path fill="#eeab7b" stroke="black" d="M268.12,-193.75C268.12,-193.75 138.88,-193.75 138.88,-193.75 132.88,-193.75 126.88,-187.75 126.88,-181.75 126.88,-181.75 126.88,-119 126.88,-119 126.88,-113 132.88,-107 138.88,-107 138.88,-107 268.12,-107 268.12,-107 274.12,-107 280.12,-113 280.12,-119 280.12,-119 280.12,-181.75 280.12,-181.75 280.12,-187.75 274.12,-193.75 268.12,-193.75"/>
<text text-anchor="start" x="134.88" y="-176.45" font-family="Helvetica,sans-Serif" font-size="14.00">texture_worst ≤ 33.685</text>
<text text-anchor="start" x="156.62" y="-160.7" font-family="Helvetica,sans-Serif" font-size="14.00">entropy = 0.811</text>
<text text-anchor="start" x="166.38" y="-144.95" font-family="Helvetica,sans-Serif" font-size="14.00">samples = 8</text>
<text text-anchor="start" x="164.5" y="-129.2" font-family="Helvetica,sans-Serif" font-size="14.00">value = [6, 2]</text>
<text text-anchor="start" x="159.25" y="-113.45" font-family="Helvetica,sans-Serif" font-size="14.00">class = Benign</text>
</g>
<!-- 3&#45;&gt;5 -->
<g id="edge5" class="edge">
<title>3&#45;&gt;5</title>
<path fill="none" stroke="black" d="M198.97,-229.55C199.42,-221.71 199.9,-213.42 200.37,-205.29"/>
<polygon fill="black" stroke="black" points="203.86,-205.67 200.94,-195.48 196.87,-205.26 203.86,-205.67"/>
</g>
<!-- 6 -->
<g id="node7" class="node">
<title>6</title>
<path fill="#e58139" stroke="black" d="M177.75,-71C177.75,-71 97.25,-71 97.25,-71 91.25,-71 85.25,-65 85.25,-59 85.25,-59 85.25,-12 85.25,-12 85.25,-6 91.25,0 97.25,0 97.25,0 177.75,0 177.75,0 183.75,0 189.75,-6 189.75,-12 189.75,-12 189.75,-59 189.75,-59 189.75,-65 183.75,-71 177.75,-71"/>
<text text-anchor="start" x="97.75" y="-53.7" font-family="Helvetica,sans-Serif" font-size="14.00">entropy = 0.0</text>
<text text-anchor="start" x="100.38" y="-37.95" font-family="Helvetica,sans-Serif" font-size="14.00">samples = 6</text>
<text text-anchor="start" x="98.5" y="-22.2" font-family="Helvetica,sans-Serif" font-size="14.00">value = [6, 0]</text>
<text text-anchor="start" x="93.25" y="-6.45" font-family="Helvetica,sans-Serif" font-size="14.00">class = Benign</text>
</g>
<!-- 5&#45;&gt;6 -->
<g id="edge6" class="edge">
<title>5&#45;&gt;6</title>
<path fill="none" stroke="black" d="M178.55,-106.7C173.62,-98.27 168.43,-89.39 163.46,-80.9"/>
<polygon fill="black" stroke="black" points="166.6,-79.33 158.53,-72.46 160.56,-82.86 166.6,-79.33"/>
</g>
<!-- 7 -->
<g id="node8" class="node">
<title>7</title>
<path fill="#399de5" stroke="black" d="M317.38,-71C317.38,-71 219.62,-71 219.62,-71 213.62,-71 207.62,-65 207.62,-59 207.62,-59 207.62,-12 207.62,-12 207.62,-6 213.62,0 219.62,0 219.62,0 317.38,0 317.38,0 323.38,0 329.38,-6 329.38,-12 329.38,-12 329.38,-59 329.38,-59 329.38,-65 323.38,-71 317.38,-71"/>
<text text-anchor="start" x="228.75" y="-53.7" font-family="Helvetica,sans-Serif" font-size="14.00">entropy = 0.0</text>
<text text-anchor="start" x="231.38" y="-37.95" font-family="Helvetica,sans-Serif" font-size="14.00">samples = 2</text>
<text text-anchor="start" x="229.5" y="-22.2" font-family="Helvetica,sans-Serif" font-size="14.00">value = [0, 2]</text>
<text text-anchor="start" x="215.62" y="-6.45" font-family="Helvetica,sans-Serif" font-size="14.00">class = Malignant</text>
</g>
<!-- 5&#45;&gt;7 -->
<g id="edge7" class="edge">
<title>5&#45;&gt;7</title>
<path fill="none" stroke="black" d="M228.07,-106.7C232.93,-98.27 238.04,-89.39 242.93,-80.9"/>
<polygon fill="black" stroke="black" points="245.83,-82.88 247.79,-72.47 239.76,-79.39 245.83,-82.88"/>
</g>
<!-- 9 -->
<g id="node10" class="node">
<title>9</title>
<path fill="#399de5" stroke="black" d="M421.38,-185.88C421.38,-185.88 323.62,-185.88 323.62,-185.88 317.62,-185.88 311.62,-179.88 311.62,-173.88 311.62,-173.88 311.62,-126.88 311.62,-126.88 311.62,-120.88 317.62,-114.88 323.62,-114.88 323.62,-114.88 421.38,-114.88 421.38,-114.88 427.38,-114.88 433.38,-120.88 433.38,-126.88 433.38,-126.88 433.38,-173.88 433.38,-173.88 433.38,-179.88 427.38,-185.88 421.38,-185.88"/>
<text text-anchor="start" x="332.75" y="-168.57" font-family="Helvetica,sans-Serif" font-size="14.00">entropy = 0.0</text>
<text text-anchor="start" x="335.38" y="-152.82" font-family="Helvetica,sans-Serif" font-size="14.00">samples = 2</text>
<text text-anchor="start" x="333.5" y="-137.07" font-family="Helvetica,sans-Serif" font-size="14.00">value = [0, 2]</text>
<text text-anchor="start" x="319.62" y="-121.33" font-family="Helvetica,sans-Serif" font-size="14.00">class = Malignant</text>
</g>
<!-- 8&#45;&gt;9 -->
<g id="edge9" class="edge">
<title>8&#45;&gt;9</title>
<path fill="none" stroke="black" d="M376.38,-229.55C375.86,-219.08 375.3,-207.83 374.78,-197.21"/>
<polygon fill="black" stroke="black" points="378.29,-197.33 374.3,-187.52 371.3,-197.68 378.29,-197.33"/>
</g>
<!-- 10 -->
<g id="node11" class="node">
<title>10</title>
<path fill="#e58139" stroke="black" d="M543.75,-185.88C543.75,-185.88 463.25,-185.88 463.25,-185.88 457.25,-185.88 451.25,-179.88 451.25,-173.88 451.25,-173.88 451.25,-126.88 451.25,-126.88 451.25,-120.88 457.25,-114.88 463.25,-114.88 463.25,-114.88 543.75,-114.88 543.75,-114.88 549.75,-114.88 555.75,-120.88 555.75,-126.88 555.75,-126.88 555.75,-173.88 555.75,-173.88 555.75,-179.88 549.75,-185.88 543.75,-185.88"/>
<text text-anchor="start" x="463.75" y="-168.57" font-family="Helvetica,sans-Serif" font-size="14.00">entropy = 0.0</text>
<text text-anchor="start" x="466.38" y="-152.82" font-family="Helvetica,sans-Serif" font-size="14.00">samples = 1</text>
<text text-anchor="start" x="464.5" y="-137.07" font-family="Helvetica,sans-Serif" font-size="14.00">value = [1, 0]</text>
<text text-anchor="start" x="459.25" y="-121.33" font-family="Helvetica,sans-Serif" font-size="14.00">class = Benign</text>
</g>
<!-- 8&#45;&gt;10 -->
<g id="edge10" class="edge">
<title>8&#45;&gt;10</title>
<path fill="none" stroke="black" d="M422.57,-229.55C434.56,-217.97 447.55,-205.42 459.54,-193.84"/>
<polygon fill="black" stroke="black" points="461.8,-196.52 466.56,-187.06 456.94,-191.49 461.8,-196.52"/>
</g>
<!-- 12 -->
<g id="node13" class="node">
<title>12</title>
<path fill="#e58139" stroke="black" d="M572.75,-308.62C572.75,-308.62 492.25,-308.62 492.25,-308.62 486.25,-308.62 480.25,-302.62 480.25,-296.62 480.25,-296.62 480.25,-249.62 480.25,-249.62 480.25,-243.62 486.25,-237.62 492.25,-237.62 492.25,-237.62 572.75,-237.62 572.75,-237.62 578.75,-237.62 584.75,-243.62 584.75,-249.62 584.75,-249.62 584.75,-296.62 584.75,-296.62 584.75,-302.62 578.75,-308.62 572.75,-308.62"/>
<text text-anchor="start" x="492.75" y="-291.32" font-family="Helvetica,sans-Serif" font-size="14.00">entropy = 0.0</text>
<text text-anchor="start" x="495.38" y="-275.57" font-family="Helvetica,sans-Serif" font-size="14.00">samples = 2</text>
<text text-anchor="start" x="493.5" y="-259.82" font-family="Helvetica,sans-Serif" font-size="14.00">value = [2, 0]</text>
<text text-anchor="start" x="488.25" y="-244.07" font-family="Helvetica,sans-Serif" font-size="14.00">class = Benign</text>
</g>
<!-- 11&#45;&gt;12 -->
<g id="edge12" class="edge">
<title>11&#45;&gt;12</title>
<path fill="none" stroke="black" d="M589.47,-352.3C581.36,-341.16 572.59,-329.14 564.43,-317.93"/>
<polygon fill="black" stroke="black" points="567.35,-316 558.63,-309.98 561.69,-320.12 567.35,-316"/>
</g>
<!-- 13 -->
<g id="node14" class="node">
<title>13</title>
<path fill="#399de5" stroke="black" d="M712.38,-308.62C712.38,-308.62 614.62,-308.62 614.62,-308.62 608.62,-308.62 602.62,-302.62 602.62,-296.62 602.62,-296.62 602.62,-249.62 602.62,-249.62 602.62,-243.62 608.62,-237.62 614.62,-237.62 614.62,-237.62 712.38,-237.62 712.38,-237.62 718.38,-237.62 724.38,-243.62 724.38,-249.62 724.38,-249.62 724.38,-296.62 724.38,-296.62 724.38,-302.62 718.38,-308.62 712.38,-308.62"/>
<text text-anchor="start" x="623.75" y="-291.32" font-family="Helvetica,sans-Serif" font-size="14.00">entropy = 0.0</text>
<text text-anchor="start" x="626.38" y="-275.57" font-family="Helvetica,sans-Serif" font-size="14.00">samples = 8</text>
<text text-anchor="start" x="624.5" y="-259.82" font-family="Helvetica,sans-Serif" font-size="14.00">value = [0, 8]</text>
<text text-anchor="start" x="610.62" y="-244.07" font-family="Helvetica,sans-Serif" font-size="14.00">class = Malignant</text>
</g>
<!-- 11&#45;&gt;13 -->
<g id="edge13" class="edge">
<title>11&#45;&gt;13</title>
<path fill="none" stroke="black" d="M635.66,-352.3C639.47,-341.61 643.57,-330.1 647.42,-319.28"/>
<polygon fill="black" stroke="black" points="650.6,-320.77 650.66,-310.18 644.01,-318.43 650.6,-320.77"/>
</g>
<!-- 15 -->
<g id="node16" class="node">
<title>15</title>
<path fill="#fae6d7" stroke="black" d="M897.38,-439.25C897.38,-439.25 775.62,-439.25 775.62,-439.25 769.62,-439.25 763.62,-433.25 763.62,-427.25 763.62,-427.25 763.62,-364.5 763.62,-364.5 763.62,-358.5 769.62,-352.5 775.62,-352.5 775.62,-352.5 897.38,-352.5 897.38,-352.5 903.38,-352.5 909.38,-358.5 909.38,-364.5 909.38,-364.5 909.38,-427.25 909.38,-427.25 909.38,-433.25 903.38,-439.25 897.38,-439.25"/>
<text text-anchor="start" x="771.62" y="-421.95" font-family="Helvetica,sans-Serif" font-size="14.00">texture_worst ≤ 23.74</text>
<text text-anchor="start" x="789.25" y="-406.2" font-family="Helvetica,sans-Serif" font-size="14.00">entropy = 0.991</text>
<text text-anchor="start" x="795.62" y="-390.45" font-family="Helvetica,sans-Serif" font-size="14.00">samples = 18</text>
<text text-anchor="start" x="793.75" y="-374.7" font-family="Helvetica,sans-Serif" font-size="14.00">value = [10, 8]</text>
<text text-anchor="start" x="792.25" y="-358.95" font-family="Helvetica,sans-Serif" font-size="14.00">class = Benign</text>
</g>
<!-- 14&#45;&gt;15 -->
<g id="edge15" class="edge">
<title>14&#45;&gt;15</title>
<path fill="none" stroke="black" d="M836.5,-475.05C836.5,-467.21 836.5,-458.92 836.5,-450.79"/>
<polygon fill="black" stroke="black" points="840,-450.98 836.5,-440.98 833,-450.98 840,-450.98"/>
</g>
<!-- 20 -->
<g id="node21" class="node">
<title>20</title>
<path fill="#3b9ee5" stroke="black" d="M1196.88,-439.25C1196.88,-439.25 1060.12,-439.25 1060.12,-439.25 1054.12,-439.25 1048.12,-433.25 1048.12,-427.25 1048.12,-427.25 1048.12,-364.5 1048.12,-364.5 1048.12,-358.5 1054.12,-352.5 1060.12,-352.5 1060.12,-352.5 1196.88,-352.5 1196.88,-352.5 1202.88,-352.5 1208.88,-358.5 1208.88,-364.5 1208.88,-364.5 1208.88,-427.25 1208.88,-427.25 1208.88,-433.25 1202.88,-439.25 1196.88,-439.25"/>
<text text-anchor="start" x="1056.12" y="-421.95" font-family="Helvetica,sans-Serif" font-size="14.00">concavity_worst ≤ 0.182</text>
<text text-anchor="start" x="1081.25" y="-406.2" font-family="Helvetica,sans-Serif" font-size="14.00">entropy = 0.076</text>
<text text-anchor="start" x="1083.88" y="-390.45" font-family="Helvetica,sans-Serif" font-size="14.00">samples = 108</text>
<text text-anchor="start" x="1082" y="-374.7" font-family="Helvetica,sans-Serif" font-size="14.00">value = [1, 107]</text>
<text text-anchor="start" x="1075.62" y="-358.95" font-family="Helvetica,sans-Serif" font-size="14.00">class = Malignant</text>
</g>
<!-- 14&#45;&gt;20 -->
<g id="edge20" class="edge">
<title>14&#45;&gt;20</title>
<path fill="none" stroke="black" d="M902.39,-490.38C942.18,-473.93 993.45,-452.72 1037.11,-434.67"/>
<polygon fill="black" stroke="black" points="1038.44,-437.9 1046.34,-430.85 1035.77,-431.44 1038.44,-437.9"/>
</g>
<!-- 16 -->
<g id="node17" class="node">
<title>16</title>
<path fill="#e58139" stroke="black" d="M834.75,-308.62C834.75,-308.62 754.25,-308.62 754.25,-308.62 748.25,-308.62 742.25,-302.62 742.25,-296.62 742.25,-296.62 742.25,-249.62 742.25,-249.62 742.25,-243.62 748.25,-237.62 754.25,-237.62 754.25,-237.62 834.75,-237.62 834.75,-237.62 840.75,-237.62 846.75,-243.62 846.75,-249.62 846.75,-249.62 846.75,-296.62 846.75,-296.62 846.75,-302.62 840.75,-308.62 834.75,-308.62"/>
<text text-anchor="start" x="754.75" y="-291.32" font-family="Helvetica,sans-Serif" font-size="14.00">entropy = 0.0</text>
<text text-anchor="start" x="757.38" y="-275.57" font-family="Helvetica,sans-Serif" font-size="14.00">samples = 8</text>
<text text-anchor="start" x="755.5" y="-259.82" font-family="Helvetica,sans-Serif" font-size="14.00">value = [8, 0]</text>
<text text-anchor="start" x="750.25" y="-244.07" font-family="Helvetica,sans-Serif" font-size="14.00">class = Benign</text>
</g>
<!-- 15&#45;&gt;16 -->
<g id="edge16" class="edge">
<title>15&#45;&gt;16</title>
<path fill="none" stroke="black" d="M821.69,-352.3C818.01,-341.72 814.05,-330.34 810.32,-319.62"/>
<polygon fill="black" stroke="black" points="813.63,-318.48 807.04,-310.18 807.02,-320.78 813.63,-318.48"/>
</g>
<!-- 17 -->
<g id="node18" class="node">
<title>17</title>
<path fill="#6ab6ec" stroke="black" d="M1046,-316.5C1046,-316.5 877,-316.5 877,-316.5 871,-316.5 865,-310.5 865,-304.5 865,-304.5 865,-241.75 865,-241.75 865,-235.75 871,-229.75 877,-229.75 877,-229.75 1046,-229.75 1046,-229.75 1052,-229.75 1058,-235.75 1058,-241.75 1058,-241.75 1058,-304.5 1058,-304.5 1058,-310.5 1052,-316.5 1046,-316.5"/>
<text text-anchor="start" x="873" y="-299.2" font-family="Helvetica,sans-Serif" font-size="14.00">fractal_dimension_se ≤ 0.003</text>
<text text-anchor="start" x="914.25" y="-283.45" font-family="Helvetica,sans-Serif" font-size="14.00">entropy = 0.722</text>
<text text-anchor="start" x="920.62" y="-267.7" font-family="Helvetica,sans-Serif" font-size="14.00">samples = 10</text>
<text text-anchor="start" x="922.5" y="-251.95" font-family="Helvetica,sans-Serif" font-size="14.00">value = [2, 8]</text>
<text text-anchor="start" x="908.62" y="-236.2" font-family="Helvetica,sans-Serif" font-size="14.00">class = Malignant</text>
</g>
<!-- 15&#45;&gt;17 -->
<g id="edge17" class="edge">
<title>15&#45;&gt;17</title>
<path fill="none" stroke="black" d="M880.57,-352.3C889.81,-343.38 899.64,-333.88 909.15,-324.69"/>
<polygon fill="black" stroke="black" points="911.56,-327.24 916.32,-317.77 906.69,-322.2 911.56,-327.24"/>
</g>
<!-- 18 -->
<g id="node19" class="node">
<title>18</title>
<path fill="#e58139" stroke="black" d="M935.75,-185.88C935.75,-185.88 855.25,-185.88 855.25,-185.88 849.25,-185.88 843.25,-179.88 843.25,-173.88 843.25,-173.88 843.25,-126.88 843.25,-126.88 843.25,-120.88 849.25,-114.88 855.25,-114.88 855.25,-114.88 935.75,-114.88 935.75,-114.88 941.75,-114.88 947.75,-120.88 947.75,-126.88 947.75,-126.88 947.75,-173.88 947.75,-173.88 947.75,-179.88 941.75,-185.88 935.75,-185.88"/>
<text text-anchor="start" x="855.75" y="-168.57" font-family="Helvetica,sans-Serif" font-size="14.00">entropy = 0.0</text>
<text text-anchor="start" x="858.38" y="-152.82" font-family="Helvetica,sans-Serif" font-size="14.00">samples = 2</text>
<text text-anchor="start" x="856.5" y="-137.07" font-family="Helvetica,sans-Serif" font-size="14.00">value = [2, 0]</text>
<text text-anchor="start" x="851.25" y="-121.33" font-family="Helvetica,sans-Serif" font-size="14.00">class = Benign</text>
</g>
<!-- 17&#45;&gt;18 -->
<g id="edge18" class="edge">
<title>17&#45;&gt;18</title>
<path fill="none" stroke="black" d="M938.23,-229.55C932.26,-218.64 925.83,-206.87 919.81,-195.86"/>
<polygon fill="black" stroke="black" points="923.02,-194.43 915.15,-187.33 916.88,-197.79 923.02,-194.43"/>
</g>
<!-- 19 -->
<g id="node20" class="node">
<title>19</title>
<path fill="#399de5" stroke="black" d="M1075.38,-185.88C1075.38,-185.88 977.62,-185.88 977.62,-185.88 971.62,-185.88 965.62,-179.88 965.62,-173.88 965.62,-173.88 965.62,-126.88 965.62,-126.88 965.62,-120.88 971.62,-114.88 977.62,-114.88 977.62,-114.88 1075.38,-114.88 1075.38,-114.88 1081.38,-114.88 1087.38,-120.88 1087.38,-126.88 1087.38,-126.88 1087.38,-173.88 1087.38,-173.88 1087.38,-179.88 1081.38,-185.88 1075.38,-185.88"/>
<text text-anchor="start" x="986.75" y="-168.57" font-family="Helvetica,sans-Serif" font-size="14.00">entropy = 0.0</text>
<text text-anchor="start" x="989.38" y="-152.82" font-family="Helvetica,sans-Serif" font-size="14.00">samples = 8</text>
<text text-anchor="start" x="987.5" y="-137.07" font-family="Helvetica,sans-Serif" font-size="14.00">value = [0, 8]</text>
<text text-anchor="start" x="973.62" y="-121.33" font-family="Helvetica,sans-Serif" font-size="14.00">class = Malignant</text>
</g>
<!-- 17&#45;&gt;19 -->
<g id="edge19" class="edge">
<title>17&#45;&gt;19</title>
<path fill="none" stroke="black" d="M984.42,-229.55C990.29,-218.64 996.63,-206.87 1002.56,-195.86"/>
<polygon fill="black" stroke="black" points="1005.48,-197.8 1007.14,-187.34 999.32,-194.48 1005.48,-197.8"/>
</g>
<!-- 21 -->
<g id="node22" class="node">
<title>21</title>
<path fill="#e58139" stroke="black" d="M1168.75,-308.62C1168.75,-308.62 1088.25,-308.62 1088.25,-308.62 1082.25,-308.62 1076.25,-302.62 1076.25,-296.62 1076.25,-296.62 1076.25,-249.62 1076.25,-249.62 1076.25,-243.62 1082.25,-237.62 1088.25,-237.62 1088.25,-237.62 1168.75,-237.62 1168.75,-237.62 1174.75,-237.62 1180.75,-243.62 1180.75,-249.62 1180.75,-249.62 1180.75,-296.62 1180.75,-296.62 1180.75,-302.62 1174.75,-308.62 1168.75,-308.62"/>
<text text-anchor="start" x="1088.75" y="-291.32" font-family="Helvetica,sans-Serif" font-size="14.00">entropy = 0.0</text>
<text text-anchor="start" x="1091.38" y="-275.57" font-family="Helvetica,sans-Serif" font-size="14.00">samples = 1</text>
<text text-anchor="start" x="1089.5" y="-259.82" font-family="Helvetica,sans-Serif" font-size="14.00">value = [1, 0]</text>
<text text-anchor="start" x="1084.25" y="-244.07" font-family="Helvetica,sans-Serif" font-size="14.00">class = Benign</text>
</g>
<!-- 20&#45;&gt;21 -->
<g id="edge21" class="edge">
<title>20&#45;&gt;21</title>
<path fill="none" stroke="black" d="M1128.5,-352.3C1128.5,-341.83 1128.5,-330.58 1128.5,-319.96"/>
<polygon fill="black" stroke="black" points="1132,-320.27 1128.5,-310.27 1125,-320.27 1132,-320.27"/>
</g>
<!-- 22 -->
<g id="node23" class="node">
<title>22</title>
<path fill="#399de5" stroke="black" d="M1308.38,-308.62C1308.38,-308.62 1210.62,-308.62 1210.62,-308.62 1204.62,-308.62 1198.62,-302.62 1198.62,-296.62 1198.62,-296.62 1198.62,-249.62 1198.62,-249.62 1198.62,-243.62 1204.62,-237.62 1210.62,-237.62 1210.62,-237.62 1308.38,-237.62 1308.38,-237.62 1314.38,-237.62 1320.38,-243.62 1320.38,-249.62 1320.38,-249.62 1320.38,-296.62 1320.38,-296.62 1320.38,-302.62 1314.38,-308.62 1308.38,-308.62"/>
<text text-anchor="start" x="1219.75" y="-291.32" font-family="Helvetica,sans-Serif" font-size="14.00">entropy = 0.0</text>
<text text-anchor="start" x="1214.88" y="-275.57" font-family="Helvetica,sans-Serif" font-size="14.00">samples = 107</text>
<text text-anchor="start" x="1213" y="-259.82" font-family="Helvetica,sans-Serif" font-size="14.00">value = [0, 107]</text>
<text text-anchor="start" x="1206.62" y="-244.07" font-family="Helvetica,sans-Serif" font-size="14.00">class = Malignant</text>
</g>
<!-- 20&#45;&gt;22 -->
<g id="edge22" class="edge">
<title>20&#45;&gt;22</title>
<path fill="none" stroke="black" d="M1174.69,-352.3C1187.38,-340.61 1201.13,-327.93 1213.79,-316.26"/>
<polygon fill="black" stroke="black" points="1215.84,-319.13 1220.82,-309.78 1211.09,-313.98 1215.84,-319.13"/>
</g>
</g>
</svg>
