<?xml version="1.0" encoding="UTF-8" standalone="no"?>
<!DOCTYPE svg PUBLIC "-//W3C//DTD SVG 1.1//EN"
 "http://www.w3.org/Graphics/SVG/1.1/DTD/svg11.dtd">
<!-- Generated by graphviz version 2.38.0 (20140413.2041)
 -->
<!-- Title: Tree Pages: 1 -->
<svg width="1296pt" height="433pt"
 viewBox="0.00 0.00 1295.50 433.00" xmlns="http://www.w3.org/2000/svg" xmlns:xlink="http://www.w3.org/1999/xlink">
<g id="graph0" class="graph" transform="scale(1 1) rotate(0) translate(4 429)">
<title>Tree</title>
<polygon fill="white" stroke="none" points="-4,4 -4,-429 1291.5,-429 1291.5,4 -4,4"/>
<!-- 0 -->
<g id="node1" class="node"><title>0</title>
<path fill="#ddeefb" stroke="black" d="M703,-425C703,-425 540,-425 540,-425 534,-425 528,-419 528,-413 528,-413 528,-354 528,-354 528,-348 534,-342 540,-342 540,-342 703,-342 703,-342 709,-342 715,-348 715,-354 715,-354 715,-413 715,-413 715,-419 709,-425 703,-425"/>
<text text-anchor="start" x="538" y="-409.8" font-family="Helvetica,sans-Serif" font-size="14.00">Inflight entertainment ≤ 3.5</text>
<text text-anchor="start" x="571.5" y="-394.8" font-family="Helvetica,sans-Serif" font-size="14.00">entropy = 0.994</text>
<text text-anchor="start" x="561.5" y="-379.8" font-family="Helvetica,sans-Serif" font-size="14.00">samples = 103589</text>
<text text-anchor="start" x="536" y="-364.8" font-family="Helvetica,sans-Serif" font-size="14.00">value = [46894.0, 56695.0]</text>
<text text-anchor="start" x="561" y="-349.8" font-family="Helvetica,sans-Serif" font-size="14.00">class = dissatisfied</text>
</g>
<!-- 1 -->
<g id="node2" class="node"><title>1</title>
<path fill="#eca470" stroke="black" d="M531,-306C531,-306 392,-306 392,-306 386,-306 380,-300 380,-294 380,-294 380,-235 380,-235 380,-229 386,-223 392,-223 392,-223 531,-223 531,-223 537,-223 543,-229 543,-235 543,-235 543,-294 543,-294 543,-300 537,-306 531,-306"/>
<text text-anchor="start" x="402.5" y="-290.8" font-family="Helvetica,sans-Serif" font-size="14.00">Seat comfort ≤ 3.5</text>
<text text-anchor="start" x="411.5" y="-275.8" font-family="Helvetica,sans-Serif" font-size="14.00">entropy = 0.753</text>
<text text-anchor="start" x="405.5" y="-260.8" font-family="Helvetica,sans-Serif" font-size="14.00">samples = 46406</text>
<text text-anchor="start" x="388" y="-245.8" font-family="Helvetica,sans-Serif" font-size="14.00">value = [36376, 10030]</text>
<text text-anchor="start" x="410" y="-230.8" font-family="Helvetica,sans-Serif" font-size="14.00">class = satisfied</text>
</g>
<!-- 0&#45;&gt;1 -->
<g id="edge1" class="edge"><title>0&#45;&gt;1</title>
<path fill="none" stroke="black" d="M565.989,-341.907C552.834,-332.288 538.701,-321.953 525.213,-312.09"/>
<polygon fill="black" stroke="black" points="527.051,-309.098 516.913,-306.021 522.919,-314.749 527.051,-309.098"/>
<text text-anchor="middle" x="520.748" y="-327.025" font-family="Helvetica,sans-Serif" font-size="14.00">True</text>
</g>
<!-- 8 -->
<g id="node9" class="node"><title>8</title>
<path fill="#66b3eb" stroke="black" d="M879.5,-306C879.5,-306 703.5,-306 703.5,-306 697.5,-306 691.5,-300 691.5,-294 691.5,-294 691.5,-235 691.5,-235 691.5,-229 697.5,-223 703.5,-223 703.5,-223 879.5,-223 879.5,-223 885.5,-223 891.5,-229 891.5,-235 891.5,-235 891.5,-294 891.5,-294 891.5,-300 885.5,-306 879.5,-306"/>
<text text-anchor="start" x="699.5" y="-290.8" font-family="Helvetica,sans-Serif" font-size="14.00">Ease of Online booking ≤ 3.5</text>
<text text-anchor="start" x="741.5" y="-275.8" font-family="Helvetica,sans-Serif" font-size="14.00">entropy = 0.689</text>
<text text-anchor="start" x="735.5" y="-260.8" font-family="Helvetica,sans-Serif" font-size="14.00">samples = 57183</text>
<text text-anchor="start" x="718" y="-245.8" font-family="Helvetica,sans-Serif" font-size="14.00">value = [10518, 46665]</text>
<text text-anchor="start" x="731" y="-230.8" font-family="Helvetica,sans-Serif" font-size="14.00">class = dissatisfied</text>
</g>
<!-- 0&#45;&gt;8 -->
<g id="edge8" class="edge"><title>0&#45;&gt;8</title>
<path fill="none" stroke="black" d="M680.481,-341.907C694.59,-332.197 709.757,-321.758 724.21,-311.811"/>
<polygon fill="black" stroke="black" points="726.37,-314.573 732.624,-306.021 722.402,-308.807 726.37,-314.573"/>
<text text-anchor="middle" x="728.084" y="-326.905" font-family="Helvetica,sans-Serif" font-size="14.00">False</text>
</g>
<!-- 2 -->
<g id="node3" class="node"><title>2</title>
<path fill="#e9965a" stroke="black" d="M298,-187C298,-187 167,-187 167,-187 161,-187 155,-181 155,-175 155,-175 155,-116 155,-116 155,-110 161,-104 167,-104 167,-104 298,-104 298,-104 304,-104 310,-110 310,-116 310,-116 310,-175 310,-175 310,-181 304,-187 298,-187"/>
<text text-anchor="start" x="173.5" y="-171.8" font-family="Helvetica,sans-Serif" font-size="14.00">Seat comfort ≤ 0.5</text>
<text text-anchor="start" x="182.5" y="-156.8" font-family="Helvetica,sans-Serif" font-size="14.00">entropy = 0.596</text>
<text text-anchor="start" x="176.5" y="-141.8" font-family="Helvetica,sans-Serif" font-size="14.00">samples = 40576</text>
<text text-anchor="start" x="163" y="-126.8" font-family="Helvetica,sans-Serif" font-size="14.00">value = [34708, 5868]</text>
<text text-anchor="start" x="181" y="-111.8" font-family="Helvetica,sans-Serif" font-size="14.00">class = satisfied</text>
</g>
<!-- 1&#45;&gt;2 -->
<g id="edge2" class="edge"><title>1&#45;&gt;2</title>
<path fill="none" stroke="black" d="M382.05,-222.907C361.794,-212.559 339.92,-201.383 319.317,-190.856"/>
<polygon fill="black" stroke="black" points="320.761,-187.664 310.264,-186.231 317.576,-193.897 320.761,-187.664"/>
</g>
<!-- 5 -->
<g id="node6" class="node"><title>5</title>
<path fill="#88c4ef" stroke="black" d="M522.5,-187C522.5,-187 400.5,-187 400.5,-187 394.5,-187 388.5,-181 388.5,-175 388.5,-175 388.5,-116 388.5,-116 388.5,-110 394.5,-104 400.5,-104 400.5,-104 522.5,-104 522.5,-104 528.5,-104 534.5,-110 534.5,-116 534.5,-116 534.5,-175 534.5,-175 534.5,-181 528.5,-187 522.5,-187"/>
<text text-anchor="start" x="402.5" y="-171.8" font-family="Helvetica,sans-Serif" font-size="14.00">Seat comfort ≤ 4.5</text>
<text text-anchor="start" x="411.5" y="-156.8" font-family="Helvetica,sans-Serif" font-size="14.00">entropy = 0.864</text>
<text text-anchor="start" x="410" y="-141.8" font-family="Helvetica,sans-Serif" font-size="14.00">samples = 5830</text>
<text text-anchor="start" x="396.5" y="-126.8" font-family="Helvetica,sans-Serif" font-size="14.00">value = [1668, 4162]</text>
<text text-anchor="start" x="401" y="-111.8" font-family="Helvetica,sans-Serif" font-size="14.00">class = dissatisfied</text>
</g>
<!-- 1&#45;&gt;5 -->
<g id="edge5" class="edge"><title>1&#45;&gt;5</title>
<path fill="none" stroke="black" d="M461.5,-222.907C461.5,-214.649 461.5,-205.864 461.5,-197.302"/>
<polygon fill="black" stroke="black" points="465,-197.021 461.5,-187.021 458,-197.021 465,-197.021"/>
</g>
<!-- 3 -->
<g id="node4" class="node"><title>3</title>
<path fill="#3a9de5" stroke="black" d="M125,-68C125,-68 12,-68 12,-68 6,-68 0,-62 0,-56 0,-56 0,-12 0,-12 0,-6 6,-0 12,-0 12,-0 125,-0 125,-0 131,-0 137,-6 137,-12 137,-12 137,-56 137,-56 137,-62 131,-68 125,-68"/>
<text text-anchor="start" x="18.5" y="-52.8" font-family="Helvetica,sans-Serif" font-size="14.00">entropy = 0.032</text>
<text text-anchor="start" x="17" y="-37.8" font-family="Helvetica,sans-Serif" font-size="14.00">samples = 2121</text>
<text text-anchor="start" x="15.5" y="-22.8" font-family="Helvetica,sans-Serif" font-size="14.00">value = [7, 2114]</text>
<text text-anchor="start" x="8" y="-7.8" font-family="Helvetica,sans-Serif" font-size="14.00">class = dissatisfied</text>
</g>
<!-- 2&#45;&gt;3 -->
<g id="edge3" class="edge"><title>2&#45;&gt;3</title>
<path fill="none" stroke="black" d="M171.432,-103.726C156.74,-93.9161 141.086,-83.4644 126.536,-73.7496"/>
<polygon fill="black" stroke="black" points="128.372,-70.7673 118.112,-68.1252 124.485,-76.5889 128.372,-70.7673"/>
</g>
<!-- 4 -->
<g id="node5" class="node"><title>4</title>
<path fill="#e88f4e" stroke="black" d="M298,-68C298,-68 167,-68 167,-68 161,-68 155,-62 155,-56 155,-56 155,-12 155,-12 155,-6 161,-0 167,-0 167,-0 298,-0 298,-0 304,-0 310,-6 310,-12 310,-12 310,-56 310,-56 310,-62 304,-68 298,-68"/>
<text text-anchor="start" x="182.5" y="-52.8" font-family="Helvetica,sans-Serif" font-size="14.00">entropy = 0.461</text>
<text text-anchor="start" x="176.5" y="-37.8" font-family="Helvetica,sans-Serif" font-size="14.00">samples = 38455</text>
<text text-anchor="start" x="163" y="-22.8" font-family="Helvetica,sans-Serif" font-size="14.00">value = [34701, 3754]</text>
<text text-anchor="start" x="181" y="-7.8" font-family="Helvetica,sans-Serif" font-size="14.00">class = satisfied</text>
</g>
<!-- 2&#45;&gt;4 -->
<g id="edge4" class="edge"><title>2&#45;&gt;4</title>
<path fill="none" stroke="black" d="M232.5,-103.726C232.5,-95.5175 232.5,-86.8595 232.5,-78.56"/>
<polygon fill="black" stroke="black" points="236,-78.2996 232.5,-68.2996 229,-78.2996 236,-78.2996"/>
</g>
<!-- 6 -->
<g id="node7" class="node"><title>6</title>
<path fill="#cde6f8" stroke="black" d="M462.5,-68C462.5,-68 340.5,-68 340.5,-68 334.5,-68 328.5,-62 328.5,-56 328.5,-56 328.5,-12 328.5,-12 328.5,-6 334.5,-0 340.5,-0 340.5,-0 462.5,-0 462.5,-0 468.5,-0 474.5,-6 474.5,-12 474.5,-12 474.5,-56 474.5,-56 474.5,-62 468.5,-68 462.5,-68"/>
<text text-anchor="start" x="351.5" y="-52.8" font-family="Helvetica,sans-Serif" font-size="14.00">entropy = 0.985</text>
<text text-anchor="start" x="350" y="-37.8" font-family="Helvetica,sans-Serif" font-size="14.00">samples = 3825</text>
<text text-anchor="start" x="336.5" y="-22.8" font-family="Helvetica,sans-Serif" font-size="14.00">value = [1635, 2190]</text>
<text text-anchor="start" x="341" y="-7.8" font-family="Helvetica,sans-Serif" font-size="14.00">class = dissatisfied</text>
</g>
<!-- 5&#45;&gt;6 -->
<g id="edge6" class="edge"><title>5&#45;&gt;6</title>
<path fill="none" stroke="black" d="M439.158,-103.726C434.41,-95.0615 429.388,-85.8962 424.612,-77.1802"/>
<polygon fill="black" stroke="black" points="427.621,-75.3875 419.746,-68.2996 421.482,-78.7513 427.621,-75.3875"/>
</g>
<!-- 7 -->
<g id="node8" class="node"><title>7</title>
<path fill="#3c9fe5" stroke="black" d="M618,-68C618,-68 505,-68 505,-68 499,-68 493,-62 493,-56 493,-56 493,-12 493,-12 493,-6 499,-0 505,-0 505,-0 618,-0 618,-0 624,-0 630,-6 630,-12 630,-12 630,-56 630,-56 630,-62 624,-68 618,-68"/>
<text text-anchor="start" x="511.5" y="-52.8" font-family="Helvetica,sans-Serif" font-size="14.00">entropy = 0.121</text>
<text text-anchor="start" x="510" y="-37.8" font-family="Helvetica,sans-Serif" font-size="14.00">samples = 2005</text>
<text text-anchor="start" x="504.5" y="-22.8" font-family="Helvetica,sans-Serif" font-size="14.00">value = [33, 1972]</text>
<text text-anchor="start" x="501" y="-7.8" font-family="Helvetica,sans-Serif" font-size="14.00">class = dissatisfied</text>
</g>
<!-- 5&#45;&gt;7 -->
<g id="edge7" class="edge"><title>5&#45;&gt;7</title>
<path fill="none" stroke="black" d="M498.736,-103.726C507.066,-94.6054 515.902,-84.93 524.233,-75.8078"/>
<polygon fill="black" stroke="black" points="526.93,-78.044 531.089,-68.2996 521.761,-73.3235 526.93,-78.044"/>
</g>
<!-- 9 -->
<g id="node10" class="node"><title>9</title>
<path fill="#c5e2f7" stroke="black" d="M852.5,-187C852.5,-187 730.5,-187 730.5,-187 724.5,-187 718.5,-181 718.5,-175 718.5,-175 718.5,-116 718.5,-116 718.5,-110 724.5,-104 730.5,-104 730.5,-104 852.5,-104 852.5,-104 858.5,-104 864.5,-110 864.5,-116 864.5,-116 864.5,-175 864.5,-175 864.5,-181 858.5,-187 852.5,-187"/>
<text text-anchor="start" x="732.5" y="-171.8" font-family="Helvetica,sans-Serif" font-size="14.00">Seat comfort ≤ 4.5</text>
<text text-anchor="start" x="741.5" y="-156.8" font-family="Helvetica,sans-Serif" font-size="14.00">entropy = 0.978</text>
<text text-anchor="start" x="735.5" y="-141.8" font-family="Helvetica,sans-Serif" font-size="14.00">samples = 15603</text>
<text text-anchor="start" x="726.5" y="-126.8" font-family="Helvetica,sans-Serif" font-size="14.00">value = [6455, 9148]</text>
<text text-anchor="start" x="731" y="-111.8" font-family="Helvetica,sans-Serif" font-size="14.00">class = dissatisfied</text>
</g>
<!-- 8&#45;&gt;9 -->
<g id="edge9" class="edge"><title>8&#45;&gt;9</title>
<path fill="none" stroke="black" d="M791.5,-222.907C791.5,-214.649 791.5,-205.864 791.5,-197.302"/>
<polygon fill="black" stroke="black" points="795,-197.021 791.5,-187.021 788,-197.021 795,-197.021"/>
</g>
<!-- 12 -->
<g id="node13" class="node"><title>12</title>
<path fill="#4ea8e8" stroke="black" d="M1125,-187C1125,-187 966,-187 966,-187 960,-187 954,-181 954,-175 954,-175 954,-116 954,-116 954,-110 960,-104 966,-104 966,-104 1125,-104 1125,-104 1131,-104 1137,-110 1137,-116 1137,-116 1137,-175 1137,-175 1137,-181 1131,-187 1125,-187"/>
<text text-anchor="start" x="962" y="-171.8" font-family="Helvetica,sans-Serif" font-size="14.00">Inflight entertainment ≤ 4.5</text>
<text text-anchor="start" x="995.5" y="-156.8" font-family="Helvetica,sans-Serif" font-size="14.00">entropy = 0.462</text>
<text text-anchor="start" x="989.5" y="-141.8" font-family="Helvetica,sans-Serif" font-size="14.00">samples = 41580</text>
<text text-anchor="start" x="976" y="-126.8" font-family="Helvetica,sans-Serif" font-size="14.00">value = [4063, 37517]</text>
<text text-anchor="start" x="985" y="-111.8" font-family="Helvetica,sans-Serif" font-size="14.00">class = dissatisfied</text>
</g>
<!-- 8&#45;&gt;12 -->
<g id="edge12" class="edge"><title>8&#45;&gt;12</title>
<path fill="none" stroke="black" d="M879.624,-222.907C901.788,-212.698 925.701,-201.683 948.282,-191.282"/>
<polygon fill="black" stroke="black" points="949.913,-194.384 957.532,-187.021 946.985,-188.026 949.913,-194.384"/>
</g>
<!-- 10 -->
<g id="node11" class="node"><title>10</title>
<path fill="#feffff" stroke="black" d="M782.5,-68C782.5,-68 660.5,-68 660.5,-68 654.5,-68 648.5,-62 648.5,-56 648.5,-56 648.5,-12 648.5,-12 648.5,-6 654.5,-0 660.5,-0 660.5,-0 782.5,-0 782.5,-0 788.5,-0 794.5,-6 794.5,-12 794.5,-12 794.5,-56 794.5,-56 794.5,-62 788.5,-68 782.5,-68"/>
<text text-anchor="start" x="679.5" y="-52.8" font-family="Helvetica,sans-Serif" font-size="14.00">entropy = 1.0</text>
<text text-anchor="start" x="665.5" y="-37.8" font-family="Helvetica,sans-Serif" font-size="14.00">samples = 12927</text>
<text text-anchor="start" x="656.5" y="-22.8" font-family="Helvetica,sans-Serif" font-size="14.00">value = [6453, 6474]</text>
<text text-anchor="start" x="661" y="-7.8" font-family="Helvetica,sans-Serif" font-size="14.00">class = dissatisfied</text>
</g>
<!-- 9&#45;&gt;10 -->
<g id="edge10" class="edge"><title>9&#45;&gt;10</title>
<path fill="none" stroke="black" d="M765.435,-103.726C759.837,-94.9703 753.913,-85.7032 748.289,-76.9051"/>
<polygon fill="black" stroke="black" points="751.123,-74.8399 742.787,-68.2996 745.225,-78.6103 751.123,-74.8399"/>
</g>
<!-- 11 -->
<g id="node12" class="node"><title>11</title>
<path fill="#399de5" stroke="black" d="M938,-68C938,-68 825,-68 825,-68 819,-68 813,-62 813,-56 813,-56 813,-12 813,-12 813,-6 819,-0 825,-0 825,-0 938,-0 938,-0 944,-0 950,-6 950,-12 950,-12 950,-56 950,-56 950,-62 944,-68 938,-68"/>
<text text-anchor="start" x="831.5" y="-52.8" font-family="Helvetica,sans-Serif" font-size="14.00">entropy = 0.009</text>
<text text-anchor="start" x="830" y="-37.8" font-family="Helvetica,sans-Serif" font-size="14.00">samples = 2676</text>
<text text-anchor="start" x="828.5" y="-22.8" font-family="Helvetica,sans-Serif" font-size="14.00">value = [2, 2674]</text>
<text text-anchor="start" x="821" y="-7.8" font-family="Helvetica,sans-Serif" font-size="14.00">class = dissatisfied</text>
</g>
<!-- 9&#45;&gt;11 -->
<g id="edge11" class="edge"><title>9&#45;&gt;11</title>
<path fill="none" stroke="black" d="M825.013,-103.726C832.434,-94.6966 840.303,-85.1235 847.734,-76.0816"/>
<polygon fill="black" stroke="black" points="850.485,-78.2474 854.13,-68.2996 845.077,-73.8026 850.485,-78.2474"/>
</g>
<!-- 13 -->
<g id="node14" class="node"><title>13</title>
<path fill="#5eafea" stroke="black" d="M1111,-68C1111,-68 980,-68 980,-68 974,-68 968,-62 968,-56 968,-56 968,-12 968,-12 968,-6 974,-0 980,-0 980,-0 1111,-0 1111,-0 1117,-0 1123,-6 1123,-12 1123,-12 1123,-56 1123,-56 1123,-62 1117,-68 1111,-68"/>
<text text-anchor="start" x="995.5" y="-52.8" font-family="Helvetica,sans-Serif" font-size="14.00">entropy = 0.628</text>
<text text-anchor="start" x="989.5" y="-37.8" font-family="Helvetica,sans-Serif" font-size="14.00">samples = 22807</text>
<text text-anchor="start" x="976" y="-22.8" font-family="Helvetica,sans-Serif" font-size="14.00">value = [3587, 19220]</text>
<text text-anchor="start" x="985" y="-7.8" font-family="Helvetica,sans-Serif" font-size="14.00">class = dissatisfied</text>
</g>
<!-- 12&#45;&gt;13 -->
<g id="edge13" class="edge"><title>12&#45;&gt;13</title>
<path fill="none" stroke="black" d="M1045.5,-103.726C1045.5,-95.5175 1045.5,-86.8595 1045.5,-78.56"/>
<polygon fill="black" stroke="black" points="1049,-78.2996 1045.5,-68.2996 1042,-78.2996 1049,-78.2996"/>
</g>
<!-- 14 -->
<g id="node15" class="node"><title>14</title>
<path fill="#3ea0e6" stroke="black" d="M1275.5,-68C1275.5,-68 1153.5,-68 1153.5,-68 1147.5,-68 1141.5,-62 1141.5,-56 1141.5,-56 1141.5,-12 1141.5,-12 1141.5,-6 1147.5,-0 1153.5,-0 1153.5,-0 1275.5,-0 1275.5,-0 1281.5,-0 1287.5,-6 1287.5,-12 1287.5,-12 1287.5,-56 1287.5,-56 1287.5,-62 1281.5,-68 1275.5,-68"/>
<text text-anchor="start" x="1164.5" y="-52.8" font-family="Helvetica,sans-Serif" font-size="14.00">entropy = 0.171</text>
<text text-anchor="start" x="1158.5" y="-37.8" font-family="Helvetica,sans-Serif" font-size="14.00">samples = 18773</text>
<text text-anchor="start" x="1149.5" y="-22.8" font-family="Helvetica,sans-Serif" font-size="14.00">value = [476, 18297]</text>
<text text-anchor="start" x="1154" y="-7.8" font-family="Helvetica,sans-Serif" font-size="14.00">class = dissatisfied</text>
</g>
<!-- 12&#45;&gt;14 -->
<g id="edge14" class="edge"><title>12&#45;&gt;14</title>
<path fill="none" stroke="black" d="M1108.43,-103.726C1123.57,-93.9161 1139.7,-83.4644 1154.69,-73.7496"/>
<polygon fill="black" stroke="black" points="1156.89,-76.5002 1163.38,-68.1252 1153.08,-70.6256 1156.89,-76.5002"/>
</g>
</g>
</svg>
