<?xml version="1.0" encoding="UTF-8" standalone="no"?>
<!DOCTYPE svg PUBLIC "-//W3C//DTD SVG 1.1//EN"
 "http://www.w3.org/Graphics/SVG/1.1/DTD/svg11.dtd">
<!-- Generated by graphviz version 12.2.0 (20241103.1931)
 -->
<!-- Title: Tree Pages: 1 -->
<svg width="685pt" height="325pt"
 viewBox="0.00 0.00 685.12 324.50" xmlns="http://www.w3.org/2000/svg" xmlns:xlink="http://www.w3.org/1999/xlink">
<g id="graph0" class="graph" transform="scale(1 1) rotate(0) translate(4 320.5)">
<title>Tree</title>
<polygon fill="white" stroke="none" points="-4,4 -4,-320.5 681.12,-320.5 681.12,4 -4,4"/>
<!-- 0 -->
<g id="node1" class="node">
<title>0</title>
<path fill="#79edaa" stroke="black" d="M397.75,-316.5C397.75,-316.5 260.25,-316.5 260.25,-316.5 254.25,-316.5 248.25,-310.5 248.25,-304.5 248.25,-304.5 248.25,-241.75 248.25,-241.75 248.25,-235.75 254.25,-229.75 260.25,-229.75 260.25,-229.75 397.75,-229.75 397.75,-229.75 403.75,-229.75 409.75,-235.75 409.75,-241.75 409.75,-241.75 409.75,-304.5 409.75,-304.5 409.75,-310.5 403.75,-316.5 397.75,-316.5"/>
<text text-anchor="start" x="283.25" y="-299.2" font-family="Helvetica,sans-Serif" font-size="14.00">alcohol ≤ 10.85</text>
<text text-anchor="start" x="285.5" y="-283.45" font-family="Helvetica,sans-Serif" font-size="14.00">entropy = 0.97</text>
<text text-anchor="start" x="280.62" y="-267.7" font-family="Helvetica,sans-Serif" font-size="14.00">samples = 3918</text>
<text text-anchor="start" x="256.25" y="-251.95" font-family="Helvetica,sans-Serif" font-size="14.00">value = [146, 2924, 848]</text>
<text text-anchor="start" x="278.38" y="-236.2" font-family="Helvetica,sans-Serif" font-size="14.00">class = Standard</text>
</g>
<!-- 1 -->
<g id="node2" class="node">
<title>1</title>
<path fill="#59e995" stroke="black" d="M307,-193.75C307,-193.75 171,-193.75 171,-193.75 165,-193.75 159,-187.75 159,-181.75 159,-181.75 159,-119 159,-119 159,-113 165,-107 171,-107 171,-107 307,-107 307,-107 313,-107 319,-113 319,-119 319,-119 319,-181.75 319,-181.75 319,-187.75 313,-193.75 307,-193.75"/>
<text text-anchor="start" x="172.62" y="-176.45" font-family="Helvetica,sans-Serif" font-size="14.00">volatile acidity ≤ 0.267</text>
<text text-anchor="start" x="191.75" y="-160.7" font-family="Helvetica,sans-Serif" font-size="14.00">entropy = 0.727</text>
<text text-anchor="start" x="190.62" y="-144.95" font-family="Helvetica,sans-Serif" font-size="14.00">samples = 2470</text>
<text text-anchor="start" x="167" y="-129.2" font-family="Helvetica,sans-Serif" font-size="14.00">value = [109, 2111, 250]</text>
<text text-anchor="start" x="188.38" y="-113.45" font-family="Helvetica,sans-Serif" font-size="14.00">class = Standard</text>
</g>
<!-- 0&#45;&gt;1 -->
<g id="edge1" class="edge">
<title>0&#45;&gt;1</title>
<path fill="none" stroke="black" d="M297.27,-229.55C290.88,-220.99 284.11,-211.89 277.52,-203.06"/>
<polygon fill="black" stroke="black" points="280.43,-201.11 271.65,-195.18 274.82,-205.29 280.43,-201.11"/>
<text text-anchor="middle" x="267.14" y="-213.28" font-family="Helvetica,sans-Serif" font-size="14.00">True</text>
</g>
<!-- 4 -->
<g id="node5" class="node">
<title>4</title>
<path fill="#cdf8df" stroke="black" d="M488.5,-193.75C488.5,-193.75 349.5,-193.75 349.5,-193.75 343.5,-193.75 337.5,-187.75 337.5,-181.75 337.5,-181.75 337.5,-119 337.5,-119 337.5,-113 343.5,-107 349.5,-107 349.5,-107 488.5,-107 488.5,-107 494.5,-107 500.5,-113 500.5,-119 500.5,-119 500.5,-181.75 500.5,-181.75 500.5,-187.75 494.5,-193.75 488.5,-193.75"/>
<text text-anchor="start" x="345.5" y="-176.45" font-family="Helvetica,sans-Serif" font-size="14.00">free sulfur dioxide ≤ 11.5</text>
<text text-anchor="start" x="375.5" y="-160.7" font-family="Helvetica,sans-Serif" font-size="14.00">entropy = 1.13</text>
<text text-anchor="start" x="370.62" y="-144.95" font-family="Helvetica,sans-Serif" font-size="14.00">samples = 1448</text>
<text text-anchor="start" x="353.75" y="-129.2" font-family="Helvetica,sans-Serif" font-size="14.00">value = [37, 813, 598]</text>
<text text-anchor="start" x="368.38" y="-113.45" font-family="Helvetica,sans-Serif" font-size="14.00">class = Standard</text>
</g>
<!-- 0&#45;&gt;4 -->
<g id="edge4" class="edge">
<title>0&#45;&gt;4</title>
<path fill="none" stroke="black" d="M360.73,-229.55C367.12,-220.99 373.89,-211.89 380.48,-203.06"/>
<polygon fill="black" stroke="black" points="383.18,-205.29 386.35,-195.18 377.57,-201.11 383.18,-205.29"/>
<text text-anchor="middle" x="390.86" y="-213.28" font-family="Helvetica,sans-Serif" font-size="14.00">False</text>
</g>
<!-- 2 -->
<g id="node3" class="node">
<title>2</title>
<path fill="#65eb9d" stroke="black" d="M142,-71C142,-71 12,-71 12,-71 6,-71 0,-65 0,-59 0,-59 0,-12 0,-12 0,-6 6,0 12,0 12,0 142,0 142,0 148,0 154,-6 154,-12 154,-12 154,-59 154,-59 154,-65 148,-71 142,-71"/>
<text text-anchor="start" x="29.75" y="-53.7" font-family="Helvetica,sans-Serif" font-size="14.00">entropy = 0.789</text>
<text text-anchor="start" x="28.62" y="-37.95" font-family="Helvetica,sans-Serif" font-size="14.00">samples = 1304</text>
<text text-anchor="start" x="8" y="-22.2" font-family="Helvetica,sans-Serif" font-size="14.00">value = [29, 1063, 212]</text>
<text text-anchor="start" x="26.38" y="-6.45" font-family="Helvetica,sans-Serif" font-size="14.00">class = Standard</text>
</g>
<!-- 1&#45;&gt;2 -->
<g id="edge2" class="edge">
<title>1&#45;&gt;2</title>
<path fill="none" stroke="black" d="M177.75,-106.7C164.14,-97.22 149.73,-87.18 136.2,-77.75"/>
<polygon fill="black" stroke="black" points="138.45,-75.05 128.24,-72.2 134.44,-80.79 138.45,-75.05"/>
</g>
<!-- 3 -->
<g id="node4" class="node">
<title>3</title>
<path fill="#4fe88f" stroke="black" d="M306.25,-71C306.25,-71 183.75,-71 183.75,-71 177.75,-71 171.75,-65 171.75,-59 171.75,-59 171.75,-12 171.75,-12 171.75,-6 177.75,0 183.75,0 183.75,0 306.25,0 306.25,0 312.25,0 318.25,-6 318.25,-12 318.25,-12 318.25,-59 318.25,-59 318.25,-65 312.25,-71 306.25,-71"/>
<text text-anchor="start" x="197.75" y="-53.7" font-family="Helvetica,sans-Serif" font-size="14.00">entropy = 0.565</text>
<text text-anchor="start" x="197" y="-37.95" font-family="Helvetica,sans-Serif" font-size="14.00">samples = 1166</text>
<text text-anchor="start" x="179.75" y="-22.2" font-family="Helvetica,sans-Serif" font-size="14.00">value = [80, 1048, 38]</text>
<text text-anchor="start" x="194.38" y="-6.45" font-family="Helvetica,sans-Serif" font-size="14.00">class = Standard</text>
</g>
<!-- 1&#45;&gt;3 -->
<g id="edge3" class="edge">
<title>1&#45;&gt;3</title>
<path fill="none" stroke="black" d="M241.27,-106.7C241.69,-98.82 242.13,-90.55 242.55,-82.57"/>
<polygon fill="black" stroke="black" points="246.04,-82.84 243.08,-72.67 239.05,-82.47 246.04,-82.84"/>
</g>
<!-- 5 -->
<g id="node6" class="node">
<title>5</title>
<path fill="#91f1b9" stroke="black" d="M466.75,-71C466.75,-71 359.25,-71 359.25,-71 353.25,-71 347.25,-65 347.25,-59 347.25,-59 347.25,-12 347.25,-12 347.25,-6 353.25,0 359.25,0 359.25,0 466.75,0 466.75,0 472.75,0 478.75,-6 478.75,-12 478.75,-12 478.75,-59 478.75,-59 478.75,-65 472.75,-71 466.75,-71"/>
<text text-anchor="start" x="365.75" y="-53.7" font-family="Helvetica,sans-Serif" font-size="14.00">entropy = 1.234</text>
<text text-anchor="start" x="372.12" y="-37.95" font-family="Helvetica,sans-Serif" font-size="14.00">samples = 91</text>
<text text-anchor="start" x="355.25" y="-22.2" font-family="Helvetica,sans-Serif" font-size="14.00">value = [21, 60, 10]</text>
<text text-anchor="start" x="362.38" y="-6.45" font-family="Helvetica,sans-Serif" font-size="14.00">class = Standard</text>
</g>
<!-- 4&#45;&gt;5 -->
<g id="edge5" class="edge">
<title>4&#45;&gt;5</title>
<path fill="none" stroke="black" d="M416.73,-106.7C416.31,-98.82 415.87,-90.55 415.45,-82.57"/>
<polygon fill="black" stroke="black" points="418.95,-82.47 414.92,-72.67 411.96,-82.84 418.95,-82.47"/>
</g>
<!-- 6 -->
<g id="node7" class="node">
<title>6</title>
<path fill="#d5f9e4" stroke="black" d="M665.12,-71C665.12,-71 508.88,-71 508.88,-71 502.88,-71 496.88,-65 496.88,-59 496.88,-59 496.88,-12 496.88,-12 496.88,-6 502.88,0 508.88,0 508.88,0 665.12,0 665.12,0 671.12,0 677.12,-6 677.12,-12 677.12,-12 677.12,-59 677.12,-59 677.12,-65 671.12,-71 665.12,-71"/>
<text text-anchor="start" x="543.5" y="-53.7" font-family="Helvetica,sans-Serif" font-size="14.00">entropy = 1.07</text>
<text text-anchor="start" x="538.62" y="-37.95" font-family="Helvetica,sans-Serif" font-size="14.00">samples = 1357</text>
<text text-anchor="start" x="504.88" y="-22.2" font-family="Helvetica,sans-Serif" font-size="14.00">value = [16.0, 753.0, 588.0]</text>
<text text-anchor="start" x="536.38" y="-6.45" font-family="Helvetica,sans-Serif" font-size="14.00">class = Standard</text>
</g>
<!-- 4&#45;&gt;6 -->
<g id="edge6" class="edge">
<title>4&#45;&gt;6</title>
<path fill="none" stroke="black" d="M482.51,-106.7C496.63,-97.22 511.57,-87.18 525.6,-77.75"/>
<polygon fill="black" stroke="black" points="527.55,-80.66 533.89,-72.18 523.64,-74.85 527.55,-80.66"/>
</g>
</g>
</svg>
