<?xml version="1.0" encoding="UTF-8" standalone="no"?>
<!DOCTYPE svg PUBLIC "-//W3C//DTD SVG 1.1//EN"
 "http://www.w3.org/Graphics/SVG/1.1/DTD/svg11.dtd">
<!-- Generated by graphviz version 2.38.0 (20140413.2041)
 -->
<!-- Title: Tree Pages: 1 -->
<svg width="683pt" height="314pt"
 viewBox="0.00 0.00 683.00 314.00" xmlns="http://www.w3.org/2000/svg" xmlns:xlink="http://www.w3.org/1999/xlink">
<g id="graph0" class="graph" transform="scale(1 1) rotate(0) translate(4 310)">
<title>Tree</title>
<polygon fill="white" stroke="none" points="-4,4 -4,-310 679,-310 679,4 -4,4"/>
<!-- 0 -->
<g id="node1" class="node"><title>0</title>
<path fill="#ddeefb" stroke="black" d="M419,-306C419,-306 256,-306 256,-306 250,-306 244,-300 244,-294 244,-294 244,-235 244,-235 244,-229 250,-223 256,-223 256,-223 419,-223 419,-223 425,-223 431,-229 431,-235 431,-235 431,-294 431,-294 431,-300 425,-306 419,-306"/>
<text text-anchor="start" x="254" y="-290.8" font-family="Helvetica,sans-Serif" font-size="14.00">Inflight entertainment ≤ 3.5</text>
<text text-anchor="start" x="287.5" y="-275.8" font-family="Helvetica,sans-Serif" font-size="14.00">entropy = 0.994</text>
<text text-anchor="start" x="277.5" y="-260.8" font-family="Helvetica,sans-Serif" font-size="14.00">samples = 103589</text>
<text text-anchor="start" x="252" y="-245.8" font-family="Helvetica,sans-Serif" font-size="14.00">value = [46894.0, 56695.0]</text>
<text text-anchor="start" x="277" y="-230.8" font-family="Helvetica,sans-Serif" font-size="14.00">class = dissatisfied</text>
</g>
<!-- 1 -->
<g id="node2" class="node"><title>1</title>
<path fill="#eca470" stroke="black" d="M307,-187C307,-187 168,-187 168,-187 162,-187 156,-181 156,-175 156,-175 156,-116 156,-116 156,-110 162,-104 168,-104 168,-104 307,-104 307,-104 313,-104 319,-110 319,-116 319,-116 319,-175 319,-175 319,-181 313,-187 307,-187"/>
<text text-anchor="start" x="178.5" y="-171.8" font-family="Helvetica,sans-Serif" font-size="14.00">Seat comfort ≤ 3.5</text>
<text text-anchor="start" x="187.5" y="-156.8" font-family="Helvetica,sans-Serif" font-size="14.00">entropy = 0.753</text>
<text text-anchor="start" x="181.5" y="-141.8" font-family="Helvetica,sans-Serif" font-size="14.00">samples = 46406</text>
<text text-anchor="start" x="164" y="-126.8" font-family="Helvetica,sans-Serif" font-size="14.00">value = [36376, 10030]</text>
<text text-anchor="start" x="186" y="-111.8" font-family="Helvetica,sans-Serif" font-size="14.00">class = satisfied</text>
</g>
<!-- 0&#45;&gt;1 -->
<g id="edge1" class="edge"><title>0&#45;&gt;1</title>
<path fill="none" stroke="black" d="M302.805,-222.907C295.049,-213.832 286.749,-204.121 278.756,-194.769"/>
<polygon fill="black" stroke="black" points="281.291,-192.349 272.133,-187.021 275.97,-196.897 281.291,-192.349"/>
<text text-anchor="middle" x="270.181" y="-208.244" font-family="Helvetica,sans-Serif" font-size="14.00">True</text>
</g>
<!-- 4 -->
<g id="node5" class="node"><title>4</title>
<path fill="#66b3eb" stroke="black" d="M525.5,-187C525.5,-187 349.5,-187 349.5,-187 343.5,-187 337.5,-181 337.5,-175 337.5,-175 337.5,-116 337.5,-116 337.5,-110 343.5,-104 349.5,-104 349.5,-104 525.5,-104 525.5,-104 531.5,-104 537.5,-110 537.5,-116 537.5,-116 537.5,-175 537.5,-175 537.5,-181 531.5,-187 525.5,-187"/>
<text text-anchor="start" x="345.5" y="-171.8" font-family="Helvetica,sans-Serif" font-size="14.00">Ease of Online booking ≤ 3.5</text>
<text text-anchor="start" x="387.5" y="-156.8" font-family="Helvetica,sans-Serif" font-size="14.00">entropy = 0.689</text>
<text text-anchor="start" x="381.5" y="-141.8" font-family="Helvetica,sans-Serif" font-size="14.00">samples = 57183</text>
<text text-anchor="start" x="364" y="-126.8" font-family="Helvetica,sans-Serif" font-size="14.00">value = [10518, 46665]</text>
<text text-anchor="start" x="377" y="-111.8" font-family="Helvetica,sans-Serif" font-size="14.00">class = dissatisfied</text>
</g>
<!-- 0&#45;&gt;4 -->
<g id="edge4" class="edge"><title>0&#45;&gt;4</title>
<path fill="none" stroke="black" d="M372.195,-222.907C379.951,-213.832 388.251,-204.121 396.244,-194.769"/>
<polygon fill="black" stroke="black" points="399.03,-196.897 402.867,-187.021 393.709,-192.349 399.03,-196.897"/>
<text text-anchor="middle" x="404.819" y="-208.244" font-family="Helvetica,sans-Serif" font-size="14.00">False</text>
</g>
<!-- 2 -->
<g id="node3" class="node"><title>2</title>
<path fill="#e9965a" stroke="black" d="M143,-68C143,-68 12,-68 12,-68 6,-68 0,-62 0,-56 0,-56 0,-12 0,-12 0,-6 6,-0 12,-0 12,-0 143,-0 143,-0 149,-0 155,-6 155,-12 155,-12 155,-56 155,-56 155,-62 149,-68 143,-68"/>
<text text-anchor="start" x="27.5" y="-52.8" font-family="Helvetica,sans-Serif" font-size="14.00">entropy = 0.596</text>
<text text-anchor="start" x="21.5" y="-37.8" font-family="Helvetica,sans-Serif" font-size="14.00">samples = 40576</text>
<text text-anchor="start" x="8" y="-22.8" font-family="Helvetica,sans-Serif" font-size="14.00">value = [34708, 5868]</text>
<text text-anchor="start" x="26" y="-7.8" font-family="Helvetica,sans-Serif" font-size="14.00">class = satisfied</text>
</g>
<!-- 1&#45;&gt;2 -->
<g id="edge2" class="edge"><title>1&#45;&gt;2</title>
<path fill="none" stroke="black" d="M177.922,-103.726C163.721,-94.0078 148.601,-83.6597 134.519,-74.0222"/>
<polygon fill="black" stroke="black" points="136.131,-70.8846 125.902,-68.1252 132.178,-76.6614 136.131,-70.8846"/>
</g>
<!-- 3 -->
<g id="node4" class="node"><title>3</title>
<path fill="#88c4ef" stroke="black" d="M307.5,-68C307.5,-68 185.5,-68 185.5,-68 179.5,-68 173.5,-62 173.5,-56 173.5,-56 173.5,-12 173.5,-12 173.5,-6 179.5,-0 185.5,-0 185.5,-0 307.5,-0 307.5,-0 313.5,-0 319.5,-6 319.5,-12 319.5,-12 319.5,-56 319.5,-56 319.5,-62 313.5,-68 307.5,-68"/>
<text text-anchor="start" x="196.5" y="-52.8" font-family="Helvetica,sans-Serif" font-size="14.00">entropy = 0.864</text>
<text text-anchor="start" x="195" y="-37.8" font-family="Helvetica,sans-Serif" font-size="14.00">samples = 5830</text>
<text text-anchor="start" x="181.5" y="-22.8" font-family="Helvetica,sans-Serif" font-size="14.00">value = [1668, 4162]</text>
<text text-anchor="start" x="186" y="-7.8" font-family="Helvetica,sans-Serif" font-size="14.00">class = dissatisfied</text>
</g>
<!-- 1&#45;&gt;3 -->
<g id="edge3" class="edge"><title>1&#45;&gt;3</title>
<path fill="none" stroke="black" d="M240.851,-103.726C241.533,-95.4263 242.253,-86.6671 242.942,-78.2834"/>
<polygon fill="black" stroke="black" points="246.432,-78.5527 243.763,-68.2996 239.456,-77.9793 246.432,-78.5527"/>
</g>
<!-- 5 -->
<g id="node6" class="node"><title>5</title>
<path fill="#c5e2f7" stroke="black" d="M489.5,-68C489.5,-68 367.5,-68 367.5,-68 361.5,-68 355.5,-62 355.5,-56 355.5,-56 355.5,-12 355.5,-12 355.5,-6 361.5,-0 367.5,-0 367.5,-0 489.5,-0 489.5,-0 495.5,-0 501.5,-6 501.5,-12 501.5,-12 501.5,-56 501.5,-56 501.5,-62 495.5,-68 489.5,-68"/>
<text text-anchor="start" x="378.5" y="-52.8" font-family="Helvetica,sans-Serif" font-size="14.00">entropy = 0.978</text>
<text text-anchor="start" x="372.5" y="-37.8" font-family="Helvetica,sans-Serif" font-size="14.00">samples = 15603</text>
<text text-anchor="start" x="363.5" y="-22.8" font-family="Helvetica,sans-Serif" font-size="14.00">value = [6455, 9148]</text>
<text text-anchor="start" x="368" y="-7.8" font-family="Helvetica,sans-Serif" font-size="14.00">class = dissatisfied</text>
</g>
<!-- 4&#45;&gt;5 -->
<g id="edge5" class="edge"><title>4&#45;&gt;5</title>
<path fill="none" stroke="black" d="M434.149,-103.726C433.467,-95.4263 432.747,-86.6671 432.058,-78.2834"/>
<polygon fill="black" stroke="black" points="435.544,-77.9793 431.237,-68.2996 428.568,-78.5527 435.544,-77.9793"/>
</g>
<!-- 6 -->
<g id="node7" class="node"><title>6</title>
<path fill="#4ea8e8" stroke="black" d="M663,-68C663,-68 532,-68 532,-68 526,-68 520,-62 520,-56 520,-56 520,-12 520,-12 520,-6 526,-0 532,-0 532,-0 663,-0 663,-0 669,-0 675,-6 675,-12 675,-12 675,-56 675,-56 675,-62 669,-68 663,-68"/>
<text text-anchor="start" x="547.5" y="-52.8" font-family="Helvetica,sans-Serif" font-size="14.00">entropy = 0.462</text>
<text text-anchor="start" x="541.5" y="-37.8" font-family="Helvetica,sans-Serif" font-size="14.00">samples = 41580</text>
<text text-anchor="start" x="528" y="-22.8" font-family="Helvetica,sans-Serif" font-size="14.00">value = [4063, 37517]</text>
<text text-anchor="start" x="537" y="-7.8" font-family="Helvetica,sans-Serif" font-size="14.00">class = dissatisfied</text>
</g>
<!-- 4&#45;&gt;6 -->
<g id="edge6" class="edge"><title>4&#45;&gt;6</title>
<path fill="none" stroke="black" d="M497.078,-103.726C511.279,-94.0078 526.399,-83.6597 540.481,-74.0222"/>
<polygon fill="black" stroke="black" points="542.822,-76.6614 549.098,-68.1252 538.869,-70.8846 542.822,-76.6614"/>
</g>
</g>
</svg>
