<?xml version="1.0" encoding="UTF-8" standalone="no"?>
<!DOCTYPE svg PUBLIC "-//W3C//DTD SVG 1.1//EN"
 "http://www.w3.org/Graphics/SVG/1.1/DTD/svg11.dtd">
<!-- Generated by graphviz version 2.38.0 (20140413.2041)
 -->
<!-- Title: Tree Pages: 1 -->
<svg width="2547pt" height="552pt"
 viewBox="0.00 0.00 2546.50 552.00" xmlns="http://www.w3.org/2000/svg" xmlns:xlink="http://www.w3.org/1999/xlink">
<g id="graph0" class="graph" transform="scale(1 1) rotate(0) translate(4 548)">
<title>Tree</title>
<polygon fill="white" stroke="none" points="-4,4 -4,-548 2542.5,-548 2542.5,4 -4,4"/>
<!-- 0 -->
<g id="node1" class="node"><title>0</title>
<path fill="#ddeefb" stroke="black" d="M1346,-544C1346,-544 1183,-544 1183,-544 1177,-544 1171,-538 1171,-532 1171,-532 1171,-473 1171,-473 1171,-467 1177,-461 1183,-461 1183,-461 1346,-461 1346,-461 1352,-461 1358,-467 1358,-473 1358,-473 1358,-532 1358,-532 1358,-538 1352,-544 1346,-544"/>
<text text-anchor="start" x="1181" y="-528.8" font-family="Helvetica,sans-Serif" font-size="14.00">Inflight entertainment ≤ 3.5</text>
<text text-anchor="start" x="1214.5" y="-513.8" font-family="Helvetica,sans-Serif" font-size="14.00">entropy = 0.994</text>
<text text-anchor="start" x="1204.5" y="-498.8" font-family="Helvetica,sans-Serif" font-size="14.00">samples = 103589</text>
<text text-anchor="start" x="1179" y="-483.8" font-family="Helvetica,sans-Serif" font-size="14.00">value = [46894.0, 56695.0]</text>
<text text-anchor="start" x="1204" y="-468.8" font-family="Helvetica,sans-Serif" font-size="14.00">class = dissatisfied</text>
</g>
<!-- 1 -->
<g id="node2" class="node"><title>1</title>
<path fill="#eca470" stroke="black" d="M1026,-425C1026,-425 887,-425 887,-425 881,-425 875,-419 875,-413 875,-413 875,-354 875,-354 875,-348 881,-342 887,-342 887,-342 1026,-342 1026,-342 1032,-342 1038,-348 1038,-354 1038,-354 1038,-413 1038,-413 1038,-419 1032,-425 1026,-425"/>
<text text-anchor="start" x="897.5" y="-409.8" font-family="Helvetica,sans-Serif" font-size="14.00">Seat comfort ≤ 3.5</text>
<text text-anchor="start" x="906.5" y="-394.8" font-family="Helvetica,sans-Serif" font-size="14.00">entropy = 0.753</text>
<text text-anchor="start" x="900.5" y="-379.8" font-family="Helvetica,sans-Serif" font-size="14.00">samples = 46406</text>
<text text-anchor="start" x="883" y="-364.8" font-family="Helvetica,sans-Serif" font-size="14.00">value = [36376, 10030]</text>
<text text-anchor="start" x="905" y="-349.8" font-family="Helvetica,sans-Serif" font-size="14.00">class = satisfied</text>
</g>
<!-- 0&#45;&gt;1 -->
<g id="edge1" class="edge"><title>0&#45;&gt;1</title>
<path fill="none" stroke="black" d="M1170.84,-465.92C1131.84,-451.107 1086.72,-433.965 1047.96,-419.242"/>
<polygon fill="black" stroke="black" points="1048.84,-415.833 1038.25,-415.554 1046.35,-422.377 1048.84,-415.833"/>
<text text-anchor="middle" x="1048.5" y="-434.657" font-family="Helvetica,sans-Serif" font-size="14.00">True</text>
</g>
<!-- 16 -->
<g id="node17" class="node"><title>16</title>
<path fill="#66b3eb" stroke="black" d="M1672.5,-425C1672.5,-425 1496.5,-425 1496.5,-425 1490.5,-425 1484.5,-419 1484.5,-413 1484.5,-413 1484.5,-354 1484.5,-354 1484.5,-348 1490.5,-342 1496.5,-342 1496.5,-342 1672.5,-342 1672.5,-342 1678.5,-342 1684.5,-348 1684.5,-354 1684.5,-354 1684.5,-413 1684.5,-413 1684.5,-419 1678.5,-425 1672.5,-425"/>
<text text-anchor="start" x="1492.5" y="-409.8" font-family="Helvetica,sans-Serif" font-size="14.00">Ease of Online booking ≤ 3.5</text>
<text text-anchor="start" x="1534.5" y="-394.8" font-family="Helvetica,sans-Serif" font-size="14.00">entropy = 0.689</text>
<text text-anchor="start" x="1528.5" y="-379.8" font-family="Helvetica,sans-Serif" font-size="14.00">samples = 57183</text>
<text text-anchor="start" x="1511" y="-364.8" font-family="Helvetica,sans-Serif" font-size="14.00">value = [10518, 46665]</text>
<text text-anchor="start" x="1524" y="-349.8" font-family="Helvetica,sans-Serif" font-size="14.00">class = dissatisfied</text>
</g>
<!-- 0&#45;&gt;16 -->
<g id="edge16" class="edge"><title>0&#45;&gt;16</title>
<path fill="none" stroke="black" d="M1358.35,-467.187C1394.82,-453.853 1436.85,-438.485 1474.71,-424.643"/>
<polygon fill="black" stroke="black" points="1476.05,-427.88 1484.24,-421.159 1473.64,-421.306 1476.05,-427.88"/>
<text text-anchor="middle" x="1473.7" y="-440.132" font-family="Helvetica,sans-Serif" font-size="14.00">False</text>
</g>
<!-- 2 -->
<g id="node3" class="node"><title>2</title>
<path fill="#e9965a" stroke="black" d="M524,-306C524,-306 393,-306 393,-306 387,-306 381,-300 381,-294 381,-294 381,-235 381,-235 381,-229 387,-223 393,-223 393,-223 524,-223 524,-223 530,-223 536,-229 536,-235 536,-235 536,-294 536,-294 536,-300 530,-306 524,-306"/>
<text text-anchor="start" x="399.5" y="-290.8" font-family="Helvetica,sans-Serif" font-size="14.00">Seat comfort ≤ 0.5</text>
<text text-anchor="start" x="408.5" y="-275.8" font-family="Helvetica,sans-Serif" font-size="14.00">entropy = 0.596</text>
<text text-anchor="start" x="402.5" y="-260.8" font-family="Helvetica,sans-Serif" font-size="14.00">samples = 40576</text>
<text text-anchor="start" x="389" y="-245.8" font-family="Helvetica,sans-Serif" font-size="14.00">value = [34708, 5868]</text>
<text text-anchor="start" x="407" y="-230.8" font-family="Helvetica,sans-Serif" font-size="14.00">class = satisfied</text>
</g>
<!-- 1&#45;&gt;2 -->
<g id="edge2" class="edge"><title>1&#45;&gt;2</title>
<path fill="none" stroke="black" d="M874.823,-363.311C784.302,-342.044 638.87,-307.876 546.052,-286.069"/>
<polygon fill="black" stroke="black" points="546.656,-282.616 536.12,-283.736 545.055,-289.431 546.656,-282.616"/>
</g>
<!-- 9 -->
<g id="node10" class="node"><title>9</title>
<path fill="#88c4ef" stroke="black" d="M1017.5,-306C1017.5,-306 895.5,-306 895.5,-306 889.5,-306 883.5,-300 883.5,-294 883.5,-294 883.5,-235 883.5,-235 883.5,-229 889.5,-223 895.5,-223 895.5,-223 1017.5,-223 1017.5,-223 1023.5,-223 1029.5,-229 1029.5,-235 1029.5,-235 1029.5,-294 1029.5,-294 1029.5,-300 1023.5,-306 1017.5,-306"/>
<text text-anchor="start" x="897.5" y="-290.8" font-family="Helvetica,sans-Serif" font-size="14.00">Seat comfort ≤ 4.5</text>
<text text-anchor="start" x="906.5" y="-275.8" font-family="Helvetica,sans-Serif" font-size="14.00">entropy = 0.864</text>
<text text-anchor="start" x="905" y="-260.8" font-family="Helvetica,sans-Serif" font-size="14.00">samples = 5830</text>
<text text-anchor="start" x="891.5" y="-245.8" font-family="Helvetica,sans-Serif" font-size="14.00">value = [1668, 4162]</text>
<text text-anchor="start" x="896" y="-230.8" font-family="Helvetica,sans-Serif" font-size="14.00">class = dissatisfied</text>
</g>
<!-- 1&#45;&gt;9 -->
<g id="edge9" class="edge"><title>1&#45;&gt;9</title>
<path fill="none" stroke="black" d="M956.5,-341.907C956.5,-333.649 956.5,-324.864 956.5,-316.302"/>
<polygon fill="black" stroke="black" points="960,-316.021 956.5,-306.021 953,-316.021 960,-316.021"/>
</g>
<!-- 3 -->
<g id="node4" class="node"><title>3</title>
<path fill="#3a9de5" stroke="black" d="M269.5,-187C269.5,-187 141.5,-187 141.5,-187 135.5,-187 129.5,-181 129.5,-175 129.5,-175 129.5,-116 129.5,-116 129.5,-110 135.5,-104 141.5,-104 141.5,-104 269.5,-104 269.5,-104 275.5,-104 281.5,-110 281.5,-116 281.5,-116 281.5,-175 281.5,-175 281.5,-181 275.5,-187 269.5,-187"/>
<text text-anchor="start" x="137.5" y="-171.8" font-family="Helvetica,sans-Serif" font-size="14.00">Online boarding ≤ 0.5</text>
<text text-anchor="start" x="155.5" y="-156.8" font-family="Helvetica,sans-Serif" font-size="14.00">entropy = 0.032</text>
<text text-anchor="start" x="154" y="-141.8" font-family="Helvetica,sans-Serif" font-size="14.00">samples = 2121</text>
<text text-anchor="start" x="152.5" y="-126.8" font-family="Helvetica,sans-Serif" font-size="14.00">value = [7, 2114]</text>
<text text-anchor="start" x="145" y="-111.8" font-family="Helvetica,sans-Serif" font-size="14.00">class = dissatisfied</text>
</g>
<!-- 2&#45;&gt;3 -->
<g id="edge3" class="edge"><title>2&#45;&gt;3</title>
<path fill="none" stroke="black" d="M380.872,-227.601C352.43,-214.448 320.093,-199.494 291,-186.039"/>
<polygon fill="black" stroke="black" points="292.223,-182.749 281.677,-181.728 289.284,-189.102 292.223,-182.749"/>
</g>
<!-- 6 -->
<g id="node7" class="node"><title>6</title>
<path fill="#e88f4e" stroke="black" d="M524,-187C524,-187 393,-187 393,-187 387,-187 381,-181 381,-175 381,-175 381,-116 381,-116 381,-110 387,-104 393,-104 393,-104 524,-104 524,-104 530,-104 536,-110 536,-116 536,-116 536,-175 536,-175 536,-181 530,-187 524,-187"/>
<text text-anchor="start" x="422.5" y="-171.8" font-family="Helvetica,sans-Serif" font-size="14.00">Class ≤ 2.5</text>
<text text-anchor="start" x="408.5" y="-156.8" font-family="Helvetica,sans-Serif" font-size="14.00">entropy = 0.461</text>
<text text-anchor="start" x="402.5" y="-141.8" font-family="Helvetica,sans-Serif" font-size="14.00">samples = 38455</text>
<text text-anchor="start" x="389" y="-126.8" font-family="Helvetica,sans-Serif" font-size="14.00">value = [34701, 3754]</text>
<text text-anchor="start" x="407" y="-111.8" font-family="Helvetica,sans-Serif" font-size="14.00">class = satisfied</text>
</g>
<!-- 2&#45;&gt;6 -->
<g id="edge6" class="edge"><title>2&#45;&gt;6</title>
<path fill="none" stroke="black" d="M458.5,-222.907C458.5,-214.649 458.5,-205.864 458.5,-197.302"/>
<polygon fill="black" stroke="black" points="462,-197.021 458.5,-187.021 455,-197.021 462,-197.021"/>
</g>
<!-- 4 -->
<g id="node5" class="node"><title>4</title>
<path fill="#e58139" stroke="black" d="M107,-68C107,-68 12,-68 12,-68 6,-68 -7.10543e-015,-62 -7.10543e-015,-56 -7.10543e-015,-56 -7.10543e-015,-12 -7.10543e-015,-12 -7.10543e-015,-6 6,-0 12,-0 12,-0 107,-0 107,-0 113,-0 119,-6 119,-12 119,-12 119,-56 119,-56 119,-62 113,-68 107,-68"/>
<text text-anchor="start" x="17.5" y="-52.8" font-family="Helvetica,sans-Serif" font-size="14.00">entropy = 0.0</text>
<text text-anchor="start" x="20" y="-37.8" font-family="Helvetica,sans-Serif" font-size="14.00">samples = 7</text>
<text text-anchor="start" x="19" y="-22.8" font-family="Helvetica,sans-Serif" font-size="14.00">value = [7, 0]</text>
<text text-anchor="start" x="8" y="-7.8" font-family="Helvetica,sans-Serif" font-size="14.00">class = satisfied</text>
</g>
<!-- 3&#45;&gt;4 -->
<g id="edge4" class="edge"><title>3&#45;&gt;4</title>
<path fill="none" stroke="black" d="M151.135,-103.726C138.366,-94.1494 124.781,-83.9611 112.092,-74.4438"/>
<polygon fill="black" stroke="black" points="113.999,-71.4996 103.899,-68.2996 109.799,-77.0996 113.999,-71.4996"/>
</g>
<!-- 5 -->
<g id="node6" class="node"><title>5</title>
<path fill="#399de5" stroke="black" d="M262,-68C262,-68 149,-68 149,-68 143,-68 137,-62 137,-56 137,-56 137,-12 137,-12 137,-6 143,-0 149,-0 149,-0 262,-0 262,-0 268,-0 274,-6 274,-12 274,-12 274,-56 274,-56 274,-62 268,-68 262,-68"/>
<text text-anchor="start" x="163.5" y="-52.8" font-family="Helvetica,sans-Serif" font-size="14.00">entropy = 0.0</text>
<text text-anchor="start" x="154" y="-37.8" font-family="Helvetica,sans-Serif" font-size="14.00">samples = 2114</text>
<text text-anchor="start" x="152.5" y="-22.8" font-family="Helvetica,sans-Serif" font-size="14.00">value = [0, 2114]</text>
<text text-anchor="start" x="145" y="-7.8" font-family="Helvetica,sans-Serif" font-size="14.00">class = dissatisfied</text>
</g>
<!-- 3&#45;&gt;5 -->
<g id="edge5" class="edge"><title>3&#45;&gt;5</title>
<path fill="none" stroke="black" d="M205.5,-103.726C205.5,-95.5175 205.5,-86.8595 205.5,-78.56"/>
<polygon fill="black" stroke="black" points="209,-78.2996 205.5,-68.2996 202,-78.2996 209,-78.2996"/>
</g>
<!-- 7 -->
<g id="node8" class="node"><title>7</title>
<path fill="#e68843" stroke="black" d="M435,-68C435,-68 304,-68 304,-68 298,-68 292,-62 292,-56 292,-56 292,-12 292,-12 292,-6 298,-0 304,-0 304,-0 435,-0 435,-0 441,-0 447,-6 447,-12 447,-12 447,-56 447,-56 447,-62 441,-68 435,-68"/>
<text text-anchor="start" x="319.5" y="-52.8" font-family="Helvetica,sans-Serif" font-size="14.00">entropy = 0.283</text>
<text text-anchor="start" x="313.5" y="-37.8" font-family="Helvetica,sans-Serif" font-size="14.00">samples = 26040</text>
<text text-anchor="start" x="300" y="-22.8" font-family="Helvetica,sans-Serif" font-size="14.00">value = [24759, 1281]</text>
<text text-anchor="start" x="318" y="-7.8" font-family="Helvetica,sans-Serif" font-size="14.00">class = satisfied</text>
</g>
<!-- 6&#45;&gt;7 -->
<g id="edge7" class="edge"><title>6&#45;&gt;7</title>
<path fill="none" stroke="black" d="M425.36,-103.726C418.021,-94.6966 410.24,-85.1235 402.891,-76.0816"/>
<polygon fill="black" stroke="black" points="405.589,-73.8521 396.565,-68.2996 400.157,-78.2672 405.589,-73.8521"/>
</g>
<!-- 8 -->
<g id="node9" class="node"><title>8</title>
<path fill="#eba06a" stroke="black" d="M599.5,-68C599.5,-68 477.5,-68 477.5,-68 471.5,-68 465.5,-62 465.5,-56 465.5,-56 465.5,-12 465.5,-12 465.5,-6 471.5,-0 477.5,-0 477.5,-0 599.5,-0 599.5,-0 605.5,-0 611.5,-6 611.5,-12 611.5,-12 611.5,-56 611.5,-56 611.5,-62 605.5,-68 599.5,-68"/>
<text text-anchor="start" x="492.5" y="-52.8" font-family="Helvetica,sans-Serif" font-size="14.00">entropy = 0.72</text>
<text text-anchor="start" x="482.5" y="-37.8" font-family="Helvetica,sans-Serif" font-size="14.00">samples = 12415</text>
<text text-anchor="start" x="473.5" y="-22.8" font-family="Helvetica,sans-Serif" font-size="14.00">value = [9942, 2473]</text>
<text text-anchor="start" x="487" y="-7.8" font-family="Helvetica,sans-Serif" font-size="14.00">class = satisfied</text>
</g>
<!-- 6&#45;&gt;8 -->
<g id="edge8" class="edge"><title>6&#45;&gt;8</title>
<path fill="none" stroke="black" d="M488.289,-103.726C494.753,-94.879 501.598,-85.51 508.085,-76.6303"/>
<polygon fill="black" stroke="black" points="511.098,-78.439 514.172,-68.2996 505.446,-74.3095 511.098,-78.439"/>
</g>
<!-- 10 -->
<g id="node11" class="node"><title>10</title>
<path fill="#cde6f8" stroke="black" d="M930.5,-187C930.5,-187 808.5,-187 808.5,-187 802.5,-187 796.5,-181 796.5,-175 796.5,-175 796.5,-116 796.5,-116 796.5,-110 802.5,-104 808.5,-104 808.5,-104 930.5,-104 930.5,-104 936.5,-104 942.5,-110 942.5,-116 942.5,-116 942.5,-175 942.5,-175 942.5,-181 936.5,-187 930.5,-187"/>
<text text-anchor="start" x="810" y="-171.8" font-family="Helvetica,sans-Serif" font-size="14.00">Gate location ≤ 3.5</text>
<text text-anchor="start" x="819.5" y="-156.8" font-family="Helvetica,sans-Serif" font-size="14.00">entropy = 0.985</text>
<text text-anchor="start" x="818" y="-141.8" font-family="Helvetica,sans-Serif" font-size="14.00">samples = 3825</text>
<text text-anchor="start" x="804.5" y="-126.8" font-family="Helvetica,sans-Serif" font-size="14.00">value = [1635, 2190]</text>
<text text-anchor="start" x="809" y="-111.8" font-family="Helvetica,sans-Serif" font-size="14.00">class = dissatisfied</text>
</g>
<!-- 9&#45;&gt;10 -->
<g id="edge10" class="edge"><title>9&#45;&gt;10</title>
<path fill="none" stroke="black" d="M926.316,-222.907C919.635,-213.923 912.491,-204.315 905.601,-195.05"/>
<polygon fill="black" stroke="black" points="908.407,-192.957 899.631,-187.021 902.789,-197.134 908.407,-192.957"/>
</g>
<!-- 13 -->
<g id="node14" class="node"><title>13</title>
<path fill="#3c9fe5" stroke="black" d="M1112,-187C1112,-187 973,-187 973,-187 967,-187 961,-181 961,-175 961,-175 961,-116 961,-116 961,-110 967,-104 973,-104 973,-104 1112,-104 1112,-104 1118,-104 1124,-110 1124,-116 1124,-116 1124,-175 1124,-175 1124,-181 1118,-187 1112,-187"/>
<text text-anchor="start" x="969" y="-171.8" font-family="Helvetica,sans-Serif" font-size="14.00">Leg room service ≤ 4.5</text>
<text text-anchor="start" x="992.5" y="-156.8" font-family="Helvetica,sans-Serif" font-size="14.00">entropy = 0.121</text>
<text text-anchor="start" x="991" y="-141.8" font-family="Helvetica,sans-Serif" font-size="14.00">samples = 2005</text>
<text text-anchor="start" x="985.5" y="-126.8" font-family="Helvetica,sans-Serif" font-size="14.00">value = [33, 1972]</text>
<text text-anchor="start" x="982" y="-111.8" font-family="Helvetica,sans-Serif" font-size="14.00">class = dissatisfied</text>
</g>
<!-- 9&#45;&gt;13 -->
<g id="edge13" class="edge"><title>9&#45;&gt;13</title>
<path fill="none" stroke="black" d="M986.337,-222.907C992.874,-214.014 999.861,-204.509 1006.61,-195.331"/>
<polygon fill="black" stroke="black" points="1009.61,-197.151 1012.72,-187.021 1003.97,-193.005 1009.61,-197.151"/>
</g>
<!-- 11 -->
<g id="node12" class="node"><title>11</title>
<path fill="#f7d9c3" stroke="black" d="M779.5,-68C779.5,-68 641.5,-68 641.5,-68 635.5,-68 629.5,-62 629.5,-56 629.5,-56 629.5,-12 629.5,-12 629.5,-6 635.5,-0 641.5,-0 641.5,-0 779.5,-0 779.5,-0 785.5,-0 791.5,-6 791.5,-12 791.5,-12 791.5,-56 791.5,-56 791.5,-62 785.5,-68 779.5,-68"/>
<text text-anchor="start" x="660.5" y="-52.8" font-family="Helvetica,sans-Serif" font-size="14.00">entropy = 0.977</text>
<text text-anchor="start" x="659" y="-37.8" font-family="Helvetica,sans-Serif" font-size="14.00">samples = 1723</text>
<text text-anchor="start" x="637.5" y="-22.8" font-family="Helvetica,sans-Serif" font-size="14.00">value = [1016.0, 707.0]</text>
<text text-anchor="start" x="659" y="-7.8" font-family="Helvetica,sans-Serif" font-size="14.00">class = satisfied</text>
</g>
<!-- 10&#45;&gt;11 -->
<g id="edge11" class="edge"><title>10&#45;&gt;11</title>
<path fill="none" stroke="black" d="M810.294,-103.726C796.183,-94.0078 781.157,-83.6597 767.162,-74.0222"/>
<polygon fill="black" stroke="black" points="768.821,-70.9146 758.6,-68.1252 764.85,-76.6797 768.821,-70.9146"/>
</g>
<!-- 12 -->
<g id="node13" class="node"><title>12</title>
<path fill="#8cc6f0" stroke="black" d="M935.5,-68C935.5,-68 821.5,-68 821.5,-68 815.5,-68 809.5,-62 809.5,-56 809.5,-56 809.5,-12 809.5,-12 809.5,-6 815.5,-0 821.5,-0 821.5,-0 935.5,-0 935.5,-0 941.5,-0 947.5,-6 947.5,-12 947.5,-12 947.5,-56 947.5,-56 947.5,-62 941.5,-68 935.5,-68"/>
<text text-anchor="start" x="828.5" y="-52.8" font-family="Helvetica,sans-Serif" font-size="14.00">entropy = 0.874</text>
<text text-anchor="start" x="827" y="-37.8" font-family="Helvetica,sans-Serif" font-size="14.00">samples = 2102</text>
<text text-anchor="start" x="817.5" y="-22.8" font-family="Helvetica,sans-Serif" font-size="14.00">value = [619, 1483]</text>
<text text-anchor="start" x="818" y="-7.8" font-family="Helvetica,sans-Serif" font-size="14.00">class = dissatisfied</text>
</g>
<!-- 10&#45;&gt;12 -->
<g id="edge12" class="edge"><title>10&#45;&gt;12</title>
<path fill="none" stroke="black" d="M872.851,-103.726C873.533,-95.4263 874.253,-86.6671 874.942,-78.2834"/>
<polygon fill="black" stroke="black" points="878.432,-78.5527 875.763,-68.2996 871.456,-77.9793 878.432,-78.5527"/>
</g>
<!-- 14 -->
<g id="node15" class="node"><title>14</title>
<path fill="#41a1e6" stroke="black" d="M1091,-68C1091,-68 978,-68 978,-68 972,-68 966,-62 966,-56 966,-56 966,-12 966,-12 966,-6 972,-0 978,-0 978,-0 1091,-0 1091,-0 1097,-0 1103,-6 1103,-12 1103,-12 1103,-56 1103,-56 1103,-62 1097,-68 1091,-68"/>
<text text-anchor="start" x="984.5" y="-52.8" font-family="Helvetica,sans-Serif" font-size="14.00">entropy = 0.241</text>
<text text-anchor="start" x="987" y="-37.8" font-family="Helvetica,sans-Serif" font-size="14.00">samples = 831</text>
<text text-anchor="start" x="981.5" y="-22.8" font-family="Helvetica,sans-Serif" font-size="14.00">value = [33, 798]</text>
<text text-anchor="start" x="974" y="-7.8" font-family="Helvetica,sans-Serif" font-size="14.00">class = dissatisfied</text>
</g>
<!-- 13&#45;&gt;14 -->
<g id="edge14" class="edge"><title>13&#45;&gt;14</title>
<path fill="none" stroke="black" d="M1039.52,-103.726C1038.91,-95.4263 1038.27,-86.6671 1037.66,-78.2834"/>
<polygon fill="black" stroke="black" points="1041.15,-78.018 1036.93,-68.2996 1034.17,-78.5281 1041.15,-78.018"/>
</g>
<!-- 15 -->
<g id="node16" class="node"><title>15</title>
<path fill="#399de5" stroke="black" d="M1246,-68C1246,-68 1133,-68 1133,-68 1127,-68 1121,-62 1121,-56 1121,-56 1121,-12 1121,-12 1121,-6 1127,-0 1133,-0 1133,-0 1246,-0 1246,-0 1252,-0 1258,-6 1258,-12 1258,-12 1258,-56 1258,-56 1258,-62 1252,-68 1246,-68"/>
<text text-anchor="start" x="1147.5" y="-52.8" font-family="Helvetica,sans-Serif" font-size="14.00">entropy = 0.0</text>
<text text-anchor="start" x="1138" y="-37.8" font-family="Helvetica,sans-Serif" font-size="14.00">samples = 1174</text>
<text text-anchor="start" x="1136.5" y="-22.8" font-family="Helvetica,sans-Serif" font-size="14.00">value = [0, 1174]</text>
<text text-anchor="start" x="1129" y="-7.8" font-family="Helvetica,sans-Serif" font-size="14.00">class = dissatisfied</text>
</g>
<!-- 13&#45;&gt;15 -->
<g id="edge15" class="edge"><title>13&#45;&gt;15</title>
<path fill="none" stroke="black" d="M1097.24,-103.726C1110.09,-94.1494 1123.77,-83.9611 1136.55,-74.4438"/>
<polygon fill="black" stroke="black" points="1138.87,-77.0803 1144.8,-68.2996 1134.69,-71.4666 1138.87,-77.0803"/>
</g>
<!-- 17 -->
<g id="node18" class="node"><title>17</title>
<path fill="#c5e2f7" stroke="black" d="M1645.5,-306C1645.5,-306 1523.5,-306 1523.5,-306 1517.5,-306 1511.5,-300 1511.5,-294 1511.5,-294 1511.5,-235 1511.5,-235 1511.5,-229 1517.5,-223 1523.5,-223 1523.5,-223 1645.5,-223 1645.5,-223 1651.5,-223 1657.5,-229 1657.5,-235 1657.5,-235 1657.5,-294 1657.5,-294 1657.5,-300 1651.5,-306 1645.5,-306"/>
<text text-anchor="start" x="1525.5" y="-290.8" font-family="Helvetica,sans-Serif" font-size="14.00">Seat comfort ≤ 4.5</text>
<text text-anchor="start" x="1534.5" y="-275.8" font-family="Helvetica,sans-Serif" font-size="14.00">entropy = 0.978</text>
<text text-anchor="start" x="1528.5" y="-260.8" font-family="Helvetica,sans-Serif" font-size="14.00">samples = 15603</text>
<text text-anchor="start" x="1519.5" y="-245.8" font-family="Helvetica,sans-Serif" font-size="14.00">value = [6455, 9148]</text>
<text text-anchor="start" x="1524" y="-230.8" font-family="Helvetica,sans-Serif" font-size="14.00">class = dissatisfied</text>
</g>
<!-- 16&#45;&gt;17 -->
<g id="edge17" class="edge"><title>16&#45;&gt;17</title>
<path fill="none" stroke="black" d="M1584.5,-341.907C1584.5,-333.649 1584.5,-324.864 1584.5,-316.302"/>
<polygon fill="black" stroke="black" points="1588,-316.021 1584.5,-306.021 1581,-316.021 1588,-316.021"/>
</g>
<!-- 24 -->
<g id="node25" class="node"><title>24</title>
<path fill="#4ea8e8" stroke="black" d="M2141,-306C2141,-306 1982,-306 1982,-306 1976,-306 1970,-300 1970,-294 1970,-294 1970,-235 1970,-235 1970,-229 1976,-223 1982,-223 1982,-223 2141,-223 2141,-223 2147,-223 2153,-229 2153,-235 2153,-235 2153,-294 2153,-294 2153,-300 2147,-306 2141,-306"/>
<text text-anchor="start" x="1978" y="-290.8" font-family="Helvetica,sans-Serif" font-size="14.00">Inflight entertainment ≤ 4.5</text>
<text text-anchor="start" x="2011.5" y="-275.8" font-family="Helvetica,sans-Serif" font-size="14.00">entropy = 0.462</text>
<text text-anchor="start" x="2005.5" y="-260.8" font-family="Helvetica,sans-Serif" font-size="14.00">samples = 41580</text>
<text text-anchor="start" x="1992" y="-245.8" font-family="Helvetica,sans-Serif" font-size="14.00">value = [4063, 37517]</text>
<text text-anchor="start" x="2001" y="-230.8" font-family="Helvetica,sans-Serif" font-size="14.00">class = dissatisfied</text>
</g>
<!-- 16&#45;&gt;24 -->
<g id="edge24" class="edge"><title>16&#45;&gt;24</title>
<path fill="none" stroke="black" d="M1684.79,-357.902C1765.66,-338.064 1878.92,-310.284 1960.09,-290.374"/>
<polygon fill="black" stroke="black" points="1960.95,-293.767 1969.83,-287.986 1959.28,-286.969 1960.95,-293.767"/>
</g>
<!-- 18 -->
<g id="node19" class="node"><title>18</title>
<path fill="#feffff" stroke="black" d="M1546.5,-187C1546.5,-187 1424.5,-187 1424.5,-187 1418.5,-187 1412.5,-181 1412.5,-175 1412.5,-175 1412.5,-116 1412.5,-116 1412.5,-110 1418.5,-104 1424.5,-104 1424.5,-104 1546.5,-104 1546.5,-104 1552.5,-104 1558.5,-110 1558.5,-116 1558.5,-116 1558.5,-175 1558.5,-175 1558.5,-181 1552.5,-187 1546.5,-187"/>
<text text-anchor="start" x="1426.5" y="-171.8" font-family="Helvetica,sans-Serif" font-size="14.00">Seat comfort ≤ 0.5</text>
<text text-anchor="start" x="1443.5" y="-156.8" font-family="Helvetica,sans-Serif" font-size="14.00">entropy = 1.0</text>
<text text-anchor="start" x="1429.5" y="-141.8" font-family="Helvetica,sans-Serif" font-size="14.00">samples = 12927</text>
<text text-anchor="start" x="1420.5" y="-126.8" font-family="Helvetica,sans-Serif" font-size="14.00">value = [6453, 6474]</text>
<text text-anchor="start" x="1425" y="-111.8" font-family="Helvetica,sans-Serif" font-size="14.00">class = dissatisfied</text>
</g>
<!-- 17&#45;&gt;18 -->
<g id="edge18" class="edge"><title>17&#45;&gt;18</title>
<path fill="none" stroke="black" d="M1550.15,-222.907C1542.47,-213.832 1534.26,-204.121 1526.34,-194.769"/>
<polygon fill="black" stroke="black" points="1528.92,-192.394 1519.79,-187.021 1523.57,-196.916 1528.92,-192.394"/>
</g>
<!-- 21 -->
<g id="node22" class="node"><title>21</title>
<path fill="#399de5" stroke="black" d="M1778.5,-187C1778.5,-187 1588.5,-187 1588.5,-187 1582.5,-187 1576.5,-181 1576.5,-175 1576.5,-175 1576.5,-116 1576.5,-116 1576.5,-110 1582.5,-104 1588.5,-104 1588.5,-104 1778.5,-104 1778.5,-104 1784.5,-104 1790.5,-110 1790.5,-116 1790.5,-116 1790.5,-175 1790.5,-175 1790.5,-181 1784.5,-187 1778.5,-187"/>
<text text-anchor="start" x="1584.5" y="-171.8" font-family="Helvetica,sans-Serif" font-size="14.00">Arrival Delay in Minutes ≤ 192.0</text>
<text text-anchor="start" x="1633.5" y="-156.8" font-family="Helvetica,sans-Serif" font-size="14.00">entropy = 0.009</text>
<text text-anchor="start" x="1632" y="-141.8" font-family="Helvetica,sans-Serif" font-size="14.00">samples = 2676</text>
<text text-anchor="start" x="1630.5" y="-126.8" font-family="Helvetica,sans-Serif" font-size="14.00">value = [2, 2674]</text>
<text text-anchor="start" x="1623" y="-111.8" font-family="Helvetica,sans-Serif" font-size="14.00">class = dissatisfied</text>
</g>
<!-- 17&#45;&gt;21 -->
<g id="edge21" class="edge"><title>17&#45;&gt;21</title>
<path fill="none" stroke="black" d="M1618.85,-222.907C1626.53,-213.832 1634.74,-204.121 1642.66,-194.769"/>
<polygon fill="black" stroke="black" points="1645.43,-196.916 1649.21,-187.021 1640.08,-192.394 1645.43,-196.916"/>
</g>
<!-- 19 -->
<g id="node20" class="node"><title>19</title>
<path fill="#399de5" stroke="black" d="M1401,-68C1401,-68 1288,-68 1288,-68 1282,-68 1276,-62 1276,-56 1276,-56 1276,-12 1276,-12 1276,-6 1282,-0 1288,-0 1288,-0 1401,-0 1401,-0 1407,-0 1413,-6 1413,-12 1413,-12 1413,-56 1413,-56 1413,-62 1407,-68 1401,-68"/>
<text text-anchor="start" x="1302.5" y="-52.8" font-family="Helvetica,sans-Serif" font-size="14.00">entropy = 0.0</text>
<text text-anchor="start" x="1297" y="-37.8" font-family="Helvetica,sans-Serif" font-size="14.00">samples = 905</text>
<text text-anchor="start" x="1296" y="-22.8" font-family="Helvetica,sans-Serif" font-size="14.00">value = [0, 905]</text>
<text text-anchor="start" x="1284" y="-7.8" font-family="Helvetica,sans-Serif" font-size="14.00">class = dissatisfied</text>
</g>
<!-- 18&#45;&gt;19 -->
<g id="edge19" class="edge"><title>18&#45;&gt;19</title>
<path fill="none" stroke="black" d="M1433,-103.726C1420.66,-94.1494 1407.55,-83.9611 1395.29,-74.4438"/>
<polygon fill="black" stroke="black" points="1397.42,-71.6689 1387.38,-68.2996 1393.13,-77.1975 1397.42,-71.6689"/>
</g>
<!-- 20 -->
<g id="node21" class="node"><title>20</title>
<path fill="#fbeee4" stroke="black" d="M1565.5,-68C1565.5,-68 1443.5,-68 1443.5,-68 1437.5,-68 1431.5,-62 1431.5,-56 1431.5,-56 1431.5,-12 1431.5,-12 1431.5,-6 1437.5,-0 1443.5,-0 1443.5,-0 1565.5,-0 1565.5,-0 1571.5,-0 1577.5,-6 1577.5,-12 1577.5,-12 1577.5,-56 1577.5,-56 1577.5,-62 1571.5,-68 1565.5,-68"/>
<text text-anchor="start" x="1454.5" y="-52.8" font-family="Helvetica,sans-Serif" font-size="14.00">entropy = 0.996</text>
<text text-anchor="start" x="1448.5" y="-37.8" font-family="Helvetica,sans-Serif" font-size="14.00">samples = 12022</text>
<text text-anchor="start" x="1439.5" y="-22.8" font-family="Helvetica,sans-Serif" font-size="14.00">value = [6453, 5569]</text>
<text text-anchor="start" x="1453" y="-7.8" font-family="Helvetica,sans-Serif" font-size="14.00">class = satisfied</text>
</g>
<!-- 18&#45;&gt;20 -->
<g id="edge20" class="edge"><title>18&#45;&gt;20</title>
<path fill="none" stroke="black" d="M1492.57,-103.726C1494.02,-95.4263 1495.53,-86.6671 1496.99,-78.2834"/>
<polygon fill="black" stroke="black" points="1500.46,-78.7508 1498.72,-68.2996 1493.56,-77.554 1500.46,-78.7508"/>
</g>
<!-- 22 -->
<g id="node23" class="node"><title>22</title>
<path fill="#399de5" stroke="black" d="M1721,-68C1721,-68 1608,-68 1608,-68 1602,-68 1596,-62 1596,-56 1596,-56 1596,-12 1596,-12 1596,-6 1602,-0 1608,-0 1608,-0 1721,-0 1721,-0 1727,-0 1733,-6 1733,-12 1733,-12 1733,-56 1733,-56 1733,-62 1727,-68 1721,-68"/>
<text text-anchor="start" x="1622.5" y="-52.8" font-family="Helvetica,sans-Serif" font-size="14.00">entropy = 0.0</text>
<text text-anchor="start" x="1613" y="-37.8" font-family="Helvetica,sans-Serif" font-size="14.00">samples = 2648</text>
<text text-anchor="start" x="1611.5" y="-22.8" font-family="Helvetica,sans-Serif" font-size="14.00">value = [0, 2648]</text>
<text text-anchor="start" x="1604" y="-7.8" font-family="Helvetica,sans-Serif" font-size="14.00">class = dissatisfied</text>
</g>
<!-- 21&#45;&gt;22 -->
<g id="edge22" class="edge"><title>21&#45;&gt;22</title>
<path fill="none" stroke="black" d="M1676.43,-103.726C1674.98,-95.4263 1673.47,-86.6671 1672.01,-78.2834"/>
<polygon fill="black" stroke="black" points="1675.44,-77.554 1670.28,-68.2996 1668.54,-78.7508 1675.44,-77.554"/>
</g>
<!-- 23 -->
<g id="node24" class="node"><title>23</title>
<path fill="#48a5e7" stroke="black" d="M1876,-68C1876,-68 1763,-68 1763,-68 1757,-68 1751,-62 1751,-56 1751,-56 1751,-12 1751,-12 1751,-6 1757,-0 1763,-0 1763,-0 1876,-0 1876,-0 1882,-0 1888,-6 1888,-12 1888,-12 1888,-56 1888,-56 1888,-62 1882,-68 1876,-68"/>
<text text-anchor="start" x="1769.5" y="-52.8" font-family="Helvetica,sans-Serif" font-size="14.00">entropy = 0.371</text>
<text text-anchor="start" x="1776" y="-37.8" font-family="Helvetica,sans-Serif" font-size="14.00">samples = 28</text>
<text text-anchor="start" x="1775" y="-22.8" font-family="Helvetica,sans-Serif" font-size="14.00">value = [2, 26]</text>
<text text-anchor="start" x="1759" y="-7.8" font-family="Helvetica,sans-Serif" font-size="14.00">class = dissatisfied</text>
</g>
<!-- 21&#45;&gt;23 -->
<g id="edge23" class="edge"><title>21&#45;&gt;23</title>
<path fill="none" stroke="black" d="M1734.14,-103.726C1745.92,-94.2406 1758.45,-84.1551 1770.17,-74.7159"/>
<polygon fill="black" stroke="black" points="1772.55,-77.2972 1778.14,-68.2996 1768.16,-71.8448 1772.55,-77.2972"/>
</g>
<!-- 25 -->
<g id="node26" class="node"><title>25</title>
<path fill="#5eafea" stroke="black" d="M2127,-187C2127,-187 1996,-187 1996,-187 1990,-187 1984,-181 1984,-175 1984,-175 1984,-116 1984,-116 1984,-110 1990,-104 1996,-104 1996,-104 2127,-104 2127,-104 2133,-104 2139,-110 2139,-116 2139,-116 2139,-175 2139,-175 2139,-181 2133,-187 2127,-187"/>
<text text-anchor="start" x="2025.5" y="-171.8" font-family="Helvetica,sans-Serif" font-size="14.00">Class ≤ 2.5</text>
<text text-anchor="start" x="2011.5" y="-156.8" font-family="Helvetica,sans-Serif" font-size="14.00">entropy = 0.628</text>
<text text-anchor="start" x="2005.5" y="-141.8" font-family="Helvetica,sans-Serif" font-size="14.00">samples = 22807</text>
<text text-anchor="start" x="1992" y="-126.8" font-family="Helvetica,sans-Serif" font-size="14.00">value = [3587, 19220]</text>
<text text-anchor="start" x="2001" y="-111.8" font-family="Helvetica,sans-Serif" font-size="14.00">class = dissatisfied</text>
</g>
<!-- 24&#45;&gt;25 -->
<g id="edge25" class="edge"><title>24&#45;&gt;25</title>
<path fill="none" stroke="black" d="M2061.5,-222.907C2061.5,-214.649 2061.5,-205.864 2061.5,-197.302"/>
<polygon fill="black" stroke="black" points="2065,-197.021 2061.5,-187.021 2058,-197.021 2065,-197.021"/>
</g>
<!-- 28 -->
<g id="node29" class="node"><title>28</title>
<path fill="#3ea0e6" stroke="black" d="M2374.5,-187C2374.5,-187 2252.5,-187 2252.5,-187 2246.5,-187 2240.5,-181 2240.5,-175 2240.5,-175 2240.5,-116 2240.5,-116 2240.5,-110 2246.5,-104 2252.5,-104 2252.5,-104 2374.5,-104 2374.5,-104 2380.5,-104 2386.5,-110 2386.5,-116 2386.5,-116 2386.5,-175 2386.5,-175 2386.5,-181 2380.5,-187 2374.5,-187"/>
<text text-anchor="start" x="2250" y="-171.8" font-family="Helvetica,sans-Serif" font-size="14.00">Type of Travel ≤ 0.5</text>
<text text-anchor="start" x="2263.5" y="-156.8" font-family="Helvetica,sans-Serif" font-size="14.00">entropy = 0.171</text>
<text text-anchor="start" x="2257.5" y="-141.8" font-family="Helvetica,sans-Serif" font-size="14.00">samples = 18773</text>
<text text-anchor="start" x="2248.5" y="-126.8" font-family="Helvetica,sans-Serif" font-size="14.00">value = [476, 18297]</text>
<text text-anchor="start" x="2253" y="-111.8" font-family="Helvetica,sans-Serif" font-size="14.00">class = dissatisfied</text>
</g>
<!-- 24&#45;&gt;28 -->
<g id="edge28" class="edge"><title>24&#45;&gt;28</title>
<path fill="none" stroke="black" d="M2148.93,-222.907C2175.63,-210.509 2204.9,-196.923 2231.24,-184.69"/>
<polygon fill="black" stroke="black" points="2232.84,-187.809 2240.43,-180.423 2229.89,-181.46 2232.84,-187.809"/>
</g>
<!-- 26 -->
<g id="node27" class="node"><title>26</title>
<path fill="#86c3ef" stroke="black" d="M2040.5,-68C2040.5,-68 1918.5,-68 1918.5,-68 1912.5,-68 1906.5,-62 1906.5,-56 1906.5,-56 1906.5,-12 1906.5,-12 1906.5,-6 1912.5,-0 1918.5,-0 1918.5,-0 2040.5,-0 2040.5,-0 2046.5,-0 2052.5,-6 2052.5,-12 2052.5,-12 2052.5,-56 2052.5,-56 2052.5,-62 2046.5,-68 2040.5,-68"/>
<text text-anchor="start" x="1929.5" y="-52.8" font-family="Helvetica,sans-Serif" font-size="14.00">entropy = 0.854</text>
<text text-anchor="start" x="1928" y="-37.8" font-family="Helvetica,sans-Serif" font-size="14.00">samples = 9211</text>
<text text-anchor="start" x="1914.5" y="-22.8" font-family="Helvetica,sans-Serif" font-size="14.00">value = [2570, 6641]</text>
<text text-anchor="start" x="1919" y="-7.8" font-family="Helvetica,sans-Serif" font-size="14.00">class = dissatisfied</text>
</g>
<!-- 25&#45;&gt;26 -->
<g id="edge26" class="edge"><title>25&#45;&gt;26</title>
<path fill="none" stroke="black" d="M2030.97,-103.726C2024.27,-94.7878 2017.18,-85.3168 2010.47,-76.3558"/>
<polygon fill="black" stroke="black" points="2013.23,-74.206 2004.44,-68.2996 2007.63,-78.402 2013.23,-74.206"/>
</g>
<!-- 27 -->
<g id="node28" class="node"><title>27</title>
<path fill="#49a5e7" stroke="black" d="M2214,-68C2214,-68 2083,-68 2083,-68 2077,-68 2071,-62 2071,-56 2071,-56 2071,-12 2071,-12 2071,-6 2077,-0 2083,-0 2083,-0 2214,-0 2214,-0 2220,-0 2226,-6 2226,-12 2226,-12 2226,-56 2226,-56 2226,-62 2220,-68 2214,-68"/>
<text text-anchor="start" x="2098.5" y="-52.8" font-family="Helvetica,sans-Serif" font-size="14.00">entropy = 0.384</text>
<text text-anchor="start" x="2092.5" y="-37.8" font-family="Helvetica,sans-Serif" font-size="14.00">samples = 13596</text>
<text text-anchor="start" x="2079" y="-22.8" font-family="Helvetica,sans-Serif" font-size="14.00">value = [1017, 12579]</text>
<text text-anchor="start" x="2088" y="-7.8" font-family="Helvetica,sans-Serif" font-size="14.00">class = dissatisfied</text>
</g>
<!-- 25&#45;&gt;27 -->
<g id="edge27" class="edge"><title>25&#45;&gt;27</title>
<path fill="none" stroke="black" d="M2093.9,-103.726C2101,-94.7878 2108.52,-85.3168 2115.64,-76.3558"/>
<polygon fill="black" stroke="black" points="2118.56,-78.3065 2122.04,-68.2996 2113.08,-73.9519 2118.56,-78.3065"/>
</g>
<!-- 29 -->
<g id="node30" class="node"><title>29</title>
<path fill="#4ba6e7" stroke="black" d="M2370.5,-68C2370.5,-68 2256.5,-68 2256.5,-68 2250.5,-68 2244.5,-62 2244.5,-56 2244.5,-56 2244.5,-12 2244.5,-12 2244.5,-6 2250.5,-0 2256.5,-0 2256.5,-0 2370.5,-0 2370.5,-0 2376.5,-0 2382.5,-6 2382.5,-12 2382.5,-12 2382.5,-56 2382.5,-56 2382.5,-62 2376.5,-68 2370.5,-68"/>
<text text-anchor="start" x="2263.5" y="-52.8" font-family="Helvetica,sans-Serif" font-size="14.00">entropy = 0.407</text>
<text text-anchor="start" x="2262" y="-37.8" font-family="Helvetica,sans-Serif" font-size="14.00">samples = 4717</text>
<text text-anchor="start" x="2252.5" y="-22.8" font-family="Helvetica,sans-Serif" font-size="14.00">value = [384, 4333]</text>
<text text-anchor="start" x="2253" y="-7.8" font-family="Helvetica,sans-Serif" font-size="14.00">class = dissatisfied</text>
</g>
<!-- 28&#45;&gt;29 -->
<g id="edge29" class="edge"><title>28&#45;&gt;29</title>
<path fill="none" stroke="black" d="M2313.5,-103.726C2313.5,-95.5175 2313.5,-86.8595 2313.5,-78.56"/>
<polygon fill="black" stroke="black" points="2317,-78.2996 2313.5,-68.2996 2310,-78.2996 2317,-78.2996"/>
</g>
<!-- 30 -->
<g id="node31" class="node"><title>30</title>
<path fill="#3a9ee5" stroke="black" d="M2526.5,-68C2526.5,-68 2412.5,-68 2412.5,-68 2406.5,-68 2400.5,-62 2400.5,-56 2400.5,-56 2400.5,-12 2400.5,-12 2400.5,-6 2406.5,-0 2412.5,-0 2412.5,-0 2526.5,-0 2526.5,-0 2532.5,-0 2538.5,-6 2538.5,-12 2538.5,-12 2538.5,-56 2538.5,-56 2538.5,-62 2532.5,-68 2526.5,-68"/>
<text text-anchor="start" x="2419.5" y="-52.8" font-family="Helvetica,sans-Serif" font-size="14.00">entropy = 0.057</text>
<text text-anchor="start" x="2413.5" y="-37.8" font-family="Helvetica,sans-Serif" font-size="14.00">samples = 14056</text>
<text text-anchor="start" x="2408.5" y="-22.8" font-family="Helvetica,sans-Serif" font-size="14.00">value = [92, 13964]</text>
<text text-anchor="start" x="2409" y="-7.8" font-family="Helvetica,sans-Serif" font-size="14.00">class = dissatisfied</text>
</g>
<!-- 28&#45;&gt;30 -->
<g id="edge30" class="edge"><title>28&#45;&gt;30</title>
<path fill="none" stroke="black" d="M2371.59,-103.726C2385.36,-94.0582 2400.02,-83.767 2413.69,-74.172"/>
<polygon fill="black" stroke="black" points="2415.89,-76.9096 2422.06,-68.2996 2411.86,-71.1801 2415.89,-76.9096"/>
</g>
</g>
</svg>
