<?xml version="1.0" encoding="UTF-8" standalone="no"?>
<!DOCTYPE svg PUBLIC "-//W3C//DTD SVG 1.1//EN"
 "http://www.w3.org/Graphics/SVG/1.1/DTD/svg11.dtd">
<!-- Generated by graphviz version 12.2.0 (20241103.1931)
 -->
<!-- Title: Tree Pages: 1 -->
<svg width="2374pt" height="570pt"
 viewBox="0.00 0.00 2374.38 570.00" xmlns="http://www.w3.org/2000/svg" xmlns:xlink="http://www.w3.org/1999/xlink">
<g id="graph0" class="graph" transform="scale(1 1) rotate(0) translate(4 566)">
<title>Tree</title>
<polygon fill="white" stroke="none" points="-4,4 -4,-566 2370.38,-566 2370.38,4 -4,4"/>
<!-- 0 -->
<g id="node1" class="node">
<title>0</title>
<path fill="#ddeefa" stroke="black" d="M1227.88,-562C1227.88,-562 1075.38,-562 1075.38,-562 1069.38,-562 1063.38,-556 1063.38,-550 1063.38,-550 1063.38,-487.25 1063.38,-487.25 1063.38,-481.25 1069.38,-475.25 1075.38,-475.25 1075.38,-475.25 1227.88,-475.25 1227.88,-475.25 1233.88,-475.25 1239.88,-481.25 1239.88,-487.25 1239.88,-487.25 1239.88,-550 1239.88,-550 1239.88,-556 1233.88,-562 1227.88,-562"/>
<text text-anchor="start" x="1071.38" y="-544.7" font-family="Helvetica,sans-Serif" font-size="14.00">Inflight entertainment ≤ 3.5</text>
<text text-anchor="start" x="1104.38" y="-528.95" font-family="Helvetica,sans-Serif" font-size="14.00">entropy = 0.994</text>
<text text-anchor="start" x="1095.75" y="-513.2" font-family="Helvetica,sans-Serif" font-size="14.00">samples = 103589</text>
<text text-anchor="start" x="1071.38" y="-497.45" font-family="Helvetica,sans-Serif" font-size="14.00">value = [46884.0, 56705.0]</text>
<text text-anchor="start" x="1103.62" y="-481.7" font-family="Helvetica,sans-Serif" font-size="14.00">class = satisfied</text>
</g>
<!-- 1 -->
<g id="node2" class="node">
<title>1</title>
<path fill="#eca46f" stroke="black" d="M954.62,-439.25C954.62,-439.25 824.62,-439.25 824.62,-439.25 818.62,-439.25 812.62,-433.25 812.62,-427.25 812.62,-427.25 812.62,-364.5 812.62,-364.5 812.62,-358.5 818.62,-352.5 824.62,-352.5 824.62,-352.5 954.62,-352.5 954.62,-352.5 960.62,-352.5 966.62,-358.5 966.62,-364.5 966.62,-364.5 966.62,-427.25 966.62,-427.25 966.62,-433.25 960.62,-439.25 954.62,-439.25"/>
<text text-anchor="start" x="834.12" y="-421.95" font-family="Helvetica,sans-Serif" font-size="14.00">Seat comfort ≤ 3.5</text>
<text text-anchor="start" x="842.38" y="-406.2" font-family="Helvetica,sans-Serif" font-size="14.00">entropy = 0.752</text>
<text text-anchor="start" x="837.5" y="-390.45" font-family="Helvetica,sans-Serif" font-size="14.00">samples = 46407</text>
<text text-anchor="start" x="820.62" y="-374.7" font-family="Helvetica,sans-Serif" font-size="14.00">value = [36405, 10002]</text>
<text text-anchor="start" x="833" y="-358.95" font-family="Helvetica,sans-Serif" font-size="14.00">class = dissatisfied</text>
</g>
<!-- 0&#45;&gt;1 -->
<g id="edge1" class="edge">
<title>0&#45;&gt;1</title>
<path fill="none" stroke="black" d="M1062.92,-476.74C1035.28,-464 1004.82,-449.97 977.25,-437.26"/>
<polygon fill="black" stroke="black" points="978.76,-434.1 968.21,-433.09 975.83,-440.46 978.76,-434.1"/>
<text text-anchor="middle" x="975.49" y="-450.49" font-family="Helvetica,sans-Serif" font-size="14.00">True</text>
</g>
<!-- 16 -->
<g id="node17" class="node">
<title>16</title>
<path fill="#65b3eb" stroke="black" d="M1545.62,-439.25C1545.62,-439.25 1379.62,-439.25 1379.62,-439.25 1373.62,-439.25 1367.62,-433.25 1367.62,-427.25 1367.62,-427.25 1367.62,-364.5 1367.62,-364.5 1367.62,-358.5 1373.62,-352.5 1379.62,-352.5 1379.62,-352.5 1545.62,-352.5 1545.62,-352.5 1551.62,-352.5 1557.62,-358.5 1557.62,-364.5 1557.62,-364.5 1557.62,-427.25 1557.62,-427.25 1557.62,-433.25 1551.62,-439.25 1545.62,-439.25"/>
<text text-anchor="start" x="1375.62" y="-421.95" font-family="Helvetica,sans-Serif" font-size="14.00">Ease of Online booking ≤ 3.5</text>
<text text-anchor="start" x="1415.38" y="-406.2" font-family="Helvetica,sans-Serif" font-size="14.00">entropy = 0.687</text>
<text text-anchor="start" x="1410.5" y="-390.45" font-family="Helvetica,sans-Serif" font-size="14.00">samples = 57182</text>
<text text-anchor="start" x="1393.62" y="-374.7" font-family="Helvetica,sans-Serif" font-size="14.00">value = [10479, 46703]</text>
<text text-anchor="start" x="1414.62" y="-358.95" font-family="Helvetica,sans-Serif" font-size="14.00">class = satisfied</text>
</g>
<!-- 0&#45;&gt;16 -->
<g id="edge16" class="edge">
<title>0&#45;&gt;16</title>
<path fill="none" stroke="black" d="M1240.33,-483.18C1276.6,-469.1 1318.85,-452.7 1356.72,-437.99"/>
<polygon fill="black" stroke="black" points="1357.81,-441.33 1365.87,-434.44 1355.28,-434.8 1357.81,-441.33"/>
<text text-anchor="middle" x="1357.2" y="-451.35" font-family="Helvetica,sans-Serif" font-size="14.00">False</text>
</g>
<!-- 2 -->
<g id="node3" class="node">
<title>2</title>
<path fill="#e9965b" stroke="black" d="M503.88,-316.5C503.88,-316.5 381.38,-316.5 381.38,-316.5 375.38,-316.5 369.38,-310.5 369.38,-304.5 369.38,-304.5 369.38,-241.75 369.38,-241.75 369.38,-235.75 375.38,-229.75 381.38,-229.75 381.38,-229.75 503.88,-229.75 503.88,-229.75 509.88,-229.75 515.88,-235.75 515.88,-241.75 515.88,-241.75 515.88,-304.5 515.88,-304.5 515.88,-310.5 509.88,-316.5 503.88,-316.5"/>
<text text-anchor="start" x="387.12" y="-299.2" font-family="Helvetica,sans-Serif" font-size="14.00">Seat comfort ≤ 0.5</text>
<text text-anchor="start" x="395.38" y="-283.45" font-family="Helvetica,sans-Serif" font-size="14.00">entropy = 0.598</text>
<text text-anchor="start" x="390.5" y="-267.7" font-family="Helvetica,sans-Serif" font-size="14.00">samples = 40637</text>
<text text-anchor="start" x="377.38" y="-251.95" font-family="Helvetica,sans-Serif" font-size="14.00">value = [34727, 5910]</text>
<text text-anchor="start" x="386" y="-236.2" font-family="Helvetica,sans-Serif" font-size="14.00">class = dissatisfied</text>
</g>
<!-- 1&#45;&gt;2 -->
<g id="edge2" class="edge">
<title>1&#45;&gt;2</title>
<path fill="none" stroke="black" d="M812.27,-373.98C732.72,-352.49 609.18,-319.12 527.11,-296.95"/>
<polygon fill="black" stroke="black" points="528.09,-293.59 517.53,-294.36 526.27,-300.35 528.09,-293.59"/>
</g>
<!-- 9 -->
<g id="node10" class="node">
<title>9</title>
<path fill="#8ac5f0" stroke="black" d="M958.38,-316.5C958.38,-316.5 820.88,-316.5 820.88,-316.5 814.88,-316.5 808.88,-310.5 808.88,-304.5 808.88,-304.5 808.88,-241.75 808.88,-241.75 808.88,-235.75 814.88,-229.75 820.88,-229.75 820.88,-229.75 958.38,-229.75 958.38,-229.75 964.38,-229.75 970.38,-235.75 970.38,-241.75 970.38,-241.75 970.38,-304.5 970.38,-304.5 970.38,-310.5 964.38,-316.5 958.38,-316.5"/>
<text text-anchor="start" x="834.12" y="-299.2" font-family="Helvetica,sans-Serif" font-size="14.00">Seat comfort ≤ 4.5</text>
<text text-anchor="start" x="846.12" y="-283.45" font-family="Helvetica,sans-Serif" font-size="14.00">entropy = 0.87</text>
<text text-anchor="start" x="841.25" y="-267.7" font-family="Helvetica,sans-Serif" font-size="14.00">samples = 5770</text>
<text text-anchor="start" x="816.88" y="-251.95" font-family="Helvetica,sans-Serif" font-size="14.00">value = [1678.0, 4092.0]</text>
<text text-anchor="start" x="841.62" y="-236.2" font-family="Helvetica,sans-Serif" font-size="14.00">class = satisfied</text>
</g>
<!-- 1&#45;&gt;9 -->
<g id="edge9" class="edge">
<title>1&#45;&gt;9</title>
<path fill="none" stroke="black" d="M889.62,-352.3C889.62,-344.46 889.62,-336.17 889.62,-328.04"/>
<polygon fill="black" stroke="black" points="893.13,-328.23 889.63,-318.23 886.13,-328.23 893.13,-328.23"/>
</g>
<!-- 3 -->
<g id="node4" class="node">
<title>3</title>
<path fill="#3a9de5" stroke="black" d="M266.5,-193.75C266.5,-193.75 144.75,-193.75 144.75,-193.75 138.75,-193.75 132.75,-187.75 132.75,-181.75 132.75,-181.75 132.75,-119 132.75,-119 132.75,-113 138.75,-107 144.75,-107 144.75,-107 266.5,-107 266.5,-107 272.5,-107 278.5,-113 278.5,-119 278.5,-119 278.5,-181.75 278.5,-181.75 278.5,-187.75 272.5,-193.75 266.5,-193.75"/>
<text text-anchor="start" x="140.75" y="-176.45" font-family="Helvetica,sans-Serif" font-size="14.00">Online boarding ≤ 0.5</text>
<text text-anchor="start" x="158.38" y="-160.7" font-family="Helvetica,sans-Serif" font-size="14.00">entropy = 0.028</text>
<text text-anchor="start" x="157.62" y="-144.95" font-family="Helvetica,sans-Serif" font-size="14.00">samples = 2119</text>
<text text-anchor="start" x="155.75" y="-129.2" font-family="Helvetica,sans-Serif" font-size="14.00">value = [6, 2113]</text>
<text text-anchor="start" x="157.62" y="-113.45" font-family="Helvetica,sans-Serif" font-size="14.00">class = satisfied</text>
</g>
<!-- 2&#45;&gt;3 -->
<g id="edge3" class="edge">
<title>2&#45;&gt;3</title>
<path fill="none" stroke="black" d="M368.94,-234.58C343.62,-221.68 315.11,-207.16 289.08,-193.9"/>
<polygon fill="black" stroke="black" points="290.71,-190.8 280.21,-189.38 287.53,-197.03 290.71,-190.8"/>
</g>
<!-- 6 -->
<g id="node7" class="node">
<title>6</title>
<path fill="#e88f4f" stroke="black" d="M503.88,-193.75C503.88,-193.75 381.38,-193.75 381.38,-193.75 375.38,-193.75 369.38,-187.75 369.38,-181.75 369.38,-181.75 369.38,-119 369.38,-119 369.38,-113 375.38,-107 381.38,-107 381.38,-107 503.88,-107 503.88,-107 509.88,-107 515.88,-113 515.88,-119 515.88,-119 515.88,-181.75 515.88,-181.75 515.88,-187.75 509.88,-193.75 503.88,-193.75"/>
<text text-anchor="start" x="408.88" y="-176.45" font-family="Helvetica,sans-Serif" font-size="14.00">Class ≤ 2.5</text>
<text text-anchor="start" x="395.38" y="-160.7" font-family="Helvetica,sans-Serif" font-size="14.00">entropy = 0.464</text>
<text text-anchor="start" x="390.5" y="-144.95" font-family="Helvetica,sans-Serif" font-size="14.00">samples = 38518</text>
<text text-anchor="start" x="377.38" y="-129.2" font-family="Helvetica,sans-Serif" font-size="14.00">value = [34721, 3797]</text>
<text text-anchor="start" x="386" y="-113.45" font-family="Helvetica,sans-Serif" font-size="14.00">class = dissatisfied</text>
</g>
<!-- 2&#45;&gt;6 -->
<g id="edge6" class="edge">
<title>2&#45;&gt;6</title>
<path fill="none" stroke="black" d="M442.62,-229.55C442.62,-221.71 442.62,-213.42 442.62,-205.29"/>
<polygon fill="black" stroke="black" points="446.13,-205.48 442.63,-195.48 439.13,-205.48 446.13,-205.48"/>
</g>
<!-- 4 -->
<g id="node5" class="node">
<title>4</title>
<path fill="#e58139" stroke="black" d="M117.25,-71C117.25,-71 12,-71 12,-71 6,-71 0,-65 0,-59 0,-59 0,-12 0,-12 0,-6 6,0 12,0 12,0 117.25,0 117.25,0 123.25,0 129.25,-6 129.25,-12 129.25,-12 129.25,-59 129.25,-59 129.25,-65 123.25,-71 117.25,-71"/>
<text text-anchor="start" x="24.88" y="-53.7" font-family="Helvetica,sans-Serif" font-size="14.00">entropy = 0.0</text>
<text text-anchor="start" x="27.5" y="-37.95" font-family="Helvetica,sans-Serif" font-size="14.00">samples = 6</text>
<text text-anchor="start" x="25.62" y="-22.2" font-family="Helvetica,sans-Serif" font-size="14.00">value = [6, 0]</text>
<text text-anchor="start" x="8" y="-6.45" font-family="Helvetica,sans-Serif" font-size="14.00">class = dissatisfied</text>
</g>
<!-- 3&#45;&gt;4 -->
<g id="edge4" class="edge">
<title>3&#45;&gt;4</title>
<path fill="none" stroke="black" d="M152.32,-106.7C140.64,-97.35 128.28,-87.46 116.65,-78.15"/>
<polygon fill="black" stroke="black" points="119.09,-75.62 109.1,-72.1 114.72,-81.09 119.09,-75.62"/>
</g>
<!-- 5 -->
<g id="node6" class="node">
<title>5</title>
<path fill="#399de5" stroke="black" d="M251.5,-71C251.5,-71 159.75,-71 159.75,-71 153.75,-71 147.75,-65 147.75,-59 147.75,-59 147.75,-12 147.75,-12 147.75,-6 153.75,0 159.75,0 159.75,0 251.5,0 251.5,0 257.5,0 263.5,-6 263.5,-12 263.5,-12 263.5,-59 263.5,-59 263.5,-65 257.5,-71 251.5,-71"/>
<text text-anchor="start" x="165.88" y="-53.7" font-family="Helvetica,sans-Serif" font-size="14.00">entropy = 0.0</text>
<text text-anchor="start" x="157.62" y="-37.95" font-family="Helvetica,sans-Serif" font-size="14.00">samples = 2113</text>
<text text-anchor="start" x="155.75" y="-22.2" font-family="Helvetica,sans-Serif" font-size="14.00">value = [0, 2113]</text>
<text text-anchor="start" x="157.62" y="-6.45" font-family="Helvetica,sans-Serif" font-size="14.00">class = satisfied</text>
</g>
<!-- 3&#45;&gt;5 -->
<g id="edge5" class="edge">
<title>3&#45;&gt;5</title>
<path fill="none" stroke="black" d="M205.62,-106.7C205.62,-98.82 205.62,-90.55 205.62,-82.57"/>
<polygon fill="black" stroke="black" points="209.13,-82.67 205.63,-72.67 202.13,-82.67 209.13,-82.67"/>
</g>
<!-- 7 -->
<g id="node8" class="node">
<title>7</title>
<path fill="#e68743" stroke="black" d="M415.88,-71C415.88,-71 293.38,-71 293.38,-71 287.38,-71 281.38,-65 281.38,-59 281.38,-59 281.38,-12 281.38,-12 281.38,-6 287.38,0 293.38,0 293.38,0 415.88,0 415.88,0 421.88,0 427.88,-6 427.88,-12 427.88,-12 427.88,-59 427.88,-59 427.88,-65 421.88,-71 415.88,-71"/>
<text text-anchor="start" x="307.38" y="-53.7" font-family="Helvetica,sans-Serif" font-size="14.00">entropy = 0.281</text>
<text text-anchor="start" x="302.5" y="-37.95" font-family="Helvetica,sans-Serif" font-size="14.00">samples = 26006</text>
<text text-anchor="start" x="289.38" y="-22.2" font-family="Helvetica,sans-Serif" font-size="14.00">value = [24739, 1267]</text>
<text text-anchor="start" x="298" y="-6.45" font-family="Helvetica,sans-Serif" font-size="14.00">class = dissatisfied</text>
</g>
<!-- 6&#45;&gt;7 -->
<g id="edge7" class="edge">
<title>6&#45;&gt;7</title>
<path fill="none" stroke="black" d="M409.36,-106.7C402.56,-97.99 395.41,-88.81 388.59,-80.07"/>
<polygon fill="black" stroke="black" points="391.48,-78.09 382.58,-72.35 385.96,-82.39 391.48,-78.09"/>
</g>
<!-- 8 -->
<g id="node9" class="node">
<title>8</title>
<path fill="#eca16b" stroke="black" d="M573.12,-71C573.12,-71 458.12,-71 458.12,-71 452.12,-71 446.12,-65 446.12,-59 446.12,-59 446.12,-12 446.12,-12 446.12,-6 452.12,0 458.12,0 458.12,0 573.12,0 573.12,0 579.12,0 585.12,-6 585.12,-12 585.12,-12 585.12,-59 585.12,-59 585.12,-65 579.12,-71 573.12,-71"/>
<text text-anchor="start" x="468.38" y="-53.7" font-family="Helvetica,sans-Serif" font-size="14.00">entropy = 0.726</text>
<text text-anchor="start" x="463.5" y="-37.95" font-family="Helvetica,sans-Serif" font-size="14.00">samples = 12512</text>
<text text-anchor="start" x="454.12" y="-22.2" font-family="Helvetica,sans-Serif" font-size="14.00">value = [9982, 2530]</text>
<text text-anchor="start" x="459" y="-6.45" font-family="Helvetica,sans-Serif" font-size="14.00">class = dissatisfied</text>
</g>
<!-- 6&#45;&gt;8 -->
<g id="edge8" class="edge">
<title>6&#45;&gt;8</title>
<path fill="none" stroke="black" d="M470.22,-106.7C475.74,-98.17 481.54,-89.2 487.09,-80.62"/>
<polygon fill="black" stroke="black" points="489.9,-82.73 492.39,-72.43 484.02,-78.92 489.9,-82.73"/>
</g>
<!-- 10 -->
<g id="node11" class="node">
<title>10</title>
<path fill="#d1e8f9" stroke="black" d="M865.12,-193.75C865.12,-193.75 750.12,-193.75 750.12,-193.75 744.12,-193.75 738.12,-187.75 738.12,-181.75 738.12,-181.75 738.12,-119 738.12,-119 738.12,-113 744.12,-107 750.12,-107 750.12,-107 865.12,-107 865.12,-107 871.12,-107 877.12,-113 877.12,-119 877.12,-119 877.12,-181.75 877.12,-181.75 877.12,-187.75 871.12,-193.75 865.12,-193.75"/>
<text text-anchor="start" x="750.62" y="-176.45" font-family="Helvetica,sans-Serif" font-size="14.00">Gate location ≤ 3.5</text>
<text text-anchor="start" x="760.38" y="-160.7" font-family="Helvetica,sans-Serif" font-size="14.00">entropy = 0.987</text>
<text text-anchor="start" x="759.25" y="-144.95" font-family="Helvetica,sans-Serif" font-size="14.00">samples = 3794</text>
<text text-anchor="start" x="746.12" y="-129.2" font-family="Helvetica,sans-Serif" font-size="14.00">value = [1646, 2148]</text>
<text text-anchor="start" x="759.62" y="-113.45" font-family="Helvetica,sans-Serif" font-size="14.00">class = satisfied</text>
</g>
<!-- 9&#45;&gt;10 -->
<g id="edge10" class="edge">
<title>9&#45;&gt;10</title>
<path fill="none" stroke="black" d="M860.71,-229.55C854.96,-221.08 848.85,-212.09 842.91,-203.33"/>
<polygon fill="black" stroke="black" points="845.91,-201.53 837.4,-195.22 840.12,-205.46 845.91,-201.53"/>
</g>
<!-- 13 -->
<g id="node14" class="node">
<title>13</title>
<path fill="#3c9fe5" stroke="black" d="M1037.62,-193.75C1037.62,-193.75 907.62,-193.75 907.62,-193.75 901.62,-193.75 895.62,-187.75 895.62,-181.75 895.62,-181.75 895.62,-119 895.62,-119 895.62,-113 901.62,-107 907.62,-107 907.62,-107 1037.62,-107 1037.62,-107 1043.62,-107 1049.62,-113 1049.62,-119 1049.62,-119 1049.62,-181.75 1049.62,-181.75 1049.62,-187.75 1043.62,-193.75 1037.62,-193.75"/>
<text text-anchor="start" x="903.62" y="-176.45" font-family="Helvetica,sans-Serif" font-size="14.00">Leg room service ≤ 4.5</text>
<text text-anchor="start" x="929.12" y="-160.7" font-family="Helvetica,sans-Serif" font-size="14.00">entropy = 0.12</text>
<text text-anchor="start" x="924.25" y="-144.95" font-family="Helvetica,sans-Serif" font-size="14.00">samples = 1976</text>
<text text-anchor="start" x="918.62" y="-129.2" font-family="Helvetica,sans-Serif" font-size="14.00">value = [32, 1944]</text>
<text text-anchor="start" x="924.62" y="-113.45" font-family="Helvetica,sans-Serif" font-size="14.00">class = satisfied</text>
</g>
<!-- 9&#45;&gt;13 -->
<g id="edge13" class="edge">
<title>9&#45;&gt;13</title>
<path fill="none" stroke="black" d="M918.89,-229.55C924.71,-221.08 930.89,-212.09 936.91,-203.33"/>
<polygon fill="black" stroke="black" points="939.71,-205.44 942.49,-195.22 933.94,-201.48 939.71,-205.44"/>
</g>
<!-- 11 -->
<g id="node12" class="node">
<title>11</title>
<path fill="#f7d8c1" stroke="black" d="M722.38,-71C722.38,-71 614.88,-71 614.88,-71 608.88,-71 602.88,-65 602.88,-59 602.88,-59 602.88,-12 602.88,-12 602.88,-6 608.88,0 614.88,0 614.88,0 722.38,0 722.38,0 728.38,0 734.38,-6 734.38,-12 734.38,-12 734.38,-59 734.38,-59 734.38,-65 728.38,-71 722.38,-71"/>
<text text-anchor="start" x="621.38" y="-53.7" font-family="Helvetica,sans-Serif" font-size="14.00">entropy = 0.975</text>
<text text-anchor="start" x="620.25" y="-37.95" font-family="Helvetica,sans-Serif" font-size="14.00">samples = 1729</text>
<text text-anchor="start" x="610.88" y="-22.2" font-family="Helvetica,sans-Serif" font-size="14.00">value = [1025, 704]</text>
<text text-anchor="start" x="612" y="-6.45" font-family="Helvetica,sans-Serif" font-size="14.00">class = dissatisfied</text>
</g>
<!-- 10&#45;&gt;11 -->
<g id="edge11" class="edge">
<title>10&#45;&gt;11</title>
<path fill="none" stroke="black" d="M755.08,-106.7C743.56,-97.35 731.38,-87.46 719.91,-78.15"/>
<polygon fill="black" stroke="black" points="722.45,-75.7 712.48,-72.11 718.04,-81.13 722.45,-75.7"/>
</g>
<!-- 12 -->
<g id="node13" class="node">
<title>12</title>
<path fill="#8ec7f0" stroke="black" d="M872.38,-71C872.38,-71 764.88,-71 764.88,-71 758.88,-71 752.88,-65 752.88,-59 752.88,-59 752.88,-12 752.88,-12 752.88,-6 758.88,0 764.88,0 764.88,0 872.38,0 872.38,0 878.38,0 884.38,-6 884.38,-12 884.38,-12 884.38,-59 884.38,-59 884.38,-65 878.38,-71 872.38,-71"/>
<text text-anchor="start" x="771.38" y="-53.7" font-family="Helvetica,sans-Serif" font-size="14.00">entropy = 0.882</text>
<text text-anchor="start" x="770.25" y="-37.95" font-family="Helvetica,sans-Serif" font-size="14.00">samples = 2065</text>
<text text-anchor="start" x="760.88" y="-22.2" font-family="Helvetica,sans-Serif" font-size="14.00">value = [621, 1444]</text>
<text text-anchor="start" x="770.62" y="-6.45" font-family="Helvetica,sans-Serif" font-size="14.00">class = satisfied</text>
</g>
<!-- 10&#45;&gt;12 -->
<g id="edge12" class="edge">
<title>10&#45;&gt;12</title>
<path fill="none" stroke="black" d="M811.78,-106.7C812.55,-98.82 813.36,-90.55 814.14,-82.57"/>
<polygon fill="black" stroke="black" points="817.61,-82.96 815.1,-72.66 810.65,-82.28 817.61,-82.96"/>
</g>
<!-- 14 -->
<g id="node15" class="node">
<title>14</title>
<path fill="#41a1e6" stroke="black" d="M1006.88,-71C1006.88,-71 914.38,-71 914.38,-71 908.38,-71 902.38,-65 902.38,-59 902.38,-59 902.38,-12 902.38,-12 902.38,-6 908.38,0 914.38,0 914.38,0 1006.88,0 1006.88,0 1012.88,0 1018.88,-6 1018.88,-12 1018.88,-12 1018.88,-59 1018.88,-59 1018.88,-65 1012.88,-71 1006.88,-71"/>
<text text-anchor="start" x="913.38" y="-53.7" font-family="Helvetica,sans-Serif" font-size="14.00">entropy = 0.239</text>
<text text-anchor="start" x="916" y="-37.95" font-family="Helvetica,sans-Serif" font-size="14.00">samples = 814</text>
<text text-anchor="start" x="910.38" y="-22.2" font-family="Helvetica,sans-Serif" font-size="14.00">value = [32, 782]</text>
<text text-anchor="start" x="912.62" y="-6.45" font-family="Helvetica,sans-Serif" font-size="14.00">class = satisfied</text>
</g>
<!-- 13&#45;&gt;14 -->
<g id="edge14" class="edge">
<title>13&#45;&gt;14</title>
<path fill="none" stroke="black" d="M968.09,-106.7C967.25,-98.82 966.37,-90.55 965.52,-82.57"/>
<polygon fill="black" stroke="black" points="969.01,-82.24 964.47,-72.66 962.05,-82.98 969.01,-82.24"/>
</g>
<!-- 15 -->
<g id="node16" class="node">
<title>15</title>
<path fill="#399de5" stroke="black" d="M1140.5,-71C1140.5,-71 1048.75,-71 1048.75,-71 1042.75,-71 1036.75,-65 1036.75,-59 1036.75,-59 1036.75,-12 1036.75,-12 1036.75,-6 1042.75,0 1048.75,0 1048.75,0 1140.5,0 1140.5,0 1146.5,0 1152.5,-6 1152.5,-12 1152.5,-12 1152.5,-59 1152.5,-59 1152.5,-65 1146.5,-71 1140.5,-71"/>
<text text-anchor="start" x="1054.88" y="-53.7" font-family="Helvetica,sans-Serif" font-size="14.00">entropy = 0.0</text>
<text text-anchor="start" x="1046.62" y="-37.95" font-family="Helvetica,sans-Serif" font-size="14.00">samples = 1162</text>
<text text-anchor="start" x="1044.75" y="-22.2" font-family="Helvetica,sans-Serif" font-size="14.00">value = [0, 1162]</text>
<text text-anchor="start" x="1046.62" y="-6.45" font-family="Helvetica,sans-Serif" font-size="14.00">class = satisfied</text>
</g>
<!-- 13&#45;&gt;15 -->
<g id="edge15" class="edge">
<title>13&#45;&gt;15</title>
<path fill="none" stroke="black" d="M1018.75,-106.7C1028.56,-97.62 1038.92,-88.04 1048.72,-78.97"/>
<polygon fill="black" stroke="black" points="1051.09,-81.55 1056.05,-72.19 1046.34,-76.41 1051.09,-81.55"/>
</g>
<!-- 17 -->
<g id="node18" class="node">
<title>17</title>
<path fill="#c4e2f7" stroke="black" d="M1520.12,-316.5C1520.12,-316.5 1405.12,-316.5 1405.12,-316.5 1399.12,-316.5 1393.12,-310.5 1393.12,-304.5 1393.12,-304.5 1393.12,-241.75 1393.12,-241.75 1393.12,-235.75 1399.12,-229.75 1405.12,-229.75 1405.12,-229.75 1520.12,-229.75 1520.12,-229.75 1526.12,-229.75 1532.12,-235.75 1532.12,-241.75 1532.12,-241.75 1532.12,-304.5 1532.12,-304.5 1532.12,-310.5 1526.12,-316.5 1520.12,-316.5"/>
<text text-anchor="start" x="1407.12" y="-299.2" font-family="Helvetica,sans-Serif" font-size="14.00">Seat comfort ≤ 4.5</text>
<text text-anchor="start" x="1415.38" y="-283.45" font-family="Helvetica,sans-Serif" font-size="14.00">entropy = 0.978</text>
<text text-anchor="start" x="1410.5" y="-267.7" font-family="Helvetica,sans-Serif" font-size="14.00">samples = 15543</text>
<text text-anchor="start" x="1401.12" y="-251.95" font-family="Helvetica,sans-Serif" font-size="14.00">value = [6405, 9138]</text>
<text text-anchor="start" x="1414.62" y="-236.2" font-family="Helvetica,sans-Serif" font-size="14.00">class = satisfied</text>
</g>
<!-- 16&#45;&gt;17 -->
<g id="edge17" class="edge">
<title>16&#45;&gt;17</title>
<path fill="none" stroke="black" d="M1462.62,-352.3C1462.62,-344.46 1462.62,-336.17 1462.62,-328.04"/>
<polygon fill="black" stroke="black" points="1466.13,-328.23 1462.63,-318.23 1459.13,-328.23 1466.13,-328.23"/>
</g>
<!-- 24 -->
<g id="node25" class="node">
<title>24</title>
<path fill="#4ea8e8" stroke="black" d="M1975.88,-316.5C1975.88,-316.5 1823.38,-316.5 1823.38,-316.5 1817.38,-316.5 1811.38,-310.5 1811.38,-304.5 1811.38,-304.5 1811.38,-241.75 1811.38,-241.75 1811.38,-235.75 1817.38,-229.75 1823.38,-229.75 1823.38,-229.75 1975.88,-229.75 1975.88,-229.75 1981.88,-229.75 1987.88,-235.75 1987.88,-241.75 1987.88,-241.75 1987.88,-304.5 1987.88,-304.5 1987.88,-310.5 1981.88,-316.5 1975.88,-316.5"/>
<text text-anchor="start" x="1819.38" y="-299.2" font-family="Helvetica,sans-Serif" font-size="14.00">Inflight entertainment ≤ 4.5</text>
<text text-anchor="start" x="1852.38" y="-283.45" font-family="Helvetica,sans-Serif" font-size="14.00">entropy = 0.462</text>
<text text-anchor="start" x="1847.5" y="-267.7" font-family="Helvetica,sans-Serif" font-size="14.00">samples = 41639</text>
<text text-anchor="start" x="1834.38" y="-251.95" font-family="Helvetica,sans-Serif" font-size="14.00">value = [4074, 37565]</text>
<text text-anchor="start" x="1851.62" y="-236.2" font-family="Helvetica,sans-Serif" font-size="14.00">class = satisfied</text>
</g>
<!-- 16&#45;&gt;24 -->
<g id="edge24" class="edge">
<title>16&#45;&gt;24</title>
<path fill="none" stroke="black" d="M1557.99,-368.53C1629.65,-348.72 1727.55,-321.67 1800.18,-301.6"/>
<polygon fill="black" stroke="black" points="1801,-305.01 1809.7,-298.97 1799.13,-298.26 1801,-305.01"/>
</g>
<!-- 18 -->
<g id="node19" class="node">
<title>18</title>
<path fill="#fdfeff" stroke="black" d="M1425.12,-193.75C1425.12,-193.75 1310.12,-193.75 1310.12,-193.75 1304.12,-193.75 1298.12,-187.75 1298.12,-181.75 1298.12,-181.75 1298.12,-119 1298.12,-119 1298.12,-113 1304.12,-107 1310.12,-107 1310.12,-107 1425.12,-107 1425.12,-107 1431.12,-107 1437.12,-113 1437.12,-119 1437.12,-119 1437.12,-181.75 1437.12,-181.75 1437.12,-187.75 1431.12,-193.75 1425.12,-193.75"/>
<text text-anchor="start" x="1306.5" y="-176.45" font-family="Helvetica,sans-Serif" font-size="14.00">Online support ≤ 4.5</text>
<text text-anchor="start" x="1327.88" y="-160.7" font-family="Helvetica,sans-Serif" font-size="14.00">entropy = 1.0</text>
<text text-anchor="start" x="1315.5" y="-144.95" font-family="Helvetica,sans-Serif" font-size="14.00">samples = 12866</text>
<text text-anchor="start" x="1306.12" y="-129.2" font-family="Helvetica,sans-Serif" font-size="14.00">value = [6404, 6462]</text>
<text text-anchor="start" x="1319.62" y="-113.45" font-family="Helvetica,sans-Serif" font-size="14.00">class = satisfied</text>
</g>
<!-- 17&#45;&gt;18 -->
<g id="edge18" class="edge">
<title>17&#45;&gt;18</title>
<path fill="none" stroke="black" d="M1429.13,-229.55C1422.32,-220.9 1415.09,-211.7 1408.07,-202.78"/>
<polygon fill="black" stroke="black" points="1411.01,-200.85 1402.07,-195.16 1405.5,-205.18 1411.01,-200.85"/>
</g>
<!-- 21 -->
<g id="node22" class="node">
<title>21</title>
<path fill="#399de5" stroke="black" d="M1650.25,-193.75C1650.25,-193.75 1467,-193.75 1467,-193.75 1461,-193.75 1455,-187.75 1455,-181.75 1455,-181.75 1455,-119 1455,-119 1455,-113 1461,-107 1467,-107 1467,-107 1650.25,-107 1650.25,-107 1656.25,-107 1662.25,-113 1662.25,-119 1662.25,-119 1662.25,-181.75 1662.25,-181.75 1662.25,-187.75 1656.25,-193.75 1650.25,-193.75"/>
<text text-anchor="start" x="1463" y="-176.45" font-family="Helvetica,sans-Serif" font-size="14.00">Arrival Delay in Minutes ≤ 264.0</text>
<text text-anchor="start" x="1511.38" y="-160.7" font-family="Helvetica,sans-Serif" font-size="14.00">entropy = 0.005</text>
<text text-anchor="start" x="1510.25" y="-144.95" font-family="Helvetica,sans-Serif" font-size="14.00">samples = 2677</text>
<text text-anchor="start" x="1508.38" y="-129.2" font-family="Helvetica,sans-Serif" font-size="14.00">value = [1, 2676]</text>
<text text-anchor="start" x="1510.62" y="-113.45" font-family="Helvetica,sans-Serif" font-size="14.00">class = satisfied</text>
</g>
<!-- 17&#45;&gt;21 -->
<g id="edge21" class="edge">
<title>17&#45;&gt;21</title>
<path fill="none" stroke="black" d="M1496.47,-229.55C1503.35,-220.9 1510.66,-211.7 1517.76,-202.78"/>
<polygon fill="black" stroke="black" points="1520.34,-205.16 1523.82,-195.15 1514.86,-200.8 1520.34,-205.16"/>
</g>
<!-- 19 -->
<g id="node20" class="node">
<title>19</title>
<path fill="#f8decb" stroke="black" d="M1297.12,-71C1297.12,-71 1182.12,-71 1182.12,-71 1176.12,-71 1170.12,-65 1170.12,-59 1170.12,-59 1170.12,-12 1170.12,-12 1170.12,-6 1176.12,0 1182.12,0 1182.12,0 1297.12,0 1297.12,0 1303.12,0 1309.12,-6 1309.12,-12 1309.12,-12 1309.12,-59 1309.12,-59 1309.12,-65 1303.12,-71 1297.12,-71"/>
<text text-anchor="start" x="1192.38" y="-53.7" font-family="Helvetica,sans-Serif" font-size="14.00">entropy = 0.983</text>
<text text-anchor="start" x="1187.5" y="-37.95" font-family="Helvetica,sans-Serif" font-size="14.00">samples = 10292</text>
<text text-anchor="start" x="1178.12" y="-22.2" font-family="Helvetica,sans-Serif" font-size="14.00">value = [5926, 4366]</text>
<text text-anchor="start" x="1183" y="-6.45" font-family="Helvetica,sans-Serif" font-size="14.00">class = dissatisfied</text>
</g>
<!-- 18&#45;&gt;19 -->
<g id="edge19" class="edge">
<title>18&#45;&gt;19</title>
<path fill="none" stroke="black" d="M1319.23,-106.7C1308.84,-97.53 1297.85,-87.85 1287.47,-78.7"/>
<polygon fill="black" stroke="black" points="1289.88,-76.15 1280.06,-72.16 1285.25,-81.4 1289.88,-76.15"/>
</g>
<!-- 20 -->
<g id="node21" class="node">
<title>20</title>
<path fill="#66b3eb" stroke="black" d="M1446.38,-71C1446.38,-71 1338.88,-71 1338.88,-71 1332.88,-71 1326.88,-65 1326.88,-59 1326.88,-59 1326.88,-12 1326.88,-12 1326.88,-6 1332.88,0 1338.88,0 1338.88,0 1446.38,0 1446.38,0 1452.38,0 1458.38,-6 1458.38,-12 1458.38,-12 1458.38,-59 1458.38,-59 1458.38,-65 1452.38,-71 1446.38,-71"/>
<text text-anchor="start" x="1345.38" y="-53.7" font-family="Helvetica,sans-Serif" font-size="14.00">entropy = 0.692</text>
<text text-anchor="start" x="1344.25" y="-37.95" font-family="Helvetica,sans-Serif" font-size="14.00">samples = 2574</text>
<text text-anchor="start" x="1334.88" y="-22.2" font-family="Helvetica,sans-Serif" font-size="14.00">value = [478, 2096]</text>
<text text-anchor="start" x="1344.62" y="-6.45" font-family="Helvetica,sans-Serif" font-size="14.00">class = satisfied</text>
</g>
<!-- 18&#45;&gt;20 -->
<g id="edge20" class="edge">
<title>18&#45;&gt;20</title>
<path fill="none" stroke="black" d="M1377.08,-106.7C1378.84,-98.72 1380.7,-90.36 1382.48,-82.29"/>
<polygon fill="black" stroke="black" points="1385.88,-83.16 1384.62,-72.64 1379.04,-81.64 1385.88,-83.16"/>
</g>
<!-- 22 -->
<g id="node23" class="node">
<title>22</title>
<path fill="#399de5" stroke="black" d="M1580.88,-71C1580.88,-71 1488.38,-71 1488.38,-71 1482.38,-71 1476.38,-65 1476.38,-59 1476.38,-59 1476.38,-12 1476.38,-12 1476.38,-6 1482.38,0 1488.38,0 1488.38,0 1580.88,0 1580.88,0 1586.88,0 1592.88,-6 1592.88,-12 1592.88,-12 1592.88,-59 1592.88,-59 1592.88,-65 1586.88,-71 1580.88,-71"/>
<text text-anchor="start" x="1494.88" y="-53.7" font-family="Helvetica,sans-Serif" font-size="14.00">entropy = 0.0</text>
<text text-anchor="start" x="1486.25" y="-37.95" font-family="Helvetica,sans-Serif" font-size="14.00">samples = 2666</text>
<text text-anchor="start" x="1484.38" y="-22.2" font-family="Helvetica,sans-Serif" font-size="14.00">value = [0, 2666]</text>
<text text-anchor="start" x="1486.62" y="-6.45" font-family="Helvetica,sans-Serif" font-size="14.00">class = satisfied</text>
</g>
<!-- 21&#45;&gt;22 -->
<g id="edge22" class="edge">
<title>21&#45;&gt;22</title>
<path fill="none" stroke="black" d="M1549.55,-106.7C1547.86,-98.72 1546.08,-90.36 1544.36,-82.29"/>
<polygon fill="black" stroke="black" points="1547.81,-81.69 1542.31,-72.64 1540.97,-83.15 1547.81,-81.69"/>
</g>
<!-- 23 -->
<g id="node24" class="node">
<title>23</title>
<path fill="#4da7e8" stroke="black" d="M1710.62,-71C1710.62,-71 1622.62,-71 1622.62,-71 1616.62,-71 1610.62,-65 1610.62,-59 1610.62,-59 1610.62,-12 1610.62,-12 1610.62,-6 1616.62,0 1622.62,0 1622.62,0 1710.62,0 1710.62,0 1716.62,0 1722.62,-6 1722.62,-12 1722.62,-12 1722.62,-59 1722.62,-59 1722.62,-65 1716.62,-71 1710.62,-71"/>
<text text-anchor="start" x="1619.38" y="-53.7" font-family="Helvetica,sans-Serif" font-size="14.00">entropy = 0.439</text>
<text text-anchor="start" x="1626.12" y="-37.95" font-family="Helvetica,sans-Serif" font-size="14.00">samples = 11</text>
<text text-anchor="start" x="1623.88" y="-22.2" font-family="Helvetica,sans-Serif" font-size="14.00">value = [1, 10]</text>
<text text-anchor="start" x="1618.62" y="-6.45" font-family="Helvetica,sans-Serif" font-size="14.00">class = satisfied</text>
</g>
<!-- 21&#45;&gt;23 -->
<g id="edge23" class="edge">
<title>21&#45;&gt;23</title>
<path fill="none" stroke="black" d="M1599.46,-106.7C1608.05,-97.72 1617.13,-88.23 1625.73,-79.25"/>
<polygon fill="black" stroke="black" points="1628.03,-81.9 1632.42,-72.25 1622.98,-77.06 1628.03,-81.9"/>
</g>
<!-- 25 -->
<g id="node26" class="node">
<title>25</title>
<path fill="#5eafea" stroke="black" d="M1972.12,-193.75C1972.12,-193.75 1827.12,-193.75 1827.12,-193.75 1821.12,-193.75 1815.12,-187.75 1815.12,-181.75 1815.12,-181.75 1815.12,-119 1815.12,-119 1815.12,-113 1821.12,-107 1827.12,-107 1827.12,-107 1972.12,-107 1972.12,-107 1978.12,-107 1984.12,-113 1984.12,-119 1984.12,-119 1984.12,-181.75 1984.12,-181.75 1984.12,-187.75 1978.12,-193.75 1972.12,-193.75"/>
<text text-anchor="start" x="1865.88" y="-176.45" font-family="Helvetica,sans-Serif" font-size="14.00">Class ≤ 2.5</text>
<text text-anchor="start" x="1852.38" y="-160.7" font-family="Helvetica,sans-Serif" font-size="14.00">entropy = 0.629</text>
<text text-anchor="start" x="1847.5" y="-144.95" font-family="Helvetica,sans-Serif" font-size="14.00">samples = 22859</text>
<text text-anchor="start" x="1823.12" y="-129.2" font-family="Helvetica,sans-Serif" font-size="14.00">value = [3605.0, 19254.0]</text>
<text text-anchor="start" x="1851.62" y="-113.45" font-family="Helvetica,sans-Serif" font-size="14.00">class = satisfied</text>
</g>
<!-- 24&#45;&gt;25 -->
<g id="edge25" class="edge">
<title>24&#45;&gt;25</title>
<path fill="none" stroke="black" d="M1899.62,-229.55C1899.62,-221.71 1899.62,-213.42 1899.62,-205.29"/>
<polygon fill="black" stroke="black" points="1903.13,-205.48 1899.63,-195.48 1896.13,-205.48 1903.13,-205.48"/>
</g>
<!-- 28 -->
<g id="node29" class="node">
<title>28</title>
<path fill="#3ea0e6" stroke="black" d="M2207.75,-193.75C2207.75,-193.75 2093.5,-193.75 2093.5,-193.75 2087.5,-193.75 2081.5,-187.75 2081.5,-181.75 2081.5,-181.75 2081.5,-119 2081.5,-119 2081.5,-113 2087.5,-107 2093.5,-107 2093.5,-107 2207.75,-107 2207.75,-107 2213.75,-107 2219.75,-113 2219.75,-119 2219.75,-119 2219.75,-181.75 2219.75,-181.75 2219.75,-187.75 2213.75,-193.75 2207.75,-193.75"/>
<text text-anchor="start" x="2091" y="-176.45" font-family="Helvetica,sans-Serif" font-size="14.00">Type of Travel ≤ 0.5</text>
<text text-anchor="start" x="2103.38" y="-160.7" font-family="Helvetica,sans-Serif" font-size="14.00">entropy = 0.169</text>
<text text-anchor="start" x="2098.5" y="-144.95" font-family="Helvetica,sans-Serif" font-size="14.00">samples = 18780</text>
<text text-anchor="start" x="2089.5" y="-129.2" font-family="Helvetica,sans-Serif" font-size="14.00">value = [469, 18311]</text>
<text text-anchor="start" x="2102.62" y="-113.45" font-family="Helvetica,sans-Serif" font-size="14.00">class = satisfied</text>
</g>
<!-- 24&#45;&gt;28 -->
<g id="edge28" class="edge">
<title>24&#45;&gt;28</title>
<path fill="none" stroke="black" d="M1988.12,-229.55C2015.03,-216.61 2044.44,-202.46 2070.75,-189.8"/>
<polygon fill="black" stroke="black" points="2072.19,-192.99 2079.69,-185.5 2069.16,-186.68 2072.19,-192.99"/>
</g>
<!-- 26 -->
<g id="node27" class="node">
<title>26</title>
<path fill="#86c3ef" stroke="black" d="M1890.38,-71C1890.38,-71 1752.88,-71 1752.88,-71 1746.88,-71 1740.88,-65 1740.88,-59 1740.88,-59 1740.88,-12 1740.88,-12 1740.88,-6 1746.88,0 1752.88,0 1752.88,0 1890.38,0 1890.38,0 1896.38,0 1902.38,-6 1902.38,-12 1902.38,-12 1902.38,-59 1902.38,-59 1902.38,-65 1896.38,-71 1890.38,-71"/>
<text text-anchor="start" x="1774.38" y="-53.7" font-family="Helvetica,sans-Serif" font-size="14.00">entropy = 0.856</text>
<text text-anchor="start" x="1773.25" y="-37.95" font-family="Helvetica,sans-Serif" font-size="14.00">samples = 9188</text>
<text text-anchor="start" x="1748.88" y="-22.2" font-family="Helvetica,sans-Serif" font-size="14.00">value = [2575.0, 6613.0]</text>
<text text-anchor="start" x="1773.62" y="-6.45" font-family="Helvetica,sans-Serif" font-size="14.00">class = satisfied</text>
</g>
<!-- 25&#45;&gt;26 -->
<g id="edge26" class="edge">
<title>25&#45;&gt;26</title>
<path fill="none" stroke="black" d="M1870.14,-106.7C1864.24,-98.17 1858.04,-89.2 1852.12,-80.62"/>
<polygon fill="black" stroke="black" points="1855,-78.64 1846.43,-72.4 1849.24,-82.62 1855,-78.64"/>
</g>
<!-- 27 -->
<g id="node28" class="node">
<title>27</title>
<path fill="#49a5e7" stroke="black" d="M2054.88,-71C2054.88,-71 1932.38,-71 1932.38,-71 1926.38,-71 1920.38,-65 1920.38,-59 1920.38,-59 1920.38,-12 1920.38,-12 1920.38,-6 1926.38,0 1932.38,0 1932.38,0 2054.88,0 2054.88,0 2060.88,0 2066.88,-6 2066.88,-12 2066.88,-12 2066.88,-59 2066.88,-59 2066.88,-65 2060.88,-71 2054.88,-71"/>
<text text-anchor="start" x="1946.38" y="-53.7" font-family="Helvetica,sans-Serif" font-size="14.00">entropy = 0.386</text>
<text text-anchor="start" x="1941.5" y="-37.95" font-family="Helvetica,sans-Serif" font-size="14.00">samples = 13671</text>
<text text-anchor="start" x="1928.38" y="-22.2" font-family="Helvetica,sans-Serif" font-size="14.00">value = [1030, 12641]</text>
<text text-anchor="start" x="1945.62" y="-6.45" font-family="Helvetica,sans-Serif" font-size="14.00">class = satisfied</text>
</g>
<!-- 25&#45;&gt;27 -->
<g id="edge27" class="edge">
<title>25&#45;&gt;27</title>
<path fill="none" stroke="black" d="M1935.16,-106.7C1942.49,-97.9 1950.22,-88.62 1957.57,-79.8"/>
<polygon fill="black" stroke="black" points="1960.08,-82.24 1963.79,-72.32 1954.71,-77.76 1960.08,-82.24"/>
</g>
<!-- 29 -->
<g id="node30" class="node">
<title>29</title>
<path fill="#4aa6e7" stroke="black" d="M2204.38,-71C2204.38,-71 2096.88,-71 2096.88,-71 2090.88,-71 2084.88,-65 2084.88,-59 2084.88,-59 2084.88,-12 2084.88,-12 2084.88,-6 2090.88,0 2096.88,0 2096.88,0 2204.38,0 2204.38,0 2210.38,0 2216.38,-6 2216.38,-12 2216.38,-12 2216.38,-59 2216.38,-59 2216.38,-65 2210.38,-71 2204.38,-71"/>
<text text-anchor="start" x="2103.38" y="-53.7" font-family="Helvetica,sans-Serif" font-size="14.00">entropy = 0.406</text>
<text text-anchor="start" x="2102.25" y="-37.95" font-family="Helvetica,sans-Serif" font-size="14.00">samples = 4678</text>
<text text-anchor="start" x="2092.88" y="-22.2" font-family="Helvetica,sans-Serif" font-size="14.00">value = [379, 4299]</text>
<text text-anchor="start" x="2102.62" y="-6.45" font-family="Helvetica,sans-Serif" font-size="14.00">class = satisfied</text>
</g>
<!-- 28&#45;&gt;29 -->
<g id="edge29" class="edge">
<title>28&#45;&gt;29</title>
<path fill="none" stroke="black" d="M2150.62,-106.7C2150.62,-98.82 2150.62,-90.55 2150.62,-82.57"/>
<polygon fill="black" stroke="black" points="2154.13,-82.67 2150.63,-72.67 2147.13,-82.67 2154.13,-82.67"/>
</g>
<!-- 30 -->
<g id="node31" class="node">
<title>30</title>
<path fill="#3a9ee5" stroke="black" d="M2354.38,-71C2354.38,-71 2246.88,-71 2246.88,-71 2240.88,-71 2234.88,-65 2234.88,-59 2234.88,-59 2234.88,-12 2234.88,-12 2234.88,-6 2240.88,0 2246.88,0 2246.88,0 2354.38,0 2354.38,0 2360.38,0 2366.38,-6 2366.38,-12 2366.38,-12 2366.38,-59 2366.38,-59 2366.38,-65 2360.38,-71 2354.38,-71"/>
<text text-anchor="start" x="2253.38" y="-53.7" font-family="Helvetica,sans-Serif" font-size="14.00">entropy = 0.056</text>
<text text-anchor="start" x="2248.5" y="-37.95" font-family="Helvetica,sans-Serif" font-size="14.00">samples = 14102</text>
<text text-anchor="start" x="2242.88" y="-22.2" font-family="Helvetica,sans-Serif" font-size="14.00">value = [90, 14012]</text>
<text text-anchor="start" x="2252.62" y="-6.45" font-family="Helvetica,sans-Serif" font-size="14.00">class = satisfied</text>
</g>
<!-- 28&#45;&gt;30 -->
<g id="edge30" class="edge">
<title>28&#45;&gt;30</title>
<path fill="none" stroke="black" d="M2207.33,-106.7C2219.88,-97.26 2233.16,-87.27 2245.64,-77.87"/>
<polygon fill="black" stroke="black" points="2247.47,-80.88 2253.36,-72.07 2243.26,-75.28 2247.47,-80.88"/>
</g>
</g>
</svg>
