<?xml version="1.0" encoding="UTF-8" standalone="no"?>
<!DOCTYPE svg PUBLIC "-//W3C//DTD SVG 1.1//EN"
 "http://www.w3.org/Graphics/SVG/1.1/DTD/svg11.dtd">
<!-- Generated by graphviz version 12.2.0 (20241103.1931)
 -->
<!-- Title: Tree Pages: 1 -->
<svg width="1459pt" height="816pt"
 viewBox="0.00 0.00 1459.38 815.50" xmlns="http://www.w3.org/2000/svg" xmlns:xlink="http://www.w3.org/1999/xlink">
<g id="graph0" class="graph" transform="scale(1 1) rotate(0) translate(4 811.5)">
<title>Tree</title>
<polygon fill="white" stroke="none" points="-4,4 -4,-811.5 1455.38,-811.5 1455.38,4 -4,4"/>
<!-- 0 -->
<g id="node1" class="node">
<title>0</title>
<path fill="#f4ccaf" stroke="black" d="M991.88,-807.5C991.88,-807.5 819.12,-807.5 819.12,-807.5 813.12,-807.5 807.12,-801.5 807.12,-795.5 807.12,-795.5 807.12,-732.75 807.12,-732.75 807.12,-726.75 813.12,-720.75 819.12,-720.75 819.12,-720.75 991.88,-720.75 991.88,-720.75 997.88,-720.75 1003.88,-726.75 1003.88,-732.75 1003.88,-732.75 1003.88,-795.5 1003.88,-795.5 1003.88,-801.5 997.88,-807.5 991.88,-807.5"/>
<text text-anchor="start" x="815.12" y="-790.2" font-family="Helvetica,sans-Serif" font-size="14.00">concave points_mean ≤ 0.049</text>
<text text-anchor="start" x="858.25" y="-774.45" font-family="Helvetica,sans-Serif" font-size="14.00">entropy = 0.953</text>
<text text-anchor="start" x="860.88" y="-758.7" font-family="Helvetica,sans-Serif" font-size="14.00">samples = 512</text>
<text text-anchor="start" x="851.5" y="-742.95" font-family="Helvetica,sans-Serif" font-size="14.00">value = [321, 191]</text>
<text text-anchor="start" x="861.25" y="-727.2" font-family="Helvetica,sans-Serif" font-size="14.00">class = Benign</text>
</g>
<!-- 1 -->
<g id="node2" class="node">
<title>1</title>
<path fill="#e68743" stroke="black" d="M766.12,-684.75C766.12,-684.75 648.88,-684.75 648.88,-684.75 642.88,-684.75 636.88,-678.75 636.88,-672.75 636.88,-672.75 636.88,-610 636.88,-610 636.88,-604 642.88,-598 648.88,-598 648.88,-598 766.12,-598 766.12,-598 772.12,-598 778.12,-604 778.12,-610 778.12,-610 778.12,-672.75 778.12,-672.75 778.12,-678.75 772.12,-684.75 766.12,-684.75"/>
<text text-anchor="start" x="644.88" y="-667.45" font-family="Helvetica,sans-Serif" font-size="14.00">radius_worst ≤ 16.83</text>
<text text-anchor="start" x="664" y="-651.7" font-family="Helvetica,sans-Serif" font-size="14.00">entropy = 0.28</text>
<text text-anchor="start" x="662.88" y="-635.95" font-family="Helvetica,sans-Serif" font-size="14.00">samples = 310</text>
<text text-anchor="start" x="657.25" y="-620.2" font-family="Helvetica,sans-Serif" font-size="14.00">value = [295, 15]</text>
<text text-anchor="start" x="663.25" y="-604.45" font-family="Helvetica,sans-Serif" font-size="14.00">class = Benign</text>
</g>
<!-- 0&#45;&gt;1 -->
<g id="edge1" class="edge">
<title>0&#45;&gt;1</title>
<path fill="none" stroke="black" d="M835.41,-720.38C819.84,-710.89 803.23,-700.76 787.3,-691.04"/>
<polygon fill="black" stroke="black" points="789.14,-688.07 778.78,-685.85 785.5,-694.04 789.14,-688.07"/>
<text text-anchor="middle" x="783.38" y="-703.93" font-family="Helvetica,sans-Serif" font-size="14.00">True</text>
</g>
<!-- 16 -->
<g id="node17" class="node">
<title>16</title>
<path fill="#56abe9" stroke="black" d="M1047,-684.75C1047,-684.75 902,-684.75 902,-684.75 896,-684.75 890,-678.75 890,-672.75 890,-672.75 890,-610 890,-610 890,-604 896,-598 902,-598 902,-598 1047,-598 1047,-598 1053,-598 1059,-604 1059,-610 1059,-610 1059,-672.75 1059,-672.75 1059,-678.75 1053,-684.75 1047,-684.75"/>
<text text-anchor="start" x="898" y="-667.45" font-family="Helvetica,sans-Serif" font-size="14.00">perimeter_worst ≤ 114.45</text>
<text text-anchor="start" x="927.25" y="-651.7" font-family="Helvetica,sans-Serif" font-size="14.00">entropy = 0.554</text>
<text text-anchor="start" x="929.88" y="-635.95" font-family="Helvetica,sans-Serif" font-size="14.00">samples = 202</text>
<text text-anchor="start" x="924.25" y="-620.2" font-family="Helvetica,sans-Serif" font-size="14.00">value = [26, 176]</text>
<text text-anchor="start" x="921.62" y="-604.45" font-family="Helvetica,sans-Serif" font-size="14.00">class = Malignant</text>
</g>
<!-- 0&#45;&gt;16 -->
<g id="edge16" class="edge">
<title>0&#45;&gt;16</title>
<path fill="none" stroke="black" d="M929.83,-720.55C934.57,-712.26 939.59,-703.47 944.49,-694.89"/>
<polygon fill="black" stroke="black" points="947.49,-696.7 949.41,-686.28 941.41,-693.23 947.49,-696.7"/>
<text text-anchor="middle" x="956.74" y="-703.66" font-family="Helvetica,sans-Serif" font-size="14.00">False</text>
</g>
<!-- 2 -->
<g id="node3" class="node">
<title>2</title>
<path fill="#e5833c" stroke="black" d="M451.75,-562C451.75,-562 365.25,-562 365.25,-562 359.25,-562 353.25,-556 353.25,-550 353.25,-550 353.25,-487.25 353.25,-487.25 353.25,-481.25 359.25,-475.25 365.25,-475.25 365.25,-475.25 451.75,-475.25 451.75,-475.25 457.75,-475.25 463.75,-481.25 463.75,-487.25 463.75,-487.25 463.75,-550 463.75,-550 463.75,-556 457.75,-562 451.75,-562"/>
<text text-anchor="start" x="363.5" y="-544.7" font-family="Helvetica,sans-Serif" font-size="14.00">area_se ≤ 48.7</text>
<text text-anchor="start" x="361.25" y="-528.95" font-family="Helvetica,sans-Serif" font-size="14.00">entropy = 0.105</text>
<text text-anchor="start" x="363.88" y="-513.2" font-family="Helvetica,sans-Serif" font-size="14.00">samples = 291</text>
<text text-anchor="start" x="362" y="-497.45" font-family="Helvetica,sans-Serif" font-size="14.00">value = [287, 4]</text>
<text text-anchor="start" x="364.25" y="-481.7" font-family="Helvetica,sans-Serif" font-size="14.00">class = Benign</text>
</g>
<!-- 1&#45;&gt;2 -->
<g id="edge2" class="edge">
<title>1&#45;&gt;2</title>
<path fill="none" stroke="black" d="M636.64,-611.76C587.51,-591.92 522.55,-565.68 474.51,-546.28"/>
<polygon fill="black" stroke="black" points="475.9,-543.07 465.32,-542.57 473.28,-549.56 475.9,-543.07"/>
</g>
<!-- 11 -->
<g id="node12" class="node">
<title>11</title>
<path fill="#c9e4f8" stroke="black" d="M773.25,-562C773.25,-562 641.75,-562 641.75,-562 635.75,-562 629.75,-556 629.75,-550 629.75,-550 629.75,-487.25 629.75,-487.25 629.75,-481.25 635.75,-475.25 641.75,-475.25 641.75,-475.25 773.25,-475.25 773.25,-475.25 779.25,-475.25 785.25,-481.25 785.25,-487.25 785.25,-487.25 785.25,-550 785.25,-550 785.25,-556 779.25,-562 773.25,-562"/>
<text text-anchor="start" x="637.75" y="-544.7" font-family="Helvetica,sans-Serif" font-size="14.00">texture_mean ≤ 19.545</text>
<text text-anchor="start" x="660.25" y="-528.95" font-family="Helvetica,sans-Serif" font-size="14.00">entropy = 0.982</text>
<text text-anchor="start" x="666.62" y="-513.2" font-family="Helvetica,sans-Serif" font-size="14.00">samples = 19</text>
<text text-anchor="start" x="665.12" y="-497.45" font-family="Helvetica,sans-Serif" font-size="14.00">value = [8, 11]</text>
<text text-anchor="start" x="654.62" y="-481.7" font-family="Helvetica,sans-Serif" font-size="14.00">class = Malignant</text>
</g>
<!-- 1&#45;&gt;11 -->
<g id="edge11" class="edge">
<title>1&#45;&gt;11</title>
<path fill="none" stroke="black" d="M707.5,-597.8C707.5,-589.96 707.5,-581.67 707.5,-573.54"/>
<polygon fill="black" stroke="black" points="711,-573.73 707.5,-563.73 704,-573.73 711,-573.73"/>
</g>
<!-- 3 -->
<g id="node4" class="node">
<title>3</title>
<path fill="#e5823a" stroke="black" d="M259,-439.25C259,-439.25 144,-439.25 144,-439.25 138,-439.25 132,-433.25 132,-427.25 132,-427.25 132,-364.5 132,-364.5 132,-358.5 138,-352.5 144,-352.5 144,-352.5 259,-352.5 259,-352.5 265,-352.5 271,-358.5 271,-364.5 271,-364.5 271,-427.25 271,-427.25 271,-433.25 265,-439.25 259,-439.25"/>
<text text-anchor="start" x="140" y="-421.95" font-family="Helvetica,sans-Serif" font-size="14.00">area_worst ≤ 766.45</text>
<text text-anchor="start" x="158" y="-406.2" font-family="Helvetica,sans-Serif" font-size="14.00">entropy = 0.06</text>
<text text-anchor="start" x="156.88" y="-390.45" font-family="Helvetica,sans-Serif" font-size="14.00">samples = 288</text>
<text text-anchor="start" x="155" y="-374.7" font-family="Helvetica,sans-Serif" font-size="14.00">value = [286, 2]</text>
<text text-anchor="start" x="157.25" y="-358.95" font-family="Helvetica,sans-Serif" font-size="14.00">class = Benign</text>
</g>
<!-- 2&#45;&gt;3 -->
<g id="edge3" class="edge">
<title>2&#45;&gt;3</title>
<path fill="none" stroke="black" d="M352.76,-485.11C330.76,-472.28 305.08,-457.29 281.18,-443.36"/>
<polygon fill="black" stroke="black" points="283.13,-440.44 272.73,-438.43 279.61,-446.49 283.13,-440.44"/>
</g>
<!-- 8 -->
<g id="node9" class="node">
<title>8</title>
<path fill="#9ccef2" stroke="black" d="M479.88,-439.25C479.88,-439.25 337.12,-439.25 337.12,-439.25 331.12,-439.25 325.12,-433.25 325.12,-427.25 325.12,-427.25 325.12,-364.5 325.12,-364.5 325.12,-358.5 331.12,-352.5 337.12,-352.5 337.12,-352.5 479.88,-352.5 479.88,-352.5 485.88,-352.5 491.88,-358.5 491.88,-364.5 491.88,-364.5 491.88,-427.25 491.88,-427.25 491.88,-433.25 485.88,-439.25 479.88,-439.25"/>
<text text-anchor="start" x="333.12" y="-421.95" font-family="Helvetica,sans-Serif" font-size="14.00">compactness_se ≤ 0.014</text>
<text text-anchor="start" x="361.25" y="-406.2" font-family="Helvetica,sans-Serif" font-size="14.00">entropy = 0.918</text>
<text text-anchor="start" x="371.38" y="-390.45" font-family="Helvetica,sans-Serif" font-size="14.00">samples = 3</text>
<text text-anchor="start" x="369.5" y="-374.7" font-family="Helvetica,sans-Serif" font-size="14.00">value = [1, 2]</text>
<text text-anchor="start" x="355.62" y="-358.95" font-family="Helvetica,sans-Serif" font-size="14.00">class = Malignant</text>
</g>
<!-- 2&#45;&gt;8 -->
<g id="edge8" class="edge">
<title>2&#45;&gt;8</title>
<path fill="none" stroke="black" d="M408.5,-475.05C408.5,-467.21 408.5,-458.92 408.5,-450.79"/>
<polygon fill="black" stroke="black" points="412,-450.98 408.5,-440.98 405,-450.98 412,-450.98"/>
</g>
<!-- 4 -->
<g id="node5" class="node">
<title>4</title>
<path fill="#e58139" stroke="black" d="M97,-308.62C97,-308.62 12,-308.62 12,-308.62 6,-308.62 0,-302.62 0,-296.62 0,-296.62 0,-249.62 0,-249.62 0,-243.62 6,-237.62 12,-237.62 12,-237.62 97,-237.62 97,-237.62 103,-237.62 109,-243.62 109,-249.62 109,-249.62 109,-296.62 109,-296.62 109,-302.62 103,-308.62 97,-308.62"/>
<text text-anchor="start" x="14.75" y="-291.32" font-family="Helvetica,sans-Serif" font-size="14.00">entropy = 0.0</text>
<text text-anchor="start" x="9.88" y="-275.57" font-family="Helvetica,sans-Serif" font-size="14.00">samples = 265</text>
<text text-anchor="start" x="8" y="-259.82" font-family="Helvetica,sans-Serif" font-size="14.00">value = [265, 0]</text>
<text text-anchor="start" x="10.25" y="-244.07" font-family="Helvetica,sans-Serif" font-size="14.00">class = Benign</text>
</g>
<!-- 3&#45;&gt;4 -->
<g id="edge4" class="edge">
<title>3&#45;&gt;4</title>
<path fill="none" stroke="black" d="M149.67,-352.3C135.3,-340.49 119.71,-327.69 105.39,-315.93"/>
<polygon fill="black" stroke="black" points="107.78,-313.36 97.83,-309.71 103.33,-318.77 107.78,-313.36"/>
</g>
<!-- 5 -->
<g id="node6" class="node">
<title>5</title>
<path fill="#e78d4c" stroke="black" d="M263.88,-316.5C263.88,-316.5 139.12,-316.5 139.12,-316.5 133.12,-316.5 127.12,-310.5 127.12,-304.5 127.12,-304.5 127.12,-241.75 127.12,-241.75 127.12,-235.75 133.12,-229.75 139.12,-229.75 139.12,-229.75 263.88,-229.75 263.88,-229.75 269.88,-229.75 275.88,-235.75 275.88,-241.75 275.88,-241.75 275.88,-304.5 275.88,-304.5 275.88,-310.5 269.88,-316.5 263.88,-316.5"/>
<text text-anchor="start" x="135.12" y="-299.2" font-family="Helvetica,sans-Serif" font-size="14.00">radius_worst ≤ 15.955</text>
<text text-anchor="start" x="154.25" y="-283.45" font-family="Helvetica,sans-Serif" font-size="14.00">entropy = 0.426</text>
<text text-anchor="start" x="160.62" y="-267.7" font-family="Helvetica,sans-Serif" font-size="14.00">samples = 23</text>
<text text-anchor="start" x="158.75" y="-251.95" font-family="Helvetica,sans-Serif" font-size="14.00">value = [21, 2]</text>
<text text-anchor="start" x="157.25" y="-236.2" font-family="Helvetica,sans-Serif" font-size="14.00">class = Benign</text>
</g>
<!-- 3&#45;&gt;5 -->
<g id="edge5" class="edge">
<title>3&#45;&gt;5</title>
<path fill="none" stroke="black" d="M201.5,-352.3C201.5,-344.46 201.5,-336.17 201.5,-328.04"/>
<polygon fill="black" stroke="black" points="205,-328.23 201.5,-318.23 198,-328.23 205,-328.23"/>
</g>
<!-- 6 -->
<g id="node7" class="node">
<title>6</title>
<path fill="#399de5" stroke="black" d="M184.38,-185.88C184.38,-185.88 86.62,-185.88 86.62,-185.88 80.62,-185.88 74.62,-179.88 74.62,-173.88 74.62,-173.88 74.62,-126.88 74.62,-126.88 74.62,-120.88 80.62,-114.88 86.62,-114.88 86.62,-114.88 184.38,-114.88 184.38,-114.88 190.38,-114.88 196.38,-120.88 196.38,-126.88 196.38,-126.88 196.38,-173.88 196.38,-173.88 196.38,-179.88 190.38,-185.88 184.38,-185.88"/>
<text text-anchor="start" x="95.75" y="-168.57" font-family="Helvetica,sans-Serif" font-size="14.00">entropy = 0.0</text>
<text text-anchor="start" x="98.38" y="-152.82" font-family="Helvetica,sans-Serif" font-size="14.00">samples = 2</text>
<text text-anchor="start" x="96.5" y="-137.07" font-family="Helvetica,sans-Serif" font-size="14.00">value = [0, 2]</text>
<text text-anchor="start" x="82.62" y="-121.33" font-family="Helvetica,sans-Serif" font-size="14.00">class = Malignant</text>
</g>
<!-- 5&#45;&gt;6 -->
<g id="edge6" class="edge">
<title>5&#45;&gt;6</title>
<path fill="none" stroke="black" d="M178.23,-229.55C172.26,-218.64 165.83,-206.87 159.81,-195.86"/>
<polygon fill="black" stroke="black" points="163.02,-194.43 155.15,-187.33 156.88,-197.79 163.02,-194.43"/>
</g>
<!-- 7 -->
<g id="node8" class="node">
<title>7</title>
<path fill="#e58139" stroke="black" d="M306.75,-185.88C306.75,-185.88 226.25,-185.88 226.25,-185.88 220.25,-185.88 214.25,-179.88 214.25,-173.88 214.25,-173.88 214.25,-126.88 214.25,-126.88 214.25,-120.88 220.25,-114.88 226.25,-114.88 226.25,-114.88 306.75,-114.88 306.75,-114.88 312.75,-114.88 318.75,-120.88 318.75,-126.88 318.75,-126.88 318.75,-173.88 318.75,-173.88 318.75,-179.88 312.75,-185.88 306.75,-185.88"/>
<text text-anchor="start" x="226.75" y="-168.57" font-family="Helvetica,sans-Serif" font-size="14.00">entropy = 0.0</text>
<text text-anchor="start" x="225.62" y="-152.82" font-family="Helvetica,sans-Serif" font-size="14.00">samples = 21</text>
<text text-anchor="start" x="223.75" y="-137.07" font-family="Helvetica,sans-Serif" font-size="14.00">value = [21, 0]</text>
<text text-anchor="start" x="222.25" y="-121.33" font-family="Helvetica,sans-Serif" font-size="14.00">class = Benign</text>
</g>
<!-- 5&#45;&gt;7 -->
<g id="edge7" class="edge">
<title>5&#45;&gt;7</title>
<path fill="none" stroke="black" d="M224.42,-229.55C230.29,-218.64 236.63,-206.87 242.56,-195.86"/>
<polygon fill="black" stroke="black" points="245.48,-197.8 247.14,-187.34 239.32,-194.48 245.48,-197.8"/>
</g>
<!-- 9 -->
<g id="node10" class="node">
<title>9</title>
<path fill="#399de5" stroke="black" d="M403.38,-308.62C403.38,-308.62 305.62,-308.62 305.62,-308.62 299.62,-308.62 293.62,-302.62 293.62,-296.62 293.62,-296.62 293.62,-249.62 293.62,-249.62 293.62,-243.62 299.62,-237.62 305.62,-237.62 305.62,-237.62 403.38,-237.62 403.38,-237.62 409.38,-237.62 415.38,-243.62 415.38,-249.62 415.38,-249.62 415.38,-296.62 415.38,-296.62 415.38,-302.62 409.38,-308.62 403.38,-308.62"/>
<text text-anchor="start" x="314.75" y="-291.32" font-family="Helvetica,sans-Serif" font-size="14.00">entropy = 0.0</text>
<text text-anchor="start" x="317.38" y="-275.57" font-family="Helvetica,sans-Serif" font-size="14.00">samples = 2</text>
<text text-anchor="start" x="315.5" y="-259.82" font-family="Helvetica,sans-Serif" font-size="14.00">value = [0, 2]</text>
<text text-anchor="start" x="301.62" y="-244.07" font-family="Helvetica,sans-Serif" font-size="14.00">class = Malignant</text>
</g>
<!-- 8&#45;&gt;9 -->
<g id="edge9" class="edge">
<title>8&#45;&gt;9</title>
<path fill="none" stroke="black" d="M389.46,-352.3C384.63,-341.5 379.42,-329.86 374.54,-318.94"/>
<polygon fill="black" stroke="black" points="377.88,-317.84 370.6,-310.14 371.49,-320.69 377.88,-317.84"/>
</g>
<!-- 10 -->
<g id="node11" class="node">
<title>10</title>
<path fill="#e58139" stroke="black" d="M525.75,-308.62C525.75,-308.62 445.25,-308.62 445.25,-308.62 439.25,-308.62 433.25,-302.62 433.25,-296.62 433.25,-296.62 433.25,-249.62 433.25,-249.62 433.25,-243.62 439.25,-237.62 445.25,-237.62 445.25,-237.62 525.75,-237.62 525.75,-237.62 531.75,-237.62 537.75,-243.62 537.75,-249.62 537.75,-249.62 537.75,-296.62 537.75,-296.62 537.75,-302.62 531.75,-308.62 525.75,-308.62"/>
<text text-anchor="start" x="445.75" y="-291.32" font-family="Helvetica,sans-Serif" font-size="14.00">entropy = 0.0</text>
<text text-anchor="start" x="448.38" y="-275.57" font-family="Helvetica,sans-Serif" font-size="14.00">samples = 1</text>
<text text-anchor="start" x="446.5" y="-259.82" font-family="Helvetica,sans-Serif" font-size="14.00">value = [1, 0]</text>
<text text-anchor="start" x="441.25" y="-244.07" font-family="Helvetica,sans-Serif" font-size="14.00">class = Benign</text>
</g>
<!-- 8&#45;&gt;10 -->
<g id="edge10" class="edge">
<title>8&#45;&gt;10</title>
<path fill="none" stroke="black" d="M435.65,-352.3C442.68,-341.27 450.27,-329.38 457.35,-318.27"/>
<polygon fill="black" stroke="black" points="460.18,-320.34 462.6,-310.03 454.28,-316.58 460.18,-320.34"/>
</g>
<!-- 12 -->
<g id="node13" class="node">
<title>12</title>
<path fill="#eca06a" stroke="black" d="M705,-439.25C705,-439.25 542,-439.25 542,-439.25 536,-439.25 530,-433.25 530,-427.25 530,-427.25 530,-364.5 530,-364.5 530,-358.5 536,-352.5 542,-352.5 542,-352.5 705,-352.5 705,-352.5 711,-352.5 717,-358.5 717,-364.5 717,-364.5 717,-427.25 717,-427.25 717,-433.25 711,-439.25 705,-439.25"/>
<text text-anchor="start" x="538" y="-421.95" font-family="Helvetica,sans-Serif" font-size="14.00">compactness_mean ≤ 0.086</text>
<text text-anchor="start" x="576.25" y="-406.2" font-family="Helvetica,sans-Serif" font-size="14.00">entropy = 0.722</text>
<text text-anchor="start" x="582.62" y="-390.45" font-family="Helvetica,sans-Serif" font-size="14.00">samples = 10</text>
<text text-anchor="start" x="584.5" y="-374.7" font-family="Helvetica,sans-Serif" font-size="14.00">value = [8, 2]</text>
<text text-anchor="start" x="579.25" y="-358.95" font-family="Helvetica,sans-Serif" font-size="14.00">class = Benign</text>
</g>
<!-- 11&#45;&gt;12 -->
<g id="edge12" class="edge">
<title>11&#45;&gt;12</title>
<path fill="none" stroke="black" d="M677.88,-475.05C671.99,-466.58 665.73,-457.59 659.65,-448.83"/>
<polygon fill="black" stroke="black" points="662.58,-446.92 654,-440.71 656.83,-450.92 662.58,-446.92"/>
</g>
<!-- 15 -->
<g id="node16" class="node">
<title>15</title>
<path fill="#399de5" stroke="black" d="M844.38,-431.38C844.38,-431.38 746.62,-431.38 746.62,-431.38 740.62,-431.38 734.62,-425.38 734.62,-419.38 734.62,-419.38 734.62,-372.38 734.62,-372.38 734.62,-366.38 740.62,-360.38 746.62,-360.38 746.62,-360.38 844.38,-360.38 844.38,-360.38 850.38,-360.38 856.38,-366.38 856.38,-372.38 856.38,-372.38 856.38,-419.38 856.38,-419.38 856.38,-425.38 850.38,-431.38 844.38,-431.38"/>
<text text-anchor="start" x="755.75" y="-414.07" font-family="Helvetica,sans-Serif" font-size="14.00">entropy = 0.0</text>
<text text-anchor="start" x="758.38" y="-398.32" font-family="Helvetica,sans-Serif" font-size="14.00">samples = 9</text>
<text text-anchor="start" x="756.5" y="-382.57" font-family="Helvetica,sans-Serif" font-size="14.00">value = [0, 9]</text>
<text text-anchor="start" x="742.62" y="-366.82" font-family="Helvetica,sans-Serif" font-size="14.00">class = Malignant</text>
</g>
<!-- 11&#45;&gt;15 -->
<g id="edge15" class="edge">
<title>11&#45;&gt;15</title>
<path fill="none" stroke="black" d="M738.53,-475.05C746.64,-463.91 755.41,-451.89 763.57,-440.68"/>
<polygon fill="black" stroke="black" points="766.31,-442.87 769.37,-432.73 760.65,-438.75 766.31,-442.87"/>
</g>
<!-- 13 -->
<g id="node14" class="node">
<title>13</title>
<path fill="#e58139" stroke="black" d="M648.75,-308.62C648.75,-308.62 568.25,-308.62 568.25,-308.62 562.25,-308.62 556.25,-302.62 556.25,-296.62 556.25,-296.62 556.25,-249.62 556.25,-249.62 556.25,-243.62 562.25,-237.62 568.25,-237.62 568.25,-237.62 648.75,-237.62 648.75,-237.62 654.75,-237.62 660.75,-243.62 660.75,-249.62 660.75,-249.62 660.75,-296.62 660.75,-296.62 660.75,-302.62 654.75,-308.62 648.75,-308.62"/>
<text text-anchor="start" x="568.75" y="-291.32" font-family="Helvetica,sans-Serif" font-size="14.00">entropy = 0.0</text>
<text text-anchor="start" x="571.38" y="-275.57" font-family="Helvetica,sans-Serif" font-size="14.00">samples = 8</text>
<text text-anchor="start" x="569.5" y="-259.82" font-family="Helvetica,sans-Serif" font-size="14.00">value = [8, 0]</text>
<text text-anchor="start" x="564.25" y="-244.07" font-family="Helvetica,sans-Serif" font-size="14.00">class = Benign</text>
</g>
<!-- 12&#45;&gt;13 -->
<g id="edge13" class="edge">
<title>12&#45;&gt;13</title>
<path fill="none" stroke="black" d="M618.21,-352.3C616.91,-341.83 615.51,-330.58 614.19,-319.96"/>
<polygon fill="black" stroke="black" points="617.69,-319.75 612.99,-310.26 610.75,-320.61 617.69,-319.75"/>
</g>
<!-- 14 -->
<g id="node15" class="node">
<title>14</title>
<path fill="#399de5" stroke="black" d="M788.38,-308.62C788.38,-308.62 690.62,-308.62 690.62,-308.62 684.62,-308.62 678.62,-302.62 678.62,-296.62 678.62,-296.62 678.62,-249.62 678.62,-249.62 678.62,-243.62 684.62,-237.62 690.62,-237.62 690.62,-237.62 788.38,-237.62 788.38,-237.62 794.38,-237.62 800.38,-243.62 800.38,-249.62 800.38,-249.62 800.38,-296.62 800.38,-296.62 800.38,-302.62 794.38,-308.62 788.38,-308.62"/>
<text text-anchor="start" x="699.75" y="-291.32" font-family="Helvetica,sans-Serif" font-size="14.00">entropy = 0.0</text>
<text text-anchor="start" x="702.38" y="-275.57" font-family="Helvetica,sans-Serif" font-size="14.00">samples = 2</text>
<text text-anchor="start" x="700.5" y="-259.82" font-family="Helvetica,sans-Serif" font-size="14.00">value = [0, 2]</text>
<text text-anchor="start" x="686.62" y="-244.07" font-family="Helvetica,sans-Serif" font-size="14.00">class = Malignant</text>
</g>
<!-- 12&#45;&gt;14 -->
<g id="edge14" class="edge">
<title>12&#45;&gt;14</title>
<path fill="none" stroke="black" d="M664.4,-352.3C675.42,-340.83 687.35,-328.41 698.38,-316.93"/>
<polygon fill="black" stroke="black" points="700.78,-319.48 705.19,-309.85 695.73,-314.63 700.78,-319.48"/>
</g>
<!-- 17 -->
<g id="node18" class="node">
<title>17</title>
<path fill="#ebf5fc" stroke="black" d="M1039.12,-562C1039.12,-562 909.88,-562 909.88,-562 903.88,-562 897.88,-556 897.88,-550 897.88,-550 897.88,-487.25 897.88,-487.25 897.88,-481.25 903.88,-475.25 909.88,-475.25 909.88,-475.25 1039.12,-475.25 1039.12,-475.25 1045.12,-475.25 1051.12,-481.25 1051.12,-487.25 1051.12,-487.25 1051.12,-550 1051.12,-550 1051.12,-556 1045.12,-562 1039.12,-562"/>
<text text-anchor="start" x="905.88" y="-544.7" font-family="Helvetica,sans-Serif" font-size="14.00">texture_worst ≤ 25.655</text>
<text text-anchor="start" x="927.25" y="-528.95" font-family="Helvetica,sans-Serif" font-size="14.00">entropy = 0.998</text>
<text text-anchor="start" x="933.62" y="-513.2" font-family="Helvetica,sans-Serif" font-size="14.00">samples = 55</text>
<text text-anchor="start" x="916.75" y="-497.45" font-family="Helvetica,sans-Serif" font-size="14.00">value = [26.0, 29.0]</text>
<text text-anchor="start" x="921.62" y="-481.7" font-family="Helvetica,sans-Serif" font-size="14.00">class = Malignant</text>
</g>
<!-- 16&#45;&gt;17 -->
<g id="edge17" class="edge">
<title>16&#45;&gt;17</title>
<path fill="none" stroke="black" d="M974.5,-597.8C974.5,-589.96 974.5,-581.67 974.5,-573.54"/>
<polygon fill="black" stroke="black" points="978,-573.73 974.5,-563.73 971,-573.73 978,-573.73"/>
</g>
<!-- 30 -->
<g id="node31" class="node">
<title>30</title>
<path fill="#399de5" stroke="black" d="M1179.38,-554.12C1179.38,-554.12 1081.62,-554.12 1081.62,-554.12 1075.62,-554.12 1069.62,-548.12 1069.62,-542.12 1069.62,-542.12 1069.62,-495.12 1069.62,-495.12 1069.62,-489.12 1075.62,-483.12 1081.62,-483.12 1081.62,-483.12 1179.38,-483.12 1179.38,-483.12 1185.38,-483.12 1191.38,-489.12 1191.38,-495.12 1191.38,-495.12 1191.38,-542.12 1191.38,-542.12 1191.38,-548.12 1185.38,-554.12 1179.38,-554.12"/>
<text text-anchor="start" x="1090.75" y="-536.83" font-family="Helvetica,sans-Serif" font-size="14.00">entropy = 0.0</text>
<text text-anchor="start" x="1085.88" y="-521.08" font-family="Helvetica,sans-Serif" font-size="14.00">samples = 147</text>
<text text-anchor="start" x="1084" y="-505.32" font-family="Helvetica,sans-Serif" font-size="14.00">value = [0, 147]</text>
<text text-anchor="start" x="1077.62" y="-489.57" font-family="Helvetica,sans-Serif" font-size="14.00">class = Malignant</text>
</g>
<!-- 16&#45;&gt;30 -->
<g id="edge30" class="edge">
<title>16&#45;&gt;30</title>
<path fill="none" stroke="black" d="M1029.5,-597.8C1044.83,-585.94 1061.45,-573.07 1076.71,-561.26"/>
<polygon fill="black" stroke="black" points="1078.55,-564.26 1084.31,-555.37 1074.26,-558.73 1078.55,-564.26"/>
</g>
<!-- 18 -->
<g id="node19" class="node">
<title>18</title>
<path fill="#ea9b62" stroke="black" d="M1047.75,-439.25C1047.75,-439.25 901.25,-439.25 901.25,-439.25 895.25,-439.25 889.25,-433.25 889.25,-427.25 889.25,-427.25 889.25,-364.5 889.25,-364.5 889.25,-358.5 895.25,-352.5 901.25,-352.5 901.25,-352.5 1047.75,-352.5 1047.75,-352.5 1053.75,-352.5 1059.75,-358.5 1059.75,-364.5 1059.75,-364.5 1059.75,-427.25 1059.75,-427.25 1059.75,-433.25 1053.75,-439.25 1047.75,-439.25"/>
<text text-anchor="start" x="897.25" y="-421.95" font-family="Helvetica,sans-Serif" font-size="14.00">smoothness_worst ≤ 0.14</text>
<text text-anchor="start" x="927.25" y="-406.2" font-family="Helvetica,sans-Serif" font-size="14.00">entropy = 0.663</text>
<text text-anchor="start" x="933.62" y="-390.45" font-family="Helvetica,sans-Serif" font-size="14.00">samples = 29</text>
<text text-anchor="start" x="931.75" y="-374.7" font-family="Helvetica,sans-Serif" font-size="14.00">value = [24, 5]</text>
<text text-anchor="start" x="930.25" y="-358.95" font-family="Helvetica,sans-Serif" font-size="14.00">class = Benign</text>
</g>
<!-- 17&#45;&gt;18 -->
<g id="edge18" class="edge">
<title>17&#45;&gt;18</title>
<path fill="none" stroke="black" d="M974.5,-475.05C974.5,-467.21 974.5,-458.92 974.5,-450.79"/>
<polygon fill="black" stroke="black" points="978,-450.98 974.5,-440.98 971,-450.98 978,-450.98"/>
</g>
<!-- 25 -->
<g id="node26" class="node">
<title>25</title>
<path fill="#49a5e7" stroke="black" d="M1289,-439.25C1289,-439.25 1120,-439.25 1120,-439.25 1114,-439.25 1108,-433.25 1108,-427.25 1108,-427.25 1108,-364.5 1108,-364.5 1108,-358.5 1114,-352.5 1120,-352.5 1120,-352.5 1289,-352.5 1289,-352.5 1295,-352.5 1301,-358.5 1301,-364.5 1301,-364.5 1301,-427.25 1301,-427.25 1301,-433.25 1295,-439.25 1289,-439.25"/>
<text text-anchor="start" x="1116" y="-421.95" font-family="Helvetica,sans-Serif" font-size="14.00">fractal_dimension_se ≤ 0.003</text>
<text text-anchor="start" x="1157.25" y="-406.2" font-family="Helvetica,sans-Serif" font-size="14.00">entropy = 0.391</text>
<text text-anchor="start" x="1163.62" y="-390.45" font-family="Helvetica,sans-Serif" font-size="14.00">samples = 26</text>
<text text-anchor="start" x="1161.75" y="-374.7" font-family="Helvetica,sans-Serif" font-size="14.00">value = [2, 24]</text>
<text text-anchor="start" x="1151.62" y="-358.95" font-family="Helvetica,sans-Serif" font-size="14.00">class = Malignant</text>
</g>
<!-- 17&#45;&gt;25 -->
<g id="edge25" class="edge">
<title>17&#45;&gt;25</title>
<path fill="none" stroke="black" d="M1051.41,-477.25C1071.16,-466.88 1092.6,-455.62 1113.01,-444.91"/>
<polygon fill="black" stroke="black" points="1114.37,-448.15 1121.6,-440.4 1111.11,-441.95 1114.37,-448.15"/>
</g>
<!-- 19 -->
<g id="node20" class="node">
<title>19</title>
<path fill="#e58139" stroke="black" d="M910.75,-308.62C910.75,-308.62 830.25,-308.62 830.25,-308.62 824.25,-308.62 818.25,-302.62 818.25,-296.62 818.25,-296.62 818.25,-249.62 818.25,-249.62 818.25,-243.62 824.25,-237.62 830.25,-237.62 830.25,-237.62 910.75,-237.62 910.75,-237.62 916.75,-237.62 922.75,-243.62 922.75,-249.62 922.75,-249.62 922.75,-296.62 922.75,-296.62 922.75,-302.62 916.75,-308.62 910.75,-308.62"/>
<text text-anchor="start" x="830.75" y="-291.32" font-family="Helvetica,sans-Serif" font-size="14.00">entropy = 0.0</text>
<text text-anchor="start" x="829.62" y="-275.57" font-family="Helvetica,sans-Serif" font-size="14.00">samples = 17</text>
<text text-anchor="start" x="827.75" y="-259.82" font-family="Helvetica,sans-Serif" font-size="14.00">value = [17, 0]</text>
<text text-anchor="start" x="826.25" y="-244.07" font-family="Helvetica,sans-Serif" font-size="14.00">class = Benign</text>
</g>
<!-- 18&#45;&gt;19 -->
<g id="edge19" class="edge">
<title>18&#45;&gt;19</title>
<path fill="none" stroke="black" d="M937.83,-352.3C928.05,-340.94 917.46,-328.65 907.65,-317.26"/>
<polygon fill="black" stroke="black" points="910.49,-315.19 901.31,-309.9 905.19,-319.76 910.49,-315.19"/>
</g>
<!-- 20 -->
<g id="node21" class="node">
<title>20</title>
<path fill="#f8dbc6" stroke="black" d="M1068,-316.5C1068,-316.5 953,-316.5 953,-316.5 947,-316.5 941,-310.5 941,-304.5 941,-304.5 941,-241.75 941,-241.75 941,-235.75 947,-229.75 953,-229.75 953,-229.75 1068,-229.75 1068,-229.75 1074,-229.75 1080,-235.75 1080,-241.75 1080,-241.75 1080,-304.5 1080,-304.5 1080,-310.5 1074,-316.5 1068,-316.5"/>
<text text-anchor="start" x="949" y="-299.2" font-family="Helvetica,sans-Serif" font-size="14.00">area_worst ≤ 708.15</text>
<text text-anchor="start" x="967" y="-283.45" font-family="Helvetica,sans-Serif" font-size="14.00">entropy = 0.98</text>
<text text-anchor="start" x="969.62" y="-267.7" font-family="Helvetica,sans-Serif" font-size="14.00">samples = 12</text>
<text text-anchor="start" x="971.5" y="-251.95" font-family="Helvetica,sans-Serif" font-size="14.00">value = [7, 5]</text>
<text text-anchor="start" x="966.25" y="-236.2" font-family="Helvetica,sans-Serif" font-size="14.00">class = Benign</text>
</g>
<!-- 18&#45;&gt;20 -->
<g id="edge20" class="edge">
<title>18&#45;&gt;20</title>
<path fill="none" stroke="black" d="M987.19,-352.3C989.59,-344.28 992.12,-335.79 994.59,-327.48"/>
<polygon fill="black" stroke="black" points="997.87,-328.75 997.37,-318.17 991.16,-326.75 997.87,-328.75"/>
</g>
<!-- 21 -->
<g id="node22" class="node">
<title>21</title>
<path fill="#e58139" stroke="black" d="M931.75,-185.88C931.75,-185.88 851.25,-185.88 851.25,-185.88 845.25,-185.88 839.25,-179.88 839.25,-173.88 839.25,-173.88 839.25,-126.88 839.25,-126.88 839.25,-120.88 845.25,-114.88 851.25,-114.88 851.25,-114.88 931.75,-114.88 931.75,-114.88 937.75,-114.88 943.75,-120.88 943.75,-126.88 943.75,-126.88 943.75,-173.88 943.75,-173.88 943.75,-179.88 937.75,-185.88 931.75,-185.88"/>
<text text-anchor="start" x="851.75" y="-168.57" font-family="Helvetica,sans-Serif" font-size="14.00">entropy = 0.0</text>
<text text-anchor="start" x="854.38" y="-152.82" font-family="Helvetica,sans-Serif" font-size="14.00">samples = 6</text>
<text text-anchor="start" x="852.5" y="-137.07" font-family="Helvetica,sans-Serif" font-size="14.00">value = [6, 0]</text>
<text text-anchor="start" x="847.25" y="-121.33" font-family="Helvetica,sans-Serif" font-size="14.00">class = Benign</text>
</g>
<!-- 20&#45;&gt;21 -->
<g id="edge21" class="edge">
<title>20&#45;&gt;21</title>
<path fill="none" stroke="black" d="M968.55,-229.55C957.24,-218.08 945,-205.66 933.68,-194.18"/>
<polygon fill="black" stroke="black" points="936.2,-191.75 926.69,-187.08 931.22,-196.66 936.2,-191.75"/>
</g>
<!-- 22 -->
<g id="node23" class="node">
<title>22</title>
<path fill="#61b1ea" stroke="black" d="M1077.38,-193.75C1077.38,-193.75 973.62,-193.75 973.62,-193.75 967.62,-193.75 961.62,-187.75 961.62,-181.75 961.62,-181.75 961.62,-119 961.62,-119 961.62,-113 967.62,-107 973.62,-107 973.62,-107 1077.38,-107 1077.38,-107 1083.38,-107 1089.38,-113 1089.38,-119 1089.38,-119 1089.38,-181.75 1089.38,-181.75 1089.38,-187.75 1083.38,-193.75 1077.38,-193.75"/>
<text text-anchor="start" x="969.62" y="-176.45" font-family="Helvetica,sans-Serif" font-size="14.00">texture_se ≤ 0.504</text>
<text text-anchor="start" x="982" y="-160.7" font-family="Helvetica,sans-Serif" font-size="14.00">entropy = 0.65</text>
<text text-anchor="start" x="988.38" y="-144.95" font-family="Helvetica,sans-Serif" font-size="14.00">samples = 6</text>
<text text-anchor="start" x="986.5" y="-129.2" font-family="Helvetica,sans-Serif" font-size="14.00">value = [1, 5]</text>
<text text-anchor="start" x="972.62" y="-113.45" font-family="Helvetica,sans-Serif" font-size="14.00">class = Malignant</text>
</g>
<!-- 20&#45;&gt;22 -->
<g id="edge22" class="edge">
<title>20&#45;&gt;22</title>
<path fill="none" stroke="black" d="M1015.79,-229.55C1016.76,-221.71 1017.79,-213.42 1018.8,-205.29"/>
<polygon fill="black" stroke="black" points="1022.26,-205.83 1020.02,-195.47 1015.32,-204.96 1022.26,-205.83"/>
</g>
<!-- 23 -->
<g id="node24" class="node">
<title>23</title>
<path fill="#e58139" stroke="black" d="M999.75,-71C999.75,-71 919.25,-71 919.25,-71 913.25,-71 907.25,-65 907.25,-59 907.25,-59 907.25,-12 907.25,-12 907.25,-6 913.25,0 919.25,0 919.25,0 999.75,0 999.75,0 1005.75,0 1011.75,-6 1011.75,-12 1011.75,-12 1011.75,-59 1011.75,-59 1011.75,-65 1005.75,-71 999.75,-71"/>
<text text-anchor="start" x="919.75" y="-53.7" font-family="Helvetica,sans-Serif" font-size="14.00">entropy = 0.0</text>
<text text-anchor="start" x="922.38" y="-37.95" font-family="Helvetica,sans-Serif" font-size="14.00">samples = 1</text>
<text text-anchor="start" x="920.5" y="-22.2" font-family="Helvetica,sans-Serif" font-size="14.00">value = [1, 0]</text>
<text text-anchor="start" x="915.25" y="-6.45" font-family="Helvetica,sans-Serif" font-size="14.00">class = Benign</text>
</g>
<!-- 22&#45;&gt;23 -->
<g id="edge23" class="edge">
<title>22&#45;&gt;23</title>
<path fill="none" stroke="black" d="M1000.55,-106.7C995.62,-98.27 990.43,-89.39 985.46,-80.9"/>
<polygon fill="black" stroke="black" points="988.6,-79.33 980.53,-72.46 982.56,-82.86 988.6,-79.33"/>
</g>
<!-- 24 -->
<g id="node25" class="node">
<title>24</title>
<path fill="#399de5" stroke="black" d="M1139.38,-71C1139.38,-71 1041.62,-71 1041.62,-71 1035.62,-71 1029.62,-65 1029.62,-59 1029.62,-59 1029.62,-12 1029.62,-12 1029.62,-6 1035.62,0 1041.62,0 1041.62,0 1139.38,0 1139.38,0 1145.38,0 1151.38,-6 1151.38,-12 1151.38,-12 1151.38,-59 1151.38,-59 1151.38,-65 1145.38,-71 1139.38,-71"/>
<text text-anchor="start" x="1050.75" y="-53.7" font-family="Helvetica,sans-Serif" font-size="14.00">entropy = 0.0</text>
<text text-anchor="start" x="1053.38" y="-37.95" font-family="Helvetica,sans-Serif" font-size="14.00">samples = 5</text>
<text text-anchor="start" x="1051.5" y="-22.2" font-family="Helvetica,sans-Serif" font-size="14.00">value = [0, 5]</text>
<text text-anchor="start" x="1037.62" y="-6.45" font-family="Helvetica,sans-Serif" font-size="14.00">class = Malignant</text>
</g>
<!-- 22&#45;&gt;24 -->
<g id="edge24" class="edge">
<title>22&#45;&gt;24</title>
<path fill="none" stroke="black" d="M1050.07,-106.7C1054.93,-98.27 1060.04,-89.39 1064.93,-80.9"/>
<polygon fill="black" stroke="black" points="1067.83,-82.88 1069.79,-72.47 1061.76,-79.39 1067.83,-82.88"/>
</g>
<!-- 26 -->
<g id="node27" class="node">
<title>26</title>
<path fill="#ffffff" stroke="black" d="M1299.12,-316.5C1299.12,-316.5 1109.88,-316.5 1109.88,-316.5 1103.88,-316.5 1097.88,-310.5 1097.88,-304.5 1097.88,-304.5 1097.88,-241.75 1097.88,-241.75 1097.88,-235.75 1103.88,-229.75 1109.88,-229.75 1109.88,-229.75 1299.12,-229.75 1299.12,-229.75 1305.12,-229.75 1311.12,-235.75 1311.12,-241.75 1311.12,-241.75 1311.12,-304.5 1311.12,-304.5 1311.12,-310.5 1305.12,-316.5 1299.12,-316.5"/>
<text text-anchor="start" x="1105.88" y="-299.2" font-family="Helvetica,sans-Serif" font-size="14.00">fractal_dimension_mean ≤ 0.061</text>
<text text-anchor="start" x="1164.75" y="-283.45" font-family="Helvetica,sans-Serif" font-size="14.00">entropy = 1.0</text>
<text text-anchor="start" x="1167.38" y="-267.7" font-family="Helvetica,sans-Serif" font-size="14.00">samples = 4</text>
<text text-anchor="start" x="1165.5" y="-251.95" font-family="Helvetica,sans-Serif" font-size="14.00">value = [2, 2]</text>
<text text-anchor="start" x="1160.25" y="-236.2" font-family="Helvetica,sans-Serif" font-size="14.00">class = Benign</text>
</g>
<!-- 25&#45;&gt;26 -->
<g id="edge26" class="edge">
<title>25&#45;&gt;26</title>
<path fill="none" stroke="black" d="M1204.5,-352.3C1204.5,-344.46 1204.5,-336.17 1204.5,-328.04"/>
<polygon fill="black" stroke="black" points="1208,-328.23 1204.5,-318.23 1201,-328.23 1208,-328.23"/>
</g>
<!-- 29 -->
<g id="node30" class="node">
<title>29</title>
<path fill="#399de5" stroke="black" d="M1439.38,-308.62C1439.38,-308.62 1341.62,-308.62 1341.62,-308.62 1335.62,-308.62 1329.62,-302.62 1329.62,-296.62 1329.62,-296.62 1329.62,-249.62 1329.62,-249.62 1329.62,-243.62 1335.62,-237.62 1341.62,-237.62 1341.62,-237.62 1439.38,-237.62 1439.38,-237.62 1445.38,-237.62 1451.38,-243.62 1451.38,-249.62 1451.38,-249.62 1451.38,-296.62 1451.38,-296.62 1451.38,-302.62 1445.38,-308.62 1439.38,-308.62"/>
<text text-anchor="start" x="1350.75" y="-291.32" font-family="Helvetica,sans-Serif" font-size="14.00">entropy = 0.0</text>
<text text-anchor="start" x="1349.62" y="-275.57" font-family="Helvetica,sans-Serif" font-size="14.00">samples = 22</text>
<text text-anchor="start" x="1347.75" y="-259.82" font-family="Helvetica,sans-Serif" font-size="14.00">value = [0, 22]</text>
<text text-anchor="start" x="1337.62" y="-244.07" font-family="Helvetica,sans-Serif" font-size="14.00">class = Malignant</text>
</g>
<!-- 25&#45;&gt;29 -->
<g id="edge29" class="edge">
<title>25&#45;&gt;29</title>
<path fill="none" stroke="black" d="M1270.34,-352.13C1288.85,-340.12 1308.93,-327.08 1327.29,-315.16"/>
<polygon fill="black" stroke="black" points="1328.96,-318.25 1335.44,-309.87 1325.15,-312.38 1328.96,-318.25"/>
</g>
<!-- 27 -->
<g id="node28" class="node">
<title>27</title>
<path fill="#e58139" stroke="black" d="M1229.75,-185.88C1229.75,-185.88 1149.25,-185.88 1149.25,-185.88 1143.25,-185.88 1137.25,-179.88 1137.25,-173.88 1137.25,-173.88 1137.25,-126.88 1137.25,-126.88 1137.25,-120.88 1143.25,-114.88 1149.25,-114.88 1149.25,-114.88 1229.75,-114.88 1229.75,-114.88 1235.75,-114.88 1241.75,-120.88 1241.75,-126.88 1241.75,-126.88 1241.75,-173.88 1241.75,-173.88 1241.75,-179.88 1235.75,-185.88 1229.75,-185.88"/>
<text text-anchor="start" x="1149.75" y="-168.57" font-family="Helvetica,sans-Serif" font-size="14.00">entropy = 0.0</text>
<text text-anchor="start" x="1152.38" y="-152.82" font-family="Helvetica,sans-Serif" font-size="14.00">samples = 2</text>
<text text-anchor="start" x="1150.5" y="-137.07" font-family="Helvetica,sans-Serif" font-size="14.00">value = [2, 0]</text>
<text text-anchor="start" x="1145.25" y="-121.33" font-family="Helvetica,sans-Serif" font-size="14.00">class = Benign</text>
</g>
<!-- 26&#45;&gt;27 -->
<g id="edge27" class="edge">
<title>26&#45;&gt;27</title>
<path fill="none" stroke="black" d="M1199.21,-229.55C1197.91,-219.08 1196.51,-207.83 1195.19,-197.21"/>
<polygon fill="black" stroke="black" points="1198.69,-197 1193.99,-187.51 1191.75,-197.86 1198.69,-197"/>
</g>
<!-- 28 -->
<g id="node29" class="node">
<title>28</title>
<path fill="#399de5" stroke="black" d="M1369.38,-185.88C1369.38,-185.88 1271.62,-185.88 1271.62,-185.88 1265.62,-185.88 1259.62,-179.88 1259.62,-173.88 1259.62,-173.88 1259.62,-126.88 1259.62,-126.88 1259.62,-120.88 1265.62,-114.88 1271.62,-114.88 1271.62,-114.88 1369.38,-114.88 1369.38,-114.88 1375.38,-114.88 1381.38,-120.88 1381.38,-126.88 1381.38,-126.88 1381.38,-173.88 1381.38,-173.88 1381.38,-179.88 1375.38,-185.88 1369.38,-185.88"/>
<text text-anchor="start" x="1280.75" y="-168.57" font-family="Helvetica,sans-Serif" font-size="14.00">entropy = 0.0</text>
<text text-anchor="start" x="1283.38" y="-152.82" font-family="Helvetica,sans-Serif" font-size="14.00">samples = 2</text>
<text text-anchor="start" x="1281.5" y="-137.07" font-family="Helvetica,sans-Serif" font-size="14.00">value = [0, 2]</text>
<text text-anchor="start" x="1267.62" y="-121.33" font-family="Helvetica,sans-Serif" font-size="14.00">class = Malignant</text>
</g>
<!-- 26&#45;&gt;28 -->
<g id="edge28" class="edge">
<title>26&#45;&gt;28</title>
<path fill="none" stroke="black" d="M1245.4,-229.55C1256.42,-218.08 1268.35,-205.66 1279.38,-194.18"/>
<polygon fill="black" stroke="black" points="1281.78,-196.73 1286.19,-187.1 1276.73,-191.88 1281.78,-196.73"/>
</g>
</g>
</svg>
